<?xml version="1.0" encoding="utf-8"?>
<!-- Generator: Adobe Illustrator 16.0.0, SVG Export Plug-In . SVG Version: 6.00 Build 0)  -->
<!DOCTYPE svg PUBLIC "-//W3C//DTD SVG 1.1//EN" "http://www.w3.org/Graphics/SVG/1.1/DTD/svg11.dtd">
<svg version="1.1" id="Layer_1" xmlns="http://www.w3.org/2000/svg" xmlns:xlink="http://www.w3.org/1999/xlink" x="0px" y="0px"
	 width="512px" height="512px" viewBox="0 0 512 512" enable-background="new 0 0 512 512" xml:space="preserve">
<g>
	<g>
		<linearGradient id="SVGID_1_" gradientUnits="userSpaceOnUse" x1="99.2378" y1="99.8188" x2="415.3116" y2="415.8927">
			<stop  offset="0" style="stop-color:#00C9FF"/>
			<stop  offset="1" style="stop-color:#0091FF"/>
		</linearGradient>
		<path fill="url(#SVGID_1_)" d="M479.873,255.455c0,124.261-100.733,225-225,225s-225-100.739-225-225
			c0-124.267,100.733-225,225-225S479.873,131.188,479.873,255.455z"/>
		<linearGradient id="SVGID_2_" gradientUnits="userSpaceOnUse" x1="148.9268" y1="71.9507" x2="360.8198" y2="438.9603">
			<stop  offset="0" style="stop-color:#0091FF"/>
			<stop  offset="0.4483" style="stop-color:#0093FF"/>
			<stop  offset="1" style="stop-color:#00C9FF"/>
		</linearGradient>
		<circle fill="url(#SVGID_2_)" cx="254.873" cy="255.455" r="211.858"/>
	</g>
</g>
<g>
	<path fill="#FFFFFF" d="M363.607,184.654h-38.031c-7.256-21.137-16.345-37.677-23.154-48.411
		C327.514,145.639,348.877,162.735,363.607,184.654z M263.901,128.365c6.938,0.318,13.734,1.204,20.342,2.598
		c3.546,4.609,17.854,24.175,28.674,53.692h-49.016V128.365z M263.901,196.543h52.995c1.314,4.346,2.524,8.851,3.6,13.521h-56.595
		V196.543z M251.994,128.365v56.29h-50.801c10.483-28.625,24.248-47.879,28.313-53.221
		C236.786,129.758,244.305,128.725,251.994,128.365z M251.994,196.543v13.521h-58.38c1.082-4.67,2.292-9.175,3.606-13.521H251.994z
		 M211.114,137.154c-6.748,10.746-15.538,26.956-22.585,47.5h-36.241C166.554,163.426,187.037,146.72,211.114,137.154z
		 M145.203,196.543H184.8c-1.235,4.358-2.378,8.863-3.393,13.521h-1.968c-19.003,0-34.755,17.194-37.274,39.438h-11.308
		C131.737,230.467,136.829,212.521,145.203,196.543z M142.104,261.408c2.298,22.525,18.16,40.031,37.335,40.031h2.201
		c0.984,4.309,2.103,8.612,3.355,12.897h-39.811c-8.361-15.96-13.447-33.912-14.327-52.929H142.104z M201.487,326.237h50.507v56.309
		c-7.622-0.354-15.073-1.382-22.292-3.02C217.734,362.154,208.29,344.33,201.487,326.237z M251.994,314.337h-54.578
		c-1.333-4.285-2.506-8.589-3.545-12.897h58.124V314.337z M152.281,326.237h36.559c5.734,16.204,13.46,32.194,23.105,47.836
		C187.514,364.563,166.713,347.711,152.281,326.237z M295.527,361.995c-3.509,6.052-7.329,12.048-11.442,18.002
		c-6.626,1.387-13.362,2.236-20.184,2.555v-56.314h17.035v-11.9h-17.035v-12.897h10.844c-3.081-5.947-0.52-11.901-0.52-11.901
		h-94.787c-14.193,0-25.733-15.152-25.733-33.79c0-18.631,11.541-33.79,25.733-33.79h156.229c14.187,0,25.728,15.159,25.728,33.79
		c0,18.637-11.541,33.79-25.728,33.79h-22.231l30.593,10.765c15.257-4.225,27.018-19.744,28.967-38.895h12.036
		c-0.776,17.128-4.89,33.57-12.292,48.985c-0.367,0.771-0.752,1.541-1.138,2.311l10.624,5.361c0.623-1.229,1.216-2.464,1.797-3.698
		c8.668-18.479,13.057-38.276,13.057-58.912c0-76.724-62.415-139.132-139.133-139.132c-76.717,0-139.132,62.408-139.132,139.132
		c0,76.718,62.415,139.132,139.132,139.132c15.838,0,31.314-2.628,46.088-7.817 M372.936,249.501
		c-2.519-22.243-18.271-39.438-37.268-39.438h-2.977c-1.016-4.652-2.146-9.169-3.375-13.521h41.382
		c8.374,15.978,13.46,33.924,14.34,52.958H372.936z"/>
	<polygon fill="#FFFFFF" points="286.884,294.697 318.596,387.051 334.849,362.479 364.176,391.408 383.993,371.194 355.454,341.47 
		380.43,327.601 	"/>
	<g>
		<path fill="#FFFFFF" d="M186.358,238.328l2.842,14.578c0.728,3.716,1.455,7.646,2.042,11.729h0.147
			c0.727-4.083,1.748-8.166,2.616-11.662l3.796-14.646h8.741l3.576,14.211c0.947,4.01,1.895,8.013,2.622,12.096h0.147
			c0.507-4.083,1.229-8.086,2.035-12.17l3.068-14.138h10.85l-10.929,35.636h-10.422l-3.35-12.537
			c-0.874-3.49-1.528-6.699-2.262-11.076h-0.146c-0.648,4.444-1.382,7.72-2.323,11.076l-3.576,12.537h-10.422l-10.342-35.636
			H186.358z"/>
		<path fill="#FFFFFF" d="M243.052,238.328l2.848,14.578c0.728,3.716,1.455,7.646,2.036,11.729h0.146
			c0.733-4.083,1.748-8.166,2.622-11.662l3.79-14.646h8.747l3.569,14.211c0.947,4.01,1.889,8.013,2.622,12.096h0.147
			c0.513-4.083,1.234-8.086,2.035-12.17l3.068-14.138h10.85l-10.929,35.636h-10.422l-3.35-12.537
			c-0.874-3.49-1.528-6.699-2.262-11.076h-0.141c-0.654,4.444-1.388,7.72-2.335,11.076l-3.57,12.537H242.11l-10.349-35.636H243.052z
			"/>
		<path fill="#FFFFFF" d="M299.751,238.328l2.836,14.578c0.733,3.716,1.461,7.646,2.042,11.729h0.152
			c0.728-4.083,1.748-8.166,2.616-11.662l3.796-14.646h8.741l3.569,14.211c0.947,4.01,1.895,8.013,2.622,12.096h0.153
			c0.507-4.083,1.234-8.086,2.035-12.17l3.063-14.138h10.85l-10.923,35.636h-10.429l-3.35-12.537
			c-0.867-3.49-1.527-6.699-2.255-11.076h-0.146c-0.654,4.444-1.382,7.72-2.329,11.076l-3.576,12.537h-10.415l-10.349-35.636
			H299.751z"/>
	</g>
</g>
</svg>
