<?xml version="1.0" encoding="utf-8"?>
<!-- Generator: Adobe Illustrator 16.0.0, SVG Export Plug-In . SVG Version: 6.00 Build 0)  -->
<!DOCTYPE svg PUBLIC "-//W3C//DTD SVG 1.1//EN" "http://www.w3.org/Graphics/SVG/1.1/DTD/svg11.dtd">
<svg version="1.1" id="Layer_1" xmlns="http://www.w3.org/2000/svg" xmlns:xlink="http://www.w3.org/1999/xlink" x="0px" y="0px"
	 width="512px" height="512px" viewBox="0 0 512 512" enable-background="new 0 0 512 512" xml:space="preserve">
<g>
	<g>
		<linearGradient id="SVGID_1_" gradientUnits="userSpaceOnUse" x1="100.1909" y1="99.8188" x2="416.2648" y2="415.8927">
			<stop  offset="0" style="stop-color:#00C9FF"/>
			<stop  offset="1" style="stop-color:#0091FF"/>
		</linearGradient>
		<path fill="url(#SVGID_1_)" d="M480.826,255.455c0,124.261-100.733,225-225,225s-225-100.739-225-225
			c0-124.267,100.733-225,225-225S480.826,131.188,480.826,255.455z"/>
		<linearGradient id="SVGID_2_" gradientUnits="userSpaceOnUse" x1="149.8799" y1="71.9502" x2="361.7729" y2="438.9598">
			<stop  offset="0" style="stop-color:#0091FF"/>
			<stop  offset="0.4483" style="stop-color:#0093FF"/>
			<stop  offset="1" style="stop-color:#00C9FF"/>
		</linearGradient>
		<circle fill="url(#SVGID_2_)" cx="255.826" cy="255.455" r="211.858"/>
	</g>
</g>
<g>
	<path fill-rule="evenodd" clip-rule="evenodd" fill="#FFFFFF" d="M241.266,292.1c-0.996,0.299-1.222,0.428-1.436,0.422
		c-17.824-0.948-24.364,4.67-23.026,24.944c0.049,0.917,0.061,1.84-0.024,2.745c-1.528,14.822,0.831,28.631,10.275,40.696
		c0.776,0.99,1.015,2.402,1.706,4.145c-28.063,0-55.489,0-83.533,0c0-54.31,0-108.68,0-163.851c16.638,0,33.087,0.367,49.511-0.134
		c10.764-0.318,19.499-0.544,24.358,12.671c2.549,6.938,11.791,11.388,17.904,17.084c1.644,1.528,4.059,3.497,4.083,5.306
		C241.382,254.667,241.266,273.218,241.266,292.1z"/>
	<path fill-rule="evenodd" clip-rule="evenodd" fill="#FFFFFF" d="M265.209,311.659c10.079,1.853,10.189,1.755,10.122-7.311
		c-0.019-5.214,0-10.415,0-15.953c4.896,0,9.138,0,14.059,0c0,7.891,0,15.574,0,23.716c3.466,0,6.259,0,9.811,0
		c0-7.958,0-15.642,0-23.686c5,0,9.267,0,14.34,0c0,7.769,0,15.458,0,23.668c3.606,0,6.399,0,10.037,0c0-7.996,0-15.667,0-23.979
		c3.264,0,5.721,0.055,8.166-0.013c4.383-0.116,6.106,2.103,6.106,6.357c-0.062,20.855,1.302,41.827-0.593,62.506
		c-0.966,10.654-7.592,20.819-11.987,31.076c-0.439,1.045-3.037,1.65-4.651,1.656c-20.855,0.109-41.711,0.184-62.561-0.098
		c-2.115-0.031-5.067-1.956-6.144-3.852c-7.836-13.716-15.55-27.512-22.726-41.589c-1.84-3.618-1.95-8.307-2.176-12.536
		c-0.354-6.388-0.116-12.83-0.11-19.242c0.012-9.157,0.52-9.652,9.792-9.438c1.326,0.036,2.641,0.22,4.505,0.379
		c0,6.191,0,12.078,0,18.441c3.392,0,6.192,0,9.725,0c0-10.007,0-19.811,0-29.597c0-19.707,0.086-39.414-0.085-59.126
		c-0.055-5.012,1.186-7.671,6.839-7.726c5.679-0.061,7.629,2.017,7.574,7.689c-0.215,22.916-0.067,45.838-0.043,68.747
		C265.209,304.93,265.209,308.114,265.209,311.659z M313.143,346.207c0.795,11.607,0.85,22.543-9.004,30.941
		c3.411,2.341,5.924,4.053,8.057,5.507c11.332-10.385,12.708-22.763,9.981-36.448C319.305,346.207,316.835,346.207,313.143,346.207z
		"/>
	<path fill-rule="evenodd" clip-rule="evenodd" fill="#FFFFFF" d="M275.355,278.486c0-15.525-0.11-29.969,0.141-44.4
		c0.03-1.852,1.473-4.334,3.038-5.41c8.759-6.076,15.195-13.796,18.991-23.814c0.557-1.485,2.629-3.429,4.004-3.447
		c21.497-0.214,42.988-0.153,64.896-0.153c0,54.884,0,109.096,0,163.729c-6.394,0-12.457,0-18.667,0
		c0-22.634,0.086-45.024-0.019-67.408c-0.085-14.908-4.438-19.077-19.401-19.096C310.954,278.463,293.577,278.486,275.355,278.486z"
		/>
	<path fill-rule="evenodd" clip-rule="evenodd" fill="#FFFFFF" d="M272.177,220.394c-10.544-7.194-17.103-6.907-27.854,0.141
		c-1.528,0.99-5.116,0.256-6.992-0.905c-12.623-7.873-18.148-23.136-14.01-37.714c4.046-14.272,17.225-24.297,32.066-24.395
		c14.909-0.098,27.952,9.444,32.531,23.796C292.672,196.201,286.505,211.775,272.177,220.394z M265.832,172.319
		c-6.87,7.726-13.062,14.682-19.217,21.607c-2.842-2.121-4.963-3.692-6.925-5.159c-2.445,2.017-4.499,3.716-5.611,4.633
		c4.224,5.171,7.916,9.67,11.613,14.187c9.456-9.493,18.258-18.337,27.476-27.598C271.284,178.028,269.311,175.962,265.832,172.319z
		"/>
	<path fill-rule="evenodd" clip-rule="evenodd" fill="#FFFFFF" d="M146.712,190.975c4.273-11.125,8.154-21.528,12.396-31.785
		c0.434-1.033,3.081-1.626,4.701-1.638c20.807-0.104,41.614-0.073,63.863-0.073c-9.633,9.768-15.397,20.312-15.568,33.496
		C190.325,190.975,169.157,190.975,146.712,190.975z"/>
	<path fill-rule="evenodd" clip-rule="evenodd" fill="#FFFFFF" d="M364.39,191.03c-22.164,0-43.117,0-64.908,0
		c-0.471-12.836-5.557-23.71-16.052-33.564c22.708,0,43.668-0.067,64.609,0.129c1.553,0.012,3.881,1.583,4.475,3.007
		C356.529,170.284,360.178,180.119,364.39,191.03z"/>
	<path fill-rule="evenodd" clip-rule="evenodd" fill="#FFFFFF" d="M164.384,147.448c0.66-7.94,4.59-9.542,11.473-9.511
		c53.576,0.3,107.158,0.3,160.733-0.012c7.152-0.043,9.878,2.726,10.471,9.523C286.145,147.448,225.374,147.448,164.384,147.448z"/>
	<path fill-rule="evenodd" clip-rule="evenodd" fill="#FFFFFF" d="M322.966,399.844c0,3.038,0,5.69,0,8.869
		c-22.103,0-44.188,0-66.645,0c0-2.757,0-5.636,0-8.869C278.394,399.844,300.472,399.844,322.966,399.844z"/>
</g>
</svg>
