<?xml version="1.0" encoding="utf-8"?>
<!-- Generator: Adobe Illustrator 16.0.0, SVG Export Plug-In . SVG Version: 6.00 Build 0)  -->
<!DOCTYPE svg PUBLIC "-//W3C//DTD SVG 1.1//EN" "http://www.w3.org/Graphics/SVG/1.1/DTD/svg11.dtd">
<svg version="1.1" id="Layer_1" xmlns="http://www.w3.org/2000/svg" xmlns:xlink="http://www.w3.org/1999/xlink" x="0px" y="0px"
	 width="512px" height="512px" viewBox="0 0 512 512" enable-background="new 0 0 512 512" xml:space="preserve">
<g>
	<g>
		<linearGradient id="SVGID_1_" gradientUnits="userSpaceOnUse" x1="101.2227" y1="99.9453" x2="417.2958" y2="416.0185">
			<stop  offset="0" style="stop-color:#FF7601"/>
			<stop  offset="1" style="stop-color:#FF0000"/>
		</linearGradient>
		<path fill="url(#SVGID_1_)" d="M481.857,255.581c0,124.261-100.733,225-225,225s-225-100.739-225-225
			c0-124.264,100.733-225,225-225S481.857,131.317,481.857,255.581z"/>
		<linearGradient id="SVGID_2_" gradientUnits="userSpaceOnUse" x1="150.9102" y1="72.0776" x2="362.8057" y2="439.0914">
			<stop  offset="0" style="stop-color:#FF0000"/>
			<stop  offset="1" style="stop-color:#FF6301"/>
		</linearGradient>
		<path fill="url(#SVGID_2_)" d="M468.716,255.581c0,117.011-94.854,211.864-211.858,211.864S44.999,372.592,44.999,255.581
			c0-117.005,94.854-211.858,211.858-211.858S468.716,138.576,468.716,255.581z"/>
	</g>
</g>
<g>
	<path fill-rule="evenodd" clip-rule="evenodd" fill="#FFFFFF" d="M261.179,153.05c-36.381,0-72.549,0-109.089,0
		c-0.214,1.852-0.544,3.478-0.55,5.123c-0.031,19.297,0.116,38.606-0.104,57.891c-0.061,4.743,1.418,6.216,6.167,6.161
		c19.511-0.226,39.028-0.33,58.527,0.128c3.747,0.086,8.606,1.938,10.88,4.676c5.061,6.106-0.006,14.75-8.576,14.988
		c-12.286,0.324-24.591,0.128-36.895,0.134c-12.72,0.006-25.458,0.092-38.166-0.037c-8.411-0.098-11.98-3.643-12.011-12.127
		c-0.098-28.423-0.098-56.846,0-85.266c0.031-8.386,3.71-12.234,11.999-12.25c42.2-0.095,84.407-0.095,126.602,0.009
		c7.738,0.024,11.32,3.594,11.778,11.201c0.245,4.224,0.251,8.5-0.085,12.711c-0.557,6.62-4.242,10.196-9.951,10.196
		c-5.41,0-9.035-3.405-10.043-9.493C261.46,155.887,261.362,154.64,261.179,153.05z"/>
	<path fill-rule="evenodd" clip-rule="evenodd" fill="#FFFFFF" d="M177.835,197.054c2.738,1.259,4.768,2.512,6.968,3.129
		c3.411,0.96,6.938,1.926,10.428,1.975c1.534,0.012,3.105-2.237,4.664-3.448c-1.192-1.503-2.078-3.63-3.619-4.352
		c-3.619-1.699-7.585-2.659-11.345-4.04c-5.819-2.133-9.859-5.789-10.031-12.463c-0.171-6.418,2.94-10.648,8.558-13.637
		c1.828-0.978,2.714-3.618,4.193-5.36c1.143-1.351,2.408-3.319,3.826-3.521c1.375-0.208,4.303,1.412,4.364,2.384
		c0.349,5.599,5.019,5.868,8.417,8.038c2.06,1.345,3.068,4.315,4.554,6.552c-2.372,1.009-4.805,2.928-7.109,2.788
		c-3.472-0.238-6.797-2.433-10.281-2.732c-1.742-0.159-3.686,2.036-5.525,3.154c1.253,1.663,2.151,4.028,3.826,4.847
		c3.576,1.748,7.567,2.641,11.351,3.998c5.947,2.121,9.725,6.173,9.737,12.671c0.018,6.559-3.301,11.021-9.358,13.814
		c-2.054,0.954-3.301,3.527-5.037,5.214c-1.4,1.363-3.038,3.527-4.499,3.472c-1.485-0.073-4.016-2.329-4.107-3.759
		c-0.238-3.838-2.543-4.7-5.434-5.825c-2.714-1.039-5.464-2.463-7.567-4.389c-1.057-0.959-1.381-3.649-0.837-5.128
		C174.492,198.992,176.527,198.111,177.835,197.054z"/>
</g>
<g>
	<path fill-rule="evenodd" clip-rule="evenodd" fill="#FFFFFF" d="M322.67,297.806c-22.151,0-44.297,0.153-66.46-0.055
		c-13.704-0.122-22.451-9.364-22.451-23.057c0-28.337,0.465-56.668-0.256-84.975c-0.245-9.407,10.868-21.131,19.639-21.21
		c9.083-0.073,18.154-0.538,27.231-0.556c32.14-0.08,64.285-0.073,96.418-0.024c4.713,0,9.444,0.214,14.132,0.654
		c12.83,1.186,20.808,10.178,20.808,23.215c0,27.788,0,55.568,0,83.337c0,12.714-9.206,22.438-22.061,22.562
		c-22.329,0.238-44.663,0.073-66.999,0.073C322.67,297.775,322.67,297.794,322.67,297.806z M399.663,215.948
		c-2.427,0-4.205,0-5.978,0c-37.415,0-74.842,0-112.25,0.024c-9.811,0.006-19.621,0.134-29.432,0.171
		c-2.817,0.006-4.853,0.416-4.811,4.132c0.263,17.977,0.171,35.959,0.532,53.931c0.134,7.097,3.166,9.56,10.312,9.578
		c21.986,0.012,43.967,0.042,65.941-0.019c22.164-0.049,44.315-0.165,66.485-0.336c5.538-0.043,9.113-2.959,9.15-7.818
		C399.749,256.015,399.663,236.394,399.663,215.948z M399.455,193.863c0.178-8.02-2.011-10.617-9.059-11.21
		c-2.176-0.178-4.358-0.257-6.528-0.257c-42.139-0.061-84.272-0.116-126.399-0.141c-7.042,0-10.458,4.175-9.651,11.607
		C298.257,193.863,348.703,193.863,399.455,193.863z"/>
	<path fill-rule="evenodd" clip-rule="evenodd" fill="#FFFFFF" d="M282.744,269.646c-8.094,6.198-16.59,6.088-22.207-0.049
		c-4.908-5.354-5.122-14.064-0.489-19.413c5.984-6.876,13.814-7.182,22.751-0.886c10.024-6.027,17.989-5.715,23.197,0.886
		c4.639,5.917,4.376,14.071-0.643,19.37C299.37,275.868,291.857,275.96,282.744,269.646z"/>
</g>
<g>
	<path fill-rule="evenodd" clip-rule="evenodd" fill="#FFFFFF" d="M410.794,340.232c-0.049,11.021-5.574,20.024-13.655,22.787
		c-13.008,4.444-25.611-4.535-26.791-19.272c-0.263-3.233-0.037-6.62,0.697-9.773c2.585-11.101,10.495-17.066,21.283-16.449
		c9.303,0.544,16.877,8.423,18.166,18.919C410.672,337.897,410.727,339.358,410.794,340.232z M405.336,340.691
		c-0.025-9.45-5.66-16.693-13.441-17.256c-9.744-0.709-17.091,7.652-16.241,18.49c0.703,8.894,5.69,15.214,12.72,16.101
		C398.08,359.255,405.359,351.822,405.336,340.691z"/>
	<path fill-rule="evenodd" clip-rule="evenodd" fill="#FFFFFF" d="M364.303,340.722c-0.733,3.295-1.095,6.742-2.25,9.884
		c-3.325,9.01-9.811,13.466-18.832,13.393c-8.612-0.067-15.104-4.799-18.319-13.661c-2.329-6.394-2.347-12.946,0.03-19.328
		c3.698-9.957,11.742-14.719,22.091-13.362c8.478,1.113,15.679,9.457,16.645,19.316c0.122,1.204,0.134,2.433,0.195,3.648
		C364.009,340.643,364.149,340.685,364.303,340.722z M358.618,340.813c-0.294-1.92-0.422-3.888-0.917-5.758
		c-2.635-10.129-13.142-14.896-21.375-9.774c-10.275,6.369-10.184,24.792,0.201,31.027c1.418,0.844,3.136,1.424,4.773,1.656
		C350.971,359.358,358.41,351.871,358.618,340.813z"/>
	<path fill-rule="evenodd" clip-rule="evenodd" fill="#FFFFFF" d="M109.382,363.307c0-15.293,0-30.128,0-45.647
		c5.031,0.269,9.97-0.049,14.64,0.917c7.671,1.589,10.477,13.172,4.853,18.723c-0.691,0.678-1.473,1.253-2.427,2.06
		c4.658,1.81,7.677,4.829,8.497,9.749c1.198,7.226-3.38,13.576-10.685,14.133C119.437,363.619,114.559,363.307,109.382,363.307z
		 M114.785,357.922c4.805-0.825,10.062,1.693,13.582-3.337c1.81-2.599,1.926-5.673-0.024-8.222
		c-3.594-4.725-8.765-2.677-13.558-3.08C114.785,348.258,114.785,352.818,114.785,357.922z M114.755,337.378
		c4.083-0.067,8.178,1.003,10.52-3.099c1.564-2.708,1.626-5.733-0.318-8.271c-2.665-3.49-6.503-2.213-10.202-2.2
		C114.755,328.393,114.755,332.708,114.755,337.378z"/>
	<path fill-rule="evenodd" clip-rule="evenodd" fill="#FFFFFF" d="M299.56,363.307c-2.085,0-3.503,0-5.159,0
		c0-15.104,0-30.03,0-45.629c4.426,0.25,8.808,0.146,13.057,0.837c4.156,0.679,6.895,3.546,7.977,7.684
		c1.302,4.994,0.916,9.7-2.818,13.661c-0.728,0.783-1.607,1.418-1.919,1.699c4.162,7.262,8.179,14.273,12.304,21.474
		c-3.997,1.204-6.46,0.44-8.19-3.313c-1.925-4.187-4.376-8.147-6.827-12.072c-1.797-2.879-4.396-4.511-8.423-3.539
		C299.56,350.367,299.56,356.663,299.56,363.307z M299.639,323.674c0,4.731,0,9.272,0,14.034c3.569,0.269,7.108,0.947,9.462-2.311
		c2.085-2.897,2.237-6.253,0.245-9.235C306.979,322.635,303.281,323.436,299.639,323.674z"/>
	<path fill-rule="evenodd" clip-rule="evenodd" fill="#FFFFFF" d="M228.013,341.999c0,7.018,0,14.04,0,21.271
		c-1.803,0-3.319,0-5.067,0c0-15.098,0-30.019,0-45.177c1.688,0,3.197,0,5,0c0,6.559,0,12.982,0,20.421
		c1.271-1.405,1.987-2.078,2.567-2.848c3.723-4.829,7.402-9.688,11.112-14.512c2.953-3.826,2.971-3.813,8.723-2.774
		c-5.397,7.084-10.654,13.991-16.07,21.105c6.7,7.861,13.289,15.587,20.159,23.649c-4.334,0.765-7.378,0.483-10.074-3.025
		c-4.902-6.345-10.336-12.256-15.55-18.362C228.544,341.834,228.282,341.92,228.013,341.999z"/>
	<path fill-rule="evenodd" clip-rule="evenodd" fill="#FFFFFF" d="M168.086,318.008c1.932,0,3.35,0,5.269,0
		c0,4.608,0.006,9.07-0.012,13.533c-0.012,5.604,0.196,11.229-0.122,16.815c-0.74,13.142-13.698,20.006-24.902,13.38
		c-4.468-2.646-7.029-6.669-7.176-11.639c-0.324-10.568-0.104-21.154-0.104-31.986c1.625,0,3.129,0,5.11,0c0,3.185,0,6.326,0,9.444
		c0.024,6.589-0.098,13.172,0.085,19.743c0.184,6.632,4.267,10.776,10.342,10.88c6.81,0.122,11.088-3.594,11.345-10.587
		c0.318-8.282,0.135-16.577,0.165-24.865C168.092,321.277,168.086,319.835,168.086,318.008z"/>
	<path fill-rule="evenodd" clip-rule="evenodd" fill="#FFFFFF" d="M214.871,327.513c-14.578-5.465-20.288-4.964-25.208,1.767
		c-4.75,6.479-4.676,17.176,0.135,23.367c5.152,6.614,10.959,6.914,24.749,1.266c0.771,6.516,0.593,6.804-5.367,8.912
		c-10.941,3.882-20.978-0.22-26.051-10.617c-6.479-13.258-0.202-30.232,12.659-34.022c6.082-1.784,11.992-0.666,17.212,2.537
		C214.357,321.559,214.205,324.848,214.871,327.513z"/>
	<g>
		<path fill="#FFFFFF" d="M292.799,318.271l-16.938,44.083h-6.284l-18.038-44.083h6.638l5.146,13.355h18.436l4.835-13.355H292.799z
			 M280.079,336.376h-14.951l4.597,12.206c1.412,3.711,2.444,6.761,3.135,9.139c0.557-2.824,1.352-5.63,2.372-8.411L280.079,336.376
			z"/>
	</g>
</g>
</svg>
