<?xml version="1.0" encoding="utf-8"?>
<!-- Generator: Adobe Illustrator 16.0.0, SVG Export Plug-In . SVG Version: 6.00 Build 0)  -->
<!DOCTYPE svg PUBLIC "-//W3C//DTD SVG 1.1//EN" "http://www.w3.org/Graphics/SVG/1.1/DTD/svg11.dtd">
<svg version="1.1" id="Layer_1" xmlns="http://www.w3.org/2000/svg" xmlns:xlink="http://www.w3.org/1999/xlink" x="0px" y="0px"
	 width="512px" height="512px" viewBox="0 0 512 512" enable-background="new 0 0 512 512" xml:space="preserve">
<g>
	<g>
		<linearGradient id="SVGID_1_" gradientUnits="userSpaceOnUse" x1="100.3213" y1="100.6934" x2="416.3951" y2="416.7672">
			<stop  offset="0" style="stop-color:#FFA300"/>
			<stop  offset="1" style="stop-color:#FF6400"/>
		</linearGradient>
		<path fill="url(#SVGID_1_)" d="M480.957,256.33c0,124.261-100.733,225-225,225s-225-100.739-225-225
			c0-124.267,100.733-225,225-225S480.957,132.063,480.957,256.33z"/>
		<linearGradient id="SVGID_2_" gradientUnits="userSpaceOnUse" x1="150.0107" y1="72.8252" x2="361.9043" y2="439.8356">
			<stop  offset="0" style="stop-color:#FF6400"/>
			<stop  offset="1" style="stop-color:#FFA300"/>
		</linearGradient>
		<circle fill="url(#SVGID_2_)" cx="255.957" cy="256.33" r="211.858"/>
	</g>
</g>
<g>
	<path fill-rule="evenodd" clip-rule="evenodd" fill="#FFFFFF" d="M171.25,127.602c1.333-0.067,2.42-0.159,3.502-0.159
		c36.008-0.012,72.011,0.232,108.02-0.171c8.894-0.098,15.532,2.286,21.65,8.881c10.128,10.905,21.021,21.1,31.767,31.412
		c3.655,3.515,5.623,7.286,5.263,12.475c-0.349,5.062-0.135,10.171-0.141,15.263c0,4.694,2.029,8.062,5.862,10.947
		c6.234,4.694,12.127,9.847,17.994,15c3.687,3.228,4.891,7.873,5.117,12.451c0.568,11.516,0.88,23.05,0.935,34.572
		c0.098,21.607-0.055,43.209-0.122,64.817c-0.006,2.604,0.049,5.231-0.257,7.812c-1.693,14.389-9.89,22.182-24.413,22.39
		c-21.106,0.306-42.219,0.104-63.331,0.165c-36.131,0.104-72.262,0.275-108.393,0.343c-5.08,0.006-10.281,0.141-15.214-0.832
		c-10.722-2.108-17.188-9.7-17.849-21.803c-0.764-14.12-0.624-28.288-0.715-42.433c-0.134-19.371,0.085-38.747-0.256-58.111
		c-0.171-9.682,2.916-17.25,10.715-23.246c5.385-4.144,10.037-9.235,15.184-13.722c3.558-3.105,4.816-6.681,4.719-11.467
		c-0.416-19.107-0.428-38.221-0.532-57.341C170.743,132.51,171.067,130.175,171.25,127.602z M275.334,228.439
		c4.682-0.629,7.769-2.806,10.183-5.886c6.357-8.13,8.968-17.598,9.285-27.738c0.067-2.023-0.409-4.346-1.418-6.076
		c-2.665-4.584-5.666-8.979-8.735-13.307c-0.727-1.021-2.145-1.663-3.367-2.207c-9.572-4.211-19.364-4.939-29.346-1.565
		c-20.959,7.09-35.116,28.313-33.704,50.489c0.886,14.01,9.107,25.336,21.65,29.217c9.303,2.873,18.576,2.427,27.683-1.265
		c4.786-1.944,9.713-3.539,15.244-2.977c-0.604,4.511-2.805,7.714-6.032,10.22c-8.154,6.339-17.689,8.117-27.684,7.86
		c-19.633-0.507-35.733-10.978-41.4-27.921c-14.651-43.802,22.72-84.364,63.191-78.032c5.201,0.813,10.349,1.974,15.574,2.983
		c0-7.329,0-14.322,0-21.259c-0.709-0.153-1.069-0.287-1.424-0.287c-32.524-0.006-65.049,0.03-97.573-0.049
		c-3.356-0.006-3.387,1.742-3.387,4.229c0.055,30.171,0.086,60.342-0.024,90.507c-0.012,2.861,1.039,4.487,3.222,6.106
		c15.03,11.186,29.938,22.537,44.957,33.747c5.495,4.096,3.961,4.597,9.554-0.042c11.797-9.762,29.327-8.595,39.608,1.906
		c2.194,2.237,3.711,1.993,5.881,0.208c13.031-10.721,26.167-21.308,39.138-32.108c1.186-0.984,1.98-3.118,2.005-4.731
		c0.116-11.913-0.012-23.833-0.049-35.752c-0.012-6.668,0-13.337,0-20.165c-7.732,0-14.865,0-22.335,0
		c0.116,1.84,0.392,3.423,0.294,4.982c-0.453,7.268-0.251,14.676-1.699,21.748c-2.22,10.734-7.666,19.896-17.085,26.137
		c-8.099,5.36-15.782,4.963-23.558-0.74c-0.788-0.581-2.438-0.324-3.575-0.024c-4.279,1.143-8.441,3.056-12.781,3.582
		c-10.764,1.32-18.931-5.147-20.764-15.776c-2.347-13.545,6.729-32.011,19.028-38.075c12.678-6.253,25.972-4.493,40.409-2.83
		c-2.035,7.867-3.808,15.165-5.837,22.39C278.427,213.164,275.254,220.12,275.334,228.439z M165.468,351.227
		c0.147,0.256,0.3,0.513,0.458,0.775c62.017,0,124.035,0,186.785,0c-1.356-1.253-2.047-1.955-2.812-2.579
		c-17.714-14.413-35.422-28.832-53.16-43.222c-8.869-7.193-17.72-14.413-26.724-21.424c-5.477-4.26-11.418-4.31-17.341-0.746
		c-2.121,1.278-4.193,2.659-6.155,4.169c-22.213,17.128-44.426,34.261-66.602,51.437
		C175.04,343.421,170.278,347.357,165.468,351.227z M154.502,341.312c0.312,0.275,0.605,0.55,0.911,0.825
		c22.848-17.695,45.703-35.391,69.04-53.466c-3.123-2.806-6.027-5.647-9.181-8.185c-18.527-14.92-37.091-29.798-55.721-44.596
		c-1.284-1.021-3.154-1.296-5.049-2.036C154.502,270.229,154.502,305.768,154.502,341.312z M295.694,288.555
		c20.55,16.51,40.794,32.77,61.718,49.572c0-34.064,0-66.834,0-100.428C336.563,254.875,316.312,271.563,295.694,288.555z
		 M250.657,229.435c4.921,0.202,9.145-3.246,11.376-8.545c2.769-6.571,4.987-13.417,6.857-20.3c1.639-6.045-0.171-7.689-6.589-7.139
		c-12.842,1.119-24.224,16.204-21.785,28.881C241.464,227.302,244.343,229.643,250.657,229.435z M299.447,171.642
		c6.363,0,12.543,0,19.169,0c-6.657-6.455-12.837-12.438-19.169-18.582C299.447,159.093,299.447,165.199,299.447,171.642z
		 M341.587,231.703c0.299,0.22,0.593,0.434,0.886,0.647c2.592-2.249,5.184-4.499,8.13-7.06c-3.288-2.396-5.936-4.328-9.016-6.571
		C341.587,223.684,341.587,227.693,341.587,231.703z"/>
</g>
</svg>
