<?xml version="1.0" encoding="utf-8"?>
<!-- Generator: Adobe Illustrator 16.0.0, SVG Export Plug-In . SVG Version: 6.00 Build 0)  -->
<!DOCTYPE svg PUBLIC "-//W3C//DTD SVG 1.1//EN" "http://www.w3.org/Graphics/SVG/1.1/DTD/svg11.dtd">
<svg version="1.1" id="Layer_1" xmlns="http://www.w3.org/2000/svg" xmlns:xlink="http://www.w3.org/1999/xlink" x="0px" y="0px"
	 width="512px" height="512px" viewBox="0 0 512 512" enable-background="new 0 0 512 512" xml:space="preserve">
<g>
	<g>
		<linearGradient id="SVGID_1_" gradientUnits="userSpaceOnUse" x1="100.5903" y1="100.6938" x2="416.6635" y2="416.767">
			<stop  offset="0" style="stop-color:#FFA300"/>
			<stop  offset="1" style="stop-color:#FF6400"/>
		</linearGradient>
		<path fill="url(#SVGID_1_)" d="M481.226,256.33c0,124.261-100.733,225-225,225s-225-100.739-225-225
			c0-124.267,100.733-225,225-225S481.226,132.063,481.226,256.33z"/>
		<linearGradient id="SVGID_2_" gradientUnits="userSpaceOnUse" x1="150.2793" y1="72.8252" x2="362.1724" y2="439.8348">
			<stop  offset="0" style="stop-color:#FF6400"/>
			<stop  offset="1" style="stop-color:#FFA300"/>
		</linearGradient>
		<circle fill="url(#SVGID_2_)" cx="256.226" cy="256.33" r="211.858"/>
	</g>
</g>
<g>
	<path fill-rule="evenodd" clip-rule="evenodd" fill="#FFFFFF" d="M377.21,286.807c-5.281,4.78-9.651,8.955-14.34,12.744
		c-0.936,0.759-3.563,0.648-4.597-0.134c-15.257-11.516-40.568-4.272-48.619,14.224c-9.297,21.369,6.663,47.787,29.713,47.17
		c13.24-0.354,23.484-4.162,29.358-16.632c0.452-0.979,0.844-2.011,1.069-3.063c0.147-0.685-0.061-1.448-0.141-2.678
		c-9.743,0-19.438,0-29.383,0c0-6.687,0-12.885,0-19.413c0.997-0.146,2.023-0.439,3.063-0.439
		c14.555-0.031,29.114,0.042,43.668-0.08c3.337-0.03,4.957,0.666,5.098,4.523c0.55,15.336-1.9,29.719-12.176,41.834
		c-5.765,6.803-13.173,11.21-21.479,14.235c-33.154,12.054-68.918-11.394-72.665-45.685c-3.295-30.085,18.46-54.438,43.558-59.438
		C347.075,270.456,361.488,275.97,377.21,286.807z"/>
</g>
<g>
	<path fill-rule="evenodd" clip-rule="evenodd" fill="#FFFFFF" d="M277.43,321.801c-18.276,0.006-36.553-0.006-54.823-0.006
		c-16.62,0-33.246-0.024-49.866,0.006c-9.162,0.019-14.468-4.963-14.474-14.145c-0.061-35.373-0.018-70.746,0.006-106.112
		c0-4.364,0.067-4.279,4.389-4.272c26.449,0.024,52.891,0.012,79.333,0.012c0,0.012,0,0.031,0,0.049c23.209,0,46.413,0,69.622,0
		c3.545,0,7.096,0.147,10.629-0.024c2.427-0.116,3.16,0.746,3.148,3.124c-0.08,15.409-0.037,30.813-0.049,46.216
		c0,6.528-0.007,13.062-0.007,19.59c0.838-0.208,1.682-0.397,2.531-0.563c5.525-1.1,10.776-1.437,15.855-1.094
		c0.024-32.421,0.055-64.841,0.03-97.256c-0.012-16.021-11.932-29.291-27.922-30.709c-6.938-0.617-13.967-0.189-20.953-0.287
		c-2.299-0.031-2.268,1.479-2.262,3.075c0.006,6.797-0.043,13.582,0.024,20.367c0.086,9.383-6.992,16.974-16.106,17.158
		c-9.119,0.183-16.559-7.427-16.577-16.968c0-6.583,0.013-13.179,0.013-19.762c0-3.881-0.055-3.869-3.857-3.845
		c-10.74,0.049-21.473,0.141-32.213-0.012c-2.628-0.037-3.57,0.526-3.527,3.289c0.128,7.292,0.22,14.597-0.153,21.876
		c-0.471,9.138-8.16,15.862-17.06,15.397c-8.741-0.446-15.587-8.154-15.44-17.195c0.116-6.785-0.049-13.576,0.085-20.36
		c0.049-2.5-1.045-3.13-3.294-3.063c-4.854,0.141-9.719,0.086-14.579,0.189c-16.332,0.343-29.81,13.558-29.987,29.878
		c-0.227,21.07-0.092,42.151-0.104,63.228c-0.012,23.203-0.11,46.406,0.024,69.608c0.031,6.144-0.208,12.556,1.418,18.362
		c4.114,14.694,16.088,22.665,31.455,22.573c23.099-0.141,46.205-0.037,69.31-0.037c0-0.018,0-0.036,0-0.061
		c12.14,0,24.278,0.043,36.418,0.055c-0.385-1.889-0.697-3.814-0.904-5.771C277.094,330.034,277.069,325.854,277.43,321.801z"/>
	<path fill-rule="evenodd" clip-rule="evenodd" fill="#FFFFFF" d="M203.695,169.741c5.317,0.043,9.462-4.028,9.48-9.34
		c0.025-5.471,0-10.935,0-16.4h-0.006c0-5.367,0.024-10.733-0.006-16.094c-0.03-5.416-4.107-9.444-9.419-9.364
		c-4.902,0.073-8.845,4.187-8.851,9.321c-0.024,10.831-0.031,21.663-0.024,32.488C194.869,165.444,198.891,169.704,203.695,169.741z
		"/>
	<path fill-rule="evenodd" clip-rule="evenodd" fill="#FFFFFF" d="M267.148,160.04c-0.006,5.477,3.918,9.652,9.12,9.701
		c5.159,0.049,9.175-4.181,9.169-9.639c-0.007-10.733,0.006-21.461,0.006-32.201c0.006-5.208-4.01-9.34-9.114-9.371
		c-5.085-0.03-9.126,4.047-9.162,9.315c-0.037,5.367-0.006,10.728-0.013,16.094C267.148,149.307,267.154,154.674,267.148,160.04z"/>
	<path fill-rule="evenodd" clip-rule="evenodd" fill="#FFFFFF" d="M273.622,251.012c-0.019-0.776-1.29-2.158-2.012-2.17
		c-6.962-0.153-13.937-0.073-20.904-0.073c-1.846,0-2.427,0.959-2.415,2.683c0.049,5.354,0.074,10.709-0.018,16.063
		c-0.037,1.999,0.819,2.702,2.702,2.672c3.337-0.05,6.668-0.013,10-0.013c0,0.013,0,0.024,0,0.036c3.436,0,6.877-0.023,10.313,0.013
		c1.559,0.013,2.463-0.465,2.451-2.237C273.683,262.326,273.799,256.66,273.622,251.012z"/>
	<path fill-rule="evenodd" clip-rule="evenodd" fill="#FFFFFF" d="M235.352,251.214c0.019-1.815-0.721-2.537-2.537-2.494
		c-3.337,0.086-6.675,0.025-10.012,0.025c0,0.024,0,0.049,0,0.073c-3.436,0-6.871,0.042-10.312-0.012
		c-1.938-0.037-2.689,0.776-2.665,2.72c0.074,5.263,0.098,10.52-0.012,15.776c-0.043,2.103,0.722,2.879,2.812,2.86
		c6.772-0.055,13.551-0.018,20.324,0.049c1.871,0.013,2.439-0.861,2.415-2.615C235.303,262.137,235.303,256.679,235.352,251.214z"/>
	<path fill-rule="evenodd" clip-rule="evenodd" fill="#FFFFFF" d="M254.795,233.695c6.136,0.019,12.28,0,18.906,0
		c0-6.895,0.061-13.251-0.092-19.603c-0.012-0.624-1.332-1.729-2.06-1.748c-6.864-0.116-13.735,0-20.599-0.043
		c-1.932-0.012-2.726,0.703-2.69,2.665c0.067,4.041-0.012,8.081-0.018,12.121C248.23,233.653,248.236,233.671,254.795,233.695z"/>
	<path fill-rule="evenodd" clip-rule="evenodd" fill="#FFFFFF" d="M233.218,212.388c-6.974-0.135-13.949-0.006-20.923-0.043
		c-1.858-0.006-2.482,0.758-2.458,2.543c0.062,5.458,0.073,10.923-0.006,16.387c-0.024,1.84,0.672,2.524,2.481,2.482
		c3.441-0.08,6.877-0.019,10.318-0.019c0-0.012,0-0.019,0-0.019c3.337-0.006,6.675-0.049,10.012,0.013
		c1.828,0.03,2.781-0.477,2.738-2.573c-0.116-5.563,0.031-11.125-0.146-16.681C235.211,213.732,233.934,212.4,233.218,212.388z"/>
	<path fill-rule="evenodd" clip-rule="evenodd" fill="#FFFFFF" d="M309.142,270.242c2.146,0.067,3.11-0.6,3.056-2.928
		c-0.128-5.159-0.116-10.318,0.013-15.471c0.061-2.396-0.85-3.191-3.191-3.148c-6.369,0.098-12.738,0.092-19.107-0.012
		c-2.206-0.031-3.129,0.77-3.104,2.989c0.055,5.256,0.049,10.513-0.043,15.77c-0.037,2.158,0.966,2.836,2.965,2.787
		c3.227-0.085,6.467-0.024,9.706-0.019C302.668,270.211,305.908,270.138,309.142,270.242z"/>
	<path fill-rule="evenodd" clip-rule="evenodd" fill="#FFFFFF" d="M174.074,270.188c6.675-0.099,13.355-0.086,20.037-0.019
		c1.913,0.019,2.781-0.593,2.75-2.61c-0.073-5.465-0.043-10.929-0.006-16.394c0.012-1.632-0.569-2.415-2.317-2.372
		c-3.448,0.085-6.889,0.024-10.33,0.031c-3.337,0.006-6.681,0.098-10.018-0.037c-2.066-0.079-2.91,0.55-2.867,2.738
		c0.123,5.257,0.104,10.525-0.006,15.789C171.274,269.374,171.91,270.218,174.074,270.188z"/>
	<path fill-rule="evenodd" clip-rule="evenodd" fill="#FFFFFF" d="M289.264,233.714c3.436-0.049,6.87-0.012,10.306-0.012
		c3.331-0.006,6.669-0.055,10.006,0.018c1.687,0.043,2.628-0.336,2.604-2.322c-0.091-5.453-0.085-10.911,0.019-16.363
		c0.043-2.115-0.782-2.824-2.842-2.799c-6.565,0.08-13.13,0.091-19.694-0.006c-2.121-0.024-2.91,0.844-2.886,2.854
		c0.056,5.452,0.086,10.911,0.067,16.363C286.837,233.164,287.638,233.745,289.264,233.714z"/>
	<path fill-rule="evenodd" clip-rule="evenodd" fill="#FFFFFF" d="M273.622,287.332c-0.013-0.69-1.217-1.925-1.896-1.938
		c-7.072-0.128-14.145-0.116-21.222,0.062c-0.746,0.019-2.072,1.345-2.097,2.097c-0.183,5.556-0.067,11.118-0.116,16.675
		c-0.012,1.834,0.819,2.536,2.58,2.519c3.435-0.043,6.87-0.013,10.306-0.013c0,0.013,0,0.03,0,0.037
		c3.337,0,6.675-0.024,10.006,0.018c1.534,0.019,2.556-0.366,2.549-2.17C273.701,298.854,273.78,293.091,273.622,287.332z"/>
	<path fill-rule="evenodd" clip-rule="evenodd" fill="#FFFFFF" d="M194.043,285.37c-6.668,0.08-13.337,0.067-20.006-0.006
		c-1.919-0.024-2.732,0.587-2.702,2.598c0.092,5.354,0.104,10.709-0.006,16.069c-0.043,2.188,0.892,2.781,2.916,2.715
		c3.233-0.116,6.467-0.031,9.707-0.031v-0.018c3.332,0,6.669-0.086,10,0.03c2.066,0.079,2.934-0.63,2.897-2.77
		c-0.08-5.257-0.073-10.513,0.031-15.764C196.922,286.086,196.14,285.34,194.043,285.37z"/>
	<path fill-rule="evenodd" clip-rule="evenodd" fill="#FFFFFF" d="M232.821,285.346c-3.337,0.073-6.668,0.024-10.006,0.024
		c0,0.007,0,0.013,0,0.019c-3.337,0-6.669,0.073-10-0.03c-2.194-0.073-3.063,0.709-3.001,2.989
		c0.122,5.146,0.086,10.299,0.006,15.458c-0.031,2.011,0.599,2.952,2.769,2.934c6.767-0.061,13.533-0.03,20.306,0.037
		c1.87,0.019,2.463-0.831,2.451-2.579c-0.049-5.459-0.049-10.911,0.012-16.369C235.382,285.988,234.606,285.31,232.821,285.346z"/>
</g>
</svg>
