<?xml version="1.0" encoding="utf-8"?>
<!-- Generator: Adobe Illustrator 16.0.0, SVG Export Plug-In . SVG Version: 6.00 Build 0)  -->
<!DOCTYPE svg PUBLIC "-//W3C//DTD SVG 1.1//EN" "http://www.w3.org/Graphics/SVG/1.1/DTD/svg11.dtd">
<svg version="1.1" id="Layer_1" xmlns="http://www.w3.org/2000/svg" xmlns:xlink="http://www.w3.org/1999/xlink" x="0px" y="0px"
	 width="512px" height="512px" viewBox="0 0 512 512" enable-background="new 0 0 512 512" xml:space="preserve">
<g>
	<g>
		<linearGradient id="SVGID_1_" gradientUnits="userSpaceOnUse" x1="100.2031" y1="99.2793" x2="416.277" y2="415.3531">
			<stop  offset="0" style="stop-color:#00B5A4"/>
			<stop  offset="1" style="stop-color:#007D7D"/>
		</linearGradient>
		<path fill="url(#SVGID_1_)" d="M480.839,254.916c0,124.261-100.733,225-225,225s-225-100.739-225-225
			c0-124.267,100.733-225,225-225S480.839,130.649,480.839,254.916z"/>
		<linearGradient id="SVGID_2_" gradientUnits="userSpaceOnUse" x1="149.8921" y1="71.4116" x2="361.7856" y2="438.422">
			<stop  offset="0.1823" style="stop-color:#007D7D"/>
			<stop  offset="1" style="stop-color:#00B5A4"/>
		</linearGradient>
		<circle fill="url(#SVGID_2_)" cx="255.839" cy="254.916" r="211.858"/>
	</g>
</g>
<g>
	<path fill-rule="evenodd" clip-rule="evenodd" fill="#FFFFFF" d="M134.451,353.571c4.315-14.7,8.667-29.383,12.922-44.096
		c2.194-7.573,4.004-15.269,6.461-22.744c0.636-1.938,2.818-4.212,4.725-4.737c7.952-2.194,16.069-3.79,25.055-5.807
		c0,14.064,0,27.708,0,41.675c5.288,0,9.707,0,14.56,0c0-14.921,0-29.493,0-42.427c7.146-5.086,13.215-9.407,19.774-14.071
		c3.478,3.741,7.512,8.051,11.51,12.378c5.299,5.746,14.78,5.746,20.037,0.019c3.985-4.34,8.038-8.631,11.547-12.396
		c6.356,4.548,12.273,8.778,19.621,14.034c0,12.543,0,27.299,0,42.434c4.993,0,9.431,0,14.553,0c0-13.668,0-27.219,0-41.614
		c9.951,2.2,19.236,3.753,28.154,6.51c2.916,0.898,4.915,4.878,7.25,7.519c2.72,3.087,5.342,6.259,8.612,10.104
		c0.312-1.699,0.604-2.555,0.611-3.404c0.055-18.387,0.183-36.772-0.019-55.159c-0.03-2.212-1.345-4.914-2.934-6.534
		c-8.436-8.606-17.146-16.932-25.96-25.544c7.39-12.793,14.358-25.141,21.729-37.231c0.96-1.583,4.016-1.876,7.316-3.289
		c0,12.066,0,22.604,0,33.423c11.009,0,21.217,0,32.274,0c0-10.482,0-21.008,0-31.253c4.56-2.066,6.901-0.794,8.912,2.72
		c6.638,11.644,13.509,23.154,20.293,34.712c0,0.397,0,0.795,0,1.186c-9.554,9.376-19.199,18.655-28.558,28.221
		c-1.259,1.284-1.516,3.949-1.534,5.984c-0.238,29.657-0.439,59.321-0.372,88.979c0.012,2.83,1.411,6.032,3.093,8.404
		c3.202,4.518,7.071,8.551,11.589,13.875c-4.01,0-6.345,0-8.68,0c-78.295,0-156.595-0.012-234.896,0.019
		c-2.555,0-5.098,0.312-7.647,0.483C134.451,355.154,134.451,354.359,134.451,353.571z"/>
	<path fill-rule="evenodd" clip-rule="evenodd" fill="#FFFFFF" d="M173.785,187.972c0-2.634,0-4.78,0-7.592
		c3.698,0,7.335,0,11.131,0c1.479-9.315,2.408-18.124,4.333-26.717c5.22-23.252,18.992-37.317,39.896-39.652
		c32.983-3.686,55.208,7.861,61.907,46.021c1.125,6.399,1.705,12.903,2.604,19.798c3.49,0.226,6.932,0.446,10.6,0.678
		c0,2.586,0,4.854,0,7.463C260.766,187.972,217.587,187.972,173.785,187.972z"/>
	<path fill-rule="evenodd" clip-rule="evenodd" fill="#FFFFFF" d="M191.615,199.348c31.907,0,63.612,0,96.058,0
		c-4.75,22.146-12.391,42.268-30.954,56.247c-11.063,8.331-24.468,7.854-35.599-0.887c-16.192-12.695-23.71-30.532-28.521-49.823
		C192.178,203.18,191.976,201.414,191.615,199.348z"/>
</g>
</svg>
