<?xml version="1.0" encoding="utf-8"?>
<!-- Generator: Adobe Illustrator 16.0.0, SVG Export Plug-In . SVG Version: 6.00 Build 0)  -->
<!DOCTYPE svg PUBLIC "-//W3C//DTD SVG 1.1//EN" "http://www.w3.org/Graphics/SVG/1.1/DTD/svg11.dtd">
<svg version="1.1" id="Layer_1" xmlns="http://www.w3.org/2000/svg" xmlns:xlink="http://www.w3.org/1999/xlink" x="0px" y="0px"
	 width="512px" height="512px" viewBox="0 0 512 512" enable-background="new 0 0 512 512" xml:space="preserve">
<g>
	<g>
		<linearGradient id="SVGID_1_" gradientUnits="userSpaceOnUse" x1="101.0703" y1="100.6934" x2="417.1442" y2="416.7672">
			<stop  offset="0" style="stop-color:#DC00FF"/>
			<stop  offset="1" style="stop-color:#9A00FF"/>
		</linearGradient>
		<path fill="url(#SVGID_1_)" d="M481.706,256.33c0,124.261-100.733,225-225,225s-225-100.739-225-225
			c0-124.267,100.733-225,225-225S481.706,132.063,481.706,256.33z"/>
		<linearGradient id="SVGID_2_" gradientUnits="userSpaceOnUse" x1="150.7593" y1="72.8242" x2="362.6528" y2="439.8346">
			<stop  offset="0" style="stop-color:#9A00FF"/>
			<stop  offset="1" style="stop-color:#DC00FF"/>
		</linearGradient>
		<circle fill="url(#SVGID_2_)" cx="256.706" cy="256.33" r="211.858"/>
	</g>
</g>
<g>
	<path fill-rule="evenodd" clip-rule="evenodd" fill="#FFFFFF" d="M130.429,276.898c-3.124-0.465-5.776-0.654-8.307-1.296
		c-3.985-1.015-5.287-3.417-5.715-9.083c-0.275-3.698,1.59-5.795,4.725-7.146c5.226-2.243,17.922-1.223,23.02,2.103
		c0.477-1.442,0.978-2.75,1.363-4.102c2.219-7.714,4.676-15.373,6.528-23.178c1.363-5.758,4.854-9.297,10.202-10.422
		c7.708-1.614,15.562-2.726,23.404-3.49c21.351-2.072,42.659-0.88,63.924,1.381c2.836,0.3,5.667,0.874,8.448,1.565
		c6.718,1.681,11.326,5.245,12.885,12.616c1.602,7.616,4.132,15.024,6.284,22.524c0.299,1.064,0.745,2.085,1.191,3.356
		c6.688-5.153,14.102-2.892,21.131-2.604c4.248,0.172,6.54,3.411,6.589,7.085c0.08,5.917-1.656,8.704-6.467,9.829
		c-2.322,0.537-4.743,0.611-7.091,0.898c6.443,12.371,3.912,25.794,4.133,38.905c0.122,7.464-0.141,14.933-0.221,22.396
		c-0.049,4.272-1.399,5.893-5.721,5.972c-7.8,0.152-15.6,0.129-23.398,0.037c-3.869-0.049-5.489-1.712-6.039-5.624
		c-0.172-1.223-0.404-2.451-0.667-3.985c-1.345,0-2.481,0.006-3.612,0c-30.556-0.073-61.106-0.109-91.662-0.275
		c-2.83-0.018-4.157,0.502-4.15,3.692c0.006,3.857-2.225,5.936-6.064,5.984c-7.702,0.098-15.397,0.134-23.093-0.013
		c-4.505-0.085-5.874-1.675-5.911-6.167c-0.122-14.811-0.263-29.615-0.3-44.426C125.82,287.65,126.425,281.966,130.429,276.898z
		 M264.084,268.684c-2.763-9.512-5.354-18.16-7.738-26.871c-0.642-2.329-1.858-3.02-4.114-3.136
		c-6.29-0.306-12.573-0.88-18.869-1.253c-8.117-0.489-16.259-1.437-24.364-1.205c-13.062,0.367-26.082,1.602-39.132,2.329
		c-2.188,0.122-3.203,0.789-3.802,2.94c-2.158,7.842-4.523,15.623-6.785,23.435c-0.269,0.917-0.397,1.871-0.721,3.447
		C193.791,263.757,228.527,263.892,264.084,268.684z M211.578,304.172c-8.038,0-16.07-0.042-24.107,0.013
		c-3.692,0.03-5.275,1.626-5.434,5.171c-0.263,5.563,1.253,7.17,6.993,7.146c15.385-0.067,30.758-0.183,46.137-0.312
		c4.107-0.03,5.568-1.662,5.531-6.052c-0.03-4.272-1.571-5.94-5.703-5.966C227.195,304.142,219.383,304.166,211.578,304.172z
		 M142.525,294.252c0.061,6.191,5.385,11.375,11.516,11.216c6.07-0.158,11.045-5.257,11.051-11.326
		c0.006-6.265-5.08-11.363-11.333-11.339C147.543,282.821,142.458,288.005,142.525,294.252z M268.613,305.7
		c6.283,0.031,11.375-5.036,11.375-11.308c-0.006-6.155-5.317-11.449-11.424-11.363c-5.984,0.073-11.18,5.269-11.241,11.241
		C257.256,300.486,262.379,305.676,268.613,305.7z"/>
	<path fill-rule="evenodd" clip-rule="evenodd" fill="#FFFFFF" d="M417.831,267.369c0,2.011,0,3.704,0,5.746
		c2.641,0.122,5.214,0.232,8.074,0.366c0,6.131,0.227,12.085-0.079,18.008c-0.196,3.74-3.148,6.852-6.565,6.943
		c-7.988,0.227-16.002,0.073-24.291,0.073c0.257-0.776,0.257-1.174,0.44-1.32c7.256-5.642,10.232-13.056,9.188-22.108
		c-0.532-4.651-0.917-9.364-1.926-13.931c-1.217-5.525-4.664-9.45-9.773-12.188c-14.304-7.647-28.032-16.21-39.976-27.323
		c-2.421-2.256-4.884-4.633-6.693-7.378c-7.2-10.911-17.616-15.373-30.214-15.385c-60.99-0.055-121.975-0.013-182.965-0.062
		c-4.664-0.006-7.885,2.567-11.504,6.015c1.302-10.88,2.427-21.051,6.883-30.501c1.938-4.102,4.811-6.076,9.707-6.112
		c29.841-0.257,59.688-0.917,89.53-1.253c23.417-0.256,46.846-0.281,70.263-0.312c5.507-0.006,11.009,0.452,16.516,0.544
		c8.148,0.147,15.501,2.793,22.488,6.772c18.337,10.422,31.479,25.721,41.527,43.985c1.119,2.036,2.702,4.169,4.621,5.349
		c8.49,5.214,17.042,10.367,25.844,15.012c9.957,5.257,14.694,13.282,15.146,24.37c0.141,3.441-0.587,5.007-4.192,4.444
		C419.347,267.045,418.766,267.247,417.831,267.369z"/>
	<path fill-rule="evenodd" clip-rule="evenodd" fill="#FFFFFF" d="M362.36,320.682c-14.407-0.055-25.941-11.76-25.825-26.203
		c0.104-14.206,11.718-25.765,25.947-25.819c14.193-0.062,26.167,11.925,26.088,26.112
		C388.479,309.148,376.755,320.749,362.36,320.682z M362.049,309.393c8.037,0.269,14.901-6.119,15.189-14.139
		c0.281-7.988-6.125-14.933-14.096-15.263c-8.142-0.336-15.08,6.144-15.367,14.347C347.494,302.283,353.979,309.123,362.049,309.393
		z"/>
	<path fill-rule="evenodd" clip-rule="evenodd" fill="#FFFFFF" d="M345.221,237.504c-17.115,0-32.903,0-48.698,0
		c0-8.49,0-16.541,0-25.508c8.344,0.55,16.18,0.997,24.004,1.657c1.131,0.092,2.378,0.99,3.233,1.852
		C330.753,222.577,337.659,229.729,345.221,237.504z"/>
</g>
</svg>
