<?xml version="1.0" encoding="utf-8"?>
<!-- Generator: Adobe Illustrator 16.0.0, SVG Export Plug-In . SVG Version: 6.00 Build 0)  -->
<!DOCTYPE svg PUBLIC "-//W3C//DTD SVG 1.1//EN" "http://www.w3.org/Graphics/SVG/1.1/DTD/svg11.dtd">
<svg version="1.1" id="Layer_1" xmlns="http://www.w3.org/2000/svg" xmlns:xlink="http://www.w3.org/1999/xlink" x="0px" y="0px"
	 width="512px" height="512px" viewBox="0 0 512 512" enable-background="new 0 0 512 512" xml:space="preserve">
<g>
	<g>
		<linearGradient id="SVGID_1_" gradientUnits="userSpaceOnUse" x1="99.2378" y1="99.2798" x2="415.3109" y2="415.3529">
			<stop  offset="0" style="stop-color:#00B5A4"/>
			<stop  offset="1" style="stop-color:#007D7D"/>
		</linearGradient>
		<path fill="url(#SVGID_1_)" d="M479.873,254.916c0,124.261-100.733,225-225,225s-225-100.739-225-225
			c0-124.267,100.733-225,225-225S479.873,130.649,479.873,254.916z"/>
		<linearGradient id="SVGID_2_" gradientUnits="userSpaceOnUse" x1="148.9268" y1="71.4116" x2="360.8198" y2="438.4212">
			<stop  offset="0.1823" style="stop-color:#007D7D"/>
			<stop  offset="1" style="stop-color:#00B5A4"/>
		</linearGradient>
		<circle fill="url(#SVGID_2_)" cx="254.873" cy="254.916" r="211.858"/>
	</g>
</g>
<g>
	<path fill-rule="evenodd" clip-rule="evenodd" fill="#FFFFFF" d="M261.713,244.897c18.521-11.821,36.339-23.19,55.03-35.11
		c0,12.066,0,23.068,0,34.768c1.632-0.892,2.604-1.357,3.503-1.925c15.477-9.872,30.936-19.768,46.442-29.597
		c1.186-0.739,2.708-0.984,4.064-1.467c0.514,1.442,1.468,2.891,1.468,4.333c0.073,26.638,0.018,53.294,0.024,79.945
		c0.006,13.57,0.104,27.14,0.122,40.709c0,6.419-1.779,8.105-8.436,8.105c-70.959,0.006-141.919,0.006-212.879,0
		c-6.412,0-8.087-2.091-7.372-8.209c1.595-13.802,2.971-27.628,4.462-41.442c1.467-13.57,3.031-27.14,4.443-40.722
		c1.4-13.459,2.616-26.938,4.022-40.397c1.388-13.337,2.922-26.663,4.371-39.994c0.354-3.178,0.715-6.357,0.911-9.554
		c0.184-3.032,1.883-4.584,4.866-4.603c11.65-0.085,23.307-0.061,34.963-0.019c2.634,0.006,4.352,1.333,4.78,3.906
		c0.245,1.449,0.434,2.934,0.434,4.395c0.037,22.335,0.037,44.664,0,66.993c0,1.711-0.464,3.429-0.422,5.141
		c0.018,1.002,0.33,2.445,1.027,2.867c0.691,0.404,2.268,0.067,3.087-0.464c14.914-9.566,29.762-19.236,44.688-28.79
		c1.345-0.862,3.539-1.791,4.663-1.29c1.052,0.471,1.639,2.806,1.663,4.328C261.786,225.882,261.713,234.971,261.713,244.897z
		 M203.259,287.067c0,4.181,0.067,8.368-0.024,12.556c-0.073,3.007,1.485,4.841,4.389,5.03c3.276,0.214,6.645,0.03,9.872-0.52
		c1.094-0.184,2.678-2.005,2.708-3.111c0.226-8.239,0.281-16.498,0.049-24.737c-0.128-4.694-1.553-5.672-6.479-5.715
		c-2.042-0.013-4.089,0.036-6.131,0c-3.05-0.043-4.432,1.394-4.389,4.309C203.309,278.944,203.271,282.997,203.259,287.067z
		 M275.741,288.455c-0.03,0-0.043,0-0.062,0c0-3.826,0.135-7.659-0.03-11.479c-0.257-5.409-1.412-6.394-6.962-6.497
		c-1.663-0.024-3.325,0.055-4.994,0.092c-4.664,0.092-5.152,0.703-5.208,5.232c-0.098,7.39-0.446,14.761-0.531,22.151
		c-0.031,3.16,1.051,6.088,4.786,6.577c2.872,0.372,5.88,0.281,8.753-0.11c2.854-0.385,4.37-2.256,4.272-5.232
		C275.662,295.606,275.741,292.031,275.741,288.455z M330.441,288.015c0.013,0,0.019,0,0.024,0c0-2.585,0.007-5.177,0-7.757
		c-0.006-9.975-0.171-9.877-10.507-9.841c-6.986,0.024-6.853,2.714-6.584,7.886c0.275,5.269,0.691,10.611,0.129,15.831
		c-1.009,9.34,1.234,11.815,10.855,10.617c0.624-0.079,1.235-0.385,1.864-0.403c3.344-0.092,4.31-1.975,4.242-4.878
		C330.381,295.655,330.441,291.835,330.441,288.015z"/>
	<path fill-rule="evenodd" clip-rule="evenodd" fill="#FFFFFF" d="M223.186,149.904c-6.021,0-12.036,0.061-18.056-0.024
		c-3.796-0.049-5.11-1.424-4.731-5.092c0.464-4.646,2.964-8.386,6.583-11.314c7.146-5.776,15.801-7.775,24.829-8.588
		c8.625-0.782,17.323-1.094,25.887-2.298c6.491-0.911,12.084-3.857,15.342-9.92c1.247-2.329,3.521-3.289,6.192-2.219
		c2.751,1.106,2.384,3.209,1.974,5.605c-1.986,11.748-7.114,21.571-18.007,27.91c-8.405,4.89-17.799,5.776-27.341,5.88
		c-4.218,0.037-8.448,0.006-12.671,0.006C223.186,149.867,223.186,149.885,223.186,149.904z"/>
</g>
</svg>
