<?xml version="1.0" encoding="utf-8"?>
<!-- Generator: Adobe Illustrator 16.0.0, SVG Export Plug-In . SVG Version: 6.00 Build 0)  -->
<!DOCTYPE svg PUBLIC "-//W3C//DTD SVG 1.1//EN" "http://www.w3.org/Graphics/SVG/1.1/DTD/svg11.dtd">
<svg version="1.1" id="Layer_1" xmlns="http://www.w3.org/2000/svg" xmlns:xlink="http://www.w3.org/1999/xlink" x="0px" y="0px"
	 width="512px" height="512px" viewBox="0 0 512 512" enable-background="new 0 0 512 512" xml:space="preserve">
<g>
	<g>
		<linearGradient id="SVGID_1_" gradientUnits="userSpaceOnUse" x1="100.1011" y1="99.8188" x2="416.1742" y2="415.892">
			<stop  offset="0" style="stop-color:#00C9FF"/>
			<stop  offset="1" style="stop-color:#0091FF"/>
		</linearGradient>
		<path fill="url(#SVGID_1_)" d="M480.736,255.455c0,124.261-100.733,225-225,225s-225-100.739-225-225
			c0-124.267,100.733-225,225-225S480.736,131.188,480.736,255.455z"/>
		<linearGradient id="SVGID_2_" gradientUnits="userSpaceOnUse" x1="149.79" y1="71.9512" x2="361.6826" y2="438.9599">
			<stop  offset="0" style="stop-color:#0091FF"/>
			<stop  offset="0.4483" style="stop-color:#0093FF"/>
			<stop  offset="1" style="stop-color:#00C9FF"/>
		</linearGradient>
		<circle fill="url(#SVGID_2_)" cx="255.736" cy="255.455" r="211.858"/>
	</g>
</g>
<g>
	<path fill-rule="evenodd" clip-rule="evenodd" fill="#FFFFFF" d="M132.79,209.923c2.995-19.578,12.659-35.299,27.867-47.72
		c14.963-12.225,32.25-18.973,51.339-21.32c2.133-0.269,4.254-0.623,6.381-0.947c4.211,0,8.429,0,12.646,0
		c2.427,0.33,4.859,0.697,7.298,0.99c12.989,1.546,25.282,5.33,36.711,11.699c18.393,10.232,32.072,24.627,39.132,44.816
		c0.313,0.893,1.547,1.761,2.531,2.079c18.288,5.819,33.899,15.489,44.927,31.528c10.544,15.354,13.746,32.183,8.624,50.232
		c-4.272,15.049-13.612,26.613-25.972,35.88c-1.204,0.898-1.57,1.748-1.467,3.167c0.672,9.682,3.985,18.343,10.122,25.818
		c2.854,3.466,6.18,6.553,9.321,9.786c2.445,2.531,2.384,3.057-0.813,4.566c-4.578,2.17-9.407,2.463-14.334,1.718
		c-8.014-1.211-15.293-4.469-22.213-8.454c-8.533-4.908-16.864-10.171-25.293-15.263c-3.918-2.365-8.025-3.723-12.763-3.79
		c-5.227-0.085-10.514-0.672-15.66-1.65c-20.862-3.954-38.655-13.38-52.042-30.244c-1.173-1.467-2.108-1.528-3.588-0.709
		c-7.097,3.931-14.206,7.854-21.357,11.693c-7.561,4.059-15.336,7.658-23.753,9.597c-7.696,1.784-15.336,2.114-22.671-1.602
		c-5.146-2.61-6.999-9.114-3.839-13.979c1.302-2.005,2.879-3.851,4.469-5.642c5.855-6.602,10.746-13.68,12.977-22.421
		c0.782-3.063,0.624-5.312-2.286-7.035c-1.009-0.593-1.809-1.571-2.671-2.408c-10.208-9.805-18.032-21.137-21.858-34.921
		c0,0-2.481-6.901-2.787-12.469C131.47,217.35,132.79,209.923,132.79,209.923z M170.517,303.347
		c0.116,0.152,0.232,0.293,0.348,0.439c1.871-0.696,3.851-1.216,5.617-2.127c10.544-5.44,21.1-10.855,31.535-16.51
		c5.874-3.19,11.693-5.99,18.643-5.898c7.317,0.098,14.554-0.923,21.608-2.922c18.289-5.159,33.521-14.688,43.625-31.247
		c7.078-11.607,9.45-24.175,6.137-37.451c-4.584-18.459-16.626-30.984-32.982-39.664c-15.159-8.044-31.467-10.807-48.472-9.163
		c-20.672,1.993-38.563,9.841-52.592,25.611c-17.512,19.7-17.75,48.014-0.593,68.001c4.847,5.648,10.477,10.324,16.498,14.627
		c0.825,0.593,1.711,1.871,1.675,2.8c-0.373,9.75-2.5,19.053-7.494,27.549C172.9,299.392,171.696,301.366,170.517,303.347z"/>
</g>
</svg>
