<?xml version="1.0" encoding="utf-8"?>
<!-- Generator: Adobe Illustrator 16.0.0, SVG Export Plug-In . SVG Version: 6.00 Build 0)  -->
<!DOCTYPE svg PUBLIC "-//W3C//DTD SVG 1.1//EN" "http://www.w3.org/Graphics/SVG/1.1/DTD/svg11.dtd">
<svg version="1.1" id="Layer_1" xmlns="http://www.w3.org/2000/svg" xmlns:xlink="http://www.w3.org/1999/xlink" x="0px" y="0px"
	 width="512px" height="512px" viewBox="0 0 512 512" enable-background="new 0 0 512 512" xml:space="preserve">
<g>
	<g>
		<linearGradient id="SVGID_1_" gradientUnits="userSpaceOnUse" x1="100.7993" y1="99.9448" x2="416.8725" y2="416.018">
			<stop  offset="0" style="stop-color:#FF7601"/>
			<stop  offset="1" style="stop-color:#FF0000"/>
		</linearGradient>
		<path fill="url(#SVGID_1_)" d="M481.435,255.581c0,124.261-100.733,225-225,225s-225-100.739-225-225
			c0-124.264,100.733-225,225-225S481.435,131.317,481.435,255.581z"/>
		<linearGradient id="SVGID_2_" gradientUnits="userSpaceOnUse" x1="150.4873" y1="72.0771" x2="362.3828" y2="439.0909">
			<stop  offset="0" style="stop-color:#FF0000"/>
			<stop  offset="1" style="stop-color:#FF6301"/>
		</linearGradient>
		<path fill="url(#SVGID_2_)" d="M468.293,255.581c0,117.011-94.854,211.864-211.858,211.864S44.576,372.592,44.576,255.581
			c0-117.005,94.854-211.858,211.858-211.858S468.293,138.576,468.293,255.581z"/>
	</g>
</g>
<g>
	<path fill-rule="evenodd" clip-rule="evenodd" fill="#FFFFFF" d="M260.756,153.05c-36.381,0-72.549,0-109.089,0
		c-0.214,1.852-0.544,3.478-0.55,5.123c-0.031,19.297,0.116,38.606-0.104,57.891c-0.061,4.743,1.418,6.216,6.167,6.161
		c19.511-0.226,39.028-0.33,58.527,0.128c3.747,0.086,8.606,1.938,10.88,4.676c5.061,6.106-0.006,14.75-8.576,14.988
		c-12.286,0.324-24.591,0.128-36.895,0.134c-12.72,0.006-25.458,0.092-38.167-0.037c-8.411-0.098-11.98-3.643-12.011-12.127
		c-0.098-28.423-0.098-56.846,0-85.266c0.03-8.386,3.71-12.234,11.999-12.25c42.2-0.095,84.407-0.095,126.602,0.009
		c7.738,0.024,11.32,3.594,11.778,11.201c0.244,4.224,0.251,8.5-0.086,12.711c-0.556,6.62-4.242,10.196-9.951,10.196
		c-5.409,0-9.034-3.405-10.042-9.493C261.037,155.887,260.939,154.64,260.756,153.05z"/>
	<path fill-rule="evenodd" clip-rule="evenodd" fill="#FFFFFF" d="M177.413,197.054c2.738,1.259,4.768,2.512,6.968,3.129
		c3.411,0.96,6.938,1.926,10.428,1.975c1.534,0.012,3.105-2.237,4.664-3.448c-1.192-1.503-2.079-3.63-3.619-4.352
		c-3.619-1.699-7.585-2.659-11.345-4.04c-5.819-2.133-9.86-5.789-10.031-12.463c-0.171-6.418,2.94-10.648,8.558-13.637
		c1.828-0.978,2.714-3.618,4.193-5.36c1.143-1.351,2.409-3.319,3.827-3.521c1.375-0.208,4.303,1.412,4.364,2.384
		c0.349,5.599,5.019,5.868,8.417,8.038c2.06,1.345,3.068,4.315,4.554,6.552c-2.372,1.009-4.805,2.928-7.109,2.788
		c-3.472-0.238-6.797-2.433-10.281-2.732c-1.742-0.159-3.686,2.036-5.526,3.154c1.253,1.663,2.152,4.028,3.827,4.847
		c3.576,1.748,7.567,2.641,11.351,3.998c5.947,2.121,9.725,6.173,9.737,12.671c0.019,6.559-3.301,11.021-9.358,13.814
		c-2.054,0.954-3.301,3.527-5.037,5.214c-1.399,1.363-3.038,3.527-4.499,3.472c-1.485-0.073-4.016-2.329-4.107-3.759
		c-0.239-3.838-2.543-4.7-5.434-5.825c-2.714-1.039-5.465-2.463-7.567-4.389c-1.058-0.959-1.381-3.649-0.837-5.128
		C174.069,198.992,176.104,198.111,177.413,197.054z"/>
</g>
<g>
	<path fill-rule="evenodd" clip-rule="evenodd" fill="#FFFFFF" d="M322.247,297.806c-22.151,0-44.297,0.153-66.46-0.055
		c-13.704-0.122-22.451-9.364-22.451-23.057c0-28.337,0.464-56.668-0.257-84.975c-0.245-9.407,10.868-21.131,19.64-21.21
		c9.083-0.073,18.154-0.538,27.231-0.556c32.14-0.08,64.285-0.073,96.418-0.024c4.713,0,9.443,0.214,14.132,0.654
		c12.83,1.186,20.808,10.178,20.808,23.215c0,27.788,0,55.568,0,83.337c0,12.714-9.206,22.438-22.061,22.562
		c-22.329,0.238-44.664,0.073-66.999,0.073C322.247,297.775,322.247,297.794,322.247,297.806z M399.24,215.948
		c-2.427,0-4.205,0-5.979,0c-37.414,0-74.841,0-112.249,0.024c-9.811,0.006-19.621,0.134-29.432,0.171
		c-2.817,0.006-4.853,0.416-4.811,4.132c0.263,17.977,0.171,35.959,0.532,53.931c0.134,7.097,3.166,9.56,10.312,9.578
		c21.986,0.012,43.967,0.042,65.941-0.019c22.164-0.049,44.315-0.165,66.485-0.336c5.538-0.043,9.113-2.959,9.15-7.818
		C399.326,256.015,399.24,236.394,399.24,215.948z M399.032,193.863c0.178-8.02-2.011-10.617-9.059-11.21
		c-2.176-0.178-4.358-0.257-6.528-0.257c-42.139-0.061-84.272-0.116-126.399-0.141c-7.042,0-10.458,4.175-9.652,11.607
		C297.834,193.863,348.28,193.863,399.032,193.863z"/>
	<path fill-rule="evenodd" clip-rule="evenodd" fill="#FFFFFF" d="M282.32,269.646c-8.093,6.198-16.589,6.088-22.206-0.049
		c-4.908-5.354-5.122-14.064-0.489-19.413c5.984-6.876,13.814-7.182,22.751-0.886c10.024-6.027,17.989-5.715,23.196,0.886
		c4.64,5.917,4.377,14.071-0.642,19.37C298.947,275.868,291.435,275.96,282.32,269.646z"/>
</g>
<g>
	<path fill-rule="evenodd" clip-rule="evenodd" fill="#FFFFFF" d="M330.523,318.9c3.974,1.559,8.588-1.98,10.611,2.493
		c5.146-1.032,10.221-2.658,15.354-2.952c5.905-0.342,9.272,3.57,9.328,9.505c0.055,6.009-0.013,12.011,0.036,18.02
		c0.043,5.819,2.806,7.507,8.441,5.098c-2.726-6.277-3.221-12.799-1.289-19.346c4.547-15.379,23.337-16.039,30.972-9.45
		c5.85,5.056,6.216,11.95,5.782,19.529c-4.328,0-8.545,0-12.775,0c-4.242,0-8.472,0-12.677,0
		c-0.716,9.182,7.041,11.131,15.061,8.937c2.818-0.77,5.508-2.005,8.454-3.099c1.008,9.994,1.191,8.888-6.565,11.234
		c-7.065,2.14-14.113,1.896-20.855-1.754c-0.984-0.531-2.616,0-3.918,0.251c-4.511,0.813-9.016,2.457-13.503,2.384
		c-4.877-0.067-7.328-3.228-7.579-8.154c-0.306-5.855-0.257-11.736-0.33-17.598c-0.061-5.574-1.595-6.944-7.017-6.149
		c-6.339,0.923-6.339,0.923-6.345,7.256c0,7.854,0,15.721,0,23.502c-5.38,1.779-10.3,1.112-11.853-1.577
		c-5.477,1.51-10.978,3.136-16.491-0.152c-0.581-0.343-1.821,0.482-2.775,0.642c-4.492,0.776-9.028,2.256-13.483,2.035
		c-4.842-0.238-7.256-3.142-7.329-7.909c-0.251-13.747-0.11-27.494-0.11-41.241c0-1.173,0-2.347,0-3.325
		c0.593-0.293,0.813-0.488,1.039-0.501c9.676-0.336,9.67-0.336,9.676,9.272c0.013,9.475,0.043,18.949,0.043,28.424
		c0.006,7.793,2.164,9.346,9.731,6.644c0-10.25,0-20.617,0-31.57c2.787,0,5.274-0.172,7.738,0.042
		c2.836,0.245,3.063,2.494,3.068,4.731c0.006,6.804-0.013,13.612,0.013,20.422c0.012,5.36,1.118,6.265,6.313,6.118
		c2.732-0.066,3.308-1.229,3.276-3.686C330.457,337.922,330.523,328.869,330.523,318.9z M384.417,334.371c4.743,0,9.218,0,13.711,0
		c-0.6-6.095-2.549-8.601-6.479-8.576C387.395,325.807,384.863,328.717,384.417,334.371z"/>
	<path fill-rule="evenodd" clip-rule="evenodd" fill="#FFFFFF" d="M228.519,306.822c10.697-1.052,10.721-1.021,10.721,8.918
		c0,10.134-0.024,20.269,0.006,30.409c0.019,5.422,2.58,7.023,7.72,4.854c-3.038-10.208-3.698-20.27,4.267-28.668
		c4.707-4.963,11.797-5.238,21.351-1.772c0-2.371,0-4.578,0-6.778c0-2.268,0-4.523,0-6.84c0.396-0.153,0.758-0.403,1.118-0.41
		c10.465-0.012,9.621-1.155,9.603,9.206c-0.018,14.383-0.006,28.765-0.006,43.099c-6.699,1.467-8.447,0.96-10.88-2.989
		c-6.253,4.731-12.8,5.196-19.786,1.626c-0.941-0.477-2.409-0.073-3.606,0.116c-4.028,0.66-8.02,1.907-12.054,1.986
		c-5.062,0.099-7.8-2.701-8.197-7.842c-0.367-4.768-0.238-9.584-0.244-14.377C228.5,327.25,228.519,317.127,228.519,306.822z
		 M272.608,338.814c-0.007,0-0.013,0-0.019,0c0-2.133-0.214-4.291,0.055-6.388c0.446-3.649-1.675-4.682-4.614-5.024
		c-6.021-0.715-9.609,1.412-10.575,7.427c-0.636,3.937-0.238,8.203,0.538,12.146c0.722,3.655,4.358,5.116,8.667,4.377
		c4.2-0.716,5.936-2.732,5.948-6.938C272.614,342.549,272.608,340.679,272.608,338.814z"/>
	<path fill-rule="evenodd" clip-rule="evenodd" fill="#FFFFFF" d="M99.094,326.479c0-2.536,0-4.529,0-6.84
		c5.941,0,11.852,0,18.031,0c0,2.066,0,4.138,0,6.491c-1.112,0.263-2.329,0.544-3.729,0.874c1.485,5.422,2.934,10.685,4.377,15.941
		c0.269,0.019,0.531,0.043,0.788,0.062c1.772-6.155,3.79-12.262,5.227-18.496c0.923-4.035,2.598-6.125,6.943-5.208
		c0.898,0.183,1.858,0.019,3.264,0.019c2.323,7.879,4.664,15.794,7.366,24.926c1.748-6.302,3.209-11.552,4.78-17.206
		c-1.754-0.275-2.995-0.471-4.468-0.703c0-2.164,0-4.364,0-6.797c5.63,0,11.18,0,17.054,0c0,2.133,0,4.31,0,6.479
		c-0.324-0.202-0.648-0.397-0.972-0.605c-1.388,1.846-3.374,3.496-4.053,5.568c-2.634,8.038-5.055,16.174-7.108,24.377
		c-0.801,3.196-1.938,4.633-5.281,4.107c-1.559-0.245-3.191-0.043-5.178-0.043c-2.316-7.824-4.633-15.642-7.243-24.462
		c-1.791,5.819-3.319,10.794-4.847,15.77c-0.073,0.251-0.085,0.521-0.165,0.776c-2.426,8.649-2.426,8.649-11.717,7.604
		c-2.727-9.444-5.581-18.931-8.148-28.484C103.299,327.965,102.388,326.168,99.094,326.479z"/>
	<path fill-rule="evenodd" clip-rule="evenodd" fill="#FFFFFF" d="M183.213,350.159c-7.72-4.627-11.956-10.85-12.09-19.462
		c-0.019-1.309,0.208-2.653,0.525-3.931c2.164-8.753,3.539-10.385,13.6-7.017c9.86,3.307,15.055,13.606,13.069,24.132
		c-1.681,8.905-10.789,16.308-20.141,16.351c-10.446,0.067-19.358-6.949-21.363-16.809c-2.066-10.153,4.242-20.905,14.34-23.882
		c-1.553,5.306-3.05,10.428-4.542,15.55c-1.546,5.318-0.581,10.129,3.612,13.796C173.916,352.127,178.231,352.806,183.213,350.159z
		 M181.129,327.427c-1.235,8.136,1.43,13.209,7.549,14.768C190.738,336.528,187.914,330.813,181.129,327.427z"/>
	<path fill-rule="evenodd" clip-rule="evenodd" fill="#FFFFFF" d="M212.003,359.212c-3.857,0-7.243,0-10.923,0
		c0-13.203,0-26.204,0-39.205c5.666-1.712,8.955-1.015,10.654,1.895c4.315-1.394,8.551-2.769,13.484-4.377c0,4.218,0,7.072,0,10.214
		c-2.983,0.416-6.088,0.85-9.181,1.29c-2.879,0.416-4.229,1.712-4.126,4.994C212.18,342.268,212.003,350.52,212.003,359.212z"/>
	<path fill-rule="evenodd" clip-rule="evenodd" fill="#FFFFFF" d="M321.752,311.247c0.019,3.344-2.988,6.363-6.356,6.388
		c-3.282,0.03-6.498-3.154-6.425-6.363c0.062-2.971,3.191-6.106,6.223-6.247C318.329,304.884,321.734,308.117,321.752,311.247z"/>
</g>
</svg>
