<?xml version="1.0" encoding="utf-8"?>
<!-- Generator: Adobe Illustrator 16.0.0, SVG Export Plug-In . SVG Version: 6.00 Build 0)  -->
<!DOCTYPE svg PUBLIC "-//W3C//DTD SVG 1.1//EN" "http://www.w3.org/Graphics/SVG/1.1/DTD/svg11.dtd">
<svg version="1.1" id="Layer_1" xmlns="http://www.w3.org/2000/svg" xmlns:xlink="http://www.w3.org/1999/xlink" x="0px" y="0px"
	 width="512px" height="512px" viewBox="0 0 512 512" enable-background="new 0 0 512 512" xml:space="preserve">
<g>
	<g>
		<linearGradient id="SVGID_1_" gradientUnits="userSpaceOnUse" x1="100.7568" y1="100.8184" x2="416.8307" y2="416.8922">
			<stop  offset="0" style="stop-color:#FF00FF"/>
			<stop  offset="1" style="stop-color:#FF006F"/>
		</linearGradient>
		<path fill="url(#SVGID_1_)" d="M481.393,256.455c0,124.261-100.733,225-225,225s-225-100.739-225-225
			c0-124.267,100.733-225,225-225S481.393,132.188,481.393,256.455z"/>
		<linearGradient id="SVGID_2_" gradientUnits="userSpaceOnUse" x1="150.4463" y1="72.9502" x2="362.3394" y2="439.9598">
			<stop  offset="0" style="stop-color:#FF006F"/>
			<stop  offset="0.6601" style="stop-color:#FF007F"/>
			<stop  offset="1" style="stop-color:#FF00FF"/>
		</linearGradient>
		<circle fill="url(#SVGID_2_)" cx="256.393" cy="256.455" r="211.858"/>
	</g>
</g>
<g>
	<path fill-rule="evenodd" clip-rule="evenodd" fill="#FFFFFF" d="M264.516,261.92c-27.09,0.043-49.027-21.785-49.009-48.747
		c0.024-26.98,22.005-48.924,48.96-48.869c27.048,0.055,49.022,21.925,49.065,48.82C313.568,240.031,291.631,261.877,264.516,261.92
		z M291.655,214.688c-8.271,0-16.167-0.049-24.064,0.104c-0.587,0.006-1.614,1.437-1.65,2.237c-0.165,4.059-0.019,8.129-0.104,12.2
		c-0.036,1.754,0.703,2.262,2.372,2.458c5.165,0.623,10.3,1.503,15.458,2.103c0.899,0.104,2.366-0.391,2.751-1.07
		C289.528,227.335,291.49,221.565,291.655,214.688z M237.921,214.688c0.293,6.779,2.072,12.586,5.092,18.02
		c0.317,0.575,1.559,0.997,2.298,0.905c4.548-0.538,9.096-1.155,13.606-1.968c0.795-0.146,1.968-1.29,2.005-2.011
		c0.189-4.273,0.189-8.558,0.006-12.824c-0.036-0.733-1.216-2.017-1.895-2.035C252.175,214.621,245.305,214.688,237.921,214.688z
		 M291.417,209.768c-0.604-6.229-2.671-11.406-5.501-16.302c-0.3-0.525-1.614-0.782-2.396-0.678
		c-5.061,0.691-10.092,1.62-15.165,2.237c-1.84,0.232-2.567,0.831-2.512,2.689c0.092,3.136,0.122,6.277-0.013,9.401
		c-0.098,2.109,0.776,2.726,2.757,2.677c3.967-0.098,7.94-0.031,11.913-0.024C284.009,209.768,287.529,209.768,291.417,209.768z
		 M238.098,209.713c7.359,0,14.34,0.049,21.308-0.092c0.55-0.012,1.51-1.332,1.546-2.078c0.172-3.239-0.012-6.485,0.099-9.725
		c0.073-2.005-0.709-2.684-2.684-2.903c-4.254-0.483-8.466-1.339-12.708-1.895c-0.88-0.116-2.372,0.091-2.684,0.648
		C240.262,198.515,238.52,203.705,238.098,209.713z M237.817,235.734c-1.668-6.736-3.221-13.16-4.915-19.548
		c-0.165-0.624-1.192-1.412-1.846-1.449c-2.806-0.165-5.63-0.024-8.441-0.085c-1.607-0.037-2.262,0.563-2.121,2.219
		c0.66,7.775,3.319,14.817,7.745,21.192c0.391,0.557,1.644,1.07,2.231,0.85C233.178,237.91,235.793,236.632,237.817,235.734z
		 M308.392,214.695c-3.588,0-6.896-0.116-10.184,0.091c-0.611,0.037-1.461,1.235-1.656,2.03c-0.654,2.72-0.825,5.586-1.639,8.251
		c-1.118,3.655-2.665,7.17-4.089,10.923c1.045,0.483,2.06,0.972,3.093,1.43c5.979,2.689,5.996,2.702,9.193-3.056
		C306.441,228.375,308.379,222.005,308.392,214.695z M237.945,190.697c-2.029-1.045-4.48-2.408-7.036-3.533
		c-0.593-0.263-1.931,0.037-2.298,0.544c-4.272,5.966-7.072,12.562-7.793,19.915c-0.067,0.648,1.106,1.98,1.778,2.036
		c2.91,0.226,5.85,0.171,8.777,0.03c0.605-0.03,1.547-0.752,1.718-1.326C234.761,202.586,236.295,196.779,237.945,190.697z
		 M291.02,190.471c1.81,6.162,3.509,12.03,5.294,17.873c0.171,0.557,0.935,1.29,1.448,1.308c3.404,0.11,6.821,0.055,10.551,0.055
		c-0.508-8.625-3.399-15.844-8.216-22.341c-0.306-0.41-1.356-0.69-1.815-0.483C295.653,188.075,293.092,189.432,291.02,190.471z
		 M267.102,171.431c-0.416,0.226-0.825,0.446-1.229,0.672c0,5.483-0.043,10.972,0.062,16.461c0.006,0.568,0.923,1.644,1.326,1.602
		c4.89-0.489,9.762-1.149,14.646-1.76c0.152-0.471,0.317-0.93,0.477-1.4C277.285,181.816,272.188,176.62,267.102,171.431z
		 M282.529,239.64c-0.195-0.507-0.403-1.009-0.599-1.522c-4.829-0.507-9.658-1.051-14.493-1.467
		c-0.464-0.043-1.442,0.739-1.442,1.161c-0.098,5.55-0.067,11.1-0.067,16.657c0.354,0.189,0.709,0.373,1.076,0.562
		C272.175,249.896,277.353,244.774,282.529,239.64z M245.904,187.629c1.546,0.593,2.011,0.843,2.5,0.935
		c2.255,0.434,4.505,1.015,6.785,1.186c6.754,0.525,5.752,1.424,5.837-5.318c0.019-1.668,0-3.343,0-5.012c0-2.109,0-4.218,0-6.327
		c-0.403-0.159-0.818-0.33-1.222-0.489C255.323,177.445,250.843,182.286,245.904,187.629z M247.145,238.044
		c0.959,3.936,9.859,13.796,13.851,15.421c0-5.116,0.086-10.098-0.098-15.067c-0.019-0.599-1.497-1.675-2.237-1.626
		C254.914,237.018,251.197,237.567,247.145,238.044z M296.111,182.562c-6.687-6.534-13.729-10.52-22.445-12.292
		c4.609,5.342,8.852,10.306,13.179,15.189c0.354,0.403,1.406,0.581,1.938,0.367C291.068,184.927,293.294,183.845,296.111,182.562z
		 M254.094,255.789c-0.067-0.52-0.012-0.764-0.116-0.893c-3.894-4.615-7.781-9.242-11.749-13.796
		c-0.446-0.507-1.51-0.996-2.06-0.819c-2.42,0.813-4.761,1.864-7.665,3.044C238.838,249.854,245.793,253.796,254.094,255.789z
		 M254.504,170.435c-8.57,1.943-15.452,5.85-21.656,12.292c2.677,1.229,4.792,2.311,7.005,3.16c0.599,0.22,1.76-0.024,2.164-0.489
		C246.111,180.611,250.103,175.734,254.504,170.435z M295.989,243.851c-2.151-1.039-3.766-1.748-5.306-2.585
		c-2.133-1.174-3.466-0.575-4.945,1.351c-2.42,3.13-5.201,5.979-7.896,8.882c-1.241,1.333-2.629,2.512-3.949,3.765
		C282.518,254.047,289.59,250.27,295.989,243.851z"/>
	<path fill-rule="evenodd" clip-rule="evenodd" fill="#FFFFFF" d="M397.377,158.925v-4.224H127.859v4.859h0.006
		c0.018,0.41,0.067,0.844,0.067,1.241c0,59.432,0,118.857,0,178.276c0,0.416,0.03,0.844-0.006,1.253
		c-0.226,2.775,0.898,4.096,3.808,3.949c2.708-0.146,5.453,0.152,8.148-0.086l8.558,0.049c1.638,0,2.665,0,3.686,0
		c29.945,0,59.884,0,89.829,0l-10.33,10.146l4.028,4.09l13.025-12.8h27.396l14.498,12.897l3.814-4.285l-11.308-10.055
		c30.635-0.006,61.259-0.013,91.889-0.043c0,0,15.482,0.055,17.255,0.055c5-0.006,5.147-0.141,5.147-5.073
		c0.006-59.321,0.006-118.643,0.006-177.958C397.377,160.459,397.512,159.621,397.377,158.925z M132.75,159.56h259.835
		c-0.062,0.837,0.024,1.73,0.024,2.592c0,49.694,0,99.382,0,149.077c0,0.734-0.049,1.468,0.012,2.201
		c0.159,1.876-0.636,2.616-2.543,2.567c-3.759-0.099-7.53-0.104-11.296,0c-2.029,0.066-2.731-0.697-2.787-2.721
		c-0.122-4.383-0.269-8.789-0.782-13.147c-1.926-16.345-9.395-24.786-25.232-28.82c-0.556-0.146-1.082-0.459-1.815-0.771
		c0.636-0.837,1.119-1.504,1.632-2.14c7.299-9.034,8.271-22.011,2.396-32.103c-8.258-14.211-26.302-14.37-34.805-0.312
		c-6.124,10.116-5.152,23.484,2.366,32.616c0.544,0.673,1.032,1.394,1.717,2.316c-0.94,0.27-1.43,0.416-1.919,0.544
		c-15.22,3.839-21.956,11.168-24.07,26.742c-0.667,4.957-0.551,10.013-0.941,15.013c-0.08,0.935-0.813,2.519-1.376,2.579
		c-2.506,0.287-5.061,0.129-8.093,0.129c0.99-4.762,1.87-8.833,2.684-12.916c0.654-3.282-0.116-4.334-3.411-4.346
		c-12.555-0.049-25.104,0.006-37.659-0.067c-2.732-0.019-3.949,1.186-4.389,3.789c-0.636,3.814-1.4,7.616-2.378,11.352
		c-0.232,0.88-1.534,1.473-2.347,2.2c-0.495-0.861-1.351-1.705-1.418-2.604c-0.403-5.104-0.379-10.257-0.96-15.33
		c-1.687-14.695-9.26-23.1-23.533-26.541c-0.893-0.22-1.767-0.495-2.628-0.733c0.073-0.428,0.043-0.666,0.159-0.819
		c0.281-0.434,0.623-0.831,0.953-1.234c7.354-9.254,8.393-19.456,3.814-30.079c-3.13-7.244-8.692-12.097-16.846-12.934
		c-7.812-0.801-13.802,2.738-18.24,8.93c-7.017,9.78-6.424,24.432,1.21,33.698c0.624,0.764,1.216,1.546,2.06,2.628
		c-1.736,0.459-3.02,0.807-4.31,1.149c-12.506,3.288-19.651,11.51-21.521,24.138c-0.825,5.563-0.93,11.247-1.144,16.883
		c-0.079,2.134-0.66,2.977-2.879,2.928c-5.128-0.128-10.257-0.036-15.385-0.042c-4.138,0-4.138-0.007-4.138-4.084
		c0-50.012,0-100.018-0.012-150.024C132.756,161.101,132.798,160.312,132.75,159.56z M344.412,290.129
		c-0.391-0.642-0.52-2.078-0.104-2.513c3.166-3.319,3.264-7.273,2.5-11.962c9.229,1.699,16.559,5.244,20.514,13.826
		c3.612,7.837,3.777,16.223,3.856,24.597c0,0.624-1.174,1.785-1.821,1.797c-5.966,0.147-11.926,0.056-17.892,0.116
		c-1.974,0.019-2.14-1.057-2.041-2.628C349.926,305.153,348.855,297.293,344.412,290.129z M338.043,269.175
		c-1.528-0.391-3.46-0.263-4.902,0.343c-2.42,1.015-4.248,0.257-6.137-1.003c-11.442-7.641-11.742-27.353-0.538-35.379
		c5.587-4.003,12.445-3.673,17.61,0.905c4.927,4.376,6.938,10.049,7.078,16.693c-0.129,6.498-2.219,12.317-7.421,16.779
		C342.083,268.931,340.427,269.786,338.043,269.175z M342.529,279.756c0.062,3.46-2.885,6.473-6.332,6.455
		c-3.111-0.013-6.095-2.892-6.18-5.966c-0.092-3.295,2.738-6.314,6.021-6.425C339.363,273.711,342.475,276.547,342.529,279.756z
		 M326.582,284.768c1.772,4.371,5.52,6.254,10.281,6.327c1.112,0.012,2.684,0.679,3.252,1.546
		c4.113,6.449,4.951,13.631,4.377,21.095c-0.135,1.741-1.021,2.255-2.666,2.255c-13.275-0.043-26.559,0.019-39.828-0.098
		c-0.874-0.006-2.488-1.137-2.488-1.742c0.024-8.869-0.317-17.848,3.894-26.075c4.579-8.937,12.867-11.431,21.571-12.622
		C325.543,278.985,325.5,282.109,326.582,284.768z M282.542,304.248c-0.709,3.381-1.382,6.932-2.262,10.435
		c-0.135,0.544-1.192,1.229-1.828,1.229c-10.959,0.03-21.913-0.024-32.873-0.079c-0.189,0-0.361-0.184-0.941-0.489
		c0.728-3.405,1.418-6.956,2.305-10.459c0.134-0.55,1.167-1.253,1.779-1.253c10.966-0.036,21.919,0.024,32.879,0.08
		C281.777,303.711,281.961,303.906,282.542,304.248z M178.758,312.83c0.25,2.641-0.63,3.265-3.056,3.185
		c-4.383-0.146-8.778-0.085-13.173-0.024c-1.632,0.024-2.671-0.403-2.506-2.262c0.599-6.741,0.733-13.569,1.938-20.214
		c1.443-8.056,6.95-13.093,14.438-16.002c0.929-0.36,1.944-0.501,3.435-0.868c-0.905,4.872,0.379,8.637,3.502,11.853
		c0.354,0.366,0.196,1.626-0.147,2.243C179.388,297.646,178.031,305.067,178.758,312.83z M194.846,269.768
		c-1.125-0.061-2.274-0.886-3.325-0.727c-3.435,0.525-5.495-1.425-7.463-3.668c-7.28-8.319-6.846-22.702,0.911-30.446
		c6.247-6.253,15.128-6.088,21.101,0.446c3.93,4.31,5.55,9.499,5.611,16.394c-0.366,7.085-2.995,14.107-10.947,17.83
		C199.094,270.354,196.814,269.872,194.846,269.768z M196.857,279.964c0.159,3.074-2.873,6.075-6.204,6.143
		c-3.405,0.073-6.168-2.652-6.174-6.088c-0.019-3.325,2.561-6.094,5.764-6.191C193.776,273.711,196.674,276.4,196.857,279.964z
		 M187.468,293.148c0.514-0.917,1.749-2.005,2.659-2.012c7.94-0.049,13.594-7.689,10.85-14.95c-0.067-0.184-0.006-0.41-0.006-0.85
		c14.346-0.422,26.375,5.696,28.667,19.62c1.021,6.156,1.064,12.47,1.565,18.711c0.146,1.821-0.776,2.322-2.451,2.316
		c-14.12-0.024-28.228-0.037-42.347,0.006c-1.833,0.007-2.604-0.647-2.745-2.506C183.11,306.352,183.899,299.463,187.468,293.148z
		 M389.352,339.463c-6.271-0.129-12.543-0.043-18.82-0.043c-35.984,0-71.969,0-107.94,0c-41.84,0-83.68,0-125.514,0
		c-4.315-0.006-4.315-0.019-4.315-4.248c0-3.35,0-6.693,0.006-10.037c0-4.315,0-4.321,4.168-4.321
		c14.847,0,29.701-0.013,44.56-0.013c68.924,0,137.855,0.013,206.773,0.013c4.321,0,4.333,0,4.333,4.181
		c0.007,3.76-0.128,7.53,0.037,11.29C392.762,338.833,391.735,339.499,389.352,339.463z"/>
</g>
</svg>
