<?xml version="1.0" encoding="utf-8"?>
<!-- Generator: Adobe Illustrator 16.0.0, SVG Export Plug-In . SVG Version: 6.00 Build 0)  -->
<!DOCTYPE svg PUBLIC "-//W3C//DTD SVG 1.1//EN" "http://www.w3.org/Graphics/SVG/1.1/DTD/svg11.dtd">
<svg version="1.1" id="Layer_1" xmlns="http://www.w3.org/2000/svg" xmlns:xlink="http://www.w3.org/1999/xlink" x="0px" y="0px"
	 width="512px" height="512px" viewBox="0 0 512 512" enable-background="new 0 0 512 512" xml:space="preserve">
<g>
	<g>
		<linearGradient id="SVGID_1_" gradientUnits="userSpaceOnUse" x1="100.1353" y1="99.8188" x2="416.2084" y2="415.892">
			<stop  offset="0" style="stop-color:#00C9FF"/>
			<stop  offset="1" style="stop-color:#0091FF"/>
		</linearGradient>
		<path fill="url(#SVGID_1_)" d="M480.771,255.455c0,124.261-100.733,225-225,225s-225-100.739-225-225
			c0-124.267,100.733-225,225-225S480.771,131.188,480.771,255.455z"/>
		<linearGradient id="SVGID_2_" gradientUnits="userSpaceOnUse" x1="149.8242" y1="71.9507" x2="361.7168" y2="438.9594">
			<stop  offset="0" style="stop-color:#0091FF"/>
			<stop  offset="0.4483" style="stop-color:#0093FF"/>
			<stop  offset="1" style="stop-color:#00C9FF"/>
		</linearGradient>
		<circle fill="url(#SVGID_2_)" cx="255.771" cy="255.455" r="211.858"/>
	</g>
</g>
<g>
	<path fill-rule="evenodd" clip-rule="evenodd" fill="#FFFFFF" d="M375.294,196.506c5.696-2.818,11.24-3.93,17.084-2.372
		c15.165,4.065,22.023,20.581,14.156,34.407c-8.691,15.257-17.401,30.52-26.411,45.587c-3.35,5.599-5.074,11.112-4.964,17.787
		c0.373,23.05,0.128,46.118,0.122,69.169c-0.006,9.364-5.69,14.993-15.128,14.993c-70.043,0.007-140.08,0.013-210.123,0.013
		c-8.716,0-14.609-5.887-14.609-14.651c-0.012-70.336-0.018-140.66-0.012-210.99c0-8.16,6.015-14.242,14.163-14.242
		c70.526-0.006,141.045-0.006,211.564,0.012c8.191,0.006,14.145,6.027,14.15,14.242
		C375.313,165.639,375.294,180.815,375.294,196.506z M144.664,182.613c0,1.253,0,2.207,0,3.16
		c-0.012,58.044-0.012,116.088-0.024,174.125c0,5.667,1.265,6.95,6.932,6.95c69.383,0.013,138.759,0,208.136,0
		c4.847,0,6.339-1.504,6.351-6.382c0.006-19.7,0-39.4-0.012-59.095c0-0.52-0.056-1.033-0.122-2.194
		c-0.777,1.191-1.205,1.791-1.571,2.427c-4.762,8.221-9.419,16.516-14.328,24.646c-1.075,1.76-2.866,3.288-4.663,4.37
		c-3.203,1.913-6.706,3.319-9.988,5.116c-1.1,0.605-2.146,1.596-2.824,2.665c-1.955,3.068-3.624,6.326-5.586,9.401
		c-3.1,4.865-8.827,7.279-14.176,6.154c-5.831-1.229-10.152-5.653-11.124-11.454c-0.171-1.021-0.208-2.06-0.33-3.319
		c-1.229,0-2.359,0-3.496,0c-15.184,0-30.367,0.006-45.551-0.012c-4.731-0.007-6.149-1.449-6.155-6.223
		c-0.024-17.293-0.024-34.591-0.024-51.889c0-5.08,1.437-6.485,6.51-6.485c23.918,0.006,47.854-0.013,71.772,0.036
		c1.62,0.006,2.574-0.403,3.417-1.87c12.372-21.565,24.805-43.099,37.213-64.64c0.422-0.733,0.954-1.559,0.972-2.341
		c0.067-7.665,0.043-15.324,0.043-23.148C292.164,182.613,218.606,182.613,144.664,182.613z M144.67,172.979
		c74.003,0,147.604,0,221.387,0c0-6.772,0-13.294,0-19.811c0-6.699-1.021-7.732-7.592-7.732c-60.128,0-120.263,0-180.391,0
		c-9.315,0-18.637-0.012-27.946,0.031c-3.448,0.018-5.379,1.559-5.422,4.615C144.591,157.655,144.67,165.229,144.67,172.979z
		 M321.192,284.031c-22.2,0-43.949,0-65.691,0c0,15.342,0,30.482,0,45.904c1.082,0,2.017,0,2.946,0
		c13.546,0.006,27.097-0.244,40.637,0.152c4.908,0.147,8.001-1.186,9.529-5.813c0.385-1.143,0.818-2.365,0.775-3.533
		c-0.122-3.74-0.647-7.476-0.635-11.204c0.006-2.011,0.379-4.242,1.313-5.978C313.558,297.068,317.335,290.742,321.192,284.031z
		 M384.957,247.454c-8.142-4.701-15.94-9.206-23.954-13.833c-13.063,22.635-26.082,45.178-39.193,67.886
		c2.817,1.601,5.281,3.013,7.977,4.547c11.59-20.049,23.044-39.877,34.597-59.859c2.744,1.595,5.27,3.062,7.977,4.633
		c-11.589,20.092-23.037,39.92-34.578,59.914c2.714,1.547,5.257,2.995,7.989,4.554C358.863,292.631,371.81,270.217,384.957,247.454z
		 M396.357,227.368c3.973-5.507,6.051-11.149,2.5-17.494c-2.794-4.976-7.231-7.42-12.885-7.054
		c-6.357,0.41-11.089,4.56-13.045,11.052C380.685,218.34,388.479,222.833,396.357,227.368z M318.258,310.18
		c-0.403,10.287-0.403,10.287,7.721,15.067c1.075,0.636,2.133,1.284,3.258,1.821c0.557,0.257,1.363,0.557,1.827,0.343
		c3.008-1.382,5.948-2.909,9.212-4.542C332.781,318.548,325.685,314.459,318.258,310.18z M391.871,235.474
		c-8.13-4.694-15.954-9.206-23.961-13.82c-0.832,1.479-1.51,2.671-2.25,3.979c8.136,4.682,15.96,9.206,23.912,13.796
		C390.373,238.053,391.033,236.91,391.871,235.474z M323.894,334.733c-2.763-1.583-5.226-2.988-7.952-4.554
		c-1.546,2.672-3.02,5.11-4.389,7.61c-1.437,2.646-0.85,5.153,1.424,6.516c2.293,1.376,4.787,0.722,6.4-1.84
		C320.911,340.033,322.286,337.509,323.894,334.733z"/>
	<path fill-rule="evenodd" clip-rule="evenodd" fill="#FFFFFF" d="M195.673,200.797c8.734,0,17.481-0.006,26.21,0
		c4.175,0.006,5.783,1.577,5.789,5.703c0.012,14.59,0.019,29.181,0.012,43.784c-0.006,4.26-1.626,5.868-5.954,5.874
		c-17.573,0.018-35.14,0.018-52.714-0.006c-4.333,0-5.935-1.602-5.935-5.886c-0.006-14.59,0-29.181,0.012-43.784
		c0.006-4.114,1.62-5.685,5.794-5.685C177.812,200.791,186.742,200.791,195.673,200.797z M218.234,246.831
		c0-12.366,0-24.505,0-36.645c-15.361,0-30.495,0-45.703,0c0,12.292,0,24.432,0,36.645
		C187.818,246.831,202.892,246.831,218.234,246.831z"/>
	<path fill-rule="evenodd" clip-rule="evenodd" fill="#FFFFFF" d="M246.278,219.367c33.722,0,67.31,0,101.119,0
		c0,2.916,0,5.831,0,8.937c-33.637,0-67.292,0-101.119,0C246.278,225.394,246.278,222.545,246.278,219.367z"/>
	<path fill-rule="evenodd" clip-rule="evenodd" fill="#FFFFFF" d="M347.488,200.969c0,3.068,0,5.911,0,8.906
		c-24.505,0-48.875,0-73.466,0c0-2.867,0-5.783,0-8.906C298.387,200.969,322.824,200.969,347.488,200.969z"/>
	<path fill-rule="evenodd" clip-rule="evenodd" fill="#FFFFFF" d="M227.555,274.733c0,2.995,0,5.844,0,8.9
		c-21.394,0-42.745,0-64.291,0c0-2.916,0-5.825,0-8.9C184.634,274.733,205.93,274.733,227.555,274.733z"/>
	<path fill-rule="evenodd" clip-rule="evenodd" fill="#FFFFFF" d="M227.562,293.248c0,3.038,0,5.887,0,8.888
		c-21.492,0-42.849,0-64.34,0c0-2.989,0-5.825,0-8.888C184.597,293.248,205.941,293.248,227.562,293.248z"/>
	<path fill-rule="evenodd" clip-rule="evenodd" fill="#FFFFFF" d="M227.567,311.702c0,3.007,0,5.861,0,8.875
		c-21.479,0-42.842,0-64.346,0c0-2.964,0-5.807,0-8.875C184.572,311.702,205.936,311.702,227.567,311.702z"/>
	<path fill-rule="evenodd" clip-rule="evenodd" fill="#FFFFFF" d="M227.555,330.144c0,3.044,0,5.886,0,8.894
		c-21.485,0-42.842,0-64.333,0c0-2.983,0-5.831,0-8.894C184.597,330.144,205.941,330.144,227.555,330.144z"/>
	<path fill-rule="evenodd" clip-rule="evenodd" fill="#FFFFFF" d="M292.134,237.888c0,3.057,0,5.905,0,8.9
		c-15.27,0-30.41,0-45.789,0c0-2.848,0-5.758,0-8.9C261.474,237.888,276.682,237.888,292.134,237.888z"/>
	<path fill-rule="evenodd" clip-rule="evenodd" fill="#FFFFFF" d="M301.633,237.827c9.101,0,18.093,0,27.311,0
		c0,2.903,0,5.813,0,8.924c-9.01,0-18.069,0-27.311,0C301.633,243.799,301.633,240.889,301.633,237.827z"/>
	<path fill-rule="evenodd" clip-rule="evenodd" fill="#FFFFFF" d="M264.469,200.926c0,3.014,0,5.855,0,8.906
		c-6.039,0-12.029,0-18.191,0c0-2.921,0-5.831,0-8.906C252.305,200.926,258.222,200.926,264.469,200.926z"/>
	<path fill-rule="evenodd" clip-rule="evenodd" fill="#FFFFFF" d="M172.195,154.807c0,3.001,0,5.843,0,8.894
		c-2.946,0-5.844,0-8.937,0c0-2.916,0-5.825,0-8.894C166.168,154.807,169.01,154.807,172.195,154.807z"/>
	<path fill-rule="evenodd" clip-rule="evenodd" fill="#FFFFFF" d="M190.6,163.762c-3.099,0-5.948,0-8.931,0c0-2.989,0-5.837,0-8.899
		c2.922,0,5.832,0,8.931,0C190.6,157.76,190.6,160.669,190.6,163.762z"/>
	<path fill-rule="evenodd" clip-rule="evenodd" fill="#FFFFFF" d="M200.19,154.776c3.032,0,5.868,0,8.881,0c0,2.965,0,5.813,0,8.894
		c-2.842,0-5.758,0-8.881,0C200.19,160.853,200.19,157.931,200.19,154.776z"/>
</g>
</svg>
