<?xml version="1.0" encoding="utf-8"?>
<!-- Generator: Adobe Illustrator 16.0.0, SVG Export Plug-In . SVG Version: 6.00 Build 0)  -->
<!DOCTYPE svg PUBLIC "-//W3C//DTD SVG 1.1//EN" "http://www.w3.org/Graphics/SVG/1.1/DTD/svg11.dtd">
<svg version="1.1" id="Layer_1" xmlns="http://www.w3.org/2000/svg" xmlns:xlink="http://www.w3.org/1999/xlink" x="0px" y="0px"
	 width="512px" height="512px" viewBox="0 0 512 512" enable-background="new 0 0 512 512" xml:space="preserve">
<g>
	<g>
		<linearGradient id="SVGID_1_" gradientUnits="userSpaceOnUse" x1="100.2031" y1="99.8184" x2="416.277" y2="415.8922">
			<stop  offset="0" style="stop-color:#00C9FF"/>
			<stop  offset="1" style="stop-color:#0091FF"/>
		</linearGradient>
		<path fill="url(#SVGID_1_)" d="M480.839,255.455c0,124.261-100.733,225-225,225s-225-100.739-225-225
			c0-124.267,100.733-225,225-225S480.839,131.188,480.839,255.455z"/>
		<linearGradient id="SVGID_2_" gradientUnits="userSpaceOnUse" x1="149.8926" y1="71.9507" x2="361.7856" y2="438.9603">
			<stop  offset="0" style="stop-color:#0091FF"/>
			<stop  offset="0.4483" style="stop-color:#0093FF"/>
			<stop  offset="1" style="stop-color:#00C9FF"/>
		</linearGradient>
		<circle fill="url(#SVGID_2_)" cx="255.839" cy="255.455" r="211.858"/>
	</g>
</g>
<g>
	<path fill-rule="evenodd" clip-rule="evenodd" fill="#FFFFFF" d="M154.922,133.065c1.516-3.074,2.696-6.387,4.646-9.163
		c2.646-3.765,6.711-5.642,11.259-6.277c1.528-0.22,3.093-0.202,4.639-0.202c39.438-0.012,78.875,0.012,118.307-0.037
		c6.528-0.006,11.963,2.023,16.058,7.249c2.567,3.264,3.809,6.987,3.82,11.082c0.031,16.687,0.013,33.38,0.006,50.067
		c0,0.214-0.079,0.422-0.152,0.782c-4.089,0-8.19,0-12.543,0c0-13.185,0-26.357,0-39.719c-44.499,0-88.753,0-133.123,0
		c0,69.835,0,139.585,0,209.505c44.26,0,88.447,0,132.971,0c0-12.249,0-24.523,0-36.962c4.4,0,8.483,0,12.744,0
		c0.037,0.795,0.11,1.51,0.11,2.219c0.006,16.474,0.024,32.934,0,49.407c-0.007,9.786-5.294,16.938-14.181,19.113
		c-1.768,0.435-3.656,0.502-5.489,0.502c-39.652,0.03-79.31,0-118.967,0.049c-5.312,0.006-10.042-1.254-14.046-4.859
		c-2.47-2.231-4.089-4.976-5.135-8.105c-0.299-0.911-0.617-1.81-0.923-2.714C154.922,294.354,154.922,213.713,154.922,133.065z
		 M225.173,372.332c0.018,5.036,4.125,9.192,9.101,9.211c5.006,0.024,9.31-4.303,9.285-9.334c-0.025-5.006-4.114-9.089-9.169-9.138
		C229.194,363.022,225.154,367.068,225.173,372.332z M234.225,135.07c0-0.006,0-0.018,0-0.018c6.345,0,12.684,0,19.028-0.006
		c1.498,0,2.763-0.495,2.714-2.182c-0.049-1.577-1.216-2.243-2.745-2.262c-0.367-0.006-0.739-0.012-1.106-0.012
		c-11.876,0-23.747,0-35.617,0.012c-0.728,0-1.498-0.024-2.188,0.184c-1.687,0.495-2.273,2.702-0.923,3.637
		c0.703,0.501,1.785,0.618,2.702,0.618C222.135,135.095,228.18,135.07,234.225,135.07z"/>
	<path fill-rule="evenodd" clip-rule="evenodd" fill="#FFFFFF" d="M395.704,192.032c-10.947-0.019-21.895-0.019-32.836-0.08
		c-1.418-0.006-1.333,0.997-1.51,1.809c-1.718,7.689-3.393,15.385-5.098,23.075c-3.533,15.99-7.091,31.987-10.624,47.977
		c-1.405,6.363-2.799,12.726-4.144,19.107c-0.238,1.149-0.679,1.546-1.896,1.546c-32.793-0.03-65.58-0.03-98.368,0
		c-1.161,0-1.681-0.305-1.944-1.503c-2.396-10.96-4.859-21.913-7.298-32.861c-3.332-14.939-6.663-29.872-9.988-44.811
		c-0.324-1.473-0.599-2.958-0.917-4.547c38.056,0,75.905,0,113.992,0c-0.984,3.826-1.913,7.494-2.91,11.143
		c-0.079,0.306-0.599,0.599-0.966,0.691c-0.482,0.122-1.015,0.037-1.521,0.037c-30.41,0.006-60.813,0.006-91.217,0.012
		c-0.776,0-1.546,0.073-2.518,0.128c0.837,3.723,1.638,7.25,2.415,10.77c3.49,15.703,6.992,31.418,10.421,47.139
		c0.312,1.449,0.844,1.913,2.329,1.907c26.149-0.043,52.304-0.036,78.454-0.012c1.302,0,2.029-0.208,2.347-1.688
		c2.372-11.026,4.823-22.029,7.244-33.044c3.991-18.099,7.97-36.198,11.968-54.291c0.996-4.529,1.015-4.529,5.63-4.529
		c12.304,0,24.614,0,36.925,0.006c0.673,0,1.351,0.067,2.029,0.104C395.704,184.092,395.704,188.065,395.704,192.032z"/>
</g>
</svg>
