<?xml version="1.0" encoding="utf-8"?>
<!-- Generator: Adobe Illustrator 16.0.0, SVG Export Plug-In . SVG Version: 6.00 Build 0)  -->
<!DOCTYPE svg PUBLIC "-//W3C//DTD SVG 1.1//EN" "http://www.w3.org/Graphics/SVG/1.1/DTD/svg11.dtd">
<svg version="1.1" id="Layer_1" xmlns="http://www.w3.org/2000/svg" xmlns:xlink="http://www.w3.org/1999/xlink" x="0px" y="0px"
	 width="512px" height="512px" viewBox="0 0 512 512" enable-background="new 0 0 512 512" xml:space="preserve">
<g>
	<g>
		<linearGradient id="SVGID_1_" gradientUnits="userSpaceOnUse" x1="104.2378" y1="103.8188" x2="420.3109" y2="419.892">
			<stop  offset="0" style="stop-color:#FF00FF"/>
			<stop  offset="1" style="stop-color:#FF006F"/>
		</linearGradient>
		<path fill="url(#SVGID_1_)" d="M484.873,259.455c0,124.261-100.733,225-225,225s-225-100.739-225-225
			c0-124.267,100.733-225,225-225S484.873,135.188,484.873,259.455z"/>
		<linearGradient id="SVGID_2_" gradientUnits="userSpaceOnUse" x1="153.9268" y1="75.9512" x2="365.8198" y2="442.9608">
			<stop  offset="0" style="stop-color:#FF006F"/>
			<stop  offset="0.6601" style="stop-color:#FF007F"/>
			<stop  offset="1" style="stop-color:#FF00FF"/>
		</linearGradient>
		<circle fill="url(#SVGID_2_)" cx="259.873" cy="259.455" r="211.858"/>
	</g>
</g>
<g>
	<path fill-rule="evenodd" clip-rule="evenodd" fill="#FFFFFF" d="M357.44,228.336c-12.054-10.495-23.771-20.709-35.893-31.259
		c5.99-2.372,12.256-3.759,15.739-9.933c2.012,1.553,3.925,2.873,5.654,4.395c10.416,9.107,20.776,18.282,31.18,27.402
		c4.199,3.686,5.911,8.289,5.904,13.833c-0.061,45.618-0.03,91.235-0.03,136.846c-0.006,12.017-8.453,20.514-20.385,20.514
		c-69.713,0.006-139.419,0.006-209.126,0c-11.602,0-20.141-8.527-20.141-20.11c0-46.021,0.043-92.048-0.055-138.075
		c-0.012-6.95,2.916-12.09,8.118-16.302c10.801-8.741,21.571-17.524,32.359-26.284c2.054-1.656,4.132-3.289,6.18-4.92
		c-0.3,4.242-0.672,8.392-0.837,12.549c-0.061,1.706,0.049,3.539,0.605,5.122c1.577,4.414-0.96,6.742-3.973,9.157
		c-6.602,5.281-13.068,10.733-20.061,16.51c4.425,3.393,8.569,6.638,12.787,9.792c21.785,16.29,43.582,32.567,65.385,48.833
		c7.084,5.287,14.248,10.458,21.259,15.843c2.176,1.682,3.918,1.657,6.033,0.08c10.201-7.622,20.458-15.189,30.685-22.787
		c22.078-16.406,44.162-32.818,66.229-49.236C355.79,229.754,356.469,229.144,357.44,228.336z M150.344,243.392
		c0,42.592,0,84.7,0,126.821c70.006,0,139.786,0,209.578,0c0-42.041,0-83.931,0-126.351c-4.878,3.704-9.31,7.09-13.766,10.446
		c-29.01,21.809-58.031,43.612-87.047,65.422c-3.307,2.493-4.719,2.42-8.087-0.153c-11.498-8.814-23.001-17.622-34.554-26.363
		c-16.491-12.487-33.038-24.914-49.56-37.365C161.499,251.771,156.077,247.713,150.344,243.392z"/>
	<path fill-rule="evenodd" clip-rule="evenodd" fill="#FFFFFF" d="M273.607,191.387c-0.647-0.691-1.772-1.51-2.414-2.61
		c-6.956-11.846-13.839-23.734-20.746-35.611c-2.011-3.459-3.967-6.95-6.058-10.354c-0.966-1.559-0.905-2.604,0.446-3.997
		c8.735-9.016,17.323-18.167,26.064-27.17c2.011-2.079,2.438-3.937,1.045-6.535c-2.151-4.022-1.516-5.697,2.5-7.934
		c3.729-2.066,5.886-1.571,8.179,2.28c5.128,8.637,10.141,17.341,15.195,26.015c9.798,16.828,19.633,33.637,29.376,50.495
		c2.689,4.651,1.676,7.286-3.227,9.462c-2.519,1.125-4.652,0.789-6.155-1.577c-1.18-1.852-2.586-2.273-4.694-1.754
		c-12.012,2.958-24.035,5.813-36.064,8.686C276.156,190.995,275.24,191.105,273.607,191.387z"/>
	<path fill-rule="evenodd" clip-rule="evenodd" fill="#FFFFFF" d="M237.019,145.262c9.694,16.62,19.187,32.885,28.924,49.566
		c-3.423,2.06-6.687,4.083-9.994,6.015c-9.908,5.801-19.877,11.485-29.737,17.372c-5.104,3.038-9.872,3.643-14.683-0.52
		c-0.715-0.623-2.157-0.807-3.16-0.623c-8.392,1.583-14.077-2.562-18.301-9.01c-4.651-7.091-5.837-14.578-0.562-22.091
		c1.137-1.626,1.541-3.307,0.923-5.428c-1.314-4.529,0.453-8.032,4.419-10.385C208.767,161.912,222.709,153.703,237.019,145.262z
		 M213.748,201.717c1.4,1.98,2.812,3.643,3.82,5.513c1.106,2.072,2.225,2.176,4.132,1.033c6.045-3.655,12.188-7.146,18.282-10.715
		c3.674-2.151,7.329-4.34,11.119-6.589c-6.088-10.404-11.956-20.453-17.983-30.746c-10.776,6.29-21.265,12.415-31.828,18.582
		c0.99,1.779,1.791,3.203,2.573,4.633c0.813,1.498,1.614,2.995,2.458,4.554c-2.469,1.546-4.762,2.891-6.95,4.389
		c-2.109,1.437-2.965,3.301-1.51,5.764c1.204,2.023,2.292,4.107,3.496,6.131c1.253,2.103,2.983,2.677,5.202,1.437
		C208.871,204.406,211.193,203.129,213.748,201.717z"/>
	<path fill-rule="evenodd" clip-rule="evenodd" fill="#FFFFFF" d="M246.823,212.872c1.205,4.254,3.05,7.928,3.105,11.62
		c0.085,6.277,2.628,10.923,6.882,15.116c2.629,2.585,4.964,5.464,7.665,8.478c-3.948,2.311-7.732,4.676-11.687,6.705
		c-0.715,0.367-2.5-0.354-3.197-1.112c-5.397-5.917-10.654-11.968-15.947-17.983c-2.849-3.227-5.691-6.473-8.79-9.994
		c3.545-2.097,7.018-4.157,10.508-6.192C238.883,217.45,242.422,215.415,246.823,212.872z"/>
	<path fill-rule="evenodd" clip-rule="evenodd" fill="#FFFFFF" d="M328.675,140.097c8.723,0.667,16.187,1.149,23.631,1.828
		c3.411,0.312,5.122,2.433,4.676,5.226c-0.403,2.513-2.774,3.802-5.91,3.497c-6.32-0.605-12.653-1.076-18.979-1.626
		c-1.21-0.104-2.433-0.263-3.625-0.52c-2.39-0.532-3.49-2.268-3.221-4.517C325.558,141.417,327.373,140.146,328.675,140.097z"/>
	<path fill-rule="evenodd" clip-rule="evenodd" fill="#FFFFFF" d="M321.859,90.079c-0.354,1.167-0.672,2.353-1.051,3.502
		c-2.134,6.388-4.193,12.787-6.449,19.126c-1.18,3.325-3.233,4.358-5.844,3.398c-2.316-0.844-3.129-2.965-2.103-6.174
		c2.274-7.078,4.615-14.138,7.012-21.173c0.733-2.152,2.384-3.759,4.651-2.94c1.645,0.586,2.873,2.316,4.285,3.539
		C322.189,89.596,322.024,89.84,321.859,90.079z"/>
	<path fill-rule="evenodd" clip-rule="evenodd" fill="#FFFFFF" d="M324.506,127.799c-0.782-0.795-2.646-1.822-2.83-3.087
		c-0.226-1.51,0.52-4.071,1.676-4.719c7.022-3.955,14.254-7.537,21.473-11.144c1.889-0.941,3.625-0.33,4.798,1.443
		c1.174,1.754,1.553,3.539-0.317,5.146c-0.312,0.269-0.557,0.636-0.904,0.825c-7.061,3.698-14.126,7.396-21.217,11.058
		C326.664,127.591,325.985,127.548,324.506,127.799z"/>
	<path fill-rule="evenodd" clip-rule="evenodd" fill="#FFFFFF" d="M316.279,145.598c-4.23-7.244-8.283-14.193-12.354-21.18
		c5.049-1.681,10.109,0.354,13.509,5.287C320.411,134.04,320.051,140.824,316.279,145.598z"/>
	<path fill-rule="evenodd" clip-rule="evenodd" fill="#FFFFFF" d="M293.253,305.61c1.718,0.819,3.484,1.259,4.719,2.316
		c4.664,4.016,9.182,8.209,13.723,12.378c10.214,9.383,20.435,18.759,30.593,28.203c1.565,1.448,2.989,3.117,4.175,4.884
		c2.305,3.404,1.822,5.801-1.375,8.435c-2.922,2.409-5.923,2.323-8.79-0.244c-3.753-3.355-7.53-6.675-11.223-10.092
		c-11.852-10.947-23.722-21.889-35.464-32.939c-3.979-3.754-4.047-7.788-0.459-10.832C290.24,306.79,291.75,306.362,293.253,305.61z
		"/>
	<path fill-rule="evenodd" clip-rule="evenodd" fill="#FFFFFF" d="M160.662,356.075c0.898-1.608,1.467-3.576,2.75-4.78
		c8.912-8.338,17.989-16.516,26.993-24.762c5.825-5.336,11.614-10.721,17.451-16.045c1.351-1.235,2.763-2.445,4.279-3.447
		c3.136-2.055,5.678-1.468,8.331,1.748c1.938,2.347,1.975,6.246-0.208,8.386c-4.976,4.891-10.043,9.701-15.165,14.444
		c-6.327,5.855-12.739,11.613-19.12,17.408c-4.407,4.004-8.741,8.093-13.264,11.949c-2.408,2.061-5.348,3.038-8.459,1.559
		C161.731,361.344,161.108,359.009,160.662,356.075z"/>
</g>
</svg>
