<?xml version="1.0" encoding="utf-8"?>
<!-- Generator: Adobe Illustrator 16.0.0, SVG Export Plug-In . SVG Version: 6.00 Build 0)  -->
<!DOCTYPE svg PUBLIC "-//W3C//DTD SVG 1.1//EN" "http://www.w3.org/Graphics/SVG/1.1/DTD/svg11.dtd">
<svg version="1.1" id="Layer_1" xmlns="http://www.w3.org/2000/svg" xmlns:xlink="http://www.w3.org/1999/xlink" x="0px" y="0px"
	 width="512px" height="512px" viewBox="0 0 512 512" enable-background="new 0 0 512 512" xml:space="preserve">
<g>
	<g>
		<linearGradient id="SVGID_1_" gradientUnits="userSpaceOnUse" x1="99.2612" y1="99.8188" x2="415.3344" y2="415.892">
			<stop  offset="0" style="stop-color:#00C9FF"/>
			<stop  offset="1" style="stop-color:#0091FF"/>
		</linearGradient>
		<path fill="url(#SVGID_1_)" d="M479.896,255.455c0,124.261-100.733,225-225,225s-225-100.739-225-225
			c0-124.267,100.733-225,225-225S479.896,131.188,479.896,255.455z"/>
		<linearGradient id="SVGID_2_" gradientUnits="userSpaceOnUse" x1="148.9502" y1="71.9502" x2="360.8433" y2="438.9598">
			<stop  offset="0" style="stop-color:#0091FF"/>
			<stop  offset="0.4483" style="stop-color:#0093FF"/>
			<stop  offset="1" style="stop-color:#00C9FF"/>
		</linearGradient>
		<circle fill="url(#SVGID_2_)" cx="254.896" cy="255.455" r="211.858"/>
	</g>
</g>
<g>
	<path fill-rule="evenodd" clip-rule="evenodd" fill="#FFFFFF" d="M202.103,237.105c5.349,0,9.126,0,12.567,0
		c-0.361-34.725,8.227-65.862,31.008-92.983c-6.778-8.319-9.364-18.209-2.952-28.784c8.979-14.804,29.254-15.079,39.822-1.069
		c1.932,2.561,5.575,3.899,8.57,5.544c2.066,1.137,4.364,1.821,6.564,2.714c-2.151,1.399-4.235,2.916-6.479,4.156
		c-0.984,0.544-2.287,0.514-0.838,0.227c-6.571,9.358-11.98,17.06-17.892,25.477c3.942,7.72,8.998,17.451,13.894,27.255
		c4.347,8.716,12.286,11.278,21.914,8.943c12.347-2.995,24.975-4.902,37.561-6.706c6.345-0.899,9.34,2.066,7.806,9.065
		c-1.143,5.201-1.241,10.636-1.791,15.966c-1.448,14.046-1.442,14.046-16.051,13.129c7.78,16.32,15.385,32.255,22.188,46.516
		c11.076,4.095,22.231,6.943,32.061,12.243c8.545,4.608,7.83,8.282-0.746,14.792c9.792,11.308,15.043,24.064,10.013,39.15
		c-3.258,9.792-9.694,16.926-18.943,21.534c-18.153,9.053-42.982,1.742-51.998-23.967c-11.626,3.453-11.626,3.453-15.587-7.476
		c-4.12,0.482-8.075,1.313-12.029,1.332c-24.42,0.11-48.839,0.037-73.264,0.019c-3.839,0-7.079-0.501-8.637,5.019
		c-5.208,18.386-19.236,29.261-35.984,28.979c-17.396-0.288-30.88-11.889-35.672-30.685c-0.214-0.825-0.556-1.62-0.807-2.342
		c-14.817-2.438-14.817-2.438-13.9-15.556c-16.076,0-32.109,0-48.136,0c-2.084,0-4.322,0.477-6.216-0.123
		c-2.665-0.843-5.073-2.493-7.592-3.795c2.433-1.064,4.854-3.02,7.305-3.057c17.268-0.275,34.547,0.03,51.815-0.312
		c3.307-0.067,6.577-2.2,9.866-3.38c-0.257-1.211-0.514-2.415-0.77-3.619c-8.118,0-16.235,0-24.352,0
		c-4.169,0-8.417,0.477-12.488-0.165c-2.965-0.465-5.691-2.408-8.527-3.698c2.689-1.045,5.348-2.909,8.068-2.988
		c11.602-0.337,23.233-0.435,34.835-0.025c6.033,0.208,10.843-0.904,15.03-5.623c2.5-2.817,6.382-4.34,9.273-6.87
		c3.013-2.641,5.568-5.795,8.331-8.717c-1.149-0.171-2.292-0.336-3.435-0.501c-2.5-4.792-6.271-9.358-7.176-14.432
		c-1.173-6.614-4.016-8.374-10.11-7.842c-5.024,0.44-10.122,0.128-15.184,0.08c-11.296-0.11-13.074-1.864-14.01-13.521
		c-0.091-1.143-0.452-2.255-0.843-4.12c-14.958,0-29.811,0-44.664-0.006c-2.384,0-4.854,0.336-7.121-0.183
		c-1.736-0.397-3.222-1.901-4.817-2.916c1.65-1.265,3.24-3.508,4.958-3.612c7.121-0.428,14.285-0.22,21.43-0.232
		c8.637-0.012,17.28,0.171,25.905-0.177c1.729-0.067,3.374-2.127,5.055-3.271c-1.607-1.18-3.081-3.02-4.859-3.393
		c-2.854-0.605-5.996,0.141-8.869-0.44c-1.614-0.33-2.916-2.188-4.364-3.356c1.455-1.088,2.83-2.94,4.389-3.111
		c4.083-0.44,8.246-0.147,13.869-0.147c0-10.336-0.024-20.018,0.006-29.694c0.037-11.485,2.763-14.333,14.089-14.383
		c18.465-0.079,36.925-0.079,55.397,0c10.997,0.055,13.497,2.702,13.509,13.875C202.115,196.03,202.103,216.213,202.103,237.105z
		 M148.723,169.783c-7.194,0-14.382,0-21.901,0c0,12.237,0,23.692,0,36.21c9.334,0,18.191-0.214,27.017,0.159
		c2.048,0.085,4.01,2.146,6.015,3.301c-2.066,1.149-4.077,3.172-6.204,3.294c-7.414,0.422-14.877-0.024-22.304,0.373
		c-1.681,0.085-3.258,2.213-4.89,3.405c1.706,1.137,3.295,2.934,5.141,3.258c3.185,0.55,6.577-0.153,9.774,0.336
		c1.699,0.263,3.185,1.913,4.762,2.934c-1.614,1.271-3.136,3.441-4.878,3.631c-4.627,0.514-9.352,0.177-14.102,0.177
		c-1.137,5.941-2.439,10.734,5.41,10.703c18.747-0.074,37.5-0.092,56.253,0.024c4.517,0.031,6.461-1.699,6.437-6.296
		c-0.11-18.747,0.098-37.506-0.257-56.247c-0.037-2.029-2.72-5.513-4.486-5.721c-6.021-0.721-12.182-0.275-17.8-0.275
		c-2.726,6.736,2.867,16.742-10.098,15.917C150.942,184.22,150.899,184.941,148.723,169.783z M232.727,317.026
		c23.606,0,46.791,0.134,69.97-0.202c2.402-0.037,5.274-2.427,7.078-4.475c12.176-13.869,24.315-27.793,35.966-42.108
		c1.834-2.243,2.506-7.127,1.375-9.798c-4.523-10.667-10.22-20.832-14.976-31.406c-2.329-5.184-3.552-10.868-5.269-16.32
		c5.171,0.024,10.348,0.061,15.52,0.067c0.25,0,0.501-0.239,1.809-0.887c0.667-7.108,1.388-14.829,2.237-23.881
		c-10.03,1.4-18.288,2.555-27.255,3.802c8.637,12.249,7.971,15.629-2.818,25.794c3.668,17.164,8.282,33.246,10.257,49.645
		c1.932,16.131-14.719,36.73-30.159,38.057c-13.575,1.161-27.408,0.789-41.014-0.3c-11.589-0.923-17.879-9.187-17.17-21.015
		c0.379-6.351,2.268-12.604,3.637-19.768c-20.825,0-41.314-0.128-61.797,0.195c-2.09,0.031-4.138,2.788-6.21,4.279
		C221.37,271.012,227.757,276.054,232.727,317.026z M145.532,299.031c0.33,1.161,0.666,2.316,0.996,3.478
		c5.563,0,11.143-0.287,16.669,0.159c1.84,0.152,3.521,2.182,5.275,3.355c-1.785,1.186-3.502,3.233-5.373,3.393
		c-5.624,0.465-11.357-0.251-16.938,0.416c-2.415,0.281-4.566,2.83-6.84,4.346c0.446,0.715,0.899,1.43,1.345,2.146
		c27.788,0,55.575,0,83.271,0c2.194-17.867-3.545-30.617-15.868-36.192c-15.373-6.956-40.538-3.142-50.067,8.209
		c6.443,0,12.347-0.366,18.167,0.159c2.628,0.238,5.104,2.243,7.641,3.447c-2.433,1.112-4.817,3.038-7.305,3.185
		c-7.42,0.435-14.908-0.165-22.316,0.361C151.229,295.699,148.411,297.796,145.532,299.031z M222.721,203.505
		c9.242,1.986,15.085,3.013,20.801,4.529c4.773,1.271,7.017-0.391,8.472-4.958c1.705-5.36,3.942-10.593,6.356-15.685
		c3.124-6.602,6.804-6.748,10.686-0.452c2.176,3.527,3.472,7.616,5.775,11.039c1.528,2.262,3.876,4.859,6.309,5.465
		c9.798,2.433,19.73,4.486,29.725,5.843c2.072,0.288,4.64-2.995,6.98-4.639c-1.827-1.815-3.35-4.584-5.531-5.269
		c-5.643-1.779-11.528-2.977-17.408-3.771c-6.858-0.929-11.156-4.248-13.986-10.654c-3.826-8.686-8.001-17.299-12.879-25.428
		c-6.717-11.216-18.545-11.925-24.859-0.624C235.447,172.717,229.835,187.705,222.721,203.505z M224.175,211.36
		c-6.632,19.609-2.702,26.876,16.002,30.085c9.933,1.705,19.957,2.897,29.945,4.315c7.041,0.996,10.452,4.658,9.73,12.121
		c-0.788,8.185-1.082,16.418-1.632,25.293c4.89,0,9.126,0,13.937,0c1.094-10.434,2.176-20.428,3.154-30.434
		c0.263-2.653,0.22-5.336,0.306-8.007c0.231-7.372-3.313-11.711-10.52-13.16c-2.329-0.464-4.769-0.721-6.932-1.614
		c-10.923-4.505-26.113,0.782-32.58-14.083c-0.152-0.354-1.069-0.434-1.644-0.55C237.317,213.988,230.691,212.668,224.175,211.36z
		 M254.866,216.311c1.253,1.088,1.644,1.706,2.146,1.822c8.398,1.895,16.809,3.735,25.226,5.568
		c17.402,3.796,21.736,9.584,20.257,27.372c-0.91,10.917-1.992,21.815-3.001,32.732c3.856,1.729,7.28,3.258,10.771,4.816
		c7.487-7.641,11.778-16.143,9.119-26.754c-3.104-12.359-6.742-24.584-9.951-36.919c-1.9-7.274-6.405-10.336-13.832-11.357
		c-13.087-1.797-27.488-2.237-30.557-20.733c-0.696,0.354-1.394,0.709-2.09,1.063C260.215,201.5,257.476,209.08,254.866,216.311z
		 M386.98,286.158c-14.822-13.454-34.547-12.586-46.289,1.143c-5.019,5.874-9.842,11.938-15.196,17.494
		c-5.354,5.563-5.94,11.729-4.168,19.199c1.497-0.58,2.628-0.85,3.588-1.412C345.392,310.59,365.844,298.566,386.98,286.158z
		 M335.031,325.082c3.147,13.979,10.984,22.488,24.224,25.189c11.485,2.342,21.24-1.718,28.361-10.837
		c7.61-9.75,8.687-20.568,2.892-31.706c-5.953-11.442-8.796-11.87-18.612-3.104c9.7,7.989,12.598,15.232,8.881,23.569
		c-3.35,7.53-9.327,11.309-17.72,10.764c-9.12-0.593-13.601-5.623-17.476-20.134C342.183,320.834,338.974,322.741,335.031,325.082z
		 M164.896,245.791c-1.125,8.558,1.98,11.95,11.186,11.633c19.297-0.667,38.637-0.202,57.959-0.202c6.729,0,13.459,0,20.531,0
		C251.345,246.409,191.901,239.593,164.896,245.791z M262.109,251.757c0.647,7.671,0.22,13.863-9.034,12.8
		c-0.66-0.08-1.528,0.788-2.146,1.381c-4.432,4.261-7.445,20.019-4.419,25.429c4.333,7.757,11.839,7.598,21.143,7.286
		c2.023-14.848,4.028-29.566,6.082-44.652C269.199,253.12,266.388,252.582,262.109,251.757z M155.031,324.881
		c0.605,14.113,12.75,25.58,27.433,26.045c15.159,0.477,28.093-10.947,29.358-25.99c-6.485-2.158-10.318-0.471-14.034,6.033
		c-6.552,11.479-23.025,11.143-29.254-0.544C165.013,323.816,160.948,323.279,155.031,324.881z M278.863,127.753
		c-10.58,0.764-20.953,1.51-31.461,2.262c2.329,9.682,7.739,14.114,16.082,13.838C272.061,143.566,277.348,138.346,278.863,127.753z
		 M375.019,324.654c-0.434-9.848-4.261-13.783-10.739-13.796c-6.144-0.012-10.135,4.126-10.189,10.251
		c-0.055,6.51,3.997,11.454,10.514,10.439C368.814,330.889,372.439,326.464,375.019,324.654z M247.464,122.625
		c10.471-0.728,19.657-1.363,28.845-2.005c0.36-1.088,0.728-2.182,1.088-3.27c-4.933-2.084-9.725-5.361-14.829-5.954
		C256.082,110.645,250.844,114.257,247.464,122.625z M304.64,294.013c-17.273-6.101-29.162-4.071-29.719,4.951
		C284.561,298.322,294.566,301.482,304.64,294.013z M192.708,324.973c-6.577,0-12.414,0-18.759,0
		C180.544,334.238,186.229,334.184,192.708,324.973z"/>
</g>
</svg>
