<?xml version="1.0" encoding="utf-8"?>
<!-- Generator: Adobe Illustrator 16.0.0, SVG Export Plug-In . SVG Version: 6.00 Build 0)  -->
<!DOCTYPE svg PUBLIC "-//W3C//DTD SVG 1.1//EN" "http://www.w3.org/Graphics/SVG/1.1/DTD/svg11.dtd">
<svg version="1.1" id="Layer_1" xmlns="http://www.w3.org/2000/svg" xmlns:xlink="http://www.w3.org/1999/xlink" x="0px" y="0px"
	 width="512px" height="512px" viewBox="0 0 512 512" enable-background="new 0 0 512 512" xml:space="preserve">
<g>
	<g>
		<linearGradient id="SVGID_1_" gradientUnits="userSpaceOnUse" x1="99.4067" y1="99.6938" x2="415.4799" y2="415.767">
			<stop  offset="0" style="stop-color:#0000FF"/>
			<stop  offset="1" style="stop-color:#000083"/>
		</linearGradient>
		<path fill="url(#SVGID_1_)" d="M480.042,255.33c0,124.261-100.733,225-225,225s-225-100.739-225-225
			c0-124.267,100.733-225,225-225S480.042,131.063,480.042,255.33z"/>
		<linearGradient id="SVGID_2_" gradientUnits="userSpaceOnUse" x1="149.0957" y1="71.8252" x2="360.9888" y2="438.8348">
			<stop  offset="0" style="stop-color:#000083"/>
			<stop  offset="1" style="stop-color:#0000FF"/>
		</linearGradient>
		<circle fill="url(#SVGID_2_)" cx="255.042" cy="255.33" r="211.858"/>
	</g>
</g>
<g>
	<path fill-rule="evenodd" clip-rule="evenodd" fill="#FFFFFF" d="M186.118,315.55c0-11.589,0-22.561,0-33.905
		c-1.235-0.073-2.311-0.189-3.374-0.189c-7.121-0.019-14.242,0.061-21.357-0.031c-13.527-0.177-23.081-7.873-26.18-21.045
		c-0.342-1.461-0.422-3.014-0.422-4.523c-0.024-28.783,0.062-57.567-0.061-86.351c-0.055-12.684,10.397-25.941,27.738-25.807
		c37.934,0.293,75.875,0.079,113.814,0.098c2.335,0,4.677,0.085,7.005,0.25c12.513,0.886,23.02,11.614,23.117,24.114
		c0.19,23.692,0.11,47.39,0.123,71.088c0.006,5.893,0.036,11.797-0.092,17.689c-0.275,12.176-10.031,22.806-22.115,24.175
		c-2.017,0.227-4.059,0.318-6.088,0.318c-14.34,0.024-28.686-0.056-43.025,0.091c-1.846,0.025-3.998,0.74-5.489,1.84
		c-13.826,10.178-27.543,20.52-41.296,30.801C187.878,314.566,187.261,314.865,186.118,315.55z M203.459,280.953
		c1.069-0.617,1.778-0.941,2.39-1.399c5.691-4.267,11.412-8.49,17.018-12.866c2.182-1.706,4.395-2.494,7.225-2.477
		c16.571,0.129,33.142,0.074,49.713,0.062c6.009,0,9.603-3.417,9.608-9.358c0.043-28.264,0.043-56.528,0-84.792
		c-0.012-5.703-3.508-9.132-9.156-9.138c-39.444-0.037-78.888-0.055-118.331-0.055c-6.773,0-10.006,3.319-10.012,10.153
		c-0.006,27.646-0.006,55.306,0,82.958c0.006,6.98,3.282,10.27,10.244,10.27c12.506,0.006,25.012-0.024,37.519-0.037
		c1.162,0,2.323,0,3.784,0C203.459,270.067,203.459,275.306,203.459,280.953z"/>
	<path fill-rule="evenodd" clip-rule="evenodd" fill="#FFFFFF" d="M324.089,212.598c0-5.954,0-11.399,0-17.225
		c6.76,0,13.35-0.153,19.92,0.055c4.432,0.141,9.017,0.159,13.24,1.314c10.813,2.958,18.013,12.83,18.037,24.059
		c0.067,28.576,0.086,57.151,0.037,85.721c-0.019,15.471-11.161,26.455-26.864,26.602c-8.02,0.067-16.039,0.007-24.561,0.007
		c0,5.788,0,11.338,0,16.882c0,5.489,0,10.979,0,16.944c-0.953-0.514-1.644-0.788-2.225-1.223
		c-13.667-10.226-27.292-20.514-41.026-30.642c-1.498-1.106-3.649-1.864-5.508-1.883c-15.049-0.146-30.098-0.049-45.146-0.098
		c-9.48-0.024-17.983-4.634-22.151-12.061c4.382-3.318,8.795-6.668,13.539-10.256c2.641,5.012,7.157,5.012,11.87,4.981
		c15.96-0.092,31.932-0.073,47.892,0.043c1.57,0.012,3.374,0.672,4.67,1.595c6.186,4.444,12.243,9.077,18.35,13.631
		c0.636,0.477,1.32,0.887,2.53,1.688c0-5.855,0-11.253,0-16.993c1.645,0,2.836,0,4.028,0c12.512,0.007,25.018,0.024,37.524,0.007
		c6.797-0.013,9.927-3.111,9.933-9.848c0.019-27.86,0.019-55.728,0.006-83.588c0-6.541-3.185-9.688-9.773-9.713
		C340.396,212.58,332.383,212.598,324.089,212.598z"/>
	<path fill-rule="evenodd" clip-rule="evenodd" fill="#FFFFFF" d="M340.94,229.939c0,5.624,0,11.076,0,16.803
		c-5.532,0-11.033,0-16.797,0c0-5.501,0-11.021,0-16.803C329.577,229.939,335.085,229.939,340.94,229.939z"/>
	<path fill-rule="evenodd" clip-rule="evenodd" fill="#FFFFFF" d="M324.058,281.186c0-5.647,0-11.082,0-16.711
		c5.667,0,11.174,0,16.847,0c0,5.58,0,11.015,0,16.711C335.366,281.186,329.865,281.186,324.058,281.186z"/>
	<path fill-rule="evenodd" clip-rule="evenodd" fill="#FFFFFF" d="M169.26,178.454c34.278,0,68.466,0,102.836,0
		c0,5.605,0,11.051,0,16.736c-34.224,0-68.423,0-102.836,0C169.26,189.682,169.26,184.163,169.26,178.454z"/>
	<path fill-rule="evenodd" clip-rule="evenodd" fill="#FFFFFF" d="M237.835,229.603c-23.124,0-45.752,0-68.594,0
		c0-5.574,0-11.015,0-16.858c0.996-0.055,2.06-0.159,3.124-0.159c20.721-0.012,41.455,0.043,62.176-0.073
		c2.763-0.018,3.484,0.801,3.35,3.447C237.683,220.397,237.835,224.854,237.835,229.603z"/>
</g>
</svg>
