<?xml version="1.0" encoding="utf-8"?>
<!-- Generator: Adobe Illustrator 16.0.0, SVG Export Plug-In . SVG Version: 6.00 Build 0)  -->
<!DOCTYPE svg PUBLIC "-//W3C//DTD SVG 1.1//EN" "http://www.w3.org/Graphics/SVG/1.1/DTD/svg11.dtd">
<svg version="1.1" id="Layer_1" xmlns="http://www.w3.org/2000/svg" xmlns:xlink="http://www.w3.org/1999/xlink" x="0px" y="0px"
	 width="512px" height="512px" viewBox="0 0 512 512" enable-background="new 0 0 512 512" xml:space="preserve">
<g>
	<g>
		<linearGradient id="SVGID_1_" gradientUnits="userSpaceOnUse" x1="99.5728" y1="99.6938" x2="415.6466" y2="415.7677">
			<stop  offset="0" style="stop-color:#0000FF"/>
			<stop  offset="1" style="stop-color:#000083"/>
		</linearGradient>
		<path fill="url(#SVGID_1_)" d="M480.208,255.33c0,124.261-100.733,225-225,225s-225-100.739-225-225
			c0-124.267,100.733-225,225-225S480.208,131.063,480.208,255.33z"/>
		<linearGradient id="SVGID_2_" gradientUnits="userSpaceOnUse" x1="149.2617" y1="71.8257" x2="361.1548" y2="438.8353">
			<stop  offset="0" style="stop-color:#000083"/>
			<stop  offset="1" style="stop-color:#0000FF"/>
		</linearGradient>
		<circle fill="url(#SVGID_2_)" cx="255.208" cy="255.33" r="211.858"/>
	</g>
</g>
<g>
	<path fill-rule="evenodd" clip-rule="evenodd" fill="#FFFFFF" d="M328.704,214.352c0,27.39,0,54.78,0,82.164
		c0,9.328-3.796,13.185-13.044,13.191c-20.324,0.023-40.642,0.066-60.959-0.049c-2.83-0.013-4.376,0.867-5.642,3.429
		c-3.643,7.378-7.414,14.694-11.479,21.84c-1.541,2.714-3.655,5.36-6.112,7.249c-16.828,12.922-33.802,25.643-50.746,38.411
		c-4.242,3.196-7.904,2.977-11.657-0.825c-11.302-11.431-22.573-22.892-33.802-34.389c-4.254-4.358-4.333-8.857,0.526-12.586
		c20.794-15.953,28.888-38.691,34.059-62.977c2.164-10.178,8.044-18.007,14.976-25.146c4.646-4.774,9.78-9.102,14.976-13.283
		c2.237-1.809,3.167-3.551,3.16-6.43c-0.104-30.605-0.067-61.21-0.061-91.822c0.006-10.617,3.551-14.211,14.028-14.217
		c32.799-0.006,65.593-0.006,98.386,0c9.585,0,13.374,3.753,13.387,13.264C328.711,159.566,328.698,186.962,328.704,214.352z
		 M268.258,275.953c1.461,0.098,2.586,0.245,3.717,0.245c14.021,0.019,28.038-0.092,42.06,0.085c3.368,0.043,4.059-1.216,4.01-4.254
		c-0.146-10.03-0.049-20.061-0.049-30.092c0-33.698-0.036-67.396,0.062-101.094c0.012-3.344-0.648-4.658-4.396-4.64
		c-31.895,0.159-63.795,0.085-95.696,0.104c-1.345,0-2.689,0.183-4.34,0.306c0,1.95,0,3.472,0,4.994c0,20.324,0,40.642,0,60.966
		c0,23.148,0.073,46.296-0.086,69.444c-0.018,3.49,1.045,4.565,4.389,4.248c2.678-0.264,5.404-0.189,8.093-0.019
		c2.261,0.152,3.484-0.728,4.444-2.751c2.359-4.963,4.945-9.805,7.518-14.854c-0.33-0.141-0.996-0.464-1.699-0.696
		c-8.05-2.696-12.537-9.383-11.375-16.944c1.241-8.038,7.384-13.264,15.917-13.301c16.589-0.061,33.185-0.08,49.774,0.012
		c9.535,0.055,16.344,6.614,16.302,15.41c-0.049,8.912-6.772,15.336-16.247,15.404c-8.1,0.055-16.204,0-24.304,0.03
		c-1.045,0-2.09,0.184-3.869,0.354C267.524,263.998,268.76,269.627,268.258,275.953z M154.908,325.581
		c12.079,12.45,24.034,24.786,35.941,37.06c0.722-0.33,1.101-0.428,1.394-0.648c11.706-8.82,23.411-17.634,35.074-26.51
		c1.088-0.831,2.109-1.955,2.745-3.16c9.773-18.526,19.541-37.06,29.162-55.666c2.641-5.104,0.673-10.776-4.102-13.209
		c-4.987-2.53-10.605-0.623-13.35,4.646c-1.601,3.081-3.19,6.18-4.486,9.396c-6.485,15.989-20.055,23.465-35.073,29.052
		c-1.29,0.478-4.089-0.739-4.939-2.011c-1.437-2.127-0.196-4.419,2.274-5.098c3.074-0.85,3.411-2.757,3.398-5.489
		c-0.085-16.846-0.019-33.686-0.024-50.538c0-1.18-0.189-2.354-0.391-4.627c-11.479,10.697-23.258,19.707-25.446,35.709
		c-0.318,2.28-1.015,4.518-1.638,6.742C171.033,297.029,165.037,312.115,154.908,325.581z M149.334,331.21
		c-3.167,2.806-5.99,5.324-9.267,8.228c12.219,11.632,24.107,22.94,36.302,34.548c2.158-1.626,5.08-3.833,8.35-6.296
		C172.732,355.33,161.143,343.387,149.334,331.21z M256.088,299.89c6.73,0,12.635,0.648,18.332-0.195
		c4.779-0.703,6.644-6.577,4.291-10.807c-1.914-3.447-11.382-5.831-14.664-3.661c-0.403,0.269-0.703,0.764-0.936,1.21
		C260.904,290.617,258.729,294.822,256.088,299.89z M275.184,253.24c-2.481-6.626-4.688-12.879-7.2-19.004
		c-0.941-2.286-7.012-2.262-7.935,0.019c-2.487,6.13-4.7,12.377-7.151,18.942c3.185,0.073,5.874,1.62,7.671-2.298
		c0.385-0.862,5.973-0.904,6.682,0.232C269.401,254.548,271.92,253.252,275.184,253.24z M243.117,246.241
		c2.152-0.256,3.943-0.324,5.667-0.715c3.838-0.868,5.354-3.02,5.153-6.889c-0.202-3.759-2.396-5.556-5.911-5.77
		c-3.063-0.189-6.155-0.202-9.211,0c-0.783,0.055-2.115,1.21-2.133,1.883c-0.159,6.106-0.098,12.219-0.098,18.465
		c2.299,0,4.145,0,6.21,0C242.903,250.825,243.001,248.686,243.117,246.241z M273.258,233.398c3.509,6.345,9.688,11.394,7.127,19.78
		c2.58,0,4.506,0,7.262,0c-3.007-8.747,4.096-13.582,7.434-20.929c-3.02,0.513-5.551,0.305-7.213,1.406
		c-1.693,1.125-2.531,3.533-4.114,5.954C281.516,234.816,279.304,230.984,273.258,233.398z M265.825,130.752
		c3.729,0,7.47,0.22,11.161-0.116c1.284-0.122,2.445-1.638,3.662-2.519c-1.211-1.021-2.391-2.885-3.644-2.934
		c-7.433-0.281-14.89-0.281-22.323-0.006c-1.247,0.049-2.433,1.901-3.643,2.922c1.204,0.88,2.354,2.408,3.637,2.53
		C258.362,130.972,262.109,130.752,265.825,130.752z"/>
	<path fill-rule="evenodd" clip-rule="evenodd" fill="#FFFFFF" d="M266.076,245.195c-0.697-1.992-1.266-3.637-1.846-5.275
		c-0.281,0.037-0.569,0.074-0.856,0.11c-0.44,1.626-0.88,3.258-1.394,5.165C263.515,245.195,264.591,245.195,266.076,245.195z"/>
	<path fill-rule="evenodd" clip-rule="evenodd" fill="#FFFFFF" d="M243.215,241.876c1.602-0.556,2.928-0.801,3.949-1.492
		c0.367-0.244,0.299-2.072-0.092-2.316c-1.039-0.629-2.365-0.789-3.857-1.216C243.215,238.753,243.215,239.963,243.215,241.876z"/>
	<path fill-rule="evenodd" clip-rule="evenodd" fill="#FFFFFF" d="M265.996,148.294c14.555,0.746,27.274,5.489,38.081,15.141
		c2.971,2.653,3.154,6.076,0.507,7.83c-2.463,1.632-4.578,0.697-6.595-1.088c-10.135-8.985-22.005-12.934-35.489-12.121
		c-10.629,0.642-19.945,4.517-28.081,11.357c-1.155,0.972-2.555,2.384-3.802,2.341c-1.656-0.055-4.309-1.021-4.657-2.164
		c-0.508-1.668,0.006-4.511,1.216-5.697c6.442-6.308,14.187-10.666,22.94-12.849C255.318,149.75,260.697,149.193,265.996,148.294z"
		/>
	<path fill-rule="evenodd" clip-rule="evenodd" fill="#FFFFFF" d="M296.962,178.05c-1.259,1.553-2.097,3.576-3.27,3.796
		c-1.749,0.324-4.169-0.061-5.532-1.131c-5.269-4.144-10.923-7.127-17.641-8.025c-9.854-1.32-18.557,1.223-26.222,7.481
		c-0.397,0.324-0.764,0.685-1.174,0.99c-2.274,1.638-4.621,1.877-6.546-0.324c-1.932-2.219-1.455-4.578,0.617-6.492
		c5.898-5.458,12.824-9.021,20.733-10.336c13.265-2.213,25.263,0.709,35.575,9.566C294.773,174.67,295.617,176.284,296.962,178.05z"
		/>
	<path fill-rule="evenodd" clip-rule="evenodd" fill="#FFFFFF" d="M286.767,188.484c-1.198,1.583-1.968,3.643-3.136,3.899
		c-1.729,0.379-4.162,0.061-5.55-0.972c-5.043-3.747-10.459-5.593-16.565-3.845c-2.75,0.782-5.36,2.353-7.774,3.955
		c-2.586,1.724-5.024,2.402-7.097-0.25c-2.091-2.671-0.819-5.006,1.467-7.005c9.688-8.447,25.789-8.46,35.379,0.085
		C284.664,185.397,285.477,186.84,286.767,188.484z"/>
	<path fill-rule="evenodd" clip-rule="evenodd" fill="#FFFFFF" d="M274.64,204.181c-0.006,5.049-3.704,8.766-8.753,8.79
		c-4.976,0.019-8.882-3.741-8.985-8.655c-0.11-4.915,4.119-9.156,9.052-9.089C270.825,195.299,274.64,199.229,274.64,204.181z"/>
	<path fill-rule="evenodd" clip-rule="evenodd" fill="#FFFFFF" d="M266.076,245.195c-1.485,0-2.562,0-4.096,0
		c0.514-1.907,0.953-3.539,1.394-5.165c0.287-0.036,0.575-0.073,0.856-0.11C264.811,241.559,265.379,243.203,266.076,245.195z"/>
	<path fill-rule="evenodd" clip-rule="evenodd" fill="#FFFFFF" d="M243.215,241.876c0-1.913,0-3.124,0-5.024
		c1.492,0.428,2.818,0.587,3.857,1.216c0.391,0.245,0.458,2.072,0.092,2.316C246.143,241.076,244.817,241.32,243.215,241.876z"/>
</g>
</svg>
