<?xml version="1.0" encoding="utf-8"?>
<!-- Generator: Adobe Illustrator 16.0.0, SVG Export Plug-In . SVG Version: 6.00 Build 0)  -->
<!DOCTYPE svg PUBLIC "-//W3C//DTD SVG 1.1//EN" "http://www.w3.org/Graphics/SVG/1.1/DTD/svg11.dtd">
<svg version="1.1" id="Layer_1" xmlns="http://www.w3.org/2000/svg" xmlns:xlink="http://www.w3.org/1999/xlink" x="0px" y="0px"
	 width="512px" height="512px" viewBox="0 0 512 512" enable-background="new 0 0 512 512" xml:space="preserve">
<g>
	<g>
		<linearGradient id="SVGID_1_" gradientUnits="userSpaceOnUse" x1="99.6147" y1="99.8188" x2="415.6879" y2="415.892">
			<stop  offset="0" style="stop-color:#00C9FF"/>
			<stop  offset="1" style="stop-color:#0091FF"/>
		</linearGradient>
		<path fill="url(#SVGID_1_)" d="M480.25,255.455c0,124.261-100.733,225-225,225s-225-100.739-225-225
			c0-124.267,100.733-225,225-225S480.25,131.188,480.25,255.455z"/>
		<linearGradient id="SVGID_2_" gradientUnits="userSpaceOnUse" x1="149.3037" y1="71.9507" x2="361.1973" y2="438.9611">
			<stop  offset="0" style="stop-color:#0091FF"/>
			<stop  offset="0.4483" style="stop-color:#0093FF"/>
			<stop  offset="1" style="stop-color:#00C9FF"/>
		</linearGradient>
		<circle fill="url(#SVGID_2_)" cx="255.25" cy="255.455" r="211.858"/>
	</g>
</g>
<g>
	<path fill-rule="evenodd" clip-rule="evenodd" fill="#FFFFFF" d="M150.445,192.637c0-5.507,0.147-10.458-0.042-15.385
		c-0.153-4.052,1.155-5.874,5.556-5.868c39.682,0.116,79.352,0.116,119.028,0c4.291-0.019,5.623,1.479,5.604,5.691
		c-0.115,36.271-0.036,72.53-0.085,108.802c-0.013,12.188-8.393,20.947-20.63,20.996c-38.899,0.146-77.799,0.104-116.705,0.019
		c-8.704-0.019-14.872-6.767-15.147-16.675c-0.299-10.697-0.128-21.388-0.134-32.078c-0.012-19.841-0.012-39.683,0-59.523
		c0-5.776,0.195-5.954,6.088-5.978C139.223,192.625,144.479,192.637,150.445,192.637z M154.792,300.73c0.544,0,1.772,0,3.001,0
		c33.478,0,66.95,0.006,100.434-0.007c10.868,0,16.137-5.323,16.144-16.338c0.018-33.943,0.012-67.885,0-101.822
		c0-1.504-0.141-3.001-0.221-4.517c-39.266,0-78.215,0-117.445,0c0,2.188,0,4.028,0,5.874c0,32.854,0.092,65.715-0.085,98.569
		C156.589,288.407,155.464,294.318,154.792,300.73z M134.388,199.019c-0.147,1.149-0.33,1.907-0.33,2.653
		c-0.012,28.808-0.055,57.623,0.073,86.424c0.006,2.701,0.513,5.733,1.852,7.982c1.186,1.993,3.869,4.328,5.862,4.298
		c2.244-0.037,5.354-2.061,6.449-4.102c1.522-2.83,2.072-6.468,2.097-9.762c0.146-27.727,0.085-55.446,0.073-83.172
		c0-1.363-0.128-2.72-0.208-4.322C144.932,199.019,139.877,199.019,134.388,199.019z"/>
	<path fill-rule="evenodd" clip-rule="evenodd" fill="#FFFFFF" d="M213.257,219.202c0,11.155,0,21.938,0,33.001
		c-16.241,0-32.274,0-48.643,0c0-10.923,0-21.815,0-33.001C180.739,219.202,196.772,219.202,213.257,219.202z"/>
	<path fill-rule="evenodd" clip-rule="evenodd" fill="#FFFFFF" d="M167.022,271.219c0-3.08,0-5.837,0-8.985
		c32.524,0,64.902,0,97.646,0c0,2.886,0,5.728,0,8.985C232.292,271.219,199.908,271.219,167.022,271.219z"/>
	<path fill-rule="evenodd" clip-rule="evenodd" fill="#FFFFFF" d="M167.041,291.946c0-3.123,0-5.874,0-8.985c32.592,0,65,0,97.708,0
		c0,3.025,0,5.874,0,8.985C232.2,291.946,199.883,291.946,167.041,291.946z"/>
	<path fill-rule="evenodd" clip-rule="evenodd" fill="#FFFFFF" d="M213.392,188.817c10.715-3.49,7.788,5.874,10.672,10.636
		c0.544-2.25,0.954-3.765,1.278-5.306c1.326-6.247,1.314-6.247,8.466-5.629c0.794,3.258,1.613,6.668,2.433,10.067
		c0.257,0.073,0.514,0.14,0.776,0.214c0.373-1.589,0.782-3.167,1.1-4.762c1.308-6.418,1.296-6.418,8.533-5.318
		c-1.729,7.494-3.459,14.951-5.226,22.555c-2.83,0-5.416,0-8.276,0c-0.972-3.998-1.926-7.934-3.191-13.148
		c-1.149,5.159-1.98,8.912-2.885,13.008c-2.659,0-5.354,0-8.459,0C216.888,203.756,215.146,196.305,213.392,188.817z"/>
	<path fill-rule="evenodd" clip-rule="evenodd" fill="#FFFFFF" d="M222.5,250.767c0-3.355,0-6.21,0-9.291c14.138,0,27.97,0,42.164,0
		c0,3.105,0,6.07,0,9.291C250.61,250.767,236.772,250.767,222.5,250.767z"/>
	<path fill-rule="evenodd" clip-rule="evenodd" fill="#FFFFFF" d="M186.222,188.579c0,7.665,0,15.018,0,22.329
		c-8.967,3.228-10.238-6.131-15.88-9.272c0,3.203,0,6.186,0,9.499c-2.531,0-4.578,0-6.858,0c0-7.598,0-15.08,0-22.531
		c8.802-2.524,9.957,6.338,15.477,9.725c0-3.276,0-6.333,0-9.75C181.638,188.579,183.704,188.579,186.222,188.579z"/>
	<path fill-rule="evenodd" clip-rule="evenodd" fill="#FFFFFF" d="M222.396,229.923c-0.086-1.773-0.196-3.142-0.196-4.499
		c0.012-1.37,0.116-2.739,0.196-4.414c14.168,0,28.136,0,42.372,0c0,2.983,0,5.819,0,8.912
		C250.647,229.923,236.79,229.923,222.396,229.923z"/>
	<path fill-rule="evenodd" clip-rule="evenodd" fill="#FFFFFF" d="M248.483,202.888c3.014,1.106,5.465,2.201,8.014,2.873
		c1.742,0.452,3.637,0.324,5.471,0.446c0.085-0.624,0.171-1.247,0.257-1.876c-2.244-0.66-4.48-1.333-6.724-1.987
		c-5.245-1.516-7.17-3.734-6.62-7.952c0.599-4.609,4.04-5.868,7.964-6.271c7.733-0.794,11.498,1.357,12.396,7.793
		c-4.376-0.935-8.393-1.797-12.402-2.659c-0.165,0.623-0.33,1.247-0.495,1.87c2.353,0.758,4.669,1.669,7.06,2.237
		c3.813,0.898,6.846,2.598,6.681,6.98c-0.153,4.321-2.952,6.467-7.048,7.372C254.975,213.469,249.333,210.602,248.483,202.888z"/>
	<path fill-rule="evenodd" clip-rule="evenodd" fill="#FFFFFF" d="M209.431,197.154c0.086,1.821,0.147,3.142,0.196,4.291
		c-3.16,2.897-8.686-1.4-11.84,4.413c5.214,0,9.193,0,13.478,0c0,1.95,0,3.539,0,5.367c-6.51,0-12.958,0-19.731,0
		c0-7.512,0-14.994,0-22.745c6.559,0,12.977,0,19.719,0c0.11,1.62,0.214,3.105,0.373,5.41c-3.569,0-6.907-0.116-10.226,0.08
		c-0.929,0.043-1.803,1.009-2.702,1.546c0.893,0.544,1.748,1.492,2.689,1.571C203.954,197.307,206.558,197.154,209.431,197.154z"/>
</g>
<g>
	<path fill-rule="evenodd" clip-rule="evenodd" fill="#FFFFFF" d="M290.8,329.52c-0.482,0.037-0.966,0.08-1.448,0.116
		c-1.846-2.029-3.558-4.199-5.563-6.058c-3.894-3.618-8.411-5.58-13.625-3.166c-5.354,2.47-6.442,7.689-4.798,12.268
		c4.762,13.295,10.306,26.309,15.782,39.34c0.409,0.96,3.307,1.938,4.071,1.431c1.216-0.788,2.048-2.806,2.176-4.377
		c0.098-1.283-1.088-2.658-1.65-4.021c-4.353-10.532-8.82-21.027-12.903-31.663c-0.666-1.699,0.349-4.04,0.593-6.088
		c2.072,0.844,4.694,1.162,6.112,2.641c5.746,6.009,8.974,13.325,10.452,21.559c0.318,1.761,2.696,3.136,4.126,4.688
		c1.101-1.632,2.299-3.209,3.265-4.921c0.323-0.562,0.067-1.448,0.073-2.188c0.336-27.689,0.696-55.367,0.959-83.057
		c0.043-4.064,0.581-7.714,5.6-7.769c4.749-0.056,5.434,3.539,5.563,7.304c0.373,10.514,0.867,21.033,1.088,31.535
		c0.244,11.814,0.214,23.63,0.36,35.452c0.03,2.86-0.587,6.767,3.606,6.809c4.7,0.043,3.734-4.107,3.759-7.103
		c0.056-5.538-0.165-11.082-0.012-16.607c0.177-6.437,0.36-12.885,1.052-19.267c0.464-4.37,2.53-7.726,7.939-7.108
		c5.33,0.604,4.42,4.927,4.518,8.05c0.391,11.986,0.33,23.991,0.52,35.99c0.036,2.659-0.551,6.131,3.6,6.167
		c4.126,0.031,3.687-3.313,3.674-6.063c-0.037-9.97-0.109-19.945-0.165-29.909c-0.019-5.587,2.989-10.257,6.767-10.488
		c3.998-0.257,6.797,3.147,7.035,9.407c0.367,9.963,0.422,19.933,0.538,29.896c0.037,2.897,0.067,6.277,3.869,5.733
		c1.437-0.201,3.331-3.625,3.423-5.647c0.337-7.183-0.214-14.401-0.036-21.59c0.128-5.513,3.637-9.382,7.812-8.869
		c5.116,0.642,6.516,4.529,6.332,8.9c-0.818,20.391,1.645,40.959-3.251,61.148c-0.294,1.235,1.063,3.747,2.23,4.206
		c1.131,0.445,3.631-0.545,4.401-1.682c1.18-1.735,1.742-4.095,1.943-6.246c0.666-7.158,1.284-14.328,1.504-21.51
		c0.367-12.17,0.574-24.358,0.55-36.535c-0.012-12.885-11.437-18.997-20.709-14.064c-0.403,0.214-1.021,0.024-1.448,0.024
		c-5.709-10.599-11.137-12.524-21.112-8.655c-3.9-2.213-6.785-4.779-10.056-5.434c-3.582-0.716-7.518,0.33-11.883,0.66
		c0-2.903,0.067-6.021-0.018-9.133c-0.092-3.318-0.135-6.656-0.544-9.938c-1.106-8.967-6.138-13.466-14.114-12.867
		c-7.108,0.514-11.907,6.37-11.943,14.67c-0.043,10.146-0.013,20.299-0.013,30.452C290.8,307.143,290.8,318.328,290.8,329.52z"/>
	<path fill-rule="evenodd" clip-rule="evenodd" fill="#FFFFFF" d="M290.8,329.52c0-11.191,0-22.377,0-33.575
		c0-10.153-0.03-20.306,0.013-30.452c0.036-8.301,4.835-14.157,11.943-14.67c7.977-0.599,13.008,3.9,14.114,12.867
		c0.409,3.282,0.452,6.62,0.544,9.938c0.085,3.111,0.018,6.229,0.018,9.133c4.365-0.33,8.301-1.376,11.883-0.66
		c3.271,0.654,6.155,3.221,10.056,5.434c9.976-3.869,15.403-1.943,21.112,8.655c0.428,0,1.045,0.189,1.448-0.024
		c9.272-4.933,20.697,1.18,20.709,14.064c0.024,12.177-0.183,24.365-0.55,36.535c-0.22,7.182-0.838,14.352-1.504,21.51
		c-0.201,2.151-0.764,4.511-1.943,6.246c-0.771,1.137-3.271,2.127-4.401,1.682c-1.167-0.459-2.524-2.971-2.23-4.206
		c4.896-20.189,2.433-40.758,3.251-61.148c0.184-4.371-1.216-8.259-6.332-8.9c-4.175-0.513-7.684,3.356-7.812,8.869
		c-0.178,7.188,0.373,14.407,0.036,21.59c-0.092,2.022-1.986,5.446-3.423,5.647c-3.802,0.544-3.832-2.836-3.869-5.733
		c-0.116-9.963-0.171-19.933-0.538-29.896c-0.238-6.26-3.037-9.664-7.035-9.407c-3.777,0.231-6.785,4.901-6.767,10.488
		c0.056,9.964,0.128,19.939,0.165,29.909c0.013,2.75,0.452,6.094-3.674,6.063c-4.15-0.036-3.563-3.508-3.6-6.167
		c-0.189-11.999-0.129-24.004-0.52-35.99c-0.098-3.123,0.813-7.445-4.518-8.05c-5.409-0.617-7.476,2.738-7.939,7.108
		c-0.691,6.382-0.875,12.83-1.052,19.267c-0.153,5.525,0.067,11.069,0.012,16.607c-0.024,2.995,0.941,7.146-3.759,7.103
		c-4.193-0.042-3.576-3.948-3.606-6.809c-0.146-11.822-0.116-23.638-0.36-35.452c-0.221-10.502-0.715-21.021-1.088-31.535
		c-0.129-3.765-0.813-7.359-5.563-7.304c-5.019,0.055-5.557,3.704-5.6,7.769c-0.263,27.689-0.623,55.367-0.959,83.057
		c-0.006,0.739,0.25,1.626-0.073,2.188c-0.966,1.712-2.164,3.289-3.265,4.921c-1.43-1.553-3.808-2.928-4.126-4.688
		c-1.479-8.233-4.706-15.55-10.452-21.559c-1.418-1.479-4.04-1.797-6.112-2.641c-0.244,2.048-1.259,4.389-0.593,6.088
		c4.083,10.636,8.551,21.131,12.903,31.663c0.563,1.363,1.748,2.738,1.65,4.021c-0.128,1.571-0.96,3.589-2.176,4.377
		c-0.765,0.507-3.662-0.471-4.071-1.431c-5.477-13.031-11.021-26.045-15.782-39.34c-1.645-4.578-0.557-9.798,4.798-12.268
		c5.214-2.414,9.731-0.452,13.625,3.166c2.005,1.858,3.717,4.028,5.563,6.058C289.834,329.6,290.317,329.557,290.8,329.52z"/>
</g>
</svg>
