<?xml version="1.0" encoding="utf-8"?>
<!-- Generator: Adobe Illustrator 16.0.0, SVG Export Plug-In . SVG Version: 6.00 Build 0)  -->
<!DOCTYPE svg PUBLIC "-//W3C//DTD SVG 1.1//EN" "http://www.w3.org/Graphics/SVG/1.1/DTD/svg11.dtd">
<svg version="1.1" id="Layer_1" xmlns="http://www.w3.org/2000/svg" xmlns:xlink="http://www.w3.org/1999/xlink" x="0px" y="0px"
	 width="512px" height="512px" viewBox="0 0 512 512" enable-background="new 0 0 512 512" xml:space="preserve">
<g>
	<g>
		<linearGradient id="SVGID_1_" gradientUnits="userSpaceOnUse" x1="101.1611" y1="100.6934" x2="417.235" y2="416.7672">
			<stop  offset="0" style="stop-color:#FFA300"/>
			<stop  offset="1" style="stop-color:#FF6400"/>
		</linearGradient>
		<path fill="url(#SVGID_1_)" d="M481.797,256.33c0,124.261-100.733,225-225,225s-225-100.739-225-225
			c0-124.267,100.733-225,225-225S481.797,132.063,481.797,256.33z"/>
		<linearGradient id="SVGID_2_" gradientUnits="userSpaceOnUse" x1="150.8506" y1="72.8252" x2="362.7437" y2="439.8348">
			<stop  offset="0" style="stop-color:#FF6400"/>
			<stop  offset="1" style="stop-color:#FFA300"/>
		</linearGradient>
		<circle fill="url(#SVGID_2_)" cx="256.797" cy="256.33" r="211.858"/>
	</g>
</g>
<g>
	<path fill-rule="evenodd" clip-rule="evenodd" fill="#FFFFFF" d="M176.387,149.02c1.357,14.505,5.752,20.862,14.499,21.284
		c8.447,0.41,12.634-5.391,15.354-21.516c26.198,0,52.451,0,79.132,0c0.195,6.742,0.238,13.723,6.246,18.124
		c2.402,1.754,5.667,3.118,8.595,3.221c8.606,0.312,12.892-6.094,14.773-21.008c18.961-3.563,31.669,6.828,31.681,25.959
		c0.019,25.782,0.007,51.565,0.007,77.433c-6.052,0.092-8.026-2.438-7.806-8.398c0.471-13.325,0.146-26.668,0.146-40.434
		c-62.23,0-124.077,0-186.412,0c-0.122,1.95-0.336,3.741-0.336,5.525c-0.012,38.038-0.012,76.076,0,114.113
		c0.006,13.625,5.685,19.371,19.218,19.389c27.273,0.025,54.547,0.184,81.821-0.146c5.434-0.061,8.344,1.559,9.566,7.237
		c-1.547,0.135-3.081,0.379-4.609,0.379c-29.505,0.019-59.003,0.043-88.508,0c-15.257-0.019-24.92-9.181-24.969-24.419
		c-0.147-51.033-0.147-102.054,0.042-153.075C144.89,155.566,157.341,146.385,176.387,149.02z"/>
	<path fill-rule="evenodd" clip-rule="evenodd" fill="#FFFFFF" d="M320.752,373.628c-32.359,0.099-58.411-25.758-58.576-58.129
		c-0.159-32.213,25.898-58.625,58.038-58.82c32.481-0.202,58.777,25.917,58.924,58.509
		C379.278,347.271,353.044,373.53,320.752,373.628z M272.011,314.691c-0.189,27.164,21.277,49.084,48.222,49.242
		c26.992,0.159,48.894-21.503,49.016-48.483c0.122-27.085-21.369-48.766-48.509-48.942
		C294.145,266.342,272.194,288.041,272.011,314.691z"/>
	<path fill-rule="evenodd" clip-rule="evenodd" fill="#FFFFFF" d="M313.398,230.816c0,13.393,0,13.393-13.57,13.393
		c-14.138,0.006-14.217,0.006-14.113-13.991c0.11-15.96-2.237-13.558,13.851-13.686
		C313.398,216.416,313.398,216.507,313.398,230.816z"/>
	<path fill-rule="evenodd" clip-rule="evenodd" fill="#FFFFFF" d="M214.211,230.156c0-13.649,0-13.747,13.82-13.618
		c15.532,0.141,13.759-2.482,13.795,13.796c0.031,13.875-0.006,13.875-13.673,13.875
		C214.217,244.209,214.217,244.209,214.211,230.156z"/>
	<path fill-rule="evenodd" clip-rule="evenodd" fill="#FFFFFF" d="M265.898,244.209c-13.741-0.012-13.741-0.012-13.741-13.723
		c0-13.973,0-14.064,14.053-13.955c15.349,0.123,13.472-2.286,13.631,13.459c0,0.184,0,0.373,0,0.557
		C279.841,244.221,279.841,244.221,265.898,244.209z"/>
	<path fill-rule="evenodd" clip-rule="evenodd" fill="#FFFFFF" d="M205.568,309.496c0,13.918,0,13.918-14.034,13.918
		c-13.601,0-13.692-0.006-13.582-13.851c0.128-15.855-2.335-13.637,13.777-13.747C205.568,295.725,205.568,295.798,205.568,309.496z
		"/>
	<path fill-rule="evenodd" clip-rule="evenodd" fill="#FFFFFF" d="M243.478,309.594c0.013,13.82,0.013,13.82-13.588,13.82
		c-14.022,0-14.022,0-14.022-14.021c0-13.582,0-13.582,13.423-13.595c0.183,0,0.366,0,0.55,0
		C243.478,295.792,243.478,295.792,243.478,309.594z"/>
	<path fill-rule="evenodd" clip-rule="evenodd" fill="#FFFFFF" d="M190.024,216.514c13.741,0,13.741,0,13.729,13.741
		c-0.006,13.955-0.006,13.955-14.089,13.955c-13.417,0-13.417,0-13.417-13.459c0-0.189,0-0.373,0-0.556
		C176.241,216.514,176.241,216.514,190.024,216.514z"/>
	<path fill-rule="evenodd" clip-rule="evenodd" fill="#FFFFFF" d="M204.59,269.937c0,13.985,0,14.053-14.144,13.985
		c-15.336-0.073-13.228,1.791-13.332-13.233c-0.098-14.371-0.024-14.371,14.217-14.377
		C204.59,256.299,204.59,256.299,204.59,269.937z"/>
	<path fill-rule="evenodd" clip-rule="evenodd" fill="#FFFFFF" d="M229.089,256.312c13.478,0,13.478,0,13.49,13.405
		c0.012,14.211,0.012,14.211-13.955,14.224c-13.515,0.012-13.515,0.012-13.515-13.57C215.11,256.312,215.11,256.312,229.089,256.312
		z"/>
	<path fill-rule="evenodd" clip-rule="evenodd" fill="#FFFFFF" d="M291.015,145.7c0-3.142-0.092-6.283,0.019-9.425
		c0.207-5.678,3.478-8.747,9.175-8.771c5.728-0.019,9.089,2.94,9.26,8.673c0.196,6.644,0.232,13.313-0.036,19.951
		c-0.238,5.966-3.992,9.187-9.694,8.955c-5.343-0.22-8.515-3.576-8.704-9.401C290.929,152.363,291.015,149.032,291.015,145.7z"/>
	<path fill-rule="evenodd" clip-rule="evenodd" fill="#FFFFFF" d="M181.889,145.927c0-3.332-0.116-6.663,0.03-9.976
		c0.245-5.379,3.448-8.337,8.912-8.46c5.477-0.128,9.193,2.72,9.407,7.91c0.287,7.005,0.306,14.041,0.024,21.051
		c-0.22,5.63-3.985,8.79-9.444,8.649c-5.403-0.141-8.68-3.441-8.918-9.199C181.772,152.583,181.882,149.252,181.889,145.927z"/>
	<path fill-rule="evenodd" clip-rule="evenodd" fill="#FFFFFF" d="M253.117,270.047c-0.006-13.735-0.006-13.735,13.661-13.735
		c3.325,0,6.675-0.165,9.981,0.092c1.235,0.098,2.989,0.929,3.417,1.913c0.452,1.021,0.031,2.977-0.745,3.918
		c-5.611,6.797-11.247,13.601-17.299,20.007c-1.271,1.351-4.346,1.559-6.461,1.283c-1.008-0.135-2.255-2.562-2.433-4.064
		C252.854,276.367,253.123,273.188,253.117,270.047z"/>
	<path fill-rule="evenodd" clip-rule="evenodd" fill="#FFFFFF" d="M325.312,308.8c8.82,0,16.761-0.007,24.706,0
		c3.998,0,7.94,0.696,7.886,5.647c-0.062,4.927-3.979,5.532-7.995,5.525c-9.646-0.03-19.297-0.079-28.937,0.067
		c-4.31,0.062-6.95-1.827-7.005-6.032c-0.141-10.38,0-20.765,0.263-31.144c0.043-1.901,0.722-4.187,1.938-5.525
		c1.009-1.101,3.974-1.98,4.805-1.333c1.834,1.418,3.875,3.79,4.047,5.917c0.537,6.821,0.263,13.71,0.293,20.568
		C325.317,304.331,325.312,306.165,325.312,308.8z"/>
</g>
</svg>
