<?xml version="1.0" encoding="utf-8"?>
<!-- Generator: Adobe Illustrator 16.0.0, SVG Export Plug-In . SVG Version: 6.00 Build 0)  -->
<!DOCTYPE svg PUBLIC "-//W3C//DTD SVG 1.1//EN" "http://www.w3.org/Graphics/SVG/1.1/DTD/svg11.dtd">
<svg version="1.1" id="Layer_1" xmlns="http://www.w3.org/2000/svg" xmlns:xlink="http://www.w3.org/1999/xlink" x="0px" y="0px"
	 width="512px" height="512px" viewBox="0 0 512 512" enable-background="new 0 0 512 512" xml:space="preserve">
<g>
	<g>
		<linearGradient id="SVGID_1_" gradientUnits="userSpaceOnUse" x1="99.6152" y1="99.9453" x2="415.6884" y2="416.0185">
			<stop  offset="0" style="stop-color:#FF7601"/>
			<stop  offset="1" style="stop-color:#FF0000"/>
		</linearGradient>
		<path fill="url(#SVGID_1_)" d="M480.25,255.581c0,124.261-100.733,225-225,225s-225-100.739-225-225
			c0-124.264,100.733-225,225-225S480.25,131.317,480.25,255.581z"/>
		<linearGradient id="SVGID_2_" gradientUnits="userSpaceOnUse" x1="149.3027" y1="72.0771" x2="361.1982" y2="439.0909">
			<stop  offset="0" style="stop-color:#FF0000"/>
			<stop  offset="1" style="stop-color:#FF6301"/>
		</linearGradient>
		<path fill="url(#SVGID_2_)" d="M467.108,255.581c0,117.011-94.854,211.864-211.858,211.864S43.392,372.592,43.392,255.581
			c0-117.005,94.854-211.858,211.858-211.858S467.108,138.576,467.108,255.581z"/>
	</g>
</g>
<g>
	<path fill-rule="evenodd" clip-rule="evenodd" fill="#FFFFFF" d="M164.981,351.101c11.204-7.849,14.92-19.872,18.233-32.017
		c1.73-6.357,2.793-12.897,4.224-19.658c-12.115,0-23.814,0-35.636,0c0-34.64,0-69.053,0-103.704c12.714,0,25.428,0,38.313,0
		c0-8.729,0-17.207,0-25.832c43.271,0,86.376,0,129.646,0c0,8.509,0,16.987,0,25.709c13.02,0,25.874,0,38.839,0
		c0,30.189,0,60.128,0,90.422c-1.357-1.547-2.494-2.904-3.691-4.212c-11.26-12.213-25.086-19.56-41.688-20.874
		c-8.924-0.709-17.94-0.44-26.92-0.452c-27.017-0.043-54.021-0.007-81.039-0.007c-0.66,0-1.32,0-2.139,0
		c-0.416,5.221-0.758,10.257-1.229,15.288c-1.033,11.082-1.803,22.194-3.3,33.221c-1.309,9.628-3.918,19.01-7.623,28.044
		c-0.153,0.354-0.22,0.746-0.367,1.296c17.616,0,35.085,0,52.476,0c1.363,4.328,2.677,8.49,4.028,12.775
		C219.804,351.101,192.475,351.101,164.981,351.101z M203.202,195.526c34.64,0,69.102,0,103.515,0c0-4.358,0-8.57,0-12.745
		c-34.584,0-69.003,0-103.515,0C203.202,187.06,203.202,191.223,203.202,195.526z M319.693,234.493c0-4.419,0-8.625,0-12.824
		c-4.34,0-8.496,0-12.714,0c0,4.315,0,8.527,0,12.824C311.277,234.493,315.434,234.493,319.693,234.493z M332.934,221.663
		c0,4.364,0,8.576,0,12.75c4.37,0,8.575,0,12.744,0c0-4.328,0-8.49,0-12.75C341.399,221.663,337.242,221.663,332.934,221.663z
		 M181.136,234.493c0-4.419,0-8.625,0-12.824c-4.333,0-8.497,0-12.714,0c0,4.315,0,8.527,0,12.824
		C172.719,234.493,176.882,234.493,181.136,234.493z M194.376,221.663c0,4.364,0,8.576,0,12.75c4.37,0,8.576,0,12.744,0
		c0-4.328,0-8.49,0-12.75C202.842,221.663,198.685,221.663,194.376,221.663z"/>
	<path fill-rule="evenodd" clip-rule="evenodd" fill="#FFFFFF" d="M306.778,376.767c-24.126,1.663-51.639-19.511-51.749-51.29
		c-0.091-28.802,23.203-52.041,52.023-51.998c28.539,0.049,51.761,23.368,51.65,51.968
		C358.575,357.391,330.91,378.558,306.778,376.767z M306.876,364.236c21.234,0.049,38.839-17.378,38.899-38.515
		c0.067-21.693-17.23-39.261-38.716-39.31c-21.522-0.049-39.034,17.292-39.102,38.717
		C267.885,346.706,285.274,364.188,306.876,364.236z"/>
	<path fill-rule="evenodd" clip-rule="evenodd" fill="#FFFFFF" d="M288.875,320.495c0.935,0.587,1.864,0.99,2.561,1.65
		c2.391,2.28,4.688,4.658,7.042,6.975c2.176,2.14,3.704,2.115,5.874-0.055c6.345-6.339,12.671-12.702,19.028-19.028
		c2.567-2.555,3.899-2.519,6.454,0.012c0.868,0.85,1.724,1.712,2.58,2.567c2.665,2.671,2.689,3.979,0.079,6.596
		c-5.049,5.067-10.116,10.116-15.171,15.171c-4.291,4.291-8.57,8.594-12.885,12.873c-2.348,2.322-3.827,2.305-6.174-0.037
		c-5.251-5.244-10.489-10.488-15.728-15.752c-2.115-2.12-2.14-3.588-0.092-5.702c1.271-1.309,2.519-2.641,3.882-3.845
		C286.998,321.333,287.902,321.027,288.875,320.495z"/>
</g>
</svg>
