<?xml version="1.0" encoding="utf-8"?>
<!-- Generator: Adobe Illustrator 16.0.0, SVG Export Plug-In . SVG Version: 6.00 Build 0)  -->
<!DOCTYPE svg PUBLIC "-//W3C//DTD SVG 1.1//EN" "http://www.w3.org/Graphics/SVG/1.1/DTD/svg11.dtd">
<svg version="1.1" id="Layer_1" xmlns="http://www.w3.org/2000/svg" xmlns:xlink="http://www.w3.org/1999/xlink" x="0px" y="0px"
	 width="512px" height="512px" viewBox="0 0 512 512" enable-background="new 0 0 512 512" xml:space="preserve">
<g>
	<g>
		<linearGradient id="SVGID_1_" gradientUnits="userSpaceOnUse" x1="101.0044" y1="100.8657" x2="417.0769" y2="416.9382">
			<stop  offset="0" style="stop-color:#00B100"/>
			<stop  offset="1" style="stop-color:#006700"/>
		</linearGradient>
		<path fill="url(#SVGID_1_)" d="M481.639,256.501c0,124.261-100.733,225-225,225s-225-100.739-225-225
			c0-124.264,100.733-225,225-225S481.639,132.237,481.639,256.501z"/>
		<linearGradient id="SVGID_2_" gradientUnits="userSpaceOnUse" x1="150.6914" y1="72.9971" x2="362.5869" y2="440.0109">
			<stop  offset="0" style="stop-color:#006700"/>
			<stop  offset="1" style="stop-color:#00B100"/>
		</linearGradient>
		<path fill="url(#SVGID_2_)" d="M468.497,256.501c0,117.011-94.854,211.864-211.858,211.864S44.78,373.512,44.78,256.501
			c0-117.005,94.854-211.858,211.858-211.858S468.497,139.496,468.497,256.501z"/>
	</g>
</g>
<g>
	<path fill-rule="evenodd" clip-rule="evenodd" fill="#FFFFFF" d="M316.847,187.989c3.502,0.177,6.827,0.257,10.141,0.532
		c5.538,0.458,9.657,3.494,12.83,7.778c2.408,3.264,4.278,6.925,6.638,10.235c3.111,4.376,4.01,9.27,4.004,14.453
		c-0.024,15.651-0.073,31.296-0.073,46.944c0.006,19.651,0.055,39.303,0.067,58.954c0.006,10.33-0.024,20.667-0.08,31.003
		c-0.03,6.008-1.699,11.534-5.531,16.204c-5.238,6.381-12.054,9.627-20.361,9.627c-12.591-0.006-25.183-0.013-37.774-0.006
		c-11.932,0.012-23.869,0.067-35.807,0.067c-21.4,0.012-42.793,0.006-64.187-0.007c-14.737-0.006-26.467-12.83-25.587-27.579
		c0.373-6.234,0.067-12.506,0.074-18.766c0.006-6.906,0.037-13.813,0.024-20.727c-0.012-6.474-0.085-12.946-0.092-19.42
		c-0.006-6.473,0.042-12.952,0.055-19.419c0.006-6.406-0.019-12.806-0.013-19.212c0.013-6.833,0.043-13.673,0.043-20.507
		c0.006-6.183,0.128-12.372-0.061-18.551c-0.165-5.043,1.467-9.395,4.193-13.478c2.06-3.083,3.998-6.25,6.106-9.297
		c3.924-5.669,9.456-8.497,16.278-8.625c6.552-0.123,13.099,0,19.651,0.006c3.172,0.006,3.185,0.006,3.723-3.087
		c1.345-7.723,2.634-15.455,4.028-23.172c2.665-14.789,5.404-29.569,8.081-44.355c1.002-5.501,1.932-11.012,2.885-16.513
		c0.63-3.604,3.888-5.339,7.427-4.478c4.719,1.152,9.536,1.892,14.321,2.772c6.137,1.125,12.286,2.194,18.423,3.332
		c11.198,2.069,22.391,4.171,33.589,6.253c0.428,0.079,0.867,0.098,1.308,0.116c3.014,0.122,5.062,1.332,6.815,4.077
		c4.047,6.37,8.618,12.402,12.952,18.597c1.455,2.082,2.916,4.181,4.15,6.394c0.44,0.783,0.471,1.959,0.3,2.885
		c-1.864,10.217-3.809,20.419-5.728,30.626c-0.887,4.71-1.785,9.419-2.646,14.132C316.883,186.467,316.901,187.183,316.847,187.989z
		 M256.62,233.011c-34.224-0.517-63.166,27.653-63.404,62.359c-0.245,35.11,27.494,63.979,63.558,63.839
		c34.395-0.141,61.32-27.506,62.738-60.502C321.089,261.678,290.33,232.442,256.62,233.011z M217.348,219.676
		c4.847,0,9.211,0,13.57,0c13.24,0,26.479,0,39.712,0c8.582-0.003,17.164-0.042,25.746,0.021c1.485,0.009,1.98-0.489,2.225-1.925
		c2.213-12.949,4.505-25.887,6.772-38.827c2.061-11.733,4.175-23.457,6.119-35.208c0.22-1.357-0.092-3.127-0.832-4.261
		c-3.771-5.776-7.744-11.427-11.717-17.066c-0.502-0.697-1.388-1.381-2.207-1.546c-5.696-1.14-11.418-2.124-17.121-3.19
		c-10.482-1.959-20.953-3.952-31.437-5.905c-3.533-0.657-7.078-1.238-10.794-1.886C230.679,146.608,224.035,183.001,217.348,219.676
		z M206.993,207.033c-3.197,0-6.1-0.211-8.961,0.055c-3.454,0.317-5.556,3.166-5.397,6.748c0.159,3.481,2.213,5.636,5.758,5.862
		c1.742,0.11,3.49,0.043,5.232-0.064c0.465-0.031,1.253-0.428,1.314-0.768C205.667,215.043,206.29,211.195,206.993,207.033z
		 M310.74,219.447c3.05,0.565,5.385,0.076,7.054-2.311c1.351-1.922,1.424-5.556,0.086-7.448c-1.125-1.61-2.562-2.726-4.78-2.277
		C312.317,211.416,311.553,215.315,310.74,219.447z"/>
	<path fill-rule="evenodd" clip-rule="evenodd" fill="#FFFFFF" d="M250.098,289.856c0-6.277,0-12.237,0-18.196
		c0-4.591-0.049-9.175,0.012-13.763c0.049-3.634,2.696-6.072,6.363-6.027c3.526,0.046,6.198,2.732,6.204,6.25
		c0.013,12.151,0.013,24.303,0.019,36.454c0,5.6-2.524,7.806-8.057,7.665c-6.54-0.158-13.093,0.098-19.633,0.086
		c-7.861-0.013-15.722-0.037-23.57-0.22c-3.533-0.08-5.495-2.421-5.483-6.003c0-3.545,2.2-6.106,5.648-6.149
		c8.007-0.122,16.015-0.079,24.022-0.098C240.337,289.851,245.056,289.856,250.098,289.856z"/>
	<path fill-rule="evenodd" clip-rule="evenodd" fill="#FFFFFF" d="M299.432,168.411c-21.094-3.799-41.906-7.552-63.007-11.354
		c0.721-4.135,1.418-8.096,2.164-12.323c21.07,3.799,41.932,7.558,62.977,11.351C300.844,160.257,300.153,164.23,299.432,168.411z"
		/>
	<path fill-rule="evenodd" clip-rule="evenodd" fill="#FFFFFF" d="M231.394,182.32c0.74-4.19,1.424-8.111,2.158-12.329
		c20.917,3.765,41.785,7.527,63.025,11.357c-0.727,3.979-1.454,7.983-2.23,12.268C273.356,189.851,252.464,186.104,231.394,182.32z"
		/>
	<path fill-rule="evenodd" clip-rule="evenodd" fill="#FFFFFF" d="M242.641,131.834c0.807-4.159,1.577-8.185,2.378-12.332
		c16.779,3.157,33.502,6.302,50.391,9.48c-0.776,4.104-1.547,8.133-2.335,12.247C276.149,138.075,259.487,134.973,242.641,131.834z"
		/>
</g>
</svg>
