<?xml version="1.0" encoding="utf-8"?>
<!-- Generator: Adobe Illustrator 16.0.0, SVG Export Plug-In . SVG Version: 6.00 Build 0)  -->
<!DOCTYPE svg PUBLIC "-//W3C//DTD SVG 1.1//EN" "http://www.w3.org/Graphics/SVG/1.1/DTD/svg11.dtd">
<svg version="1.1" id="Layer_1" xmlns="http://www.w3.org/2000/svg" xmlns:xlink="http://www.w3.org/1999/xlink" x="0px" y="0px"
	 width="512px" height="512px" viewBox="0 0 512 512" enable-background="new 0 0 512 512" xml:space="preserve">
<g>
	<g>
		<linearGradient id="SVGID_1_" gradientUnits="userSpaceOnUse" x1="101.2378" y1="100.8657" x2="417.3103" y2="416.9382">
			<stop  offset="0" style="stop-color:#00B100"/>
			<stop  offset="1" style="stop-color:#006700"/>
		</linearGradient>
		<path fill="url(#SVGID_1_)" d="M481.873,256.501c0,124.261-100.733,225-225,225s-225-100.739-225-225
			c0-124.264,100.733-225,225-225S481.873,132.237,481.873,256.501z"/>
		<linearGradient id="SVGID_2_" gradientUnits="userSpaceOnUse" x1="150.9258" y1="72.9971" x2="362.8213" y2="440.0109">
			<stop  offset="0" style="stop-color:#006700"/>
			<stop  offset="1" style="stop-color:#00B100"/>
		</linearGradient>
		<path fill="url(#SVGID_2_)" d="M468.731,256.501c0,117.011-94.854,211.864-211.858,211.864S45.015,373.512,45.015,256.501
			c0-117.005,94.854-211.858,211.858-211.858S468.731,139.496,468.731,256.501z"/>
	</g>
</g>
<g>
	<path fill-rule="evenodd" clip-rule="evenodd" fill="#FFFFFF" d="M339.581,267.705c-3.032,0-5.765,0-8.882,0
		c0,37.842,0,75.581,0,113.496c-34.639,0-68.905,0-103.545,0c0-37.763,0-75.501,0-113.423c-3.191,0-6.002,0-9.31,0
		c0,1.161,0.006,2.305,0,3.447c-0.006,19.499-0.037,38.998-0.012,58.497c0.006,4.119-0.538,8.037-2.689,11.668
		c-0.44,0.74-0.464,1.95-0.232,2.83c1.173,4.432,2.408,8.852,3.759,13.233c1.51,4.896,1.063,9.64-0.996,14.249
		c-5.251,11.821-20.978,18.74-33.203,14.571c-5.837-1.98-10.195-5.696-12.824-11.375c-4.59-9.921-9.26-19.798-14.028-29.97
		c-5.794,2.873-11.62,4.475-17.696,1.32c-3.753-1.949-6.332-4.993-7.916-8.863c-3.692-8.967-0.464-15.531,11.333-22.934
		c-2.903-6.259-5.825-12.555-8.759-18.851c-10.85-23.228-21.424-46.596-32.653-69.648c-10.746-22.084,8.362-43.433,26.73-44.438
		c7.152-0.385,13.839,1.476,20.63,3.035c5.464,1.266,10.868,2.763,16.351,3.897c3.374,0.694,5.165,2.347,6.119,5.752
		c5.373,19.202,10.966,38.346,16.491,57.512c0.245,0.831,0.563,1.635,0.875,2.546c1.577-4.215,2.72-8.393,4.639-12.167
		c8.472-16.66,22.146-25.272,40.898-25.608c3.777-0.073,7.549,0.077,11.314-0.085c1.876-0.08,2.757,0.596,3.502,2.271
		c6.308,14.196,12.702,28.347,19.083,42.509c0.33,0.746,0.69,1.467,1.656,2.14c0-7.922,0-15.841,0-23.759c0-7.891,0-15.782,0-23.851
		c5.134,0,9.969,0,15.043,0c0,16.168,0,32.229,0,48.295c0.195,0.067,0.396,0.135,0.599,0.208c0.373-0.733,0.771-1.455,1.112-2.194
		c6.449-14.331,12.94-28.649,19.303-43.017c0.832-1.861,1.791-2.668,3.888-2.534c7.323,0.48,14.817-0.015,21.956,1.348
		c18.863,3.604,33.912,20.437,35.887,40.296c1.033,10.392,0.647,20.936,0.685,31.412c0.079,24.468,0.03,48.937,0,73.404
		c0,2.103-0.043,4.242-0.416,6.309c-1.43,7.909-7.347,12.958-14.657,12.659c-7.305-0.3-13.246-6.058-13.661-14.065
		c-0.416-8.166-0.232-16.369-0.232-24.548c-0.024-24.376,0.006-48.753,0.012-73.123
		C339.733,269.441,339.654,268.714,339.581,267.705z M148.915,228.94c-10.599,11.785-12.677,12.585-30.238,11.635
		c10.923,23.377,21.803,46.641,32.665,69.862c11.748-3.35,19.095-0.825,23.178,7.769c4.108,8.655,1.485,15.587-8.802,22.946
		c3.863,8.282,7.732,16.602,11.607,24.908c1.021,2.158,1.968,4.371,3.167,6.425c1.803,3.104,4.584,5.03,8.099,5.696
		c6.852,1.284,12.75-0.868,17.689-5.563c4.621-4.4,5.409-9.511,2.702-15.306c-17.244-36.87-34.487-73.74-51.724-110.611
		C154.501,240.804,151.72,234.918,148.915,228.94z M192.766,301.58c0.128-0.049,0.263-0.098,0.391-0.146
		c-0.123-0.599-0.214-1.21-0.379-1.797c-3.392-11.834-6.791-23.668-10.201-35.501c-6.198-21.541-12.384-43.087-18.668-64.6
		c-0.324-1.091-1.424-2.5-2.426-2.766c-8.258-2.164-16.546-4.279-24.902-6.058c-11.461-2.439-23.459,4.272-27.628,15.147
		c-4.26,11.106,2.237,23.71,13.502,26.186c7.506,1.653,15.385-1.656,18.472-7.754c2.261-4.471,1.833-10.235-0.526-12.701
		c0.196,1.812,0.832,4.184,0.599,6.467c-0.52,5.125-4.352,9.053-9.45,10.281c-5.379,1.302-11.106-0.847-14.382-5.388
		c-5.483-7.613-3.038-18.362,5.256-23.139c9.737-5.608,21.773-1.757,26.736,8.756c12.414,26.345,24.725,52.745,37.066,79.12
		C188.401,292.313,190.583,296.947,192.766,301.58z"/>
	<path fill-rule="evenodd" clip-rule="evenodd" fill="#FFFFFF" d="M224.11,164.273c0-2.738,0-5.202,0-8.05c3.6,0,7.115,0,10.782,0
		c1.785-12.372,6.253-23.163,14.872-31.95c3.741-3.817,7.977-6.99,13.399-9.16c0.061,1.229,0.152,2.182,0.152,3.133
		c0.019,8.365,0,16.729,0.006,25.098c0.013,2.796,1.131,4.444,3.087,4.328c2.622-0.159,3.258-1.996,3.258-4.248
		c0-9.285,0.067-18.57-0.036-27.854c-0.024-2.124,0.636-3.068,2.751-3.047c3.38,0.043,6.772,0.034,10.152,0.043
		c1.772,0.003,2.262,0.898,2.249,2.625c-0.079,9.098-0.03,18.203-0.03,27.304c0,0.645-0.024,1.287,0,1.932
		c0.049,1.968,1.125,3.203,3.038,3.23c1.883,0.024,3.104-1.116,3.142-3.108c0.062-3.86,0.043-7.72,0.043-11.58
		c0-5.785,0-11.564,0-18.09c17.635,8.493,25.373,23.05,28.417,41.186c3.404,0,6.87,0,10.55,0c0,2.839,0,5.434,0,8.209
		C294.733,164.273,259.574,164.273,224.11,164.273z"/>
	<path fill-rule="evenodd" clip-rule="evenodd" fill="#FFFFFF" d="M310.467,171.177c-0.439,3.613-0.537,7.194-1.332,10.611
		c-4.01,17.078-19.475,27.943-36.485,25.832c-16.167-2.011-28.888-17.066-28.777-33.979c0.006-1.828,0.244-2.842,2.506-2.833
		c20.514,0.092,41.026,0.07,61.54,0.092C308.542,170.899,309.165,171.027,310.467,171.177z"/>
</g>
</svg>
