<?xml version="1.0" encoding="utf-8"?>
<!-- Generator: Adobe Illustrator 16.0.0, SVG Export Plug-In . SVG Version: 6.00 Build 0)  -->
<!DOCTYPE svg PUBLIC "-//W3C//DTD SVG 1.1//EN" "http://www.w3.org/Graphics/SVG/1.1/DTD/svg11.dtd">
<svg version="1.1" id="Layer_1" xmlns="http://www.w3.org/2000/svg" xmlns:xlink="http://www.w3.org/1999/xlink" x="0px" y="0px"
	 width="512px" height="512px" viewBox="0 0 512 512" enable-background="new 0 0 512 512" xml:space="preserve">
<g>
	<g>
		<linearGradient id="SVGID_1_" gradientUnits="userSpaceOnUse" x1="100.1953" y1="99.8184" x2="416.2692" y2="415.8922">
			<stop  offset="0" style="stop-color:#00C9FF"/>
			<stop  offset="1" style="stop-color:#0091FF"/>
		</linearGradient>
		<path fill="url(#SVGID_1_)" d="M480.831,255.455c0,124.261-100.733,225-225,225s-225-100.739-225-225
			c0-124.267,100.733-225,225-225S480.831,131.188,480.831,255.455z"/>
		<linearGradient id="SVGID_2_" gradientUnits="userSpaceOnUse" x1="149.8848" y1="71.9512" x2="361.7778" y2="438.9608">
			<stop  offset="0" style="stop-color:#0091FF"/>
			<stop  offset="0.4483" style="stop-color:#0093FF"/>
			<stop  offset="1" style="stop-color:#00C9FF"/>
		</linearGradient>
		<circle fill="url(#SVGID_2_)" cx="255.831" cy="255.455" r="211.858"/>
	</g>
</g>
<g>
	<path fill-rule="evenodd" clip-rule="evenodd" fill="#FFFFFF" d="M296.778,201.366c-2.17-0.391-4.407-0.624-6.705-0.624
		c-21.155-0.012-38.271,16.895-38.325,37.922c-0.073,21.082,16.95,38.295,37.934,38.325c2.415,0,4.793-0.244,7.097-0.696
		c0-6.474,0.013-12.953,0.013-19.444C296.791,238.358,296.778,219.868,296.778,201.366z"/>
	<path fill-rule="evenodd" clip-rule="evenodd" fill="#FFFFFF" d="M296.43,157.857c-1.681-4.554-6.081-7.549-10.923-7.567
		c-9.749,0-19.505,0-29.254,0c-41.253,0-82.531,0.019-123.814-0.012c-2.084,0-4.059,0.336-5.837,1.449
		c-4.45,2.738-6.418,6.724-6.07,11.938c0.085,1.045,0.403,1.351,1.418,1.333c3.332-0.042,6.663-0.042,9.994,0
		c4.163,0.061,7.873,1.363,10.654,4.536c4.169,4.786,4.75,10.348,2.579,16.069c-2.188,5.795-6.858,8.448-12.897,8.723
		c-3.417,0.146-6.852,0.092-10.275,0.031c-1.131-0.012-1.473,0.348-1.449,1.449c0.03,6.363,0.03,12.738,0,19.095
		c-0.024,1.149,0.293,1.565,1.491,1.541c3.148-0.092,6.278-0.062,9.407-0.019c4.01,0.03,7.647,1.149,10.617,4.004
		c4.046,3.894,5.453,10.819,3.276,16.338c-2.316,5.898-6.864,8.71-12.995,9.028c-3.374,0.178-6.785,0.104-10.159,0.019
		c-1.363-0.03-1.663,0.434-1.663,1.706c0.067,6.216,0.067,12.432,0.024,18.649c-0.024,1.302,0.263,1.84,1.711,1.785
		c3.276-0.104,6.546-0.062,9.841-0.019c3.332,0.043,6.375,1.015,8.998,3.117c4.676,3.71,6.46,10.563,4.431,16.693
		c-1.882,5.69-6.84,9.315-13.129,9.505c-3.478,0.086-6.956,0.043-10.428,0.012c-0.96-0.012-1.449,0.189-1.424,1.309
		c0.03,6.504,0.03,13.025,0,19.529c0,1.002,0.348,1.277,1.308,1.277c3.185-0.049,6.357-0.061,9.529-0.019
		c5,0.086,9.389,1.639,12.262,5.911c3.435,5.086,3.618,10.611,0.953,16.027c-2.537,5.146-7.127,7.285-12.689,7.463
		c-3.319,0.104-6.65-0.012-10,0.055c-0.434,0-1.277,0.483-1.277,0.728c0.092,2.011-0.024,4.145,0.568,6.027
		c1.638,4.969,6.101,7.909,11.418,7.909c30.66,0.019,61.302,0,91.95,0c-6.088,0-8.276-2.188-8.276-8.313
		c-0.024-5.801-0.024-11.577-0.024-17.751c-1.51,0-2.684,0-3.888,0c-13.166,0-26.326,0-39.48,0c-6.767,0-8.796-2.029-8.796-8.723
		c0-10.098-0.306-20.214,0.128-30.312c0.972-22.854,12.103-39.426,32.097-50.263c0.709-0.379,1.461-0.728,2.17-1.106
		c0.165-0.086,0.25-0.275,0.526-0.563c-5.128-6.143-8.985-12.995-11.07-20.807c-8.026-30.037,13.215-60.96,44.132-63.741
		c21.113-1.925,37.531,6.394,49.078,24.138c1.045,1.608,1.986,2.048,3.899,1.889c3.228-0.294,6.534-0.263,9.762,0.024
		c0.843,0.073,1.424-0.024,1.943-0.275c-0.012-9.01,0-18.025-0.012-27.035C296.767,159.709,296.748,158.713,296.43,157.857z"/>
	<path fill-rule="evenodd" clip-rule="evenodd" fill="#FFFFFF" d="M296.778,289.825c-10.373,1.553-20.745-0.349-31.18-5.709
		c-1.277-0.647-3.16-0.972-4.523-0.593c-17.182,4.799-30.397,21.112-31.326,38.931c-0.434,8.031-0.085,16.112-0.348,24.156
		c-0.116,3.099,0.758,3.899,3.887,3.882c21.198-0.056,42.396-0.025,63.606-0.043C296.767,330.254,296.748,310.039,296.778,289.825z"
		/>
	<path fill-rule="evenodd" clip-rule="evenodd" fill="#FFFFFF" d="M177.677,324.27c12.775,0,25.575,0,38.466,0
		c2.103-23.68,13.692-40.66,35.037-51.18c-2.011-2.897-3.839-5.709-5.868-8.362c-0.403-0.55-1.565-0.868-2.316-0.782
		c-10.709,1.174-20.648-1.155-30.067-6.186c-1.045-0.551-2.561-0.764-3.692-0.465c-16.333,4.278-29.92,19.664-31.388,36.516
		c-0.868,9.927-0.434,19.951-0.55,29.934C177.298,323.908,177.53,324.08,177.677,324.27z"/>
	<path fill-rule="evenodd" clip-rule="evenodd" fill="#FFFFFF" d="M269.016,191.763c-8.649-15.128-30.208-21.406-46.944-13.808
		c-18.099,8.197-26.938,28.325-20.635,46.932c5.538,16.296,24.229,28.716,38.343,25.471
		C234.37,225.375,247.066,202.05,269.016,191.763z"/>
	<path fill-rule="evenodd" clip-rule="evenodd" fill="#FFFFFF" d="M109.719,187.026c3.594,0.043,7.158,0.012,10.721,0.012
		c3.539,0,7.042,0,10.581,0c0.116,0,0.202,0.012,0.287-0.012c1.131-0.177,2.317-0.189,3.332-0.599
		c3.129-1.259,4.811-4.633,4.175-8.068c-0.636-3.49-3.332-5.954-6.925-5.984c-7.359-0.085-14.694-0.055-22.054-0.043
		c-4.303,0.031-7.653,3.362-7.635,7.488C102.231,184.214,105.085,186.977,109.719,187.026z"/>
	<path fill-rule="evenodd" clip-rule="evenodd" fill="#FFFFFF" d="M109.719,289.93c3.594,0.043,7.146,0,10.721,0.012
		c3.539,0,7.042,0,10.581,0c0.086,0,0.202,0.013,0.287-0.012c1.259-0.232,2.61-0.275,3.741-0.783c2.971-1.362,4.462-4.853,3.71-8.16
		c-0.801-3.459-3.453-5.69-7.029-5.721c-7.286-0.062-14.59-0.043-21.882-0.019c-4.303,0.019-7.665,3.35-7.647,7.481
		C102.212,287.117,105.085,289.887,109.719,289.93z"/>
	<path fill-rule="evenodd" clip-rule="evenodd" fill="#FFFFFF" d="M102.212,230.681c-0.306,4.303,2.335,7.488,6.65,7.696
		c3.869,0.183,7.75,0.043,11.638,0.043c3.942,0,7.867,0.14,11.779-0.043c4.083-0.189,6.711-3.246,6.65-7.335
		c-0.055-3.942-2.958-7.188-6.871-7.243c-7.604-0.116-15.214-0.104-22.818-0.019C105.574,223.841,102.463,227.044,102.212,230.681z"
		/>
	<path fill-rule="evenodd" clip-rule="evenodd" fill="#FFFFFF" d="M136.222,339.917c2.359-1.852,3.332-5.244,2.329-8.215
		c-1.015-3.087-3.619-4.988-7.023-5.013c-7.103-0.03-14.217-0.018-21.314,0c-4.566,0-8.001,3.216-8.014,7.445
		c-0.03,4.492,2.885,7.219,7.793,7.243c3.49,0.03,6.956,0.019,10.446,0.019c3.563,0,7.158,0,10.721,0
		C132.989,341.396,134.731,341.078,136.222,339.917z"/>
	<path fill-rule="evenodd" clip-rule="evenodd" fill="#FFFFFF" d="M415.317,297.723c-0.214-11.418-3.851-21.791-10.36-31.149
		c-6.229-8.911-14.443-15.403-24.572-19.853c0.722-0.954,1.32-1.766,1.926-2.549c9.26-12.17,12.909-25.807,10.024-40.874
		c-4.126-21.503-20.428-37.286-42.091-41.167c-20.055-3.594-40.801,5.984-52.017,24.083c-0.446,0.722-0.899,1.186-1.449,1.461
		c0,4.566,0,9.132,0,13.692c17.708,3.172,31.039,18.667,31.009,37.47c0,18.619-13.387,34.138-31.009,37.458
		c0,4.522,0,9.027,0,13.532c5.795-0.855,11.62-2.769,17.433-5.825c1.247-0.666,3.173-0.752,4.536-0.33
		c17.677,5.392,30.25,21.327,31.075,39.774c0.392,8.839,0.073,17.701,0.073,26.98c-1.405,0-2.401,0-3.404,0
		c-16.528,0-33.081,0.024-49.597,0.024c0,0.77,0,1.553,0,2.322c0.03,5.056-5.373,10.403-10.024,10.66
		c-0.581,0.043-1.192,0.043-1.785,0.043c23.283,0,46.583,0.019,69.884,0c6.07,0,8.259-2.213,8.259-8.344
		c0.03-5.782,0.03-11.577,0.03-17.707c1.418,0,2.506,0,3.625,0c13.557-0.013,27.121,0.03,40.696-0.043
		c5.563-0.013,7.824-2.317,7.824-7.824C415.422,318.951,415.507,308.347,415.317,297.723z M310.776,191.616
		c8.808-15.11,29.034-21.356,46.075-14.211c17.201,7.201,26.748,26.485,22.085,44.511c-4.578,17.72-22.066,30.642-38.778,28.6
		C344.449,223.872,334.321,204.379,310.776,191.616z M402.237,324.007c-12.971,0-25.838,0-38.852,0
		c-2.011-23.601-13.515-40.716-35.036-51.192c1.986-2.867,3.753-5.593,5.739-8.154c0.495-0.623,1.724-1.045,2.549-0.959
		c10.911,1.057,21.027-1.187,30.587-6.522c0.941-0.52,2.555-0.33,3.711,0.03c17.591,5.422,30.152,21.125,31.21,39.731
		C402.671,305.853,402.237,314.838,402.237,324.007z"/>
</g>
</svg>
