<?xml version="1.0" encoding="utf-8"?>
<!-- Generator: Adobe Illustrator 16.0.0, SVG Export Plug-In . SVG Version: 6.00 Build 0)  -->
<!DOCTYPE svg PUBLIC "-//W3C//DTD SVG 1.1//EN" "http://www.w3.org/Graphics/SVG/1.1/DTD/svg11.dtd">
<svg version="1.1" id="Layer_1" xmlns="http://www.w3.org/2000/svg" xmlns:xlink="http://www.w3.org/1999/xlink" x="0px" y="0px"
	 width="512px" height="512px" viewBox="0 0 512 512" enable-background="new 0 0 512 512" xml:space="preserve">
<g>
	<g>
		<linearGradient id="SVGID_1_" gradientUnits="userSpaceOnUse" x1="101.0508" y1="100.6934" x2="417.1246" y2="416.7672">
			<stop  offset="0" style="stop-color:#DC00FF"/>
			<stop  offset="1" style="stop-color:#9A00FF"/>
		</linearGradient>
		<path fill="url(#SVGID_1_)" d="M481.687,256.33c0,124.261-100.733,225-225,225s-225-100.739-225-225
			c0-124.267,100.733-225,225-225S481.687,132.063,481.687,256.33z"/>
		<linearGradient id="SVGID_2_" gradientUnits="userSpaceOnUse" x1="150.7402" y1="72.8257" x2="362.6333" y2="439.8353">
			<stop  offset="0" style="stop-color:#9A00FF"/>
			<stop  offset="1" style="stop-color:#DC00FF"/>
		</linearGradient>
		<circle fill="url(#SVGID_2_)" cx="256.687" cy="256.33" r="211.858"/>
	</g>
</g>
<g>
	<path fill-rule="evenodd" clip-rule="evenodd" fill="#FFFFFF" d="M372.53,155.279c0,3.661,0.134,7.023-0.056,10.354
		c-0.104,1.919,0.66,2.518,2.366,2.928c12.262,2.964,24.498,6.015,36.741,9.046c0.679,0.165,1.339,0.397,2.109,0.63
		c-2.225,9.052-4.426,17.964-6.639,26.882c-6.821,27.531-13.661,55.049-20.428,82.591c-0.244,1.027-0.055,2.378,0.41,3.356
		c2.225,4.664,2.035,9.102-0.954,13.344c-1.18,1.675-2.524,3.239-3.881,4.981c4.059,3.252,7.971,6.455,11.974,9.541
		c0.508,0.386,1.479,0.361,2.201,0.245c7.903-1.174,14.804,4.181,15.813,12.311c0.874,7.09-4.884,14.181-12.065,14.865
		c-8.014,0.776-14.731-4.854-15.324-12.695c-0.073-0.923-0.642-2.005-1.333-2.635c-1.938-1.748-4.046-3.301-6.479-5.232
		c-1.425,8.228-4.872,15.581-4.493,23.888c-45.782,0-91.479,0-137.298,0c0-64.749,0-129.438,0-194.401
		c2.121,0,4.175,0.11,6.21-0.055c0.74-0.061,1.736-0.593,2.084-1.21c3.209-5.697,7.964-8.985,14.53-8.974
		c6.46,0.013,11.197,3.215,14.413,8.809c0.385,0.685,1.454,1.345,2.212,1.369c4.854,0.122,9.713,0.012,14.566,0.092
		c1.345,0.03,1.883-0.428,2.121-1.73c0.306-1.736,0.837-3.435,1.345-5.416c3.68,0.88,7.249,1.736,10.825,2.616
		c5.391,1.333,10.771,2.732,16.174,4.041c1.234,0.299,2.524,0.44,3.796,0.446c15.495,0.024,30.978,0.012,46.461,0.012
		C370.715,155.279,371.479,155.279,372.53,155.279z M258.729,190.933c0-1.1,0.012-2.017,0-2.928c0-4.071,0.018-8.13-0.074-12.201
		c-0.012-0.562-0.635-1.106-0.978-1.663c-0.379,0.532-1.076,1.063-1.076,1.596c-0.073,6.424-0.146,12.848,0.037,19.26
		c0.079,2.781,2.585,5.006,5.146,5.232c2.274,0.189,4.884-1.706,5.575-4.2c0.238-0.874,0.25-1.833,0.25-2.75
		c0.019-9.633,0.013-19.266,0.006-28.906c0-0.679-0.073-1.369-0.109-2.042c-8.588,0-16.969,0-25.355,0c0,60.257,0,120.373,0,180.428
		c41.248,0,82.311,0,123.375,0c0-4.561,0-8.949,0-13.368c-5.716,1.975-8.496,2.469-11.577,0.593
		c-4.218-2.562-8.068-5.715-12.158-8.68c7.757-9.7,15.227-18.979,22.599-28.331c0.715-0.911,1.191-2.28,1.197-3.43
		c0.056-41.681,0.049-83.361,0.049-125.042c0-0.74,0-1.485,0-2.201c-30.525,0-60.69,0-91.1,0c0,0.948,0,1.779,0,2.623
		c-0.006,9.847,0.049,19.694-0.037,29.547c-0.055,6.84-5.458,12.445-12.005,12.689c-6.442,0.239-12.476-5.141-12.769-11.925
		c-0.3-6.767-0.196-13.557-0.031-20.33c0.11-4.217,3.673-7.616,7.689-7.848c3.613-0.214,7.764,2.86,8.002,6.662
		c0.348,5.667,0.092,11.375,0.092,17.213C263.343,190.933,261.229,190.933,258.729,190.933z M374.896,280.145
		c1.748,1.387,3.441,2.72,5.349,4.229c8.417-33.906,16.735-67.457,25.109-101.186c-11.051-2.739-21.857-5.422-32.634-8.087
		c0,35.868,0,71.516,0,107.438C373.563,281.611,374.174,280.933,374.896,280.145z M375.732,289.973
		c-7.971,9.945-15.978,19.945-24.07,30.056c0.996,0.807,1.864,1.528,2.763,2.225c3.747,2.928,6.516,2.598,9.499-1.143
		c4.719-5.911,9.426-11.822,14.15-17.721c5.036-6.302,4.743-8.563-1.779-13.245C376.191,290.071,376.039,290.064,375.732,289.973z
		 M376.564,316.531c4.364,3.503,8.588,6.98,12.934,10.318c1.748,1.351,2.671,2.806,2.329,5.079c-0.141,0.936,0.006,2.012,0.3,2.929
		c1.155,3.557,4.871,5.428,8.361,4.327c3.582-1.118,5.489-4.64,4.493-8.295c-0.973-3.532-4.756-5.758-8.423-4.554
		c-2.354,0.765-4.022,0.313-5.838-1.216c-4.188-3.509-8.521-6.853-12.903-10.354C377.353,315.419,376.998,315.921,376.564,316.531z
		 M251.308,155.102c4.603,0,8.924,0,13.411,0C260.947,150.859,255.079,150.854,251.308,155.102z"/>
	<path fill-rule="evenodd" clip-rule="evenodd" fill="#FFFFFF" d="M248.966,240.823c0-2.231,0-4.333,0-6.614
		c36.455,0,72.848,0,109.407,0c0,2.164,0,4.321,0,6.614C321.906,240.823,285.494,240.823,248.966,240.823z"/>
	<path fill-rule="evenodd" clip-rule="evenodd" fill="#FFFFFF" d="M248.948,254.545c0-2.304,0-4.407,0-6.656
		c36.51,0,72.903,0,109.45,0c0,2.219,0,4.383,0,6.656C321.906,254.545,285.556,254.545,248.948,254.545z"/>
	<path fill-rule="evenodd" clip-rule="evenodd" fill="#FFFFFF" d="M332.836,291.898c2.09-1.29,4.016-2.481,6.21-3.832
		c1.204,1.895,2.396,3.777,3.698,5.818c-2.488,1.541-4.756,3.16-7.207,4.42c-3.655,1.883-8.014-0.073-9.26-4.065
		c-0.483-1.54-0.648-3.185-1.07-5.397c-0.929,3.057-1.583,5.587-2.463,8.032c-0.838,2.329-2.598,3.833-5.104,3.931
		c-2.401,0.098-4.327-1.095-5.269-3.332c-0.587-1.411-0.831-3.001-1.076-4.529c-0.238-1.613-0.293-3.258-0.464-4.89
		c-0.056-0.489-0.099-1.075-0.373-1.418c-0.611-0.709-1.431-1.846-2.06-1.785c-0.819,0.08-1.969,1.027-2.22,1.834
		c-0.372,1.198-0.385,2.708-0.012,3.906c0.568,1.797,1.626,3.435,2.61,5.403c-1.608,1.229-3.338,2.536-5.27,4.01
		c-3.331-4.597-5.807-9.182-4.218-14.933c1.223-4.438,4.878-7.286,9.169-7.269c4.047,0.013,7.659,3.026,8.839,7.396
		c0.22,0.807,0.385,1.632,0.642,2.714c0.844-1.448,1.51-2.757,2.316-3.961c1.614-2.39,3.937-3.264,6.699-2.708
		c2.616,0.526,4.261,2.25,4.859,4.829C332.249,287.919,332.475,289.809,332.836,291.898z"/>
	<path fill-rule="evenodd" clip-rule="evenodd" fill="#FFFFFF" d="M248.948,227.1c0-2.261,0-4.358,0-6.614
		c21.461,0,42.817,0,64.327,0c0,2.133,0,4.297,0,6.614C291.912,227.1,270.562,227.1,248.948,227.1z"/>
	<path fill-rule="evenodd" clip-rule="evenodd" fill="#FFFFFF" d="M296.687,268.256c-15.96,0-31.748,0-47.702,0
		c0-2.262,0-4.426,0-6.699c15.923,0,31.724,0,47.702,0C296.687,263.732,296.687,265.884,296.687,268.256z"/>
	<path fill-rule="evenodd" clip-rule="evenodd" fill="#FFFFFF" d="M299.755,312.388c0-2.25,0-4.364,0-6.614
		c14.786,0,29.493,0,44.358,0c0,2.146,0,4.304,0,6.614C329.406,312.388,314.7,312.388,299.755,312.388z"/>
</g>
<g>
	<path fill-rule="evenodd" clip-rule="evenodd" d="M202.261,169.105c-7.805-2.023-15.208-0.685-19.315,1.62
		c-3.992,2.243-7.684,4.865-12.372,5.843c-4.499,0.947-7.066,4.389-9.493,8.325c-2.408,3.918-3.942,7.854-3.795,12.292
		c0.183,5.673,0.862,11.327,1.271,16.993c0.055,0.788,0.019,1.772-0.397,2.353c-3.136,4.358-2.335,11.253,1.833,14.694
		c0.385,0.318,0.936,0.44,1.308,0.758c0.899,0.764,1.932,1.455,2.543,2.408c0.636,0.99,0.831,2.243,1.229,3.386
		c2.567,7.494,6.113,14.193,13.393,18.337c7.787,4.432,15.471,8.222,24.712,4.064c6.516-2.934,13.044-5.966,16.98-12.096
		c2.671-4.15,4.114-9.089,6.21-13.619c0.41-0.88,1.186-1.828,2.036-2.207c5.306-2.347,7.365-11.223,3.618-15.587
		c-0.599-0.685-1.039-1.876-0.923-2.745c1.027-7.194,0.844-14.254-0.819-21.388c-2.372-10.226-8.741-16.577-18.289-19.987
		c-3.692-1.314-7.592-2.023-11.284-2.983C201.008,169.484,201.436,169.355,202.261,169.105z M195.091,341.605
		c-4.908-6.901-9.768-13.674-14.554-20.502c-1.027-1.454-2.207-3.007-2.585-4.682c-0.935-4.083-1.516-8.252-2.121-12.402
		c-1.815-12.488-3.619-24.963-5.299-37.463c-0.306-2.274-1.296-2.091-2.75-1.352c-3.466,1.761-6.975,3.466-10.349,5.379
		c-10.935,6.211-21.858,12.451-32.702,18.803c-6.491,3.813-11.058,9.34-13.142,16.656c-1.919,6.754-3.82,13.526-5.385,20.373
		c-1.492,6.57-2.549,13.245-3.814,19.963c41.479,0,82.604,0,124.205,0c-7.243-8.271-11.956-17.433-15.257-27.971
		C205.617,326.574,200.421,334.008,195.091,341.605z M204.278,284.014c-2.586-2.415-5.037-4.865-7.684-7.066
		c-0.587-0.495-2.237-0.568-2.781-0.116c-2.757,2.317-5.312,4.872-7.903,7.323c1.204,1.907,2.127,3.551,3.221,5.079
		c1.18,1.65,1.485,3.179,0.88,5.263c-1.956,6.755-3.729,13.582-5.306,20.435c-0.318,1.381,0.085,3.288,0.85,4.498
		c2.494,3.919,5.403,7.562,7.958,11.431c1.143,1.724,1.932,1.729,3.026,0.129c2.787-4.035,5.685-8.008,8.307-12.152
		c0.654-1.051,0.862-2.763,0.556-3.997c-1.809-7.226-3.845-14.396-5.74-21.607c-0.195-0.728-0.171-1.718,0.177-2.335
		C201.075,288.751,202.512,286.715,204.278,284.014z"/>
	<path fill-rule="evenodd" clip-rule="evenodd" fill="#FFFFFF" d="M202.261,169.105c-0.825,0.25-1.253,0.379-1.552,0.465
		c3.692,0.959,7.592,1.668,11.284,2.983c9.548,3.411,15.917,9.762,18.289,19.987c1.663,7.134,1.846,14.193,0.819,21.388
		c-0.116,0.868,0.324,2.06,0.923,2.745c3.747,4.364,1.688,13.24-3.618,15.587c-0.85,0.379-1.626,1.326-2.036,2.207
		c-2.097,4.529-3.539,9.468-6.21,13.619c-3.937,6.13-10.464,9.163-16.98,12.096c-9.242,4.157-16.925,0.367-24.712-4.064
		c-7.28-4.145-10.825-10.844-13.393-18.337c-0.397-1.143-0.593-2.396-1.229-3.386c-0.611-0.954-1.644-1.645-2.543-2.408
		c-0.373-0.318-0.923-0.44-1.308-0.758c-4.168-3.441-4.969-10.336-1.833-14.694c0.416-0.581,0.452-1.565,0.397-2.353
		c-0.409-5.667-1.088-11.32-1.271-16.993c-0.147-4.438,1.387-8.374,3.795-12.292c2.427-3.937,4.994-7.378,9.493-8.325
		c4.688-0.978,8.38-3.6,12.372-5.843C187.053,168.42,194.456,167.082,202.261,169.105z"/>
	<path fill-rule="evenodd" clip-rule="evenodd" fill="#FFFFFF" d="M195.091,341.605c5.33-7.598,10.526-15.031,16.247-23.197
		c3.301,10.538,8.014,19.7,15.257,27.971c-41.602,0-82.726,0-124.205,0c1.265-6.718,2.322-13.393,3.814-19.963
		c1.565-6.847,3.466-13.619,5.385-20.373c2.084-7.316,6.65-12.843,13.142-16.656c10.844-6.352,21.767-12.592,32.702-18.803
		c3.374-1.913,6.883-3.618,10.349-5.379c1.455-0.739,2.445-0.923,2.75,1.352c1.681,12.5,3.484,24.975,5.299,37.463
		c0.605,4.15,1.186,8.319,2.121,12.402c0.379,1.675,1.559,3.228,2.585,4.682C185.323,327.932,190.183,334.704,195.091,341.605z"/>
	<path fill-rule="evenodd" clip-rule="evenodd" fill="#FFFFFF" d="M204.278,284.014c-1.767,2.701-3.203,4.737-4.438,6.883
		c-0.348,0.617-0.373,1.607-0.177,2.335c1.895,7.212,3.931,14.382,5.74,21.607c0.306,1.234,0.098,2.946-0.556,3.997
		c-2.622,4.145-5.52,8.117-8.307,12.152c-1.094,1.601-1.883,1.595-3.026-0.129c-2.555-3.869-5.464-7.512-7.958-11.431
		c-0.764-1.21-1.167-3.117-0.85-4.498c1.577-6.853,3.35-13.68,5.306-20.435c0.605-2.084,0.299-3.612-0.88-5.263
		c-1.094-1.528-2.017-3.172-3.221-5.079c2.592-2.451,5.146-5.006,7.903-7.323c0.544-0.452,2.194-0.379,2.781,0.116
		C199.241,279.148,201.692,281.599,204.278,284.014z"/>
</g>
</svg>
