<?xml version="1.0" encoding="utf-8"?>
<!-- Generator: Adobe Illustrator 16.0.0, SVG Export Plug-In . SVG Version: 6.00 Build 0)  -->
<!DOCTYPE svg PUBLIC "-//W3C//DTD SVG 1.1//EN" "http://www.w3.org/Graphics/SVG/1.1/DTD/svg11.dtd">
<svg version="1.1" id="Layer_1" xmlns="http://www.w3.org/2000/svg" xmlns:xlink="http://www.w3.org/1999/xlink" x="0px" y="0px"
	 width="512px" height="512px" viewBox="0 0 512 512" enable-background="new 0 0 512 512" xml:space="preserve">
<g>
	<g>
		<linearGradient id="SVGID_1_" gradientUnits="userSpaceOnUse" x1="99.4092" y1="99.8184" x2="415.483" y2="415.8922">
			<stop  offset="0" style="stop-color:#00C9FF"/>
			<stop  offset="1" style="stop-color:#0091FF"/>
		</linearGradient>
		<path fill="url(#SVGID_1_)" d="M480.045,255.455c0,124.261-100.733,225-225,225s-225-100.739-225-225
			c0-124.267,100.733-225,225-225S480.045,131.188,480.045,255.455z"/>
		<linearGradient id="SVGID_2_" gradientUnits="userSpaceOnUse" x1="149.0986" y1="71.9507" x2="360.9917" y2="438.9603">
			<stop  offset="0" style="stop-color:#0091FF"/>
			<stop  offset="0.4483" style="stop-color:#0093FF"/>
			<stop  offset="1" style="stop-color:#00C9FF"/>
		</linearGradient>
		<circle fill="url(#SVGID_2_)" cx="255.045" cy="255.455" r="211.858"/>
	</g>
</g>
<g>
	<path fill-rule="evenodd" clip-rule="evenodd" fill="#FFFFFF" d="M161.145,221.531c1.987,1.43,2.586,1.907,3.228,2.311
		c30.789,19.346,78.985,16.137,106.944-7.029c21.112-17.494,29.688-40.721,30.831-67.286c0.214-4.75,0.728-8.551,5.079-11.785
		c4.077-3.026,7.098-7.481,10.587-11.308c-0.342-0.348-0.709-0.678-1.051-1.002c-3.723,0.886-7.433,1.754-11.559,2.738
		c3.466-5.489,6.418-10.128,9.364-14.755c-3.637,0.085-5.795,1.106-7.977,2.072c-6.718,3.008-12.458,4.358-19.688-1.033
		c-10.062-7.482-21.896-6.546-32.702-0.238c-10.746,6.277-16.662,15.703-16.381,28.521c0.042,1.822,0,3.662,0,5.636
		c-25.997-3.374-48.063-13.454-65.385-32.964c-8.521,13.124-6.223,26.351,7.323,42.347c-4.529-1.241-8.172-2.262-12.292-3.398
		c0.226,15.141,8.399,24.609,22.873,31.889c-5.012,0-7.891,0-11.492,0c4.621,14.272,15.624,19.615,29.542,23.356
		C193.499,218.811,178.755,222.515,161.145,221.531z"/>
</g>
<g>
	<path fill="#FFFFFF" d="M118.884,321.445v-26.901l101.986-47.567v30.538l-71.259,30.452l71.259,30.33v30.654L118.884,321.445z"/>
	<path fill="#FFFFFF" d="M230.399,389.227l35.073-156.198h21.382l-35.489,156.198H230.399z"/>
	<path fill="#FFFFFF" d="M400.204,321.445l-101.987,47.506v-30.654l71.26-30.33l-71.26-30.452v-30.538l101.987,47.567V321.445z"/>
</g>
</svg>
