<?xml version="1.0" encoding="utf-8"?>
<!-- Generator: Adobe Illustrator 16.0.0, SVG Export Plug-In . SVG Version: 6.00 Build 0)  -->
<!DOCTYPE svg PUBLIC "-//W3C//DTD SVG 1.1//EN" "http://www.w3.org/Graphics/SVG/1.1/DTD/svg11.dtd">
<svg version="1.1" id="Layer_1" xmlns="http://www.w3.org/2000/svg" xmlns:xlink="http://www.w3.org/1999/xlink" x="0px" y="0px"
	 width="512px" height="512px" viewBox="0 0 512 512" enable-background="new 0 0 512 512" xml:space="preserve">
<g>
	<g>
		<linearGradient id="SVGID_1_" gradientUnits="userSpaceOnUse" x1="100.0674" y1="99.8193" x2="416.1405" y2="415.8925">
			<stop  offset="0" style="stop-color:#00C9FF"/>
			<stop  offset="1" style="stop-color:#0091FF"/>
		</linearGradient>
		<path fill="url(#SVGID_1_)" d="M480.702,255.455c0,124.261-100.733,225-225,225s-225-100.739-225-225
			c0-124.267,100.733-225,225-225S480.702,131.188,480.702,255.455z"/>
		<linearGradient id="SVGID_2_" gradientUnits="userSpaceOnUse" x1="149.7559" y1="71.9512" x2="361.6489" y2="438.9608">
			<stop  offset="0" style="stop-color:#0091FF"/>
			<stop  offset="0.4483" style="stop-color:#0093FF"/>
			<stop  offset="1" style="stop-color:#00C9FF"/>
		</linearGradient>
		<circle fill="url(#SVGID_2_)" cx="255.702" cy="255.455" r="211.858"/>
	</g>
</g>
<g>
	<path fill-rule="evenodd" clip-rule="evenodd" fill="#FFFFFF" d="M264.144,312.619c-2.457-0.477-4.915-1.382-7.359-1.369
		c-11.614,0.049-23.13,0.012-34.279-4.218c-30.177-11.455-50.721-44.083-48.362-77.745c2.262-32.188,16.663-56.571,47.029-69.621
		c6.858-2.946,14.78-4.547,22.262-4.712c25.349-0.581,50.733-0.795,76.088-0.098c31.87,0.868,58.411,23.973,66.81,56.852
		c9.046,35.422-5.208,72.39-35.221,90.067c-5.99,3.521-12.842,5.795-19.547,7.812c-3.362,1.015-4.414,2.226-4.316,5.532
		c0.208,6.485,0.654,13.056-0.183,19.432c-0.452,3.416-2.653,8.02-5.392,9.333c-3.001,1.449-8.264,0.966-11.259-0.825
		c-12.457-7.438-24.426-15.69-37.317-24.132c0.264,1.858,0.459,3.008,0.594,4.163c0.733,6.265-3.46,12.304-9.548,11.412
		c-13.215-1.92-22.867,4.443-32.775,11.394c-9.639,6.76-19.737,12.866-29.535,19.4c-4.254,2.837-8.417,5.189-13.625,2.556
		c-5.605-2.837-5.605-7.971-5.532-13.203c0.067-5.502,0.293-11.027-0.159-16.504c-0.146-1.645-2.072-4.12-3.625-4.523
		c-33.576-8.875-56.191-37.103-57.377-71.998c-1.063-31.596,10.605-56.614,38.02-73.466c1.663-1.015,3.435-1.907,5.238-2.659
		c6.009-2.5,12.036-0.324,14.395,5.104c2.298,5.293,0.22,10.917-5.587,13.668c-32.818,15.525-40.794,59.145-21.137,87.518
		c9.657,13.919,22.873,21.761,40.012,22.58c7.029,0.33,10.611,4.119,10.782,11.277c0.098,4.285,0.012,8.563,0.012,14.028
		c7.628-4.964,14.816-8.937,21.192-13.937c11.657-9.145,24.187-14.353,39.493-10.611C264.003,314.287,264.07,313.45,264.144,312.619
		z M306.564,316.104c0-5.159-0.025-8.876,0.006-12.58c0.092-9.499,2.598-12.396,11.925-13.117c9.218-0.703,17.665-3.35,25.318-8.606
		c25.366-17.421,32.2-55.929,14.499-82.665c-9.731-14.707-23.265-23.368-41.138-23.625c-23.777-0.336-47.573-0.177-71.356-0.031
		c-10.526,0.061-20.092,3.447-28.387,9.97c-17.604,13.838-24.193,32.438-22.298,54.181c2.262,25.887,22.433,51.314,53.496,50.85
		c3.937-0.062,7.952-0.525,11.772,0.122c4.475,0.771,9.255,1.748,13.068,4.034C284.363,301.177,294.84,308.42,306.564,316.104z"/>
	<path fill-rule="evenodd" clip-rule="evenodd" fill="#FFFFFF" d="M243.214,245.296c-8.136,0.062-14.23-5.855-14.303-13.899
		c-0.085-8.191,6.406-14.816,14.352-14.67c7.689,0.146,14.23,6.772,14.23,14.413C257.48,238.927,251.112,245.247,243.214,245.296z"
		/>
	<path fill-rule="evenodd" clip-rule="evenodd" fill="#FFFFFF" d="M334.271,230.944c0.092,8.081-5.85,14.229-13.899,14.376
		c-8.099,0.147-14.358-5.733-14.566-13.71c-0.22-8.124,6.204-14.859,14.188-14.884C327.719,216.702,334.187,223.145,334.271,230.944
		z"/>
	<path fill-rule="evenodd" clip-rule="evenodd" fill="#FFFFFF" d="M295.745,231.201c-0.024,7.989-6.149,14.12-14.12,14.132
		c-7.946,0.012-14.254-6.125-14.4-13.992c-0.147-7.879,6.711-14.774,14.535-14.615C289.541,216.873,295.77,223.328,295.745,231.201z
		"/>
</g>
</svg>
