<?xml version="1.0" encoding="utf-8"?>
<!-- Generator: Adobe Illustrator 16.0.0, SVG Export Plug-In . SVG Version: 6.00 Build 0)  -->
<!DOCTYPE svg PUBLIC "-//W3C//DTD SVG 1.1//EN" "http://www.w3.org/Graphics/SVG/1.1/DTD/svg11.dtd">
<svg version="1.1" id="Layer_1" xmlns="http://www.w3.org/2000/svg" xmlns:xlink="http://www.w3.org/1999/xlink" x="0px" y="0px"
	 width="512px" height="512px" viewBox="0 0 512 512" enable-background="new 0 0 512 512" xml:space="preserve">
<g>
	<g>
		<linearGradient id="SVGID_1_" gradientUnits="userSpaceOnUse" x1="99.7651" y1="99.9458" x2="415.8376" y2="416.0183">
			<stop  offset="0" style="stop-color:#FF7601"/>
			<stop  offset="1" style="stop-color:#FF0000"/>
		</linearGradient>
		<path fill="url(#SVGID_1_)" d="M480.399,255.581c0,124.261-100.733,225-225,225s-225-100.739-225-225
			c0-124.264,100.733-225,225-225S480.399,131.317,480.399,255.581z"/>
		<linearGradient id="SVGID_2_" gradientUnits="userSpaceOnUse" x1="149.4521" y1="72.0771" x2="361.3481" y2="439.0918">
			<stop  offset="0" style="stop-color:#FF0000"/>
			<stop  offset="1" style="stop-color:#FF6301"/>
		</linearGradient>
		<path fill="url(#SVGID_2_)" d="M467.258,255.581c0,117.011-94.854,211.864-211.858,211.864S43.541,372.592,43.541,255.581
			c0-117.005,94.854-211.858,211.858-211.858S467.258,138.576,467.258,255.581z"/>
	</g>
</g>
<g>
	<path fill-rule="evenodd" clip-rule="evenodd" fill="#FFFFFF" d="M255.595,231.889c4.347,0,8.692-0.085,13.026,0.049
		c1.1,0.037,2.408,0.477,3.233,1.18c5.091,4.328,10.158,8.686,15.067,13.221c13.581,12.562,17.952,31.729,11.277,48.906
		c-6.62,17.029-23.026,27.958-41.437,28.453c-22.463,0.611-38.454-13.295-44.328-28.814c-6.356-16.778-2.115-35.837,10.966-48.086
		c5.067-4.743,10.373-9.242,15.648-13.753c0.77-0.66,1.986-1.07,3.007-1.094c4.511-0.116,9.028-0.055,13.539-0.055V231.889z
		 M251.347,298.655c0,2.952,0,5.526,0,8.105c2.818,0,5.453,0,8.246,0c0-2.769,0-5.349,0-7.995c0.471-0.079,0.794-0.146,1.118-0.195
		c7.194-1.168,11.883-6.779,11.32-13.539c-0.563-6.736-6.118-11.455-13.447-11.437c-2.519,0.012-5.043,0.085-7.549-0.049
		c-2.323-0.129-3.985-1.896-3.942-4.053c0.042-2.305,1.283-3.991,3.539-4.12c4.303-0.22,8.624-0.061,13.007-0.061
		c0.092,1.491,0.172,2.744,0.245,3.954c2.823,0,5.385,0,7.989,0c0-4.169,0-8.19,0-12.402c-4.163,0-8.124,0-12.366,0
		c0-2.83,0-5.465,0-8.069c-2.922,0-5.556,0-8.337,0c0,2.8,0,5.392,0,7.965c-0.403,0.085-0.648,0.153-0.898,0.195
		c-7.451,1.18-12.054,6.614-11.492,13.582c0.532,6.681,6.015,11.314,13.472,11.369c2.518,0.024,5.037-0.079,7.549,0.067
		c2.285,0.122,3.948,1.95,3.894,4.102c-0.062,2.311-1.32,3.973-3.576,4.089c-4.297,0.232-8.612,0.073-12.934,0.073
		c-0.11-1.54-0.202-2.793-0.287-3.979c-2.848,0-5.416,0-7.989,0c0,4.175,0,8.19,0,12.396
		C243.052,298.655,247.013,298.655,251.347,298.655z"/>
	<path fill-rule="evenodd" clip-rule="evenodd" fill="#FFFFFF" d="M351.114,269.542c5.281,0,10.722,0,16.174,0
		c-4.181,49.64-47.249,94.621-99.254,99.321c0-5.452,0-10.893,0-16.223C314.317,343.515,341.945,315.85,351.114,269.542z"/>
	<path fill-rule="evenodd" clip-rule="evenodd" fill="#FFFFFF" d="M367.612,244.297c-5.801,0-11.241,0-16.485,0
		c-9.199-46.247-36.736-73.9-83.111-83.111c0-5.153,0-10.593,0-16.43c24.64,2.946,45.99,12.745,64.021,29.535
		C352.343,193.197,364.049,216.577,367.612,244.297z"/>
	<path fill-rule="evenodd" clip-rule="evenodd" fill="#FFFFFF" d="M242.759,352.641c0,5.33,0,10.765,0,16.217
		c-51.027-4.676-94.786-48.423-99.285-99.315c5.452,0,10.892,0,16.198,0C168.792,315.783,196.42,343.338,242.759,352.641z"/>
	<path fill-rule="evenodd" clip-rule="evenodd" fill="#FFFFFF" d="M255.797,209.059c4.248-5.642,8.38-10.978,12.322-16.455
		c1.113-1.541,2.158-1.877,3.876-1.333c2.212,0.709,4.498,1.21,7.054,1.883c-0.245,0.923-0.416,1.73-0.679,2.512
		c-2.867,8.631-5.801,17.237-8.582,25.898c-0.538,1.681-1.363,2.048-2.977,2.03c-7.72-0.074-15.44,0.006-23.16-0.08
		c-0.832-0.012-2.17-0.52-2.402-1.143c-3.215-8.209-6.277-16.479-9.486-25.043c3.172-0.813,6.131-1.663,9.144-2.255
		c0.605-0.116,1.534,0.611,2.097,1.161C247.196,200.379,251.334,204.579,255.797,209.059z"/>
	<path fill-rule="evenodd" clip-rule="evenodd" fill="#FFFFFF" d="M328.438,160.514c-2.286-1.626-4.462-3.178-7.005-4.994
		c4.383-4.297,9.034-8.142,12.781-12.723c4.541-5.544,9.822-8.026,16.864-6.822c0.929,0.156,1.919-0.042,2.86,0.049
		c3.729,0.366,6.614-0.07,8.985-3.906c2.824-4.566,8.888-5.544,14.016-3.457c4.896,1.993,8.068,7.13,7.684,12.451
		c-0.391,5.416-4.291,9.933-9.694,11.241c-5.159,1.247-10.771-1.002-13.35-5.764c-0.996-1.843-2.078-2.531-4.01-2.247
		c-0.422,0.061-0.868,0.018-1.302,0.024c-3.894,0.067-8.222-0.908-11.553,0.498c-3.344,1.406-5.69,5.184-8.472,7.934
		C333.706,155.294,331.182,157.8,328.438,160.514z"/>
	<path fill-rule="evenodd" clip-rule="evenodd" fill="#FFFFFF" d="M182.239,353.197c2.457,1.767,4.633,3.319,6.993,5.006
		c-6.455,6.442-12.745,12.763-19.12,19.004c-0.508,0.507-1.577,0.58-2.39,0.593c-5.037,0.055-10.073,0.062-15.11,0.019
		c-1.4-0.019-2.268,0.226-3.038,1.675c-2.836,5.336-8.441,7.714-14.065,6.24c-5.458-1.424-9.333-6.405-9.364-12.041
		s3.765-10.605,9.254-12.103c5.581-1.517,11.29,0.861,14.132,6.124c0.74,1.363,1.504,1.822,2.977,1.785
		c3.82-0.092,7.646,0.079,11.461-0.098c1.222-0.062,2.702-0.617,3.57-1.455C172.465,363.179,177.233,358.246,182.239,353.197z"/>
	<path fill-rule="evenodd" clip-rule="evenodd" fill="#FFFFFF" d="M231.041,146.706c4.132-0.715,7.836-1.363,11.73-2.035
		c0,5.77,0,11.192,0,16.84c-2.732,0.52-5.483,1.045-8.454,1.614C233.229,157.678,232.172,152.384,231.041,146.706z"/>
	<path fill-rule="evenodd" clip-rule="evenodd" fill="#FFFFFF" d="M143.132,244.279c0.69-3.9,1.338-7.61,2.054-11.699
		c5.513,1.082,10.801,2.121,16.363,3.215c-0.514,2.879-1.009,5.642-1.51,8.484C154.452,244.279,148.951,244.279,143.132,244.279z"/>
	<path fill-rule="evenodd" clip-rule="evenodd" fill="#FFFFFF" d="M211.903,152.843c3.722-1.382,7.249-2.684,11.045-4.089
		c1.125,5.648,2.182,10.959,3.289,16.51c-2.628,0.978-5.171,1.925-7.928,2.952C216.164,163.075,214.085,158.087,211.903,152.843z"/>
	<path fill-rule="evenodd" clip-rule="evenodd" fill="#FFFFFF" d="M147.227,224.456c1.412-3.82,2.696-7.28,4.083-11.033
		c5.196,2.151,10.171,4.217,15.361,6.369c-0.984,2.696-1.926,5.25-2.91,7.953C158.303,226.663,152.991,225.6,147.227,224.456z"/>
	<path fill-rule="evenodd" clip-rule="evenodd" fill="#FFFFFF" d="M210.735,171.761c-2.469,1.43-4.694,2.726-7.188,4.169
		c-3.056-4.56-6.058-9.053-9.218-13.771c3.319-1.938,6.504-3.802,9.988-5.838C206.487,161.541,208.56,166.528,210.735,171.761z"/>
	<path fill-rule="evenodd" clip-rule="evenodd" fill="#FFFFFF" d="M160.625,195.825c4.701,3.142,9.144,6.113,13.771,9.2
		c-1.394,2.433-2.714,4.719-4.138,7.2c-5.092-2.096-10.085-4.156-15.452-6.369C156.799,202.427,158.676,199.188,160.625,195.825z"/>
	<path fill-rule="evenodd" clip-rule="evenodd" fill="#FFFFFF" d="M179.159,173.931c2.53-2.127,5.312-4.456,8.325-6.986
		c3.142,4.688,6.155,9.181,9.248,13.79c-2.115,1.797-4.083,3.459-5.843,4.957C187.019,181.822,183.199,177.989,179.159,173.931z"/>
	<path fill-rule="evenodd" clip-rule="evenodd" fill="#FFFFFF" d="M184.256,192.274c-1.467,1.742-3.117,3.722-4.982,5.965
		c-4.517-3.007-9.016-6.002-13.851-9.217c2.494-2.983,4.854-5.801,7.072-8.448C176.451,184.511,180.302,188.338,184.256,192.274z"/>
</g>
</svg>
