<?xml version="1.0" encoding="utf-8"?>
<!-- Generator: Adobe Illustrator 16.0.0, SVG Export Plug-In . SVG Version: 6.00 Build 0)  -->
<!DOCTYPE svg PUBLIC "-//W3C//DTD SVG 1.1//EN" "http://www.w3.org/Graphics/SVG/1.1/DTD/svg11.dtd">
<svg version="1.1" id="Layer_1" xmlns="http://www.w3.org/2000/svg" xmlns:xlink="http://www.w3.org/1999/xlink" x="0px" y="0px"
	 width="512px" height="512px" viewBox="0 0 512 512" enable-background="new 0 0 512 512" xml:space="preserve">
<g>
	<g>
		<linearGradient id="SVGID_1_" gradientUnits="userSpaceOnUse" x1="100.9619" y1="100.6934" x2="417.0358" y2="416.7672">
			<stop  offset="0" style="stop-color:#FFA300"/>
			<stop  offset="1" style="stop-color:#FF6400"/>
		</linearGradient>
		<path fill="url(#SVGID_1_)" d="M481.598,256.33c0,124.261-100.733,225-225,225s-225-100.739-225-225
			c0-124.267,100.733-225,225-225S481.598,132.063,481.598,256.33z"/>
		<linearGradient id="SVGID_2_" gradientUnits="userSpaceOnUse" x1="150.6504" y1="72.8242" x2="362.5444" y2="439.8355">
			<stop  offset="0" style="stop-color:#FF6400"/>
			<stop  offset="1" style="stop-color:#FFA300"/>
		</linearGradient>
		<circle fill="url(#SVGID_2_)" cx="256.598" cy="256.33" r="211.858"/>
	</g>
</g>
<g>
	<path fill-rule="evenodd" clip-rule="evenodd" fill="#FFFFFF" d="M354.874,232.241c5.152-5.25,10.159-10.648,15.471-15.727
		c10.434-9.988,22.427-10.605,30.85-1.81c8.276,8.649,7.616,20.043-2.243,30.184c-12.457,12.787-24.859,25.672-37.952,37.787
		c-6.528,6.026-8.876,12.414-8.515,21.076c0.599,13.954,0.281,27.964,0.128,41.949c-0.195,18.057-7.598,25.354-25.654,25.379
		c-41.075,0.037-82.139,0.037-123.203,0c-18.087-0.024-25.471-7.408-25.483-25.477c-0.037-59.224-0.037-118.441,0-177.665
		c0.006-18.099,7.408-25.556,25.379-25.581c34.811-0.049,69.634,0.134,104.45-0.116c9.242-0.067,16.1,3.527,23.239,9.193
		c16.864,13.386,24.321,29.761,21.51,51.345c-1.216,9.321-0.202,18.942-0.202,28.423
		C353.395,231.55,354.141,231.893,354.874,232.241z M298.688,156.837c-2.494-0.361-3.906-0.74-5.318-0.74
		c-30.636-0.042-61.277,0.073-91.907-0.116c-8.429-0.049-9.572,4.798-9.56,11.577c0.085,59.486,0.153,118.979-0.061,178.466
		c-0.031,8.484,3.111,11.62,11.552,11.491c22.311-0.348,44.615-0.116,66.932-0.116c19.328,0,38.668-0.049,57.995,0.013
		c6.003,0.019,10.703-1.144,10.647-8.631c-0.091-13.937-0.023-27.873-0.023-42.47c-10.251,3.362-19.731,6.699-29.353,9.56
		c-8.563,2.537-12.329-1.51-10.043-10.256c4.321-16.584,10.129-32.213,24.609-43.1c4.241-3.178,7.731-7.396,11.387-11.296
		c1.357-1.455,3.154-3.35,3.185-5.061c0.238-16.522,0.141-33.05,0.141-50.055c-10.354,0-19.565-0.385-28.729,0.104
		c-8.704,0.477-11.767-3.441-11.521-11.638C298.908,175.45,298.688,166.312,298.688,156.837z M341.916,280.523
		c11.277-10.844,21.668-20.85,32.322-31.094c-2.684-2.995-5.343-5.966-6.81-7.592c-11.283,11.015-21.735,21.216-31.735,30.984
		C337.686,275.285,340.076,278.237,341.916,280.523z M312.686,181.563c9.132,0,17.408,0,25.679,0
		c0.392-0.703,0.771-1.406,1.167-2.103c-8.233-8.044-16.473-16.088-24.7-24.132c-0.715,0.642-1.431,1.284-2.146,1.932
		C312.686,165.156,312.686,173.042,312.686,181.563z M385.473,242.522c3.179-7.06,5.477-11.412,6.871-16.045
		c0.214-0.703-4.487-4.278-5.63-3.753c-4.034,1.871-7.513,4.945-9.749,6.534C379.929,233.879,381.854,236.88,385.473,242.522z
		 M323.175,280.352c-2.8,7.336-4.756,12.464-7.5,19.677c7.371-3.026,12.347-5.062,18.258-7.476
		C329.984,288.072,327.319,285.053,323.175,280.352z"/>
	<path fill-rule="evenodd" clip-rule="evenodd" fill="#FFFFFF" d="M258.743,222.876c-14.548,0-29.12,0.41-43.643-0.293
		c-3.386-0.165-8.863-3.588-9.425-6.32c-1.149-5.611,4.089-7.005,8.918-7.017c29.395-0.037,58.796-0.042,88.19,0
		c4.78,0.012,10.092,1.302,8.967,6.962c-0.55,2.738-5.996,6.21-9.364,6.369C287.863,223.286,273.291,222.876,258.743,222.876z"/>
	<path fill-rule="evenodd" clip-rule="evenodd" fill="#FFFFFF" d="M244.892,249.661c-10.085,0-20.183-0.049-30.269,0.024
		c-4.981,0.037-9.847-1.356-8.955-6.931c0.416-2.628,5.458-6.351,8.49-6.437c20.758-0.563,41.541-0.563,62.298,0
		c3.044,0.085,8.087,3.784,8.521,6.412c0.923,5.586-3.954,6.986-8.93,6.95C265.669,249.619,255.283,249.661,244.892,249.661z"/>
	<path fill-rule="evenodd" clip-rule="evenodd" fill="#FFFFFF" d="M244.892,276.446c-10.085,0-20.177-0.049-30.263,0.024
		c-4.982,0.03-9.847-1.351-8.961-6.926c0.41-2.634,5.453-6.363,8.49-6.442c20.752-0.563,41.534-0.563,62.298-0.006
		c3.038,0.085,8.081,3.777,8.521,6.405c0.923,5.594-3.948,6.993-8.918,6.969C265.669,276.403,255.283,276.446,244.892,276.446z"/>
	<path fill-rule="evenodd" clip-rule="evenodd" fill="#FFFFFF" d="M244.874,303.231c-10.086,0-20.177-0.05-30.263,0.018
		c-4.988,0.037-9.841-1.369-8.943-6.943c0.422-2.628,5.464-6.339,8.509-6.418c20.758-0.568,41.54-0.568,62.298,0
		c3.038,0.079,8.08,3.796,8.502,6.418c0.905,5.593-3.967,6.98-8.942,6.943C265.65,303.188,255.259,303.231,244.874,303.231z"/>
	<path fill-rule="evenodd" clip-rule="evenodd" fill="#FFFFFF" d="M284.959,344.271c-6.222,0-12.573,0.715-18.612-0.324
		c-2.823-0.483-5.055-4.383-7.549-6.736c2.408-2.146,4.743-6.026,7.25-6.143c13.007-0.617,26.075-0.611,39.083,0.03
		c2.457,0.129,4.719,4.102,7.072,6.302c-2.562,2.286-4.878,6.112-7.727,6.565C298.113,344.955,291.476,344.271,284.959,344.271z"/>
</g>
</svg>
