<?xml version="1.0" encoding="utf-8"?>
<!-- Generator: Adobe Illustrator 16.0.0, SVG Export Plug-In . SVG Version: 6.00 Build 0)  -->
<!DOCTYPE svg PUBLIC "-//W3C//DTD SVG 1.1//EN" "http://www.w3.org/Graphics/SVG/1.1/DTD/svg11.dtd">
<svg version="1.1" id="Layer_1" xmlns="http://www.w3.org/2000/svg" xmlns:xlink="http://www.w3.org/1999/xlink" x="0px" y="0px"
	 width="512px" height="512px" viewBox="0 0 512 512" enable-background="new 0 0 512 512" xml:space="preserve">
<g>
	<g>
		<linearGradient id="SVGID_1_" gradientUnits="userSpaceOnUse" x1="99.9985" y1="99.8188" x2="416.0717" y2="415.892">
			<stop  offset="0" style="stop-color:#00C9FF"/>
			<stop  offset="1" style="stop-color:#0091FF"/>
		</linearGradient>
		<path fill="url(#SVGID_1_)" d="M480.634,255.455c0,124.261-100.733,225-225,225s-225-100.739-225-225
			c0-124.267,100.733-225,225-225S480.634,131.188,480.634,255.455z"/>
		<linearGradient id="SVGID_2_" gradientUnits="userSpaceOnUse" x1="149.6875" y1="71.9502" x2="361.5806" y2="438.9598">
			<stop  offset="0" style="stop-color:#0091FF"/>
			<stop  offset="0.4483" style="stop-color:#0093FF"/>
			<stop  offset="1" style="stop-color:#00C9FF"/>
		</linearGradient>
		<circle fill="url(#SVGID_2_)" cx="255.634" cy="255.455" r="211.858"/>
	</g>
</g>
<g>
	<g>
		<path fill-rule="evenodd" clip-rule="evenodd" fill="#FFFFFF" d="M115.236,155.125c0.679-0.99,1.327-1.999,2.036-2.964
			c3.655-4.994,8.704-6.938,14.75-6.932c30.709,0.024,61.424,0,92.133,0c42.31,0.006,84.621-0.006,126.937,0.024
			c11.382,0.012,18.02,6.748,18.026,18.093c0.006,29.407,0.006,58.814,0.006,88.209c0,0.771,0,1.535,0,2.995
			c-0.782-1.216-1.174-1.925-1.669-2.561c-3.386-4.407-6.675-8.918-10.269-13.154c-1.284-1.522-1.901-2.867-1.901-4.829
			c0.049-23.38,0.019-46.76,0-70.141c0-4.358-0.458-4.743-4.811-4.743c-42.311,0.006-84.627,0-126.943,0
			c-30.446,0-60.886-0.006-91.333,0c-3.606,0-4.23,0.648-4.236,4.315c-0.006,43.178-0.006,86.363,0.006,129.554
			c0,3.258,0.771,3.942,4.328,3.942c39.346,0.012,78.686,0.036,118.032-0.024c1.98,0,2.903,0.446,3.441,2.451
			c2.763,10.312,7.86,19.352,15.397,26.925c2.305,2.311,1.198,5.03,1.699,7.8c-19.456,0-38.692,0-58.368,0
			c0.392-7.665,0.782-15.354,1.198-23.393c-1.271,0-2.286,0-3.307,0c-25.569,0-51.131-0.165-76.681,0.104
			c-8.362,0.086-14.566-2.652-18.472-10.134C115.236,252.154,115.236,203.634,115.236,155.125z"/>
		<path fill-rule="evenodd" clip-rule="evenodd" fill="#FFFFFF" d="M278.543,235.755c-3.673,4.511-7.182,8.899-10.807,13.172
			c-0.439,0.52-1.564,0.636-2.371,0.642c-20.838,0.037-47.94,0.042-68.784,0.042c-16.125,0-32.261,0-48.398-0.03
			c-4.48-0.012-7.616-2.628-7.836-6.375c-0.238-4.211,2.952-7.402,7.628-7.433c7.408-0.061,14.823-0.018,22.231-0.018
			c33.319,0,72.885,0,106.192,0C277.144,235.755,277.877,235.755,278.543,235.755z"/>
		<path fill-rule="evenodd" clip-rule="evenodd" fill="#FFFFFF" d="M257.504,280.682c-3.63,0-13.453,0-17.011,0
			c-30.599,0.006-61.192,0-91.791,0.024c-2.555,0-4.872-0.538-6.607-2.507c-1.742-1.98-2.311-4.291-1.302-6.809
			c1.149-2.843,3.362-4.456,6.418-4.578c3.826-0.141,7.671-0.062,11.498-0.062c30.599-0.006,67.457-0.006,98.05-0.006
			c0.861,0,1.729,0,2.836,0C258.886,271.482,258.207,275.975,257.504,280.682z"/>
		<path fill-rule="evenodd" clip-rule="evenodd" fill="#FFFFFF" d="M241.398,355.59c-12.647,0-25.288,0.018-37.934,0
			c-6.473-0.013-9.859-5.581-6.889-11.363c1.284-2.476,3.576-3.063,6.18-3.063c14.218,0.006,28.429-0.012,42.646-0.012
			c11.51,0,23.026-0.019,34.536,0.036c6.387,0.024,9.633,5.367,6.809,11.192c-1.326,2.726-3.845,3.233-6.619,3.227
			C267.217,355.577,254.313,355.59,241.398,355.59z"/>
		<path fill-rule="evenodd" clip-rule="evenodd" fill="#FFFFFF" d="M296.099,190.235c-12.47,0-24.945,0.025-37.415-0.006
			c-4.077-0.012-7.127-2.677-7.39-6.271c-0.306-4.211,2.702-7.427,7.194-7.457c10.116-0.067,20.238-0.049,30.349-0.055
			c14.749,0,29.486,0.019,44.229-0.012c2.543-0.012,4.891,0.336,6.607,2.415c1.742,2.115,2.415,4.499,1.211,7.06
			c-1.333,2.836-3.588,4.34-6.84,4.334C321.398,190.205,308.751,190.235,296.099,190.235L296.099,190.235z"/>
		<path fill-rule="evenodd" clip-rule="evenodd" fill="#FFFFFF" d="M296.251,219.489c-12.567,0-25.128-0.006-37.689,0.006
			c-3.105,0-5.391-1.388-6.699-4.138c-1.204-2.5-0.788-4.927,0.954-7.097c1.62-1.999,3.784-2.585,6.272-2.573
			c8.813,0.037,17.622-0.012,26.436-0.012c15.697-0.006,31.4,0.012,47.097-0.019c2.714-0.006,5.27,0.269,7.121,2.5
			c1.761,2.121,2.274,4.548,1.106,7.078c-1.289,2.769-3.563,4.236-6.65,4.249c-7.849,0.037-15.703,0.03-23.563,0.03
			c-4.792,0-9.591,0-14.383,0C296.251,219.508,296.251,219.496,296.251,219.489z"/>
	</g>
	<g>
		<path fill-rule="evenodd" clip-rule="evenodd" fill="#FFFFFF" d="M363.391,334.514c5.391,0.728,10.66,1.18,15.813,2.194
			c7.018,1.376,11.626,5.789,13.9,12.537c2.848,8.466,3.49,17.212,2.463,26.002c-0.825,6.999-5.055,11.076-12.322,12.8
			c-5.08,1.21-10.263,1.296-15.44,1.296c-19.438-0.019-38.882,0.006-58.319-0.165c-3.606-0.037-7.279-0.636-10.801-1.479
			c-6.375-1.521-10.452-5.666-11.223-12.237c-1.094-9.297-0.488-18.539,2.873-27.39c2.299-6.045,6.736-9.987,13.1-11.253
			c5.287-1.045,10.69-1.564,16.094-2.323c0.801,5.208,4.23,7.738,8.319,9.413c9.083,3.717,18.276,3.711,27.347-0.042
			c1.956-0.808,3.723-2.201,5.397-3.552C362.254,338.982,363.091,337.057,363.391,334.514z"/>
		<path fill-rule="evenodd" clip-rule="evenodd" fill="#FFFFFF" d="M351.551,336.408c-3.674,2.231-7.598,3.497-11.98,2.959
			c-4.896-0.605-9.034-2.892-12.451-6.29c-10.019-9.97-15.557-22.023-15.508-36.229c0.05-13.912,11.156-26.29,24.921-28.411
			c16.357-2.512,31.125,7.739,34.401,23.955c1.369,6.779,0.135,13.35-2.061,19.768c-0.831,2.415-1.882,4.762-2.971,7.072
			c-0.281,0.6-1.021,1.125-1.668,1.382c-0.996,0.391-2.085,0.647-3.154,0.721c-0.819,0.056-1.675-0.208-2.488-0.439
			c-0.983-0.281-1.925-0.936-2.909-0.972c-2.897-0.123-5.831-0.281-8.691,0.066c-3.937,0.465-6.81,4.297-6.608,8.222
			c0.208,4.095,3.362,7.451,7.372,7.751c1.247,0.091,2.506,0.012,3.766,0.012C351.532,336.115,351.545,336.262,351.551,336.408z"/>
		<path fill-rule="evenodd" clip-rule="evenodd" fill="#FFFFFF" d="M292.645,309.514c0-2.316,0-4.64,0-6.956
			c0.013-2.812,1.125-5.012,3.454-6.669c0.482-0.348,0.813-1.186,0.868-1.821c0.696-8.691,3.545-16.62,8.967-23.417
			c11.724-14.688,27.108-20.647,45.397-16.521c17.977,4.059,29.168,15.831,33.716,33.747c0.532,2.084,0.6,4.291,1.009,6.411
			c0.122,0.63,0.532,1.346,1.039,1.73c2.023,1.534,3.185,3.521,3.215,6.039c0.067,4.981,0.11,9.97,0,14.945
			c-0.122,5.477-5.642,8.856-10.715,6.613c-0.795-0.354-1.296-0.287-1.986,0.178c-5.245,3.49-11.101,5.22-17.305,5.929
			c-1.101,0.128-1.962,0.397-2.83,1.234c-0.782,0.752-2.042,1.217-3.142,1.345c-1.853,0.214-3.741,0.104-5.617,0.056
			c-2.738-0.086-4.64-2.018-4.585-4.579c0.056-2.493,1.98-4.272,4.683-4.297c1.827-0.018,3.667-0.152,5.471,0.049
			c1.1,0.129,2.139,0.801,3.215,1.204c0.593,0.221,1.223,0.605,1.797,0.551c5.41-0.526,10.52-2.036,15.208-4.872
			c0.819-0.488,1.149-0.941,0.88-1.998c-0.287-1.07-0.177-2.25-0.183-3.381c-0.019-4.096,0.036-8.19-0.019-12.279
			c-0.043-2.892,1.015-5.147,3.393-6.84c0.354-0.258,0.587-0.973,0.556-1.455c-0.996-15.984-13.136-30.056-29.04-33.723
			c-21.864-5.031-43.246,9.822-46.137,32.06c-0.208,1.596-0.221,2.903,1.442,4.017c1.742,1.167,2.396,3.19,2.396,5.33
			c0.007,4.933,0.05,9.865-0.012,14.798c-0.049,4.272-3.368,7.421-7.622,7.372c-4.169-0.049-7.402-3.203-7.494-7.396
			c-0.055-2.47-0.006-4.933-0.006-7.402C292.651,309.514,292.651,309.514,292.645,309.514z"/>
	</g>
</g>
<g>
	<path fill="#FFFFFF" d="M163.172,169.065v5.305h-9.75v23.642h-6.706V174.37h-9.751v-5.305H163.172z"/>
	<path fill="#FFFFFF" d="M178.271,169.065l11.957,28.946h-7.21l-2.218-5.719h-12.055l-2.01,5.719h-7.106l10.874-28.946H178.271z
		 M178.837,187.237l-4.363-11.251l-3.954,11.251H178.837z"/>
	<path fill="#FFFFFF" d="M211.598,170.931v5.656c-3.572-1.727-6.417-2.59-8.537-2.59c-1.208,0-2.168,0.217-2.881,0.653
		c-0.713,0.435-1.069,1.012-1.069,1.73c0,0.553,0.257,1.078,0.771,1.575s1.767,1.14,3.758,1.927c1.991,0.788,3.584,1.52,4.779,2.197
		s2.226,1.63,3.093,2.859s1.301,2.783,1.301,4.662c0,2.68-0.947,4.814-2.842,6.403s-4.391,2.383-7.486,2.383
		c-3.34,0-6.578-0.933-9.712-2.797v-6.237c1.798,1.299,3.392,2.245,4.779,2.839c1.388,0.594,2.858,0.891,4.413,0.891
		c2.633,0,3.95-0.89,3.95-2.671c0-0.607-0.264-1.181-0.791-1.719c-0.527-0.539-1.796-1.194-3.807-1.967s-3.604-1.491-4.779-2.155
		c-1.175-0.663-2.19-1.609-3.044-2.839c-0.854-1.229-1.281-2.805-1.281-4.725c0-2.487,0.931-4.494,2.794-6.021
		c1.862-1.527,4.355-2.29,7.477-2.29C205.36,168.693,208.399,169.438,211.598,170.931z"/>
	<path fill="#FFFFFF" d="M239.77,169.065l-8.769,13.614l11.891,15.333h-8.382l-10.676-13.572v13.572h-6.706v-28.946h6.706v13.033
		l8.56-13.033H239.77z"/>
	<path fill="#FFFFFF" d="M150.05,208.248v3.771c-2.381-1.151-4.278-1.727-5.691-1.727c-0.805,0-1.445,0.145-1.921,0.435
		c-0.475,0.29-0.713,0.675-0.713,1.153c0,0.369,0.171,0.718,0.514,1.05c0.342,0.332,1.177,0.76,2.505,1.285s2.39,1.013,3.186,1.464
		s1.484,1.087,2.062,1.906c0.578,0.82,0.867,1.856,0.867,3.108c0,1.787-0.631,3.209-1.895,4.269
		c-1.264,1.059-2.927,1.588-4.991,1.588c-2.227,0-4.385-0.622-6.475-1.865v-4.158c1.199,0.866,2.261,1.497,3.186,1.893
		s1.906,0.594,2.942,0.594c1.755,0,2.634-0.594,2.634-1.781c0-0.405-0.176-0.787-0.527-1.146s-1.197-0.796-2.538-1.312
		c-1.34-0.515-2.402-0.994-3.186-1.436c-0.783-0.442-1.46-1.073-2.029-1.893c-0.57-0.82-0.854-1.87-0.854-3.15
		c0-1.658,0.621-2.996,1.863-4.014c1.242-1.018,2.903-1.527,4.984-1.527C145.892,206.756,147.917,207.253,150.05,208.248z"/>
	<path fill="#FFFFFF" d="M167.071,207.004h4.471v10.954c0,2.818-0.775,4.955-2.325,6.409c-1.55,1.456-3.764,2.183-6.642,2.183
		c-2.844,0-5.051-0.736-6.623-2.21c-1.572-1.473-2.357-3.592-2.357-6.354v-10.981h4.483v11.092c0,1.345,0.409,2.422,1.227,3.232
		c0.818,0.81,1.891,1.215,3.218,1.215c1.378,0,2.481-0.415,3.308-1.243s1.24-2.007,1.24-3.536V207.004z"/>
	<path fill="#FFFFFF" d="M175.421,207.004h7.759c1.85,0,3.304,0.479,4.361,1.436c1.058,0.957,1.587,2.088,1.587,3.395
		c0,1.675-0.818,2.958-2.454,3.851c1.233,0.351,2.177,0.968,2.833,1.853s0.983,1.917,0.983,3.096c0,1.677-0.536,3.041-1.606,4.091
		c-1.071,1.051-2.646,1.576-4.728,1.576h-8.736V207.004z M179.892,210.541v4.13h2.338c0.72,0,1.28-0.198,1.683-0.594
		c0.402-0.396,0.604-0.893,0.604-1.492c0-0.589-0.202-1.078-0.604-1.464c-0.403-0.387-0.963-0.58-1.683-0.58H179.892z
		 M179.892,218.207v4.559h2.518c1.19,0,2.047-0.177,2.569-0.532c0.522-0.354,0.784-0.969,0.784-1.844
		c0-0.672-0.249-1.204-0.745-1.596c-0.497-0.391-1.161-0.587-1.991-0.587H179.892z"/>
	<path fill="#FFFFFF" d="M203.446,214.16l5.768-7.155h3.886v19.297h-4.471v-12.045l-4.848,6.05h-0.672l-4.847-6.05v12.045h-4.471
		v-19.297h3.882L203.446,214.16z"/>
	<path fill="#FFFFFF" d="M221.695,207.004v19.297h-4.471v-19.297H221.695z"/>
	<path fill="#FFFFFF" d="M242.031,207.004v3.536h-6.5v15.761h-4.471v-15.761h-6.5v-3.536H242.031z"/>
</g>
</svg>
