<?xml version="1.0" encoding="utf-8"?>
<!-- Generator: Adobe Illustrator 16.0.0, SVG Export Plug-In . SVG Version: 6.00 Build 0)  -->
<!DOCTYPE svg PUBLIC "-//W3C//DTD SVG 1.1//EN" "http://www.w3.org/Graphics/SVG/1.1/DTD/svg11.dtd">
<svg version="1.1" id="Layer_1" xmlns="http://www.w3.org/2000/svg" xmlns:xlink="http://www.w3.org/1999/xlink" x="0px" y="0px"
	 width="512px" height="512px" viewBox="0 0 512 512" enable-background="new 0 0 512 512" xml:space="preserve">
<g>
	<g>
		<linearGradient id="SVGID_1_" gradientUnits="userSpaceOnUse" x1="101.2246" y1="99.9453" x2="417.2971" y2="416.0178">
			<stop  offset="0" style="stop-color:#FF7601"/>
			<stop  offset="1" style="stop-color:#FF0000"/>
		</linearGradient>
		<path fill="url(#SVGID_1_)" d="M481.859,255.581c0,124.261-100.733,225-225,225s-225-100.739-225-225
			c0-124.264,100.733-225,225-225S481.859,131.317,481.859,255.581z"/>
		<linearGradient id="SVGID_2_" gradientUnits="userSpaceOnUse" x1="150.9121" y1="72.0767" x2="362.8076" y2="439.0905">
			<stop  offset="0" style="stop-color:#FF0000"/>
			<stop  offset="1" style="stop-color:#FF6301"/>
		</linearGradient>
		<path fill="url(#SVGID_2_)" d="M468.718,255.581c0,117.011-94.854,211.864-211.858,211.864S45.001,372.592,45.001,255.581
			c0-117.005,94.854-211.858,211.858-211.858S468.718,138.576,468.718,255.581z"/>
	</g>
</g>
<g>
	<g>
		<path fill-rule="evenodd" clip-rule="evenodd" fill="#FFFFFF" d="M255.845,153.05c-36.381,0-72.549,0-109.089,0
			c-0.214,1.852-0.544,3.478-0.55,5.123c-0.03,19.297,0.116,38.606-0.104,57.891c-0.062,4.743,1.418,6.216,6.167,6.161
			c19.511-0.226,39.028-0.33,58.527,0.128c3.747,0.086,8.606,1.938,10.88,4.676c5.062,6.106-0.006,14.75-8.576,14.988
			c-12.286,0.324-24.59,0.128-36.895,0.134c-12.72,0.006-25.458,0.092-38.166-0.037c-8.411-0.098-11.98-3.643-12.011-12.127
			c-0.098-28.423-0.098-56.846,0-85.266c0.03-8.386,3.71-12.234,11.999-12.25c42.201-0.095,84.407-0.095,126.601,0.009
			c7.739,0.024,11.32,3.594,11.779,11.201c0.244,4.224,0.25,8.5-0.086,12.711c-0.556,6.62-4.242,10.196-9.951,10.196
			c-5.409,0-9.034-3.405-10.042-9.493C256.126,155.887,256.028,154.64,255.845,153.05z"/>
		<path fill-rule="evenodd" clip-rule="evenodd" fill="#FFFFFF" d="M172.501,197.054c2.738,1.259,4.768,2.512,6.968,3.129
			c3.411,0.96,6.938,1.926,10.428,1.975c1.534,0.012,3.105-2.237,4.664-3.448c-1.192-1.503-2.078-3.63-3.619-4.352
			c-3.619-1.699-7.585-2.659-11.345-4.04c-5.819-2.133-9.859-5.789-10.03-12.463c-0.171-6.418,2.94-10.648,8.557-13.637
			c1.828-0.978,2.714-3.618,4.193-5.36c1.143-1.351,2.408-3.319,3.826-3.521c1.375-0.208,4.303,1.412,4.364,2.384
			c0.349,5.599,5.019,5.868,8.417,8.038c2.06,1.345,3.068,4.315,4.554,6.552c-2.372,1.009-4.804,2.928-7.109,2.788
			c-3.472-0.238-6.797-2.433-10.281-2.732c-1.742-0.159-3.686,2.036-5.525,3.154c1.253,1.663,2.151,4.028,3.826,4.847
			c3.576,1.748,7.567,2.641,11.351,3.998c5.947,2.121,9.725,6.173,9.737,12.671c0.018,6.559-3.301,11.021-9.358,13.814
			c-2.054,0.954-3.301,3.527-5.037,5.214c-1.4,1.363-3.038,3.527-4.499,3.472c-1.485-0.073-4.016-2.329-4.107-3.759
			c-0.238-3.838-2.543-4.7-5.434-5.825c-2.714-1.039-5.465-2.463-7.567-4.389c-1.058-0.959-1.382-3.649-0.837-5.128
			C169.158,198.992,171.193,198.111,172.501,197.054z"/>
	</g>
	<g>
		<path fill-rule="evenodd" clip-rule="evenodd" fill="#FFFFFF" d="M397.269,359.396c-7.194,0-14.205,0-21.681,0
			c0-7.689,0-14.896,0-22.097c0-3.49,0-6.969,0-10.465c0-6.895-0.63-7.433-8.436-6.485c0,12.812,0,25.715,0,38.79
			c-7.304,0-13.991,0-21.026,0c0-17.207,0-34.389,0-52.103c2.903,0,5.801,0,8.71,0c10.195,0.006,20.397-0.024,30.593,0.006
			c6.333,0.019,9.182,2.108,11.84,8.154V359.396z"/>
		<path fill-rule="evenodd" clip-rule="evenodd" fill="#FFFFFF" d="M226.584,378.766c0-4.12,0-8.246,0-12.751
			c10,0,19.462,0,29.193,0c0-2.341,0-4.278,0-6.705c-6.027,0-11.883,0.019-17.738,0c-7.09-0.036-11.645-3.466-11.84-10.33
			c-0.416-13.771-0.122-27.573-0.122-41.645c7.127,0,14.01,0,21.387,0c0,6.889,0,13.687,0,20.483c0,3.753,0,7.512,0,11.266
			c0,7.096,0.74,7.695,8.509,6.454c0-12.592,0-25.269,0-38.228c7.25,0,14.016,0,21.338,0c0,1.474,0,2.886,0,4.31
			c0,18.655-0.073,37.28,0.079,55.936c0.031,4.192-0.751,7.897-3.301,11.21C258.247,378.766,242.416,378.766,226.584,378.766z"/>
		<path fill-rule="evenodd" clip-rule="evenodd" fill="#FFFFFF" d="M108.223,307.097c12.989-0.012,25.959-0.067,38.948-0.036
			c5.776,0.024,10.306,3.301,10.471,8.912c0.422,14.278,0.147,28.563,0.147,43.337c-4.358,0-8.46,0-12.567,0
			c-7.897,0-15.807-0.214-23.698,0.079c-4.994,0.184-9.438-0.696-13.301-3.979c0-8.325,0-16.633,0-24.957
			c5.776-5.435,12.769-3.814,19.92-3.766c0,5.477,0.037,10.544-0.019,15.617c-0.031,2.476,0.959,3.783,3.551,3.704
			c1.522-0.049,3.057-0.006,4.817-0.006c0-7.892,0.018-15.116,0-22.335c-0.012-3.038-1.925-3.747-4.542-3.729
			c-7.91,0.055-15.825,0.036-23.729,0.055C108.223,315.697,108.223,311.412,108.223,307.097z"/>
		<path fill-rule="evenodd" clip-rule="evenodd" fill="#FFFFFF" d="M217.379,359.31c-4.835,0-9.493,0-14.15,0
			c-8.582,0-17.164,0.055-25.758-0.024c-6.541-0.055-11.027-4.278-11.101-10.672c-0.128-10.33-0.128-20.66,0-30.979
			c0.074-6.381,4.322-10.458,10.648-10.581c3.448-0.067,6.907-0.012,10.776-0.012c0,9.004,0,17.536,0,26.088c0,1.87,0,3.753,0,5.642
			c0,7.506,0.147,7.653,8.197,6.986c0-19.969,0-39.987,0-60.305c7.378,0,14.261,0,21.388,0
			C217.379,309.976,217.379,334.426,217.379,359.31z"/>
		<path fill-rule="evenodd" clip-rule="evenodd" fill="#FFFFFF" d="M286.096,307.164c14.522,0,28.581-0.135,42.622,0.079
			c4.089,0.067,7.774,3.955,8.063,8.228c0.348,5.073,0.348,10.184,0.024,15.245c-0.3,4.639-3.576,8.08-8.173,8.551
			c-3.967,0.416-8.007,0.086-12.714,0.086c0-4.034,0-8.124,0-12.207c-0.006-7.182-1.149-8.087-8.723-6.626
			c0,7.378-0.092,14.854,0.049,22.311c0.043,2.5,1.896,3.216,4.23,3.191c6.705-0.056,13.41-0.013,20.115-0.013
			c1.431,0,2.873,0,4.572,0c0,4.578,0,8.668,0,13.301c-3.099,0-6.015,0-8.905,0c-10.189,0-20.392,0.055-30.581-0.03
			c-5.88-0.049-10.385-3.777-10.495-9.438C285.906,335.783,286.096,321.718,286.096,307.164z"/>
	</g>
	<g>
		<path fill-rule="evenodd" clip-rule="evenodd" fill="#FFFFFF" d="M317.336,297.806c-22.151,0-44.297,0.153-66.461-0.055
			c-13.704-0.122-22.451-9.364-22.451-23.057c0-28.337,0.465-56.668-0.256-84.975c-0.245-9.407,10.868-21.131,19.639-21.21
			c9.083-0.073,18.154-0.538,27.231-0.556c32.139-0.08,64.284-0.073,96.418-0.024c4.713,0,9.443,0.214,14.132,0.654
			c12.83,1.186,20.807,10.178,20.807,23.215c0,27.788,0,55.568,0,83.337c0,12.714-9.205,22.438-22.06,22.562
			c-22.329,0.238-44.664,0.073-66.999,0.073C317.336,297.775,317.336,297.794,317.336,297.806z M394.329,215.948
			c-2.427,0-4.206,0-5.979,0c-37.414,0-74.841,0-112.249,0.024c-9.811,0.006-19.621,0.134-29.432,0.171
			c-2.818,0.006-4.854,0.416-4.811,4.132c0.263,17.977,0.171,35.959,0.532,53.931c0.134,7.097,3.167,9.56,10.312,9.578
			c21.986,0.012,43.967,0.042,65.941-0.019c22.163-0.049,44.315-0.165,66.485-0.336c5.537-0.043,9.113-2.959,9.15-7.818
			C394.414,256.015,394.329,236.394,394.329,215.948z M394.121,193.863c0.177-8.02-2.011-10.617-9.059-11.21
			c-2.176-0.178-4.358-0.257-6.528-0.257c-42.14-0.061-84.272-0.116-126.4-0.141c-7.042,0-10.458,4.175-9.651,11.607
			C292.923,193.863,343.369,193.863,394.121,193.863z"/>
		<path fill-rule="evenodd" clip-rule="evenodd" fill="#FFFFFF" d="M277.409,269.646c-8.093,6.198-16.589,6.088-22.206-0.049
			c-4.909-5.354-5.123-14.064-0.489-19.413c5.984-6.876,13.814-7.182,22.751-0.886c10.024-6.027,17.988-5.715,23.196,0.886
			c4.64,5.917,4.377,14.071-0.642,19.37C294.035,275.868,286.523,275.96,277.409,269.646z"/>
	</g>
</g>
</svg>
