<?xml version="1.0" encoding="utf-8"?>
<!-- Generator: Adobe Illustrator 16.0.0, SVG Export Plug-In . SVG Version: 6.00 Build 0)  -->
<!DOCTYPE svg PUBLIC "-//W3C//DTD SVG 1.1//EN" "http://www.w3.org/Graphics/SVG/1.1/DTD/svg11.dtd">
<svg version="1.1" id="Layer_1" xmlns="http://www.w3.org/2000/svg" xmlns:xlink="http://www.w3.org/1999/xlink" x="0px" y="0px"
	 width="512px" height="512px" viewBox="0 0 512 512" enable-background="new 0 0 512 512" xml:space="preserve">
<g>
	<g>
		<linearGradient id="SVGID_1_" gradientUnits="userSpaceOnUse" x1="101.0503" y1="100.5112" x2="417.1228" y2="416.5837">
			<stop  offset="0" style="stop-color:#0091FF"/>
			<stop  offset="0.505" style="stop-color:#0087FF"/>
			<stop  offset="1" style="stop-color:#4501EE"/>
		</linearGradient>
		<path fill="url(#SVGID_1_)" d="M481.686,256.147c0,124.261-100.733,225-225,225s-225-100.739-225-225
			c0-124.264,100.733-225,225-225S481.686,131.884,481.686,256.147z"/>
		<linearGradient id="SVGID_2_" gradientUnits="userSpaceOnUse" x1="150.7383" y1="72.6431" x2="362.6338" y2="439.6569">
			<stop  offset="0" style="stop-color:#0023FF"/>
			<stop  offset="1" style="stop-color:#007AFF"/>
		</linearGradient>
		<path fill="url(#SVGID_2_)" d="M468.544,256.147c0,117.011-94.854,211.864-211.858,211.864S44.827,373.158,44.827,256.147
			c0-117.005,94.854-211.858,211.858-211.858S468.544,139.143,468.544,256.147z"/>
	</g>
</g>
<g>
	<path fill-rule="evenodd" clip-rule="evenodd" fill="#FFFFFF" d="M241.343,185.863c15.965,0,29.939,0,44.547,0
		c0-8.991,0-17.778,0-27.61c-9.315,0-18.643,0.025-27.958-0.006c-9.242-0.037-11.296-2.075-11.345-11.369
		c-0.061-8.952-0.122-17.91,0.024-26.864c0.11-7.256,2.384-9.511,9.511-9.526c25.489-0.052,50.979-0.052,76.467,0.009
		c6.98,0.012,9.401,2.503,9.463,9.563c0.073,9.413,0.073,18.826-0.013,28.243c-0.062,7.341-2.555,9.792-9.976,9.93
		c-4.816,0.095-9.646,0.021-14.462,0.021s-9.621,0-14.964,0c0,9.142,0,17.965,0,27.833c9.683,0,19.463-0.015,29.255,0.003
		c10.024,0.019,11.075,0.761,13.79,10.581c8.227,29.768,12.592,60.116,13.496,90.975c0.122,3.9,0.061,7.396,4.438,9.848
		c1.956,1.094,3.239,4.988,3.288,7.641c0.318,14.694,0.159,29.395,0.147,44.089c0,6.198-2.983,9.206-9.328,9.206
		c-67.273-0.056-134.56-0.024-201.833-0.062c-6.919,0-9.462-2.543-9.511-9.627c-0.122-14.468-0.195-28.931,0.098-43.393
		c0.062-2.689,1.21-6.65,3.142-7.726c4.646-2.58,4.474-6.346,4.597-10.465c0.917-30.388,5.281-60.281,13.24-89.63
		c2.921-10.794,3.838-11.69,15.232-11.338c6.724,0.208,12.139-0.603,16.43-6.883c3.594-5.232,9.438-7.448,16.284-7.115
		c9.401,0.449,18.839-0.098,28.24,0.254c2.519,0.098,4.976,1.91,7.47,2.931c-1.492,2.011-2.861,4.123-4.499,5.997
		C245.5,182.66,244.008,183.626,241.343,185.863z M185.964,202.11c-7.677,3.688-18.875,72.381-15.391,92.943
		c57.42,0,114.89,0,172.213,0c0.354-0.771,0.696-1.174,0.696-1.577c-0.244-29.726-4.205-58.967-12.029-87.641
		c-0.452-1.669-3.337-3.802-5.098-3.817c-29.841-0.235-59.694-0.25-89.535,0.009c-1.969,0.012-5.171,2.246-5.697,4.071
		c-3.447,11.815-4.278,23.863-1.198,35.966c1.394,5.492,2.738,10.834,10.452,10.092c1.174-0.116,2.604,2.393,3.912,3.686
		c-1.308,1.271-2.604,3.628-3.924,3.643c-17.909,0.248-35.819,0.236-53.716,0.047c-1.381-0.016-3.937-1.938-3.863-2.8
		c0.134-1.608,1.625-3.249,2.885-4.56c0.795-0.816,2.188-1.051,2.298-1.1c-1.406-8.671-3.435-16.528-3.729-24.447
		C183.923,218.553,185.304,210.411,185.964,202.11z M162.077,311.765c0,8.111,0.428,15.465-0.122,22.727
		c-0.513,6.595,1.565,8.539,8.301,8.502c51.442-0.274,102.873-0.152,154.315-0.152c7.348,0,14.707,0.195,22.042-0.171
		c1.602-0.086,4.401-2.14,4.45-3.375c0.391-9.095,0.22-18.215,0.22-27.53C287.908,311.765,225.476,311.765,162.077,311.765z
		 M223.947,251.792c-6.846-25.587-4.536-48.982,10.575-71.482c-6.455,0-11.907,0.364-17.286-0.095
		c-6.492-0.563-11.284,1.944-14.621,7.115c-12.164,18.882-13.558,39.016-6.21,59.908c0.648,1.825,2.897,4.245,4.523,4.346
		C208.373,252.055,215.867,251.792,223.947,251.792z M262.676,141.863c21.418,0,42.322,0,63.839,0c0-3.505-0.27-6.479,0.061-9.386
		c0.6-5.257-1.601-6.706-6.662-6.559c-11.223,0.324-22.457,0.098-33.692,0.098c-7.726,0-15.464,0-23.545,0
		C262.676,131.691,262.676,136.426,262.676,141.863z"/>
	<path fill-rule="evenodd" clip-rule="evenodd" fill="#FFFFFF" d="M294.619,215.044c8.484,0,16.969,0.101,25.453-0.049
		c4.132-0.067,5.77,1.669,5.672,5.752c-0.623,26.669,4.304,21.534-20.428,22.011c-11.907,0.232-23.839-0.11-35.758,0.104
		c-5.073,0.088-7.103-2.072-6.993-6.938c0.099-4.807,0.099-9.621,0-14.435c-0.098-4.597,1.858-6.635,6.614-6.513
		C277.651,215.197,286.147,215.038,294.619,215.044z M317.358,223.65c-16.015,0-31.187,0-46.271,0c0,3.927,0,7.234,0,10.667
		c15.685,0,30.855,0,46.271,0C317.358,230.524,317.358,227.208,317.358,223.65z"/>
	<path fill-rule="evenodd" clip-rule="evenodd" fill="#FFFFFF" d="M294.118,277.034c-1.356,0-2.934,0.439-4.034-0.099
		c-1.602-0.782-2.849-2.273-4.254-3.459c1.223-1.369,2.262-3.631,3.704-3.931c3.044-0.63,6.394-0.654,9.45-0.067
		c1.491,0.27,2.615,2.47,3.911,3.79c-1.332,1.259-2.481,2.909-4.07,3.643C297.529,277.522,295.708,277.034,294.118,277.034z"/>
	<path fill-rule="evenodd" clip-rule="evenodd" fill="#FFFFFF" d="M271.185,277.052c-1.137,0-2.481,0.397-3.362-0.079
		c-1.724-0.941-3.203-2.371-4.779-3.594c1.454-1.369,2.714-3.484,4.4-3.925c2.555-0.672,5.538-0.66,8.081,0
		c1.711,0.452,2.982,2.537,4.45,3.894c-1.577,1.229-2.996,2.745-4.756,3.601C274.118,277.486,272.541,277.046,271.185,277.052z"/>
	<path fill-rule="evenodd" clip-rule="evenodd" fill="#FFFFFF" d="M316.674,276.961c-1.602,0-3.582,0.586-4.707-0.147
		c-1.406-0.917-2.103-2.922-3.117-4.462c3.41-1.027,6.797-2.689,10.244-2.86c2.103-0.11,4.315,2.06,6.479,3.215
		c-1.125,1.418-1.993,3.411-3.472,4.12c-1.492,0.721-3.595,0.158-5.428,0.158C316.674,276.973,316.674,276.973,316.674,276.961z"/>
	<path fill-rule="evenodd" clip-rule="evenodd" fill="#FFFFFF" d="M271.307,259.646c-1.382,0-2.971,0.446-4.071-0.106
		c-1.613-0.81-2.872-2.332-4.29-3.558c1.308-1.314,2.433-3.444,3.96-3.777c2.837-0.627,5.99-0.614,8.852-0.058
		c1.564,0.312,2.812,2.292,4.192,3.508c-1.503,1.342-2.848,2.971-4.584,3.909c-1.051,0.584-2.689,0.113-4.059,0.113
		C271.307,259.665,271.307,259.656,271.307,259.646z"/>
	<path fill-rule="evenodd" clip-rule="evenodd" fill="#FFFFFF" d="M294.521,259.638c-1.576,0-3.386,0.492-4.682-0.122
		c-1.577-0.74-2.702-2.411-4.022-3.68c1.32-1.274,2.445-2.938,4.01-3.708c1.296-0.632,3.118-0.348,4.694-0.235
		c3.374,0.242,8.325-1.115,7.995,4.291c-0.109,1.73-4.719,3.181-7.262,4.765C295.011,260.512,294.767,260.078,294.521,259.638z"/>
	<path fill-rule="evenodd" clip-rule="evenodd" fill="#FFFFFF" d="M315.268,259.687c0.184,0.009-1.772,0.278-3.411-0.321
		c-1.222-0.452-2.909-2.096-2.812-3.059c0.122-1.443,1.431-3.659,2.616-3.931c2.824-0.66,5.99-0.92,8.79-0.29
		c1.907,0.428,3.435,2.616,5.134,4.016c-1.638,1.198-3.166,2.586-4.938,3.503C319.754,260.071,318.409,259.687,315.268,259.687z"/>
	<path fill-rule="evenodd" clip-rule="evenodd" fill="#FFFFFF" d="M256.625,319.479c1.833,0,4.157-0.715,5.391,0.141
		c2.678,1.864,6.797,4.67,6.65,6.828c-0.208,2.922-3.338,6.735-6.198,8.068c-3.007,1.418-7.2,0.647-10.831,0.33
		c-4.792-0.416-7.506-3.282-7.347-8.197c0.159-4.676,2.971-6.949,7.531-7.182c1.589-0.086,3.203-0.013,4.804-0.013
		C256.625,319.461,256.625,319.467,256.625,319.479z"/>
</g>
</svg>
