<?xml version="1.0" encoding="utf-8"?>
<!-- Generator: Adobe Illustrator 16.0.0, SVG Export Plug-In . SVG Version: 6.00 Build 0)  -->
<!DOCTYPE svg PUBLIC "-//W3C//DTD SVG 1.1//EN" "http://www.w3.org/Graphics/SVG/1.1/DTD/svg11.dtd">
<svg version="1.1" id="Layer_1" xmlns="http://www.w3.org/2000/svg" xmlns:xlink="http://www.w3.org/1999/xlink" x="0px" y="0px"
	 width="512px" height="512px" viewBox="0 0 512 512" enable-background="new 0 0 512 512" xml:space="preserve">
<g>
	<g>
		<linearGradient id="SVGID_1_" gradientUnits="userSpaceOnUse" x1="99.229" y1="99.8188" x2="415.3022" y2="415.892">
			<stop  offset="0" style="stop-color:#00C9FF"/>
			<stop  offset="1" style="stop-color:#0091FF"/>
		</linearGradient>
		<path fill="url(#SVGID_1_)" d="M479.864,255.455c0,124.261-100.733,225-225,225s-225-100.739-225-225
			c0-124.267,100.733-225,225-225S479.864,131.188,479.864,255.455z"/>
		<linearGradient id="SVGID_2_" gradientUnits="userSpaceOnUse" x1="148.918" y1="71.9507" x2="360.8105" y2="438.9594">
			<stop  offset="0" style="stop-color:#0091FF"/>
			<stop  offset="0.4483" style="stop-color:#0093FF"/>
			<stop  offset="1" style="stop-color:#00C9FF"/>
		</linearGradient>
		<circle fill="url(#SVGID_2_)" cx="254.864" cy="255.455" r="211.858"/>
	</g>
</g>
<g>
	<path fill-rule="evenodd" clip-rule="evenodd" fill="#FFFFFF" d="M240.72,239.135c6.382,14.627,6.363,30.055,5.703,45.563
		c-0.458,10.69-4.028,14.272-14.688,14.291c-28.135,0.061-56.271,0.055-84.407,0.024c-10.471-0.013-14.376-3.974-14.383-14.48
		c-0.018-42.751-0.031-85.507-0.012-128.264c0-11.498,3.655-15.183,15.379-15.189c28.13-0.037,56.253-0.019,84.383,0.067
		c9.425,0.031,13.459,4.071,13.692,13.588c0.141,5.513-0.391,11.07,0.104,16.541c0.483,5.379-1.858,6.864-8.71,6.149
		c0-6.418-0.196-13.105,0.067-19.78c0.214-5.642-1.901-7.854-7.726-7.696c-12.916,0.324-25.85,0.098-40.123,0.098
		c0,9.945-0.299,19.487,0.116,28.992c0.245,5.862-1.711,7.885-7.573,7.347c-5.458-0.495-11.07-0.569-16.522,0.012
		c-8.289,0.886-10.581-2.653-10-10.44c0.624-8.172,0.146-16.442,0.146-24.413c-12.738-3.875-14.554-2.659-14.554,9.096
		c0,39.719,0.196,79.431-0.104,119.15c-0.061,8.117,2.311,10.269,10.703,10.855c33.362,2.365,53.02-18.19,71.693-40.874
		c2.25-2.726,3.827-6.002,5.538-8.753c-1.724-4.67-3.386-9.175-5.324-14.456c-10.349,0-21.345,0.043-32.341-0.006
		c-10.966-0.055-14.816-4.651-14.994-17.756c-0.147-10.483,4.48-15.856,14.395-16.076c9.376-0.208,18.759-0.012,28.136,0.135
		c3.46,0.049,5.563-0.342,7.323-4.383c3.417-7.83,9.884-8.032,15.52-1.571c3.796,4.358,7.897,8.441,11.889,12.622
		c7.451,7.788,7.47,12.824,0.581,21.461c-4.756,5.959-9.138,12.231-13.686,18.362c-8.27,1.284-8.857,8.961-12.029,14.566
		c3.576-2.372,7.146-4.744,11.167-7.421C240.249,244.563,240.481,241.843,240.72,239.135z M234.675,231.439
		c6.161-7.164,11.271-12.757,15.862-18.741c0.886-1.155,0.507-4.383-0.52-5.697c-4.138-5.306-8.753-10.245-13.191-15.318
		c-0.672,0.544-1.333,1.082-1.993,1.614c-0.342,2.567-0.672,5.141-1.07,8.197c-13.496,0-26.662,0.226-39.81-0.098
		c-6.626-0.165-8.533,2.72-8.545,8.888c-0.012,6.412,2.958,7.812,8.692,7.677c13.129-0.306,26.284-0.091,39.817-0.091
		C234.149,222.02,234.338,225.51,234.675,231.439z M180.75,148.86c-3.973,0-7.549-0.471-10.898,0.189
		c-1.754,0.348-4.383,2.598-4.468,4.114c-0.446,7.787-0.208,15.611-0.208,23.704c5.929,0,10.685,0,15.575,0
		C180.75,167.448,180.75,158.554,180.75,148.86z"/>
	<path fill-rule="evenodd" clip-rule="evenodd" fill="#FFFFFF" d="M254.833,369.403c4.511-15.898,8.497-29.597,12.268-43.343
		c3.667-13.398,9.713-18.387,23.374-18.649c6.345-0.128,12.708-0.287,19.021,0.067c3.197,0.184,7.867,0.477,9.188,2.481
		c4.462,6.804,10.758,5.397,16.913,5.428c9.102,0.043,18.209-0.098,27.311,0.098c7.86,0.171,13.099,4.792,13.68,11.583
		c0.581,6.736-3.912,12.055-11.718,13.398c-19.248,3.326-38.483,6.858-57.823,9.566c-6.449,0.904-8.931,3.753-10.025,9.651
		c-1.54,8.338-3.686,16.565-5.721,25.478c-2.714-0.605-4.964-1.113-7.721-1.73c2.342-10.544,4.432-20.452,6.767-30.312
		c1.425-5.99,5.422-9.132,11.583-10.128c19.022-3.063,38.008-6.357,57.012-9.585c2.164-0.366,4.535-0.495,6.375-1.528
		c1.345-0.764,2.843-2.915,2.671-4.248c-0.177-1.387-2.255-3.575-3.539-3.606c-12.964-0.293-27.463-3.82-38.429,0.844
		c-9.731,4.145-18.814,6.645-28.912,7.843c-2.292,0.269-4.254,3.239-7.5,5.874c-1.497-1.712-3.014-3.448-4.48-5.11
		c4.707-7.72,10.93-10.746,19.145-9.908c2.182,0.227,4.554,0.501,6.564-0.116c1.779-0.55,3.173-2.329,4.725-3.558
		c-1.351-1.437-2.658-4.07-4.07-4.119c-8.809-0.313-17.849-1.156-26.351,0.531c-3.852,0.764-8.228,6.394-9.646,10.715
		c-5.465,16.712-10.098,33.717-14.456,50.765c-1.517,5.947-3.674,8.826-10.483,6.339c-5.152-18.448-10.397-37.226-15.654-56.009
		c-2.806-10.043-6.021-12.524-16.302-12.586c-4.97-0.024-10-0.446-14.884,0.178c-3.264,0.428-9.089,2.493-9.052,3.637
		c0.245,6.461,5.972,4.389,9.511,4.126c8.478-0.624,15.177,1.687,20.184,9.713c-1.308,1.497-2.83,3.233-4.224,4.828
		c-1.009-0.342-1.718-0.348-1.993-0.696c-3.771-4.878-8.931-5.116-14.615-5.728c-5.532-0.6-10.794-3.704-16.173-5.703
		c-1.925-0.721-3.839-2.017-5.783-2.041c-11.026-0.196-22.078-0.306-33.093,0.115c-2.359,0.099-4.621,2.519-6.925,3.876
		c2.084,1.718,3.973,4.565,6.29,4.981c18.154,3.276,36.382,6.143,54.597,9.016c13.405,2.121,14.927,3.368,18.032,16.357
		c1.914,8.007,3.68,16.045,5.734,25.024c-2.555,0.728-4.939,1.399-7.812,2.213c-2.103-9.475-4.175-17.989-5.813-26.59
		c-1.009-5.299-3.423-7.872-9.107-8.716c-19.591-2.916-39.102-6.394-58.631-9.737c-7.842-1.339-12.201-6.406-11.706-13.301
		c0.477-6.675,5.77-11.442,13.625-11.607c10.758-0.227,21.535,0.25,32.268-0.232c3.362-0.153,7.274-1.688,9.816-3.888
		c8.729-7.53,42.476-5.96,48.606,3.68c4.157,6.522,5.99,14.603,8.337,22.151C248.874,347.117,251.441,357.209,254.833,369.403z"/>
	<path fill-rule="evenodd" clip-rule="evenodd" fill="#FFFFFF" d="M320.616,149.789c0,10.861-0.275,20.189,0.11,29.48
		c0.226,5.562-2.066,6.98-7.201,7.206c-26.724,1.18-26.724,1.29-26.772-25.477c-0.006-3.264,0-6.528,0-9.584
		c-12.787-3.148-14.315-2.146-14.572,9.584c-0.22,10.477,0.013,20.954-0.366,31.418c-0.159,4.444-1.352,8.857-2.305,14.737
		c-10.776-14.132-5.251-28.667-5.936-42.237c-1.161-22.921,0.275-23.899,23.087-23.942c25.343-0.037,50.697,0.043,76.046,0.122
		c10.274,0.031,14.003,3.649,14.027,13.863c0.067,43.545,0.092,87.097,0.049,130.647c-0.006,9.126-4.443,13.411-13.851,13.424
		c-27.28,0.061-54.572,0.024-81.853-0.043c-15.55-0.031-18.178-2.867-17.53-18.747c0.275-0.244,0.648-0.819,1.095-0.898
		c1.857-0.3,3.734-0.44,5.342-0.617c0.666,0.751,1.339,1.161,1.326,1.552c-0.379,8.424,3.852,11.26,11.767,10.05
		c2.151-0.337,4.444-0.294,6.602,0.042c18.301,2.794,32.048-6.932,44.188-17.977c10.874-9.896,20.098-21.772,29.021-33.545
		c3.216-4.248,4.658-10.722,4.817-16.235c0.586-21.479,0.226-42.989,0.477-64.48c0.061-5.911-2.029-8.521-8.117-8.405
		C347.413,149.948,334.767,149.789,320.616,149.789z M311.404,149.496c-5.434,0-10.428,0-15.336,0c0,9.542,0,18.27,0,27.5
		c5.281,0,10.079,0,15.336,0C311.404,167.741,311.404,158.805,311.404,149.496z"/>
	<path fill-rule="evenodd" clip-rule="evenodd" fill="#FFFFFF" d="M285.237,259.446c-0.856,3.308-0.722,6.675-2.237,7.794
		c-3.111,2.292-9.505,5.556-10.379,4.608c-7.977-8.71-15.27-18.087-22.176-27.689c-1.088-1.528-0.134-5.886,1.375-7.677
		c5.801-6.895,11.693-13.918,18.6-19.621c4.598-3.802,9.572-1.656,13.277,3.57c1.662,2.347,5.079,4.603,7.854,4.798
		c8.76,0.617,17.592,0.183,26.4,0.25c10.746,0.098,15.159,5.263,15.33,17.787c0.141,10.159-5.373,16.027-15.465,16.149
		C307.107,259.544,296.398,259.446,285.237,259.446z M275.72,250.608c13.735,0,26.62-0.238,39.493,0.11
		c6.167,0.159,8.997-1.455,8.985-8.239c-0.019-6.736-2.8-8.411-8.974-8.246c-13.093,0.343-26.216,0.098-39.449,0.098
		c-0.288-3.368-0.508-5.941-0.954-11.137c-5.984,6.388-10.715,10.917-14.713,16.027c-1.216,1.559-1.485,5.514-0.366,6.962
		c4.413,5.733,9.548,10.917,15.275,17.243C275.298,258.48,275.481,255.027,275.72,250.608z"/>
</g>
</svg>
