<?xml version="1.0" encoding="utf-8"?>
<!-- Generator: Adobe Illustrator 16.0.0, SVG Export Plug-In . SVG Version: 6.00 Build 0)  -->
<!DOCTYPE svg PUBLIC "-//W3C//DTD SVG 1.1//EN" "http://www.w3.org/Graphics/SVG/1.1/DTD/svg11.dtd">
<svg version="1.1" id="Layer_1" xmlns="http://www.w3.org/2000/svg" xmlns:xlink="http://www.w3.org/1999/xlink" x="0px" y="0px"
	 width="512px" height="512px" viewBox="0 0 512 512" enable-background="new 0 0 512 512" xml:space="preserve">
<g>
	<g>
		<linearGradient id="SVGID_1_" gradientUnits="userSpaceOnUse" x1="101.2285" y1="99.9453" x2="417.3017" y2="416.0185">
			<stop  offset="0" style="stop-color:#FF7601"/>
			<stop  offset="1" style="stop-color:#FF0000"/>
		</linearGradient>
		<path fill="url(#SVGID_1_)" d="M481.863,255.581c0,124.261-100.733,225-225,225s-225-100.739-225-225
			c0-124.264,100.733-225,225-225S481.863,131.317,481.863,255.581z"/>
		<linearGradient id="SVGID_2_" gradientUnits="userSpaceOnUse" x1="150.916" y1="72.0771" x2="362.8115" y2="439.0909">
			<stop  offset="0" style="stop-color:#FF0000"/>
			<stop  offset="1" style="stop-color:#FF6301"/>
		</linearGradient>
		<path fill="url(#SVGID_2_)" d="M468.722,255.581c0,117.011-94.854,211.864-211.858,211.864S45.005,372.592,45.005,255.581
			c0-117.005,94.854-211.858,211.858-211.858S468.722,138.576,468.722,255.581z"/>
	</g>
</g>
<g>
	<path fill-rule="evenodd" clip-rule="evenodd" fill="#FFFFFF" d="M261.185,153.05c-36.381,0-72.549,0-109.089,0
		c-0.214,1.852-0.544,3.478-0.55,5.123c-0.031,19.297,0.116,38.606-0.104,57.891c-0.061,4.743,1.418,6.216,6.167,6.161
		c19.511-0.226,39.028-0.33,58.527,0.128c3.747,0.086,8.606,1.938,10.88,4.676c5.061,6.106-0.006,14.75-8.576,14.988
		c-12.286,0.324-24.591,0.128-36.895,0.134c-12.72,0.006-25.458,0.092-38.167-0.037c-8.411-0.098-11.98-3.643-12.011-12.127
		c-0.098-28.423-0.098-56.846,0-85.266c0.03-8.386,3.71-12.234,11.999-12.25c42.2-0.095,84.407-0.095,126.602,0.009
		c7.738,0.024,11.32,3.594,11.778,11.201c0.244,4.224,0.251,8.5-0.086,12.711c-0.556,6.62-4.241,10.196-9.95,10.196
		c-5.41,0-9.035-3.405-10.043-9.493C261.466,155.887,261.368,154.64,261.185,153.05z"/>
	<path fill-rule="evenodd" clip-rule="evenodd" fill="#FFFFFF" d="M177.841,197.054c2.738,1.259,4.768,2.512,6.968,3.129
		c3.411,0.96,6.938,1.926,10.428,1.975c1.534,0.012,3.105-2.237,4.664-3.448c-1.192-1.503-2.079-3.63-3.619-4.352
		c-3.619-1.699-7.585-2.659-11.345-4.04c-5.819-2.133-9.86-5.789-10.031-12.463c-0.171-6.418,2.94-10.648,8.558-13.637
		c1.828-0.978,2.714-3.618,4.193-5.36c1.143-1.351,2.409-3.319,3.827-3.521c1.375-0.208,4.303,1.412,4.364,2.384
		c0.349,5.599,5.019,5.868,8.417,8.038c2.06,1.345,3.068,4.315,4.554,6.552c-2.372,1.009-4.805,2.928-7.109,2.788
		c-3.472-0.238-6.797-2.433-10.281-2.732c-1.742-0.159-3.686,2.036-5.526,3.154c1.253,1.663,2.152,4.028,3.827,4.847
		c3.576,1.748,7.567,2.641,11.351,3.998c5.947,2.121,9.725,6.173,9.737,12.671c0.019,6.559-3.3,11.021-9.358,13.814
		c-2.054,0.954-3.301,3.527-5.037,5.214c-1.4,1.363-3.038,3.527-4.499,3.472c-1.485-0.073-4.016-2.329-4.107-3.759
		c-0.239-3.838-2.543-4.7-5.434-5.825c-2.714-1.039-5.464-2.463-7.567-4.389c-1.057-0.959-1.381-3.649-0.837-5.128
		C174.498,198.992,176.533,198.111,177.841,197.054z"/>
</g>
<g>
	<path fill-rule="evenodd" clip-rule="evenodd" fill="#FFFFFF" d="M322.676,297.806c-22.151,0-44.297,0.153-66.46-0.055
		c-13.704-0.122-22.451-9.364-22.451-23.057c0-28.337,0.464-56.668-0.256-84.975c-0.245-9.407,10.868-21.131,19.639-21.21
		c9.083-0.073,18.154-0.538,27.231-0.556c32.14-0.08,64.285-0.073,96.418-0.024c4.713,0,9.444,0.214,14.132,0.654
		c12.83,1.186,20.807,10.178,20.807,23.215c0,27.788,0,55.568,0,83.337c0,12.714-9.205,22.438-22.06,22.562
		c-22.329,0.238-44.663,0.073-66.999,0.073C322.676,297.775,322.676,297.794,322.676,297.806z M399.669,215.948
		c-2.427,0-4.205,0-5.978,0c-37.415,0-74.842,0-112.25,0.024c-9.811,0.006-19.621,0.134-29.432,0.171
		c-2.817,0.006-4.853,0.416-4.811,4.132c0.263,17.977,0.171,35.959,0.532,53.931c0.134,7.097,3.166,9.56,10.312,9.578
		c21.986,0.012,43.967,0.042,65.941-0.019c22.164-0.049,44.315-0.165,66.485-0.336c5.538-0.043,9.113-2.959,9.15-7.818
		C399.755,256.015,399.669,236.394,399.669,215.948z M399.461,193.863c0.178-8.02-2.011-10.617-9.059-11.21
		c-2.176-0.178-4.358-0.257-6.528-0.257c-42.14-0.061-84.272-0.116-126.399-0.141c-7.042,0-10.458,4.175-9.652,11.607
		C298.263,193.863,348.709,193.863,399.461,193.863z"/>
	<path fill-rule="evenodd" clip-rule="evenodd" fill="#FFFFFF" d="M282.75,269.646c-8.094,6.198-16.59,6.088-22.207-0.049
		c-4.908-5.354-5.122-14.064-0.489-19.413c5.984-6.876,13.814-7.182,22.751-0.886c10.024-6.027,17.989-5.715,23.196,0.886
		c4.64,5.917,4.377,14.071-0.642,19.37C299.375,275.868,291.863,275.96,282.75,269.646z"/>
</g>
<g>
	<path fill-rule="evenodd" clip-rule="evenodd" fill="#FFFFFF" d="M236.258,316.052c-6.045,0-11.381,0-16.443,0
		c0.764,3.13,2.194,6.265,2.133,9.358c-0.116,5.373-3.374,9.565-8.19,11.399c-5.611,2.134-11.657,3.142-17.531,4.554
		c-3.631,0.874-7.311,1.583-10.966,2.372c-0.006,0.715-0.012,1.448-0.024,2.176c2.311,0.733,4.584,1.638,6.95,2.157
		c5.8,1.26,11.662,2.226,17.451,3.552c2.084,0.477,4.15,1.388,5.972,2.506c6.308,3.888,6.687,10.465,0.409,14.285
		c-3.734,2.273-8.185,3.79-12.506,4.548c-9.676,1.693-19.407,1.271-28.777-2.023c-3.931-1.388-8.545-2.965-8.478-8.123
		c0.073-5.215,4.908-5.813,8.716-7.018c2.316-0.722,4.731-1.161,7.463-1.81c-3.502-2.396-10.104-2.506-8.631-7.731
		c0.966-3.448,5.898-5.771,9.071-8.601c0.287,0.171-0.465-0.294-1.247-0.728c-8.734-4.872-9.749-14.615-2.115-21.234
		c5.159-4.48,11.314-6.29,18.093-6.277c13.649,0.03,27.304,0.128,40.954-0.043c5.336-0.074,10.654-1.052,15.996-1.125
		c4.896-0.067,9.982-0.208,14.652,0.978c14.052,3.563,19.052,18.093,10.666,30.85c-7.354,11.198-18.588,14.004-31.192,13.148
		c-0.721-0.043-1.424-0.263-2.146-0.373c-16.063-2.506-22.799-16.883-14.431-30.917
		C233.208,320.086,234.577,318.411,236.258,316.052z M241.588,334.102c-0.208,8.16,5.874,13.338,13.826,11.767
		c9.78-1.932,16.522-11.112,15.47-21.052c-0.733-6.906-6.13-11.051-13.123-10.061C248.838,316.027,241.833,324.396,241.588,334.102z
		 M198.611,334.615c2.176-0.855,5.392-1.283,7.262-3.099c2.035-1.987,4.126-5.453,3.777-7.929c-0.348-2.433-3.337-5.25-5.85-6.461
		c-4.78-2.322-9.658-1.014-13.802,2.237c-5.446,4.291-4.45,11.119,1.999,13.711C193.832,333.82,195.892,334.004,198.611,334.615z
		 M193.868,367.903c3.845-0.751,7.695-1.283,11.388-2.365c1.21-0.349,2.579-2.011,2.787-3.252c0.135-0.794-1.571-2.262-2.745-2.842
		c-8.264-4.132-16.528-3.13-24.646,0.477c-1.057,0.477-2.616,2.054-2.433,2.604c0.391,1.168,1.644,2.567,2.799,2.854
		C185.188,366.443,189.461,367.078,193.868,367.903z"/>
	<path fill-rule="evenodd" clip-rule="evenodd" fill="#FFFFFF" d="M143.795,307.854c1.351,0.153,3.533,0.239,5.654,0.667
		c17.194,3.441,23.105,19.211,12.537,33.331c-8.631,11.546-29.676,15.403-41.901,7.684c-9.486-6.003-10.929-20.452-2.891-30.324
		C123.825,311.076,132.805,308.081,143.795,307.854z M154.155,326.95c0.263-8.509-5.623-13.545-14.046-12.011
		c-9.395,1.717-17.011,12.86-15.183,22.225c1.155,5.898,6.491,9.719,12.481,8.949C147.004,344.866,153.838,337.042,154.155,326.95z"
		/>
	<path fill-rule="evenodd" clip-rule="evenodd" fill="#FFFFFF" d="M366.423,330.013c-1.992,6.069-0.104,10.935,5.245,13.845
		c6.418,3.496,13.147,3.08,19.871,1.155c3.711-1.063,7.305-2.506,11.021-3.802c0.085,6.692-0.502,7.75-5.941,9.498
		c-9.298,2.983-18.754,3.918-28.252,1.058c-7.708-2.322-13.57-6.907-15.073-15.244c-1.541-8.569,1.32-15.941,8.209-21.198
		c10.623-8.099,22.438-9.871,34.822-4.56c6.534,2.799,9.976,8.074,10.146,15.409c0.067,3.136-1.118,3.937-4.07,3.888
		c-10.459-0.141-20.923-0.049-31.382-0.049C369.449,330.013,367.878,330.013,366.423,330.013z M393.758,323.967
		c0.019-5.03-2.402-7.842-7.279-8.722c-8.283-1.498-15.318,1.932-17.635,8.722C377.188,323.967,385.47,323.967,393.758,323.967z"/>
	<path fill-rule="evenodd" clip-rule="evenodd" fill="#FFFFFF" d="M300.732,351.65c-4.297,0-8.148,0-12.384,0
		c2.892-13.521,5.673-26.699,8.606-39.841c0.208-0.917,1.528-2.176,2.42-2.256c3.276-0.269,6.602-0.109,10.215-0.109
		c-0.324,2.371-0.575,4.187-0.936,6.687c1.638-0.978,2.824-1.626,3.955-2.354c6.345-4.064,13.245-5.77,20.752-4.926
		c8.331,0.941,13.478,7.328,11.895,15.531c-1.755,9.096-4.09,18.074-6.217,27.305c-4.004,0-7.866,0-12.305,0
		c1.59-7.555,3.124-14.854,4.664-22.164c0.336-1.564,0.697-3.117,1.009-4.682c1.29-6.443-2.451-10.771-8.734-8.814
		c-5.66,1.754-10.825,5.238-16.07,8.209c-0.88,0.495-1.271,2.182-1.552,3.398C304.241,335.544,302.529,343.484,300.732,351.65z"/>
</g>
</svg>
