<?xml version="1.0" encoding="utf-8"?>
<!-- Generator: Adobe Illustrator 16.0.0, SVG Export Plug-In . SVG Version: 6.00 Build 0)  -->
<!DOCTYPE svg PUBLIC "-//W3C//DTD SVG 1.1//EN" "http://www.w3.org/Graphics/SVG/1.1/DTD/svg11.dtd">
<svg version="1.1" id="Layer_1" xmlns="http://www.w3.org/2000/svg" xmlns:xlink="http://www.w3.org/1999/xlink" x="0px" y="0px"
	 width="512px" height="512px" viewBox="0 0 512 512" enable-background="new 0 0 512 512" xml:space="preserve">
<g>
	<g>
		<linearGradient id="SVGID_1_" gradientUnits="userSpaceOnUse" x1="99.3647" y1="99.8188" x2="415.4386" y2="415.8927">
			<stop  offset="0" style="stop-color:#00C9FF"/>
			<stop  offset="1" style="stop-color:#0091FF"/>
		</linearGradient>
		<path fill="url(#SVGID_1_)" d="M480,255.455c0,124.261-100.733,225-225,225s-225-100.739-225-225c0-124.267,100.733-225,225-225
			S480,131.188,480,255.455z"/>
		<linearGradient id="SVGID_2_" gradientUnits="userSpaceOnUse" x1="149.0537" y1="71.9507" x2="360.9473" y2="438.9611">
			<stop  offset="0" style="stop-color:#0091FF"/>
			<stop  offset="0.4483" style="stop-color:#0093FF"/>
			<stop  offset="1" style="stop-color:#00C9FF"/>
		</linearGradient>
		<circle fill="url(#SVGID_2_)" cx="255" cy="255.455" r="211.858"/>
	</g>
</g>
<g>
	<path fill-rule="evenodd" clip-rule="evenodd" fill="#FFFFFF" d="M129.254,260.492c0-29.102-0.024-58.209,0.012-87.311
		c0.024-20.99,13.777-35.049,34.804-35.153c33.924-0.159,67.842,0.043,101.76-0.189c3.13-0.019,6.956-1.277,9.272-3.313
		c26.522-23.251,64.212-25.324,91.84-4.731c28.124,20.966,37.183,58.172,21.871,90.434c-2.427,5.116-5.024,10.299-8.46,14.737
		c-5.251,6.785-6.724,14.035-6.613,22.481c0.391,30.196,0.189,60.397,0.134,90.594c-0.03,21.821-13.771,35.507-35.739,35.525
		c-57.555,0.049-115.104,0.049-172.659,0c-22.671-0.019-36.21-13.698-36.222-36.418
		C129.242,318.267,129.254,289.379,129.254,260.492z M151.412,344.44c1.54-0.923,1.968-1.069,2.255-1.363
		c36.186-36.155,72.329-72.354,108.594-108.429c2.592-2.58,1.956-4.358,0.807-7.311c-3.839-9.884-8.985-19.768-10.153-30.049
		c-1.357-12.005,0.941-24.426,1.681-37.127c-0.392-0.018-2.494-0.196-4.597-0.196c-27.549-0.018-55.092-0.018-82.641-0.012
		c-12.653,0.006-15.941,3.264-15.941,15.843c-0.012,53.998-0.006,107.996-0.006,161.987
		C151.412,339.697,151.412,341.604,151.412,344.44z M323.148,287.497c10.996-18.521,22.243-37.421,33.44-56.352
		c4.658-7.879,9.976-15.489,13.619-23.82c8.233-18.827,3.466-40.899-10.954-55.08c-14.694-14.444-36.161-18.466-55.226-10.354
		c-18.393,7.83-30.214,26.223-30.189,46.76c0.019,13.771,6.259,25.196,13.361,36.338c7.983,12.513,16.278,24.854,23.766,37.659
		C315.88,271.061,319.597,280.162,323.148,287.497z M168.166,361.078c52.084,0,103.209,0,154.731,0
		c-26.284-26.026-52.115-51.613-77.25-76.51C220.36,309.532,194.584,334.984,168.166,361.078z M309.205,313.084
		c-5.642-23.16-17.249-43.301-31.026-61.932c-5.709,5.312-11.088,10.318-16.479,15.336
		C277.641,282.13,293.338,297.527,309.205,313.084z M324.334,327.906c8.832,8.839,17.689,17.689,26.864,26.864
		c0-24.102,0-48.374,0-74.297c-2.481,5.366-4.56,9.175-6.027,13.209c-2.457,6.748-4.97,13.533-6.632,20.495
		C336.577,322.405,332.286,327.436,324.334,327.906z"/>
	<path fill-rule="evenodd" clip-rule="evenodd" fill="#FFFFFF" d="M219.132,181.61c-2.555,1.975-5.128,3.967-8.294,6.418
		c-5.911-4.486-13.735-8.124-21.938-4.132c-4.988,2.427-9.963,6.656-12.8,11.363c-6.119,10.152-0.996,24.089,9.737,29.651
		c10.312,5.349,22.708,1.736,28.27-8.674c-5.825,0-11.406,0-17.481,0c0-3.637,0-6.791,0-10.532c10.544,0,21.296,0,32.035,0
		c0.923,14.444-9.957,28.044-25.146,31.638c-15.837,3.747-31.724-4.248-38.172-19.218c-6.479-15.049-1.039-32.744,12.75-41.46
		C191.485,168.193,208.68,170.101,219.132,181.61z"/>
	<path fill-rule="evenodd" clip-rule="evenodd" fill="#FFFFFF" d="M323.814,204.63c-9.42-0.055-16.352-7.164-16.284-16.699
		c0.067-9.193,7.616-16.65,16.699-16.51c9.028,0.146,16.626,7.916,16.517,16.895C340.636,197.387,333.068,204.685,323.814,204.63z"
		/>
</g>
</svg>
