<?xml version="1.0" encoding="utf-8"?>
<!-- Generator: Adobe Illustrator 16.0.0, SVG Export Plug-In . SVG Version: 6.00 Build 0)  -->
<!DOCTYPE svg PUBLIC "-//W3C//DTD SVG 1.1//EN" "http://www.w3.org/Graphics/SVG/1.1/DTD/svg11.dtd">
<svg version="1.1" id="Layer_1" xmlns="http://www.w3.org/2000/svg" xmlns:xlink="http://www.w3.org/1999/xlink" x="0px" y="0px"
	 width="512px" height="512px" viewBox="0 0 512 512" enable-background="new 0 0 512 512" xml:space="preserve">
<g>
	<g>
		<linearGradient id="SVGID_1_" gradientUnits="userSpaceOnUse" x1="99.8042" y1="99.8188" x2="415.8781" y2="415.8927">
			<stop  offset="0" style="stop-color:#00C9FF"/>
			<stop  offset="1" style="stop-color:#0091FF"/>
		</linearGradient>
		<path fill="url(#SVGID_1_)" d="M480.439,255.455c0,124.261-100.733,225-225,225s-225-100.739-225-225
			c0-124.267,100.733-225,225-225S480.439,131.188,480.439,255.455z"/>
		<linearGradient id="SVGID_2_" gradientUnits="userSpaceOnUse" x1="149.4937" y1="71.9517" x2="361.3862" y2="438.9604">
			<stop  offset="0" style="stop-color:#0091FF"/>
			<stop  offset="0.4483" style="stop-color:#0093FF"/>
			<stop  offset="1" style="stop-color:#00C9FF"/>
		</linearGradient>
		<circle fill="url(#SVGID_2_)" cx="255.439" cy="255.455" r="211.858"/>
	</g>
</g>
<g>
	<path fill-rule="evenodd" clip-rule="evenodd" fill="#FFFFFF" d="M127.34,167.228c0.679-0.99,1.327-1.999,2.036-2.964
		c3.655-4.994,8.704-6.938,14.749-6.932c30.709,0.024,61.424,0,92.134,0c42.311,0.006,84.621-0.006,126.938,0.024
		c11.382,0.012,18.02,6.749,18.025,18.093c0.006,29.407,0.006,58.814,0.006,88.209c0,0.77,0,1.534,0,2.995
		c-0.782-1.217-1.173-1.926-1.668-2.562c-3.387-4.407-6.675-8.918-10.27-13.154c-1.283-1.522-1.9-2.867-1.9-4.829
		c0.049-23.38,0.019-46.761,0-70.141c0-4.358-0.459-4.744-4.811-4.744c-42.311,0.006-84.628,0-126.944,0
		c-30.446,0-60.886-0.006-91.332,0c-3.606,0-4.23,0.648-4.236,4.315c-0.006,43.179-0.006,86.363,0.006,129.554
		c0,3.258,0.77,3.942,4.328,3.942c39.346,0.012,78.686,0.036,118.031-0.024c1.98,0,2.904,0.446,3.441,2.451
		c2.764,10.312,7.861,19.352,15.397,26.925c2.305,2.311,1.198,5.031,1.699,7.8c-19.456,0-38.691,0-58.368,0
		c0.391-7.665,0.782-15.354,1.198-23.393c-1.271,0-2.286,0-3.307,0c-25.568,0-51.131-0.165-76.681,0.104
		c-8.362,0.085-14.566-2.653-18.472-10.135C127.34,264.257,127.34,215.736,127.34,167.228z"/>
	<path fill-rule="evenodd" clip-rule="evenodd" fill="#FFFFFF" d="M371.088,326.861c6.521,6.24,13.123,12.451,19.59,18.813
		c4.279,4.193,4.518,11.076,0.758,15.062c-4.15,4.389-10.556,4.389-15.135-0.165c-5.935-5.893-11.772-11.913-17.64-17.885
		c-0.538-0.563-0.997-1.204-1.608-1.95c-16.155,10.227-33.117,12.53-50.898,5.996c-12.219-4.492-21.559-12.689-28.185-23.881
		c-13.252-22.378-8.41-52.213,10.782-68.961c21.18-18.478,50.526-18.172,70.765-2.542
		C380.758,267.754,388.795,299.294,371.088,326.861z M325.604,333.78c21.431,0.019,38.899-17.335,38.888-38.649
		c-0.006-21.405-17.359-38.79-38.747-38.845c-21.009-0.049-38.674,17.445-38.729,38.338
		C286.949,316.342,304.107,333.756,325.604,333.78z"/>
	<path fill-rule="evenodd" clip-rule="evenodd" fill="#FFFFFF" d="M284.388,247.857c-3.673,4.511-7.182,8.899-10.807,13.172
		c-0.44,0.52-1.564,0.636-2.371,0.643c-20.838,0.036-41.681,0.042-62.525,0.042c-16.125,0-32.261,0-48.398-0.03
		c-4.48-0.012-7.616-2.628-7.836-6.375c-0.238-4.212,2.953-7.402,7.629-7.433c7.408-0.061,14.822-0.018,22.23-0.018
		c33.319,0,66.626,0,99.933,0C282.988,247.857,283.722,247.857,284.388,247.857z"/>
	<path fill-rule="evenodd" clip-rule="evenodd" fill="#FFFFFF" d="M263.349,292.784c-3.631,0-7.194,0-10.751,0
		c-30.599,0.006-61.192,0-91.791,0.024c-2.555,0-4.872-0.538-6.607-2.506c-1.742-1.98-2.311-4.291-1.302-6.81
		c1.149-2.843,3.362-4.456,6.418-4.578c3.827-0.141,7.671-0.062,11.498-0.062c30.599-0.006,61.198-0.006,91.791-0.006
		c0.861,0,1.729,0,2.836,0C264.73,283.585,264.052,288.077,263.349,292.784z"/>
	<path fill-rule="evenodd" clip-rule="evenodd" fill="#FFFFFF" d="M253.502,367.692c-12.647,0-25.288,0.019-37.934,0
		c-6.473-0.013-9.859-5.581-6.889-11.363c1.284-2.476,3.576-3.063,6.18-3.063c14.217,0.007,28.429-0.012,42.647-0.012
		c11.51,0,23.025-0.019,34.535,0.036c6.388,0.024,9.633,5.367,6.81,11.192c-1.327,2.726-3.845,3.233-6.62,3.228
		C279.32,367.68,266.418,367.692,253.502,367.692z"/>
	<path fill-rule="evenodd" clip-rule="evenodd" fill="#FFFFFF" d="M255.837,208.523c7.17,7.616,3.13,18.619-3.533,21.143
		c-2.867,1.094-6.063,1.577-9.163,1.791c-4.248,0.288-8.533,0.128-12.812,0.049c-3.191-0.061-4.462-1.314-4.487-4.499
		c-0.043-11.259-0.043-22.519,0-33.766c0.019-2.934,1.284-4.187,4.163-4.193c4.976-0.024,9.951,0.037,14.92,0.165
		c11.553,0.269,15.581,11.363,11.235,18.527C256.032,207.949,255.965,208.2,255.837,208.523z M237.927,214.917
		c-1.039,5.428-0.966,5.538,3.875,5.41c1.21-0.024,2.426-0.08,3.631-0.189c1.516-0.122,2.659-0.947,2.255-2.476
		c-0.232-0.911-1.333-2.09-2.201-2.237C243.043,215.009,240.525,215.052,237.927,214.917z M237.622,203.786
		c2.458,0,4.78,0.104,7.072-0.079c0.568-0.055,1.455-1.07,1.467-1.657c0.006-0.581-0.874-1.62-1.43-1.668
		c-2.366-0.184-4.743-0.08-7.109-0.08C237.622,201.641,237.622,202.644,237.622,203.786z"/>
	<path fill-rule="evenodd" clip-rule="evenodd" fill="#FFFFFF" d="M308.202,202.338c-12.47,0-24.944,0.024-37.414-0.006
		c-4.077-0.012-7.127-2.677-7.391-6.271c-0.306-4.211,2.702-7.426,7.194-7.457c10.116-0.067,20.239-0.049,30.349-0.055
		c14.75,0,29.487,0.019,44.23-0.012c2.542-0.012,4.89,0.336,6.607,2.415c1.742,2.115,2.414,4.499,1.21,7.06
		c-1.332,2.836-3.588,4.34-6.84,4.333C333.502,202.307,320.855,202.338,308.202,202.338L308.202,202.338z"/>
	<path fill-rule="evenodd" clip-rule="evenodd" fill="#FFFFFF" d="M308.355,231.592c-12.567,0-25.129-0.006-37.689,0.006
		c-3.105,0-5.392-1.388-6.699-4.138c-1.205-2.5-0.789-4.927,0.953-7.097c1.62-1.999,3.783-2.585,6.271-2.573
		c8.814,0.037,17.622-0.012,26.437-0.012c15.696-0.006,31.399,0.012,47.097-0.018c2.714-0.006,5.269,0.269,7.121,2.5
		c1.76,2.121,2.273,4.547,1.105,7.078c-1.289,2.769-3.563,4.236-6.65,4.248c-7.848,0.037-15.702,0.03-23.563,0.03
		c-4.792,0-9.59,0-14.382,0C308.355,231.61,308.355,231.598,308.355,231.592z"/>
	<path fill-rule="evenodd" clip-rule="evenodd" fill="#FFFFFF" d="M223.331,210.235c-0.25,12.182-7.103,20.355-18.392,21.767
		c-11.516,1.43-21.883-7.274-22.586-19.168c-0.44-7.39,1.106-14.132,6.84-19.505c9.254-8.662,29.805-6.65,33.423,11.485
		C222.97,206.598,223.092,208.432,223.331,210.235z M211.344,210.504c-0.074-0.88-0.08-2.292-0.324-3.661
		c-0.807-4.566-3.777-7.274-8.075-7.476c-4.04-0.189-7.42,2.311-8.368,6.418c-0.41,1.772-0.605,3.637-0.544,5.44
		c0.153,4.126,1.338,7.8,5.685,9.395C205.947,222.9,211.105,218.597,211.344,210.504z"/>
	<path fill-rule="evenodd" clip-rule="evenodd" fill="#FFFFFF" d="M179.608,206.03c-0.459,5.801-0.459,11.681-1.516,17.384
		c-1.1,5.886-6.828,9.168-13.423,8.667c-6.394-0.495-10.789-4.401-11.65-10.391c-0.153-1.033-0.202-2.084-0.22-3.13
		c-0.012-0.593-0.024-1.271,0.226-1.797c1.498-3.264,4.725-2.463,7.317-2.793c2.139-0.281,3.166,1.381,3.594,3.398
		c0.288,1.351-0.471,3.68,2.042,3.398c2.255-0.263,1.54-2.438,1.559-3.838c0.092-7.671,0.037-15.348,0.073-23.02
		c0.012-3.93,0.996-4.854,5.012-4.896c0.868-0.006,1.748-0.031,2.623,0.03c2.763,0.177,3.875,1.296,3.905,4.138
		c0.055,4.273,0.019,8.545,0.019,12.818C179.314,206.011,179.455,206.018,179.608,206.03z"/>
</g>
</svg>
