<?xml version="1.0" encoding="utf-8"?>
<!-- Generator: Adobe Illustrator 16.0.0, SVG Export Plug-In . SVG Version: 6.00 Build 0)  -->
<!DOCTYPE svg PUBLIC "-//W3C//DTD SVG 1.1//EN" "http://www.w3.org/Graphics/SVG/1.1/DTD/svg11.dtd">
<svg version="1.1" id="Layer_1" xmlns="http://www.w3.org/2000/svg" xmlns:xlink="http://www.w3.org/1999/xlink" x="0px" y="0px"
	 width="512px" height="512px" viewBox="0 0 512 512" enable-background="new 0 0 512 512" xml:space="preserve">
<g>
	<g>
		<linearGradient id="SVGID_1_" gradientUnits="userSpaceOnUse" x1="100.3848" y1="100.6934" x2="416.4586" y2="416.7672">
			<stop  offset="0" style="stop-color:#DC00FF"/>
			<stop  offset="1" style="stop-color:#9A00FF"/>
		</linearGradient>
		<path fill="url(#SVGID_1_)" d="M481.021,256.33c0,124.261-100.733,225-225,225s-225-100.739-225-225
			c0-124.267,100.733-225,225-225S481.021,132.063,481.021,256.33z"/>
		<linearGradient id="SVGID_2_" gradientUnits="userSpaceOnUse" x1="150.0742" y1="72.8252" x2="361.9673" y2="439.8348">
			<stop  offset="0" style="stop-color:#9A00FF"/>
			<stop  offset="1" style="stop-color:#DC00FF"/>
		</linearGradient>
		<circle fill="url(#SVGID_2_)" cx="256.021" cy="256.33" r="211.858"/>
	</g>
</g>
<g>
	<path fill-rule="evenodd" clip-rule="evenodd" fill="#FFFFFF" d="M135.415,139.441c1.467-6.058,4.157-11.345,9.261-14.859
		c2.928-2.011,6.498-3.087,9.78-4.584c64.401,0,128.796,0,193.203,0c1.266,0.422,2.549,0.77,3.778,1.284
		c8.979,3.704,13.845,10.483,14.822,20.092c0.141,1.332,0.092,2.689,0.092,4.034c0.006,27.763,0.006,55.525,0.006,83.276
		c0,0.935,0,1.87,0,3.123c-0.935-0.422-1.553-0.721-2.182-0.978c-4.469-1.822-8.888-3.778-13.43-5.392
		c-1.638-0.574-2.237-1.18-2.212-2.928c0.098-6.736,0.042-13.478,0.042-20.22c0-19.272,0-38.545-0.006-57.818
		c0-5.055-1.656-6.717-6.65-6.717c-60.673,0-121.345,0-182.017,0c-4.89,0-6.541,1.614-6.541,6.559
		c-0.012,73.759-0.012,147.518,0,221.278c0,4.884,1.693,6.503,6.632,6.503c60.672,0,121.344,0,182.017,0
		c4.731,0,6.229-1.436,6.607-6.112c0.049-0.636,0.501-1.595,1.009-1.797c5.428-2.14,10.917-4.163,16.32-6.186
		c1.754,11.913-0.367,24.205-13.777,30.263c-0.856,0.385-1.736,0.721-2.604,1.088c-65.831,0-131.662,0-197.494,0
		c-3.032-1.81-6.314-3.295-9.022-5.495c-4.211-3.417-6.296-8.276-7.635-13.503V139.441z"/>
	<path fill-rule="evenodd" clip-rule="evenodd" fill="#FFFFFF" d="M394.297,300.908c-3.619,35.178-33.942,59.957-67.494,57.354
		c-33.808-2.622-58.997-30.214-58.625-63.588c0.373-32.946,26.235-60.006,59.255-62.072c33.13-2.066,63.374,22.427,66.864,57.604
		V300.908z M332.726,343.433c27.751-1.602,47.732-23.691,46.149-51.026c-1.491-25.973-24.364-45.936-50.807-44.353
		c-26.277,1.577-46.309,24.419-44.45,51.144C285.409,324.857,307.09,344.117,332.726,343.433z"/>
	<path fill-rule="evenodd" clip-rule="evenodd" fill="#FFFFFF" d="M181.338,221.581c5.318-1.387,10.281-2.683,15.452-4.034
		c0.354,1.192,0.648,2.225,0.959,3.252c2.525,8.38,11.449,12.481,19.432,8.887c3.362-1.516,4.963-4.315,5.251-7.897
		c0.275-3.582-1.003-6.485-4.353-8.001c-4.175-1.889-8.484-3.508-12.726-5.257c-2.488-1.033-4.988-2.041-7.445-3.147
		c-13.937-6.278-16.1-20.709-11.938-31.473c3.087-7.983,8.991-12.635,17.298-14.371c0.77-0.159,1.54-0.324,2.549-0.538
		c0-3.025,0-5.996,0-9.126c3.459,0,6.668,0,10.171,0c0,2.323,0.104,4.53-0.03,6.718c-0.123,1.834,0.428,2.586,2.359,2.934
		c9.841,1.779,16.008,7.812,19.12,17.139c0.202,0.593,0.043,1.834-0.299,1.987c-4.242,1.876-8.558,3.606-12.72,5.312
		c-1.589-2.665-2.775-5.189-4.444-7.347c-2.879-3.722-6.803-5.055-11.43-3.894c-3.46,0.874-6.063,3.814-6.485,7.133
		c-0.52,4.157,0.575,6.748,4.413,8.57c4.866,2.304,9.927,4.175,14.884,6.277c2.109,0.898,4.212,1.84,6.259,2.885
		c9.744,4.976,14.438,14.187,12.799,25.024c-1.821,11.993-9.083,19.486-21.387,21.601c-2.573,0.446-3.233,1.4-3.05,3.809
		c0.208,2.824,0.043,5.672,0.043,8.661c-3.49,0-6.699,0-10.159,0c0-3.998,0-7.842,0-11.84c-7.591-1.015-14.132-3.692-18.765-9.859
		C184.156,231.067,182.286,226.679,181.338,221.581z"/>
	<path fill-rule="evenodd" clip-rule="evenodd" fill="#FFFFFF" d="M177.708,345.419c0-5.507-0.024-10.886,0.055-16.259
		c0.006-0.434,0.739-1.039,1.253-1.241c0.55-0.214,1.253-0.055,1.889-0.055c27.585-0.006,55.165,0.019,82.751-0.049
		c2.084-0.006,3.142,0.647,4.291,2.433c3.331,5.171,7.029,10.116,10.599,15.171C245.275,345.419,211.681,345.419,177.708,345.419z"
		/>
	<path fill-rule="evenodd" clip-rule="evenodd" fill="#FFFFFF" d="M177.799,290.67c0-6.076,0-11.767,0-17.678
		c27.903,0,55.733,0,83.582,0c-0.813,4.199-1.602,8.301-2.384,12.402c-0.073,0.386-0.146,0.783-0.189,1.174
		c-0.434,4.102-0.434,4.102-4.443,4.102c-24.414,0-48.82,0-73.234,0C180.116,290.67,179.101,290.67,177.799,290.67z"/>
	<path fill-rule="evenodd" clip-rule="evenodd" fill="#FFFFFF" d="M275.513,180.364c0-5.52,0.019-10.819-0.012-16.119
		c-0.006-1.614,1.088-1.449,2.121-1.449c7.61,0,15.226-0.006,22.836-0.006c9.438,0,18.869,0.049,28.307-0.037
		c1.883-0.019,2.672,0.391,2.616,2.469c-0.146,4.976-0.049,9.963-0.049,15.141C312.683,180.364,294.272,180.364,275.513,180.364z"/>
	<path fill-rule="evenodd" clip-rule="evenodd" fill="#FFFFFF" d="M331.167,217.999c0,1.412,0,2.72,0,4.211
		c-3.545,0.336-7.072,0.569-10.568,1.027c-10.947,1.43-20.978,5.324-30.184,11.412c-0.745,0.501-1.718,0.935-2.585,0.941
		c-8.796,0.067-17.592,0.043-26.394,0.031c-0.3,0-0.6-0.104-1.058-0.189c0-5.782,0-11.528,0-17.433
		C284.003,217.999,307.5,217.999,331.167,217.999z"/>
	<path fill-rule="evenodd" clip-rule="evenodd" fill="#FFFFFF" d="M362.909,276.019c-0.452,0.679-0.904,1.381-1.399,2.065
		c-0.184,0.257-0.44,0.459-0.667,0.679c-3.435,3.46-3.606,4.676-1.039,8.777c0.294,0.465,1.138,0.758,1.755,0.808
		c1.497,0.115,3.007,0.066,4.517,0.036c1.772-0.043,2.702,0.862,2.727,2.562c0.055,3.331,0.043,6.656,0,9.987
		c-0.019,1.62-0.917,2.457-2.549,2.488c-0.318,0.012-0.648,0.073-0.954,0.006c-4.113-0.911-6.362,0.966-7.121,4.871
		c-0.146,0.759-0.006,1.815,0.44,2.415c0.887,1.191,2.072,2.164,3.136,3.233c1.198,1.21,1.357,2.487,0.116,3.747
		c-2.335,2.371-4.7,4.719-7.072,7.054c-1.155,1.131-2.365,1.149-3.563,0.019c-0.287-0.275-0.617-0.526-0.838-0.838
		c-2.084-3.001-4.462-3.863-7.86-1.772c-1.313,0.807-2.194,1.333-1.932,2.928c0.031,0.153,0.007,0.318,0.007,0.477
		c-0.013,6.174-0.013,6.174-6.32,6.174c-1.901,0-3.803-0.024-5.703,0c-2.188,0.019-3.222-1.052-3.142-3.228
		c0.006-0.238-0.043-0.477,0.006-0.709c0.568-3.361-0.294-5.605-4.04-6.57c-1.693-0.435-2.586-0.52-3.814,0.77
		c-4.719,4.988-4.328,4.756-9.102-0.036c-1.4-1.4-2.8-2.812-4.199-4.212c-1.241-1.253-1.192-2.5,0.006-3.747
		c0.221-0.226,0.446-0.452,0.666-0.679c3.613-3.661,3.662-3.686,1.547-8.441c-0.3-0.653-1.302-1.271-2.048-1.375
		c-1.473-0.22-3.007-0.061-4.511-0.085c-1.712-0.024-2.678-0.856-2.678-2.623c-0.006-3.251-0.012-6.503,0-9.749
		c0.019-1.724,0.898-2.635,2.659-2.641c0.238,0,0.483-0.049,0.715,0c4.15,0.936,6.547-0.807,7.286-4.89
		c0.141-0.765-0.006-1.815-0.452-2.408c-0.886-1.192-2.072-2.17-3.142-3.233c-1.223-1.223-1.32-2.494-0.086-3.741
		c2.335-2.378,4.683-4.737,7.066-7.054c1.149-1.125,2.384-1.119,3.569,0.012c0.287,0.275,0.642,0.508,0.85,0.832
		c2.158,3.337,4.792,3.545,8.111,1.613c1.144-0.672,1.669-1.198,1.602-2.47c-0.067-1.424-0.036-2.854,0-4.278
		c0.055-1.712,0.972-2.659,2.689-2.684c3.239-0.036,6.491-0.036,9.743-0.006c1.84,0.024,2.757,1.009,2.714,2.86
		c-0.006,0.238,0.043,0.483,0,0.709c-0.868,3.961,0.813,6.106,4.646,7.115c1.26,0.33,2.012,0.392,2.867-0.587
		c0.996-1.131,1.986-2.365,3.239-3.123c0.807-0.489,2.507-0.691,3.081-0.189c2.684,2.328,5.135,4.938,7.628,7.487
		C362.433,274.741,362.573,275.334,362.909,276.019z M353.104,295.884c-0.892-5.202-2.359-10.507-6.051-14.187
		c-3.625-3.619-8.894-5.74-14.017-5.734c-5.214,0.013-10.531,2.158-14.199,5.875c-3.6,3.637-5.733,8.881-5.752,14.016
		c-0.012,5.128,2.14,10.354,5.716,14.027c3.655,3.747,8.979,5.875,14.175,5.924c5.128,0.049,10.366-2.121,14.028-5.722
		C350.739,306.416,352.163,301.11,353.104,295.884z"/>
	<path fill-rule="evenodd" clip-rule="evenodd" fill="#FFFFFF" d="M346.399,295.921c0.013,7.438-6.033,13.483-13.436,13.44
		c-7.273-0.049-13.288-6.051-13.368-13.35c-0.072-7.347,6.04-13.539,13.405-13.575C340.391,282.406,346.387,288.445,346.399,295.921
		z M328.178,295.908c0.025,2.695,2.146,4.816,4.842,4.829c2.763,0.019,5.03-2.286,4.933-5.019c-0.092-2.628-2.378-4.786-5.006-4.725
		C330.263,291.055,328.16,293.219,328.178,295.908z"/>
</g>
</svg>
