<?xml version="1.0" encoding="utf-8"?>
<!-- Generator: Adobe Illustrator 16.0.0, SVG Export Plug-In . SVG Version: 6.00 Build 0)  -->
<!DOCTYPE svg PUBLIC "-//W3C//DTD SVG 1.1//EN" "http://www.w3.org/Graphics/SVG/1.1/DTD/svg11.dtd">
<svg version="1.1" id="Layer_1" xmlns="http://www.w3.org/2000/svg" xmlns:xlink="http://www.w3.org/1999/xlink" x="0px" y="0px"
	 width="512px" height="512px" viewBox="0 0 512 512" enable-background="new 0 0 512 512" xml:space="preserve">
<g>
	<g>
		<linearGradient id="SVGID_1_" gradientUnits="userSpaceOnUse" x1="100.3984" y1="100.8193" x2="416.4716" y2="416.8925">
			<stop  offset="0" style="stop-color:#FF00FF"/>
			<stop  offset="1" style="stop-color:#FF006F"/>
		</linearGradient>
		<path fill="url(#SVGID_1_)" d="M481.033,256.455c0,124.261-100.733,225-225,225s-225-100.739-225-225
			c0-124.267,100.733-225,225-225S481.033,132.188,481.033,256.455z"/>
		<linearGradient id="SVGID_2_" gradientUnits="userSpaceOnUse" x1="150.0869" y1="72.9507" x2="361.98" y2="439.9603">
			<stop  offset="0" style="stop-color:#FF006F"/>
			<stop  offset="0.6601" style="stop-color:#FF007F"/>
			<stop  offset="1" style="stop-color:#FF00FF"/>
		</linearGradient>
		<circle fill="url(#SVGID_2_)" cx="256.033" cy="256.455" r="211.858"/>
	</g>
</g>
<g>
	<path fill-rule="evenodd" clip-rule="evenodd" fill="#FFFFFF" d="M368.185,207.916c-70.85,0-140.978,0-211.601,0
		c-0.074,1.779-0.202,3.374-0.202,4.969c-0.019,36.302-0.019,72.604-0.012,108.906c0,11.333,3.967,15.313,15.22,15.313
		c22.537-0.007,45.074-0.013,67.61-0.013c1.357,0,2.928-0.3,4.01,0.281c1.137,0.599,2.469,2.078,2.481,3.185
		s-1.284,2.622-2.408,3.239c-1.063,0.593-2.641,0.343-3.998,0.343c-22.989,0.012-45.978,0.024-68.973,0
		c-13.313-0.019-20.776-7.47-20.783-20.832c-0.03-46.436-0.03-92.872-0.006-139.309c0-13.05,7.463-20.373,20.654-20.41
		c5.44-0.018,10.874-0.006,16.442-0.006c2.983-8.453,8.417-13.777,17.726-13.569c8.741,0.195,13.667,5.52,16.528,13.393
		c27.53,0,55.024,0,82.713,0c0.459-1.033,0.905-2.134,1.431-3.197c3.142-6.357,8.117-10.098,15.33-10.22
		c7.414-0.128,12.879,3.38,15.825,10.055c1.266,2.885,2.738,3.759,5.703,3.588c4.376-0.244,8.766-0.073,13.154-0.042
		c12.438,0.08,19.975,7.61,20,20.165c0.036,35.99,0.012,71.993,0.012,107.995c0,10.893,0.129,21.785-0.171,32.666
		c-0.037,1.442-2.237,2.83-3.436,4.241c-1.082-1.381-2.304-2.677-3.166-4.181c-0.403-0.685-0.079-1.772-0.079-2.684
		c-0.007-20.574-0.007-41.143-0.007-61.711c0-15.581,0-31.162,0-46.749C368.185,211.7,368.185,210.062,368.185,207.916z
		 M368.1,200.654c0-6.699,0.287-12.891-0.074-19.053c-0.379-6.559-4.987-10.801-11.564-11.063
		c-5.135-0.195-10.293-0.244-15.409,0.043c-1.382,0.073-3.338,1.29-3.906,2.506c-3.27,6.993-8.466,11.021-16.247,10.972
		c-7.579-0.043-12.665-4.028-15.923-10.794c-0.599-1.247-2.493-2.653-3.796-2.659c-25.85-0.153-51.711-0.146-77.567-0.012
		c-1.235,0.006-3.093,1.186-3.606,2.298c-3.167,7.023-8.307,11.149-16.1,11.167c-7.781,0.012-12.971-4.053-16.186-11.058
		c-0.532-1.149-2.292-2.372-3.527-2.426c-5.434-0.251-10.893-0.227-16.326-0.037c-5.189,0.184-9.676,2.769-10.495,7.769
		c-1.198,7.298-0.923,14.841-1.278,22.347C227.305,200.654,297.415,200.654,368.1,200.654z M203.637,177.176
		c5.599,0.128,10.134-4.114,10.385-9.719c0.256-5.74-4.188-10.489-9.951-10.624c-5.599-0.128-10.11,4.12-10.361,9.743
		C193.46,172.378,197.83,177.048,203.637,177.176z M320.532,177.219c5.593,0.061,10.141-4.303,10.342-9.92
		c0.208-5.74-4.449-10.514-10.214-10.471c-5.477,0.042-10.109,4.682-10.146,10.177C310.465,172.555,314.976,177.152,320.532,177.219
		z"/>
	<path fill-rule="evenodd" clip-rule="evenodd" fill="#FFFFFF" d="M306.767,263.992c31.009,0.366,55.666,25.537,55.343,56.497
		c-0.318,30.679-25.538,55.269-56.357,54.957c-30.776-0.317-55.648-25.861-55.189-56.699
		C251.009,288.393,276.431,263.631,306.767,263.992z M355.062,319.884c0.049-26.846-21.589-48.832-48.13-48.911
		c-27.604-0.074-49.236,21.479-49.278,49.107c-0.056,26.577,21.815,48.417,48.575,48.502
		C333.148,368.662,355.006,346.877,355.062,319.884z"/>
	<path fill-rule="evenodd" clip-rule="evenodd" fill="#FFFFFF" d="M288.82,231.889c0.062-13.478-1.553-12.329,12.451-12.298
		c3.02,0.006,6.144-0.403,9.028,0.214c1.51,0.318,3.631,2.396,3.734,3.814c0.429,5.709,0.422,11.497,0,17.207
		c-0.104,1.449-2.243,3.814-3.588,3.918c-5.861,0.428-11.797,0.434-17.659,0.012c-1.405-0.104-3.472-2.298-3.789-3.833
		C288.381,238.026,288.82,234.909,288.82,231.889z M306.633,226.522c-3.79,0-7.17,0-10.746,0c0,3.753,0,7.237,0,10.862
		c3.729,0,7.103,0,10.746,0C306.633,233.729,306.633,230.349,306.633,226.522z"/>
	<path fill-rule="evenodd" clip-rule="evenodd" fill="#FFFFFF" d="M354.23,232.72c-0.147,13.723,1.619,12.195-12.354,12.237
		c-2.861,0.012-5.733-0.049-8.595,0.024c-3.02,0.073-4.474-1.375-4.486-4.34c-0.024-5.575-0.024-11.149-0.012-16.717
		c0-2.983,1.485-4.377,4.486-4.353c5.422,0.049,10.844,0.049,16.271-0.018c3.483-0.043,4.871,1.65,4.713,5.031
		C354.133,227.292,354.23,230.013,354.23,232.72z M346.633,226.547c-3.863,0-7.237,0-10.74,0c0,3.765,0,7.255,0,10.801
		c3.741,0,7.115,0,10.74,0C346.633,233.674,346.633,230.288,346.633,226.547z"/>
	<path fill-rule="evenodd" clip-rule="evenodd" fill="#FFFFFF" d="M261.541,219.603c2.555,0,5.122,0.067,7.671-0.018
		c3.483-0.11,4.89,1.577,4.835,4.957c-0.092,5.269-0.086,10.538-0.037,15.807c0.024,3.228-1.485,4.658-4.688,4.621
		c-5.416-0.067-10.838-0.055-16.26,0.006c-3.258,0.025-4.578-1.534-4.517-4.737c0.098-5.275,0.123-10.544-0.018-15.807
		c-0.092-3.515,1.497-4.951,4.877-4.859c2.714,0.073,5.421,0.013,8.136,0.013C261.541,219.591,261.541,219.597,261.541,219.603z
		 M266.663,237.439c0-3.918,0-7.311,0-10.819c-3.79,0-7.299,0-10.887,0c0,3.777,0,7.194,0,10.819
		C259.444,237.439,262.861,237.439,266.663,237.439z"/>
	<path fill-rule="evenodd" clip-rule="evenodd" fill="#FFFFFF" d="M234.041,231.846c0,14.854,1.174,12.75-12.775,12.769
		c-14.658,0.024-12.646,1.602-12.641-12.812c0.012-13.955-2.09-12.555,12.903-12.616c2.115-0.006,4.224,0.006,6.326,0.012
		c5.465,0.018,6.144,0.703,6.174,6.32C234.047,227.635,234.035,229.744,234.041,231.846z M226.614,237.861c0-4.022,0-7.537,0-11.149
		c-3.747,0-7.127,0-10.751,0c0,3.82,0,7.451,0,11.149C219.603,237.861,222.983,237.861,226.614,237.861z"/>
	<path fill-rule="evenodd" clip-rule="evenodd" fill="#FFFFFF" d="M194.065,231.962c-0.037,14.438,1.314,12.555-12.433,12.665
		c-2.861,0.024-5.728-0.049-8.588,0.006c-3.001,0.055-4.444-1.302-4.419-4.346c0.049-5.575,0.043-11.149,0-16.717
		c-0.019-3.044,1.467-4.389,4.438-4.371c5.428,0.03,10.844,0.042,16.271-0.012c3.197-0.037,4.755,1.442,4.731,4.639
		C194.047,226.541,194.065,229.249,194.065,231.962z M175.88,226.724c0,4.046,0,7.58,0,11.063c3.79,0,7.207,0,10.837,0
		c0-3.802,0-7.323,0-11.063C183.02,226.724,179.603,226.724,175.88,226.724z"/>
	<path fill-rule="evenodd" clip-rule="evenodd" fill="#FFFFFF" d="M221.027,281.162c-14.389-0.025-12.402,1.21-12.39-12.146
		c0.018-14.75-2.182-13.234,13.129-13.265c13.576-0.024,12.274-1.308,12.268,12.427c0,2.86-0.012,5.722-0.012,8.582
		c0.006,2.946-1.369,4.468-4.414,4.413C226.749,281.125,223.888,281.162,221.027,281.162z M226.632,274.114
		c0-4.004,0-7.537,0-11.174c-3.765,0-7.188,0-10.721,0c0,3.851,0,7.506,0,11.174C219.615,274.114,222.91,274.114,226.632,274.114z"
		/>
	<path fill-rule="evenodd" clip-rule="evenodd" fill="#FFFFFF" d="M221.082,317.372c-2.72-0.006-5.446-0.049-8.166,0.006
		c-3.063,0.049-4.358-1.442-4.328-4.462c0.067-5.434,0.08-10.88-0.006-16.326c-0.042-2.989,1.217-4.597,4.242-4.609
		c5.593-0.03,11.192-0.036,16.785-0.006c3.289,0.019,4.468,1.95,4.432,5.006c-0.042,5.146-0.085,10.287,0.024,15.428
		c0.085,3.741-1.663,5.189-5.269,4.994C226.229,317.262,223.655,317.378,221.082,317.372z M215.825,310.453
		c3.845,0,7.366,0,10.911,0c0-3.76,0-7.177,0-10.881c-3.741,0-7.237,0-10.911,0C215.825,303.398,215.825,306.932,215.825,310.453z"
		/>
	<path fill-rule="evenodd" clip-rule="evenodd" fill="#FFFFFF" d="M180.263,317.378c-13.24-0.226-11.534,2.054-11.638-12.915
		c-0.012-2.121,0-4.23,0.012-6.352c0.018-5.482,0.575-6.094,5.856-6.148c4.694-0.043,9.382,0.085,14.071-0.043
		c3.79-0.104,5.624,1.442,5.538,5.342c-0.116,4.988-0.11,9.988-0.012,14.976c0.074,3.576-1.314,5.392-5.091,5.165
		C186.437,317.256,183.857,317.378,180.263,317.378z M186.675,310.568c0-3.875,0-7.396,0-11.051c-3.734,0-7.121,0-10.837,0
		c0,3.766,0,7.292,0,11.051C179.462,310.568,182.879,310.568,186.675,310.568z"/>
	<path fill-rule="evenodd" clip-rule="evenodd" fill="#FFFFFF" d="M168.637,268.595c-0.006-0.752-0.012-1.504-0.006-2.262
		c0.049-10.917-1.399-10.654,10.874-10.605c3.313,0.019,6.626,0.043,9.939,0.019c3.203-0.019,4.658,1.571,4.627,4.737
		c-0.043,5.428-0.019,10.844-0.012,16.265c0.006,2.959-1.375,4.438-4.401,4.414c-5.428-0.043-10.85-0.092-16.266,0.018
		c-3.484,0.074-4.951-1.467-4.78-4.908C168.741,273.723,168.637,271.155,168.637,268.595z M175.838,262.886
		c0,3.899,0,7.438,0,11.069c3.845,0,7.359,0,10.782,0c0-3.888,0-7.414,0-11.069C182.934,262.886,179.64,262.886,175.838,262.886z"/>
	<path fill-rule="evenodd" clip-rule="evenodd" fill="#FFFFFF" d="M302.953,346.62c-12.03-2.536-19.523-9.48-22.653-21.149
		c-0.251-0.898-1.724-1.913-2.751-2.054c-2.536-0.366-5.642,0.092-5.574-3.655c0.079-4.053,3.417-3.41,6.076-3.533
		c0.445-0.018,0.892-0.115,0.66-0.079c2.615-4.829,4.248-10.024,7.634-13.49c3.747-3.82,9.145-6.009,13.747-9.028
		c1.174-0.764,2.738-1.827,2.94-2.964c0.446-2.531-0.073-5.643,3.601-5.648c3.997-0.012,3.514,3.319,3.654,6.003
		c0.031,0.574,0.196,1.155,0.318,1.889c12.592,2.628,20.098,10.373,22.86,22.885c2.818,1.204,8.032-1.039,7.886,4.413
		c-0.135,4.981-4.823,2.622-7.788,3.766c-1.797,9.021-6.735,16.075-15.287,20.293c-1.748,0.856-3.79,1.144-5.471,2.085
		c-1.063,0.599-2.304,1.852-2.444,2.939c-0.324,2.635-0.147,5.66-3.717,5.581c-3.937-0.079-3.46-3.387-3.484-6.106
		C303.16,348.173,303.051,347.58,302.953,346.62z M287.219,314.518c2.732,1.889,6.559,3.172,6.828,4.981
		c0.764,5.122-4.64,2.952-7.097,4.34c2.017,8.601,8.05,14.377,14.242,14.89c1.895-2.689,3.209-6.479,5.012-6.724
		c4.908-0.678,2.8,4.444,4.071,6.847c8.068-0.746,14.694-7.439,15.037-13.649c-2.757-2.134-6.425-3.576-6.627-5.397
		c-0.55-4.97,4.48-2.763,6.957-3.967c-1.309-8.154-7.696-14.432-14.133-15.086c-1.895,2.702-3.228,6.541-5,6.755
		c-4.908,0.593-2.866-4.42-4.027-6.92C294.627,301.498,289.09,306.815,287.219,314.518z"/>
</g>
</svg>
