<?xml version="1.0" encoding="utf-8"?>
<!-- Generator: Adobe Illustrator 16.0.0, SVG Export Plug-In . SVG Version: 6.00 Build 0)  -->
<!DOCTYPE svg PUBLIC "-//W3C//DTD SVG 1.1//EN" "http://www.w3.org/Graphics/SVG/1.1/DTD/svg11.dtd">
<svg version="1.1" id="Layer_1" xmlns="http://www.w3.org/2000/svg" xmlns:xlink="http://www.w3.org/1999/xlink" x="0px" y="0px"
	 width="512px" height="512px" viewBox="0 0 512 512" enable-background="new 0 0 512 512" xml:space="preserve">
<g>
	<g>
		<linearGradient id="SVGID_1_" gradientUnits="userSpaceOnUse" x1="100.0728" y1="99.6938" x2="416.1466" y2="415.7677">
			<stop  offset="0" style="stop-color:#0000FF"/>
			<stop  offset="1" style="stop-color:#000083"/>
		</linearGradient>
		<path fill="url(#SVGID_1_)" d="M480.708,255.33c0,124.261-100.733,225-225,225s-225-100.739-225-225
			c0-124.267,100.733-225,225-225S480.708,131.063,480.708,255.33z"/>
		<linearGradient id="SVGID_2_" gradientUnits="userSpaceOnUse" x1="149.7617" y1="71.8257" x2="361.6548" y2="438.8353">
			<stop  offset="0" style="stop-color:#000083"/>
			<stop  offset="1" style="stop-color:#0000FF"/>
		</linearGradient>
		<circle fill="url(#SVGID_2_)" cx="255.708" cy="255.33" r="211.858"/>
	</g>
</g>
<g>
	<path fill-rule="evenodd" clip-rule="evenodd" fill="#FFFFFF" d="M209.761,296.718c-18.717-25.728-18.741-51.155-0.281-76.4
		c-12.885-12.879-25.837-25.807-39.059-39.022c-7.971,5.636-17.311,7.561-27.348,4.639c-7.249-2.103-12.977-6.455-17.103-12.818
		c-8.374-12.903-6.137-29.658,5.318-40.012c11.204-10.128,28.35-10.556,40.135-1.1c11.271,9.053,16.54,26.889,5.703,42.665
		c13.014,12.958,25.978,25.88,39.089,38.93c24.872-18.258,50.404-18.386,75.764,0.147c12.897-12.897,25.844-25.837,39.016-38.992
		c-5.452-7.806-7.53-16.766-4.944-26.571c1.931-7.335,6.105-13.172,12.304-17.481c12.671-8.814,29.786-6.926,40.373,4.382
		c10.409,11.119,11.082,28.38,1.656,40.361c-8.93,11.351-26.9,16.864-42.866,5.911c-12.989,12.995-25.93,25.941-38.943,38.967
		c18.424,25.036,18.54,50.563,0.037,75.886c12.86,12.897,25.776,25.85,38.79,38.906c18.435-9.212,33.924-6.828,43.813,7.011
		c8.992,12.58,7.439,29.719-3.68,40.459c-10.996,10.623-28.025,11.576-40.317,2.39c-10.385-7.757-18.222-25.446-6.345-43.307
		c-13.001-12.978-25.947-25.917-38.857-38.814c-25.269,18.466-50.788,18.49-76.937-0.715c-2.506,2.658-5.098,5.55-7.836,8.313
		c-9.297,9.358-18.606,18.692-28.001,27.952c-1.547,1.517-1.749,2.549-0.593,4.512c6.98,11.833,5.465,26.351-3.594,36.436
		c-9.003,10.013-23.386,13.105-35.593,7.659c-12.463-5.556-19.707-18.099-18.337-31.748c1.327-13.172,11.229-24.254,24.419-27.017
		c8.68-1.815,16.785-0.147,24.107,4.908c1.418,0.983,2.408,1.613,3.998,0.006c11.779-11.938,23.667-23.771,35.514-35.648
		C209.388,297.292,209.541,297.011,209.761,296.718z M253.936,206.986c-27.867,0.031-51.192,22.836-51.271,50.135
		c-0.085,29.438,22.537,52.524,51.437,52.5c28.117-0.03,51.277-22.965,51.253-50.776
		C305.342,229.884,282.597,206.944,253.936,206.986z M356.662,373.918c-0.373,0-0.74,0-1.101,0c-0.416-0.904-0.893-1.785-1.235-2.72
		c-1.253-3.35-2.377-6.755-3.722-10.067c-0.324-0.789-1.278-1.84-2.005-1.889c-5.313-0.385-8.852,2.946-8.974,8.318
		c-0.098,3.797,0.03,7.592-0.049,11.382c-0.049,1.778,0.36,2.708,2.421,2.689c9.376-0.073,18.753-0.055,28.123-0.012
		c1.564,0.006,2.329-0.446,2.305-2.14c-0.073-4.218,0.067-8.436-0.073-12.641c-0.116-3.558-2.219-6.131-5.367-7.011
		c-4.56-1.296-4.694-1.217-6.32,3.239C359.339,366.688,358,370.3,356.662,373.918z M135.616,379.633c11.088,0,21.761,0,32.39,0
		c0.141-0.562,0.281-0.861,0.281-1.167c0.03-4.114,0.091-8.222,0.037-12.335c-0.067-5.263-2.891-8.209-8.209-8.362
		c-0.911-0.018-2.335,0.874-2.696,1.699c-1.467,3.387-2.585,6.907-3.881,10.354c-0.33,0.893-0.88,1.706-1.711,3.289
		c-0.758-1.742-1.21-2.653-1.559-3.601c-1.21-3.258-2.311-6.559-3.619-9.78c-0.336-0.824-1.18-1.9-1.932-2.022
		c-4.603-0.776-8.82,2.476-9.053,7.14C135.427,369.67,135.616,374.511,135.616,379.633z M356.025,170.697
		c-0.867-1.797-1.411-2.738-1.784-3.747c-1.223-3.258-2.274-6.571-3.619-9.768c-0.348-0.837-1.479-1.889-2.279-1.913
		c-5.489-0.171-8.638,2.964-8.729,8.508c-0.062,3.588,0.122,7.176-0.062,10.752c-0.128,2.439,0.844,3.038,3.117,3.001
		c7.476-0.11,14.964-0.036,22.445-0.036c7.298,0.006,7.298,0,7.298-7.268c0-2.427,0.073-4.853-0.036-7.268
		c-0.208-4.45-2.751-6.828-7.702-7.659c-4.389-0.746-3.374,3.142-4.413,5.116c-1.125,2.121-1.711,4.523-2.579,6.785
		C357.328,168.111,356.852,168.967,356.025,170.697z M151.9,170.66c-0.794-1.699-1.277-2.58-1.62-3.496
		c-1.253-3.356-2.39-6.754-3.741-10.062c-0.324-0.794-1.277-1.791-2.023-1.858c-5.104-0.458-8.784,2.873-8.918,8.007
		c-0.104,3.887,0.042,7.793-0.061,11.693c-0.049,1.901,0.623,2.585,2.549,2.574c9.267-0.062,18.533-0.067,27.799,0
		c2.005,0.012,2.531-0.844,2.482-2.659c-0.086-3.582,0-7.164-0.037-10.746c-0.049-5.507-2.335-8.001-7.806-8.851
		c-1.778-0.281-2.708,0.189-3.288,1.932c-1.106,3.398-2.384,6.748-3.643,10.085C153.257,168.19,152.731,169.022,151.9,170.66z
		 M151.998,134.927c-4.664-0.012-8.411,3.808-8.338,8.521c0.055,4.572,3.735,8.222,8.289,8.252c4.627,0.019,8.435-3.851,8.38-8.527
		C160.262,138.667,156.497,134.927,151.998,134.927z M364.302,347.787c0.202-4.749-3.355-8.667-8.013-8.832
		c-4.475-0.153-8.411,3.496-8.595,7.958c-0.201,4.713,3.393,8.668,8.032,8.839C360.225,355.923,364.112,352.311,364.302,347.787z
		 M364.309,143.441c0.061-4.713-3.68-8.533-8.338-8.515c-4.486,0.006-8.233,3.723-8.288,8.252c-0.056,4.7,3.704,8.533,8.355,8.508
		C360.586,151.675,364.253,148.02,364.309,143.441z M151.931,354.047c4.7,0.03,8.447-3.741,8.398-8.441
		c-0.049-4.536-3.753-8.203-8.307-8.222c-4.725-0.024-8.411,3.692-8.362,8.441C143.703,350.416,147.34,354.034,151.931,354.047z
		 M151.301,166.131c0.428,0.006,0.856,0.006,1.284,0.012c0.269-1.663,0.568-3.319,0.801-4.988c0.177-1.32,0.324-2.665,0.385-3.998
		c0.037-0.752-0.006-2.121-0.208-2.164c-1.076-0.208-2.231-0.165-3.301,0.042c-0.165,0.031-0.128,1.394-0.079,2.127
		c0.079,1.326,0.195,2.646,0.373,3.96C150.763,162.806,151.044,164.468,151.301,166.131z M355.299,166.045c0.488,0,0.972,0,1.454,0
		c0.221-1.675,0.435-3.355,0.648-5.03c0.159-1.308,0.349-2.616,0.434-3.918c0.043-0.74,0.03-2.078-0.165-2.115
		c-1.069-0.208-2.23-0.226-3.295-0.012c-0.201,0.043-0.231,1.4-0.189,2.14c0.086,1.32,0.257,2.634,0.429,3.942
		C354.821,162.72,355.066,164.383,355.299,166.045z M355.286,370.067c0.501-0.007,0.996-0.007,1.498-0.013
		c0.195-1.693,0.403-3.393,0.593-5.092c0.135-1.21,0.312-2.433,0.36-3.655c0.037-0.813,0.086-2.23-0.232-2.328
		c-0.923-0.318-2.09-0.318-3.014,0.006c-0.306,0.104-0.231,1.54-0.201,2.365c0.049,1.235,0.189,2.464,0.33,3.687
		C354.815,366.711,355.061,368.393,355.286,370.067z M151.16,368.355c0.458,0.019,0.936,0.031,1.4,0.043
		c0.293-1.461,0.66-2.922,0.843-4.395c0.159-1.333,0.129-2.696,0.147-4.047c0.012-0.91-0.018-1.821-0.037-2.732
		c-1.106,0.062-2.225,0.123-3.337,0.196c0.061,0.831,0.134,1.668,0.189,2.506c0.08,1.124,0.128,2.249,0.232,3.374
		C150.757,364.988,150.958,366.675,151.16,368.355z"/>
	<path fill-rule="evenodd" clip-rule="evenodd" fill="#FFFFFF" d="M299.125,258.496c-0.293,25.452-20.403,45.067-45.782,44.964
		c-23.393-0.11-45.239-19.872-44.48-46.944c0.672-23.948,21.143-43.6,45.825-43.337C279.418,213.435,299.406,233.82,299.125,258.496
		z M277.915,289.126c0-6.467,0-12.567,0-18.674c-0.007-8.881-3.448-12.628-12.25-13.624c-2.041-0.232-3.068,0.33-3.74,2.285
		c-1.92,5.581-3.968,11.113-6.052,16.633c-0.342,0.91-1.125,1.656-1.699,2.481c-0.685-0.825-1.638-1.547-1.993-2.494
		c-2.06-5.415-3.924-10.904-5.978-16.326c-0.367-0.99-1.1-2.299-1.944-2.567c-5.367-1.656-13.197,3.001-13.649,8.82
		c-0.593,7.714-0.147,15.514-0.147,23.466C246.154,289.126,261.82,289.126,277.915,289.126z M254.015,227.304
		c-6.736,0.006-12.237,5.556-12.2,12.298c0.037,6.607,5.44,12.042,12.054,12.146c6.693,0.098,12.311-5.428,12.359-12.158
		C266.271,232.854,260.745,227.298,254.015,227.304z M253.453,273.093c0.446,0,0.911,0,1.369,0c0.464-2.445,1.277-4.89,1.308-7.335
		c0.03-2.39-0.813-4.743,0.96-6.956c0.336-0.428-0.184-2.323-0.483-2.365c-1.699-0.238-3.466-0.227-5.177-0.031
		c-0.312,0.031-0.886,1.711-0.617,2.066c2.09,2.714,0.929,5.63,0.978,8.515C251.827,269.034,252.859,271.058,253.453,273.093z"/>
</g>
</svg>
