<?xml version="1.0" encoding="utf-8"?>
<!-- Generator: Adobe Illustrator 16.0.0, SVG Export Plug-In . SVG Version: 6.00 Build 0)  -->
<!DOCTYPE svg PUBLIC "-//W3C//DTD SVG 1.1//EN" "http://www.w3.org/Graphics/SVG/1.1/DTD/svg11.dtd">
<svg version="1.1" id="Layer_1" xmlns="http://www.w3.org/2000/svg" xmlns:xlink="http://www.w3.org/1999/xlink" x="0px" y="0px"
	 width="512px" height="512px" viewBox="0 0 512 512" enable-background="new 0 0 512 512" xml:space="preserve">
<g>
	<g>
		<linearGradient id="SVGID_1_" gradientUnits="userSpaceOnUse" x1="99.6948" y1="99.8188" x2="415.768" y2="415.892">
			<stop  offset="0" style="stop-color:#00C9FF"/>
			<stop  offset="1" style="stop-color:#0091FF"/>
		</linearGradient>
		<path fill="url(#SVGID_1_)" d="M480.33,255.455c0,124.261-100.733,225-225,225s-225-100.739-225-225
			c0-124.267,100.733-225,225-225S480.33,131.188,480.33,255.455z"/>
		<linearGradient id="SVGID_2_" gradientUnits="userSpaceOnUse" x1="149.3843" y1="71.9512" x2="361.2769" y2="438.9599">
			<stop  offset="0" style="stop-color:#0091FF"/>
			<stop  offset="0.4483" style="stop-color:#0093FF"/>
			<stop  offset="1" style="stop-color:#00C9FF"/>
		</linearGradient>
		<circle fill="url(#SVGID_2_)" cx="255.33" cy="255.455" r="211.858"/>
	</g>
</g>
<g>
	<path fill-rule="evenodd" clip-rule="evenodd" fill="#FFFFFF" d="M260.733,193.792c-1.485,26.559,7.359,48.075,27.873,64.041
		c20.666,16.069,43.832,18.063,68.313,10.482c1.112,17.978-8.765,28.563-26.992,28.638c-41.069,0.177-82.146,0.066-123.215,0.066
		c-2.793,0-5.587,0-8.521,0c2.207,11.504,11.467,18.368,24.059,18.368c37.255,0.006,74.511-0.019,111.754-0.03
		c3.104,0,6.57-0.85,9.224,0.25c3.02,1.254,6.986,3.888,7.567,6.565c1.002,4.584-2.665,7.249-7.482,7.335
		c-4.773,0.073-9.547,0.024-14.321,0.024c-34.389,0-68.771,0.006-103.147,0c-24.566-0.013-40.428-12.794-45.404-36.889
		c-7.61-36.889-15.195-73.796-22.433-110.764c-1.058-5.404-3.075-7.152-8.38-6.815c-6.663,0.421-13.368,0.091-20.055,0.08
		c-4.707-0.006-8.081-1.853-8.007-7.005c0.085-5.288,3.716-6.583,8.35-6.541c10.024,0.085,20.055,0.141,30.085-0.024
		c5.416-0.085,8.459,2.06,9.376,7.561c1.027,6.106,2.891,12.097,3.588,18.233c0.587,5.196,2.745,6.596,7.818,6.541
		c23.875-0.257,47.757-0.116,71.638-0.116C254.976,193.792,257.543,193.792,260.733,193.792z"/>
	<path fill-rule="evenodd" clip-rule="evenodd" fill="#FFFFFF" d="M331.693,258.206c-32.243-0.099-57.849-25.838-57.513-57.836
		c0.318-31.278,26.748-57.298,57.946-57.054c31.516,0.245,57.237,26.345,56.969,57.806
		C388.814,233.157,363.527,258.31,331.693,258.206z M331.283,178.597c0.893,0.501,0.086,0.013-0.758-0.421
		c-9.334-4.847-17.622-4.108-24.468,2.164c-6.938,6.357-8.552,15.354-4.285,24.896c5.636,12.604,16.448,19.376,28.387,24.78
		c0.972,0.44,2.444,0.544,3.398,0.14c12.487-5.281,24.169-11.797,30.349-24.657c6.461-13.423-0.776-28.576-14.762-30.123
		C343.888,174.789,338.295,177.228,331.283,178.597z"/>
	<path fill-rule="evenodd" clip-rule="evenodd" fill="#FFFFFF" d="M187.622,368.242c0.019-15.232,11.485-26.394,27.06-26.345
		c14.658,0.037,26.271,11.681,26.375,26.449c0.104,14.847-11.864,26.889-26.767,26.949
		C199.633,395.345,187.604,383.145,187.622,368.242z"/>
	<path fill-rule="evenodd" clip-rule="evenodd" fill="#FFFFFF" d="M351.54,368.377c0.098,15.037-11.65,26.992-26.516,26.962
		c-14.475-0.024-26.394-11.754-26.681-26.277c-0.324-15.349,11.516-27.274,26.98-27.183
		C339.878,341.959,351.442,353.646,351.54,368.377z"/>
	<path fill-rule="evenodd" clip-rule="evenodd" fill="#FFFFFF" d="M309.67,191.928c0.012,12.372,13.515,27.726,22.806,28.649
		c0.69,0.067,1.491,0.055,2.091-0.238c8.942-4.279,17.536-9.193,21.681-18.784c2.311-5.33,2.188-11.015-3.289-14.755
		c-5.452-3.723-10.642-2.39-14.584,2.488c-4.181,5.171-6.571,3.508-10.685-0.575c-2.616-2.598-8.203-3.826-11.975-3.117
		C312.849,186.14,310.746,190.706,309.67,191.928z"/>
	<path fill-rule="evenodd" clip-rule="evenodd" fill="#FFFFFF" d="M309.67,191.928c1.076-1.223,3.179-5.789,6.045-6.333
		c3.771-0.709,9.358,0.52,11.975,3.117c4.113,4.083,6.504,5.746,10.685,0.575c3.942-4.877,9.132-6.21,14.584-2.488
		c5.478,3.741,5.6,9.425,3.289,14.755c-4.145,9.59-12.738,14.505-21.681,18.784c-0.6,0.293-1.4,0.306-2.091,0.238
		C323.185,219.654,309.682,204.3,309.67,191.928z"/>
</g>
</svg>
