<?xml version="1.0" encoding="utf-8"?>
<!-- Generator: Adobe Illustrator 16.0.0, SVG Export Plug-In . SVG Version: 6.00 Build 0)  -->
<!DOCTYPE svg PUBLIC "-//W3C//DTD SVG 1.1//EN" "http://www.w3.org/Graphics/SVG/1.1/DTD/svg11.dtd">
<svg version="1.1" id="Layer_1" xmlns="http://www.w3.org/2000/svg" xmlns:xlink="http://www.w3.org/1999/xlink" x="0px" y="0px"
	 width="512px" height="512px" viewBox="0 0 512 512" enable-background="new 0 0 512 512" xml:space="preserve">
<g>
	<g>
		<linearGradient id="SVGID_1_" gradientUnits="userSpaceOnUse" x1="101.1968" y1="99.9448" x2="417.2699" y2="416.018">
			<stop  offset="0" style="stop-color:#FF7601"/>
			<stop  offset="1" style="stop-color:#FF0000"/>
		</linearGradient>
		<path fill="url(#SVGID_1_)" d="M481.832,255.581c0,124.261-100.733,225-225,225s-225-100.739-225-225
			c0-124.264,100.733-225,225-225S481.832,131.317,481.832,255.581z"/>
		<linearGradient id="SVGID_2_" gradientUnits="userSpaceOnUse" x1="150.8848" y1="72.0767" x2="362.7803" y2="439.0905">
			<stop  offset="0" style="stop-color:#FF0000"/>
			<stop  offset="1" style="stop-color:#FF6301"/>
		</linearGradient>
		<path fill="url(#SVGID_2_)" d="M468.69,255.581c0,117.011-94.854,211.864-211.858,211.864S44.974,372.592,44.974,255.581
			c0-117.005,94.854-211.858,211.858-211.858S468.69,138.576,468.69,255.581z"/>
	</g>
</g>
<g>
	<path fill-rule="evenodd" clip-rule="evenodd" fill="#FFFFFF" d="M246.502,153.05c-36.381,0-72.549,0-109.089,0
		c-0.214,1.852-0.544,3.478-0.55,5.123c-0.031,19.297,0.116,38.606-0.104,57.891c-0.061,4.743,1.418,6.216,6.167,6.161
		c19.511-0.226,39.028-0.33,58.527,0.128c3.747,0.086,8.606,1.938,10.88,4.676c5.061,6.106-0.006,14.75-8.576,14.988
		c-12.286,0.324-24.591,0.128-36.895,0.134c-12.72,0.006-25.458,0.092-38.167-0.037c-8.411-0.098-11.98-3.643-12.011-12.127
		c-0.098-28.423-0.098-56.846,0-85.266c0.03-8.386,3.71-12.234,11.999-12.25c42.201-0.095,84.407-0.095,126.602,0.009
		c7.739,0.024,11.32,3.594,11.779,11.201c0.244,4.224,0.25,8.5-0.086,12.711c-0.556,6.62-4.242,10.196-9.951,10.196
		c-5.409,0-9.034-3.405-10.042-9.493C246.783,155.887,246.686,154.64,246.502,153.05z"/>
	<path fill-rule="evenodd" clip-rule="evenodd" fill="#FFFFFF" d="M163.158,197.054c2.739,1.259,4.768,2.512,6.969,3.129
		c3.411,0.96,6.938,1.926,10.428,1.975c1.534,0.012,3.105-2.237,4.664-3.448c-1.192-1.503-2.078-3.63-3.619-4.352
		c-3.618-1.699-7.585-2.659-11.345-4.04c-5.819-2.133-9.859-5.789-10.03-12.463c-0.171-6.418,2.94-10.648,8.558-13.637
		c1.827-0.978,2.714-3.618,4.193-5.36c1.143-1.351,2.408-3.319,3.827-3.521c1.375-0.208,4.303,1.412,4.364,2.384
		c0.348,5.599,5.018,5.868,8.417,8.038c2.06,1.345,3.068,4.315,4.554,6.552c-2.372,1.009-4.805,2.928-7.109,2.788
		c-3.472-0.238-6.797-2.433-10.281-2.732c-1.742-0.159-3.686,2.036-5.526,3.154c1.253,1.663,2.152,4.028,3.827,4.847
		c3.576,1.748,7.567,2.641,11.351,3.998c5.948,2.121,9.725,6.173,9.737,12.671c0.018,6.559-3.301,11.021-9.358,13.814
		c-2.054,0.954-3.301,3.527-5.037,5.214c-1.399,1.363-3.038,3.527-4.499,3.472c-1.485-0.073-4.016-2.329-4.108-3.759
		c-0.238-3.838-2.542-4.7-5.434-5.825c-2.714-1.039-5.465-2.463-7.567-4.389c-1.058-0.959-1.381-3.649-0.837-5.128
		C159.815,198.992,161.851,198.111,163.158,197.054z"/>
</g>
<g>
	<path fill-rule="evenodd" clip-rule="evenodd" fill="#FFFFFF" d="M307.993,297.806c-22.151,0-44.297,0.153-66.46-0.055
		c-13.705-0.122-22.451-9.364-22.451-23.057c0-28.337,0.464-56.668-0.257-84.975c-0.245-9.407,10.868-21.131,19.639-21.21
		c9.083-0.073,18.154-0.538,27.231-0.556c32.14-0.08,64.285-0.073,96.418-0.024c4.713,0,9.443,0.214,14.132,0.654
		c12.83,1.186,20.807,10.178,20.807,23.215c0,27.788,0,55.568,0,83.337c0,12.714-9.205,22.438-22.06,22.562
		c-22.329,0.238-44.664,0.073-66.999,0.073C307.993,297.775,307.993,297.794,307.993,297.806z M384.986,215.948
		c-2.427,0-4.205,0-5.979,0c-37.414,0-74.841,0-112.249,0.024c-9.811,0.006-19.621,0.134-29.432,0.171
		c-2.818,0.006-4.854,0.416-4.811,4.132c0.263,17.977,0.171,35.959,0.532,53.931c0.135,7.097,3.167,9.56,10.312,9.578
		c21.986,0.012,43.967,0.042,65.941-0.019c22.163-0.049,44.315-0.165,66.485-0.336c5.537-0.043,9.113-2.959,9.15-7.818
		C385.071,256.015,384.986,236.394,384.986,215.948z M384.778,193.863c0.177-8.02-2.011-10.617-9.059-11.21
		c-2.176-0.178-4.358-0.257-6.528-0.257c-42.14-0.061-84.272-0.116-126.399-0.141c-7.042,0-10.458,4.175-9.652,11.607
		C283.58,193.863,334.026,193.863,384.778,193.863z"/>
	<path fill-rule="evenodd" clip-rule="evenodd" fill="#FFFFFF" d="M268.066,269.646c-8.093,6.198-16.589,6.088-22.206-0.049
		c-4.908-5.354-5.123-14.064-0.489-19.413c5.984-6.876,13.814-7.182,22.751-0.886c10.024-6.027,17.989-5.715,23.196,0.886
		c4.64,5.917,4.377,14.071-0.642,19.37C284.692,275.868,277.181,275.96,268.066,269.646z"/>
</g>
<g>
	<path fill-rule="evenodd" clip-rule="evenodd" fill="#FFFFFF" d="M340.879,315.887c0,8.007-0.116,15.086,0.128,22.146
		c0.043,1.021,1.755,2.091,2.854,2.909c0.611,0.452,1.571,0.446,2.359,0.643c-0.024,0.22-0.061,0.434-0.092,0.647
		c-4.303,0-8.612,0-12.958,0c0.055-0.306,0.055-0.599,0.116-0.611c3.851-0.807,4.425-3.655,4.432-6.938
		c0.012-6.491,0.092-12.989,0.098-19.48c0.006-4.285-0.605-5.062-4.683-6.425c-0.36-0.122-0.66-0.396-1.082-0.66
		c2.978-1.803,9.249-0.983,11.26,1.333c5.733,6.638,11.467,13.288,17.2,19.927c0.666,0.77,1.394,1.497,2.237,2.402
		c0-6.804,0.067-13.325-0.037-19.842c-0.03-1.852-1.503-2.622-3.178-2.994c-0.808-0.178-1.583-0.489-2.372-0.746
		c0.062-0.227,0.122-0.459,0.184-0.685c4.389,0,8.777,0,13.814,0c-0.765,0.617-1.138,1.174-1.608,1.265
		c-2.714,0.551-3.41,2.451-3.447,4.859c-0.128,8.601-0.257,17.195-0.385,25.795c-0.013,1.039,0,2.091,0,3.173
		c-1.962,0.758-3.166,0.287-4.401-1.247c-6.381-7.928-12.873-15.764-19.315-23.644C341.673,317.311,341.447,316.822,340.879,315.887
		z"/>
	<path fill-rule="evenodd" clip-rule="evenodd" fill="#FFFFFF" d="M211.734,342.299c-4.107,0-8.215,0-12.029,0
		c4.597-5.373,2.243-11.645,1.962-17.549c-0.098-2.104-2.634-3.252-4.945-2.732c-2.079,0.465-3.741,1.296-3.564,4.01
		c0.196,3.063-0.006,6.149,0.062,9.211c0.049,2.513-0.978,5.465,3.129,6.504c-0.22,0.178-0.452,0.349-0.672,0.52
		c-4.224,0-8.441,0-12.726,0c0.08-0.354,0.08-0.501,0.11-0.507c4.322-0.813,3.869-4.065,3.833-7.243
		c-0.073-7.464-0.061-14.934,0-22.396c0.019-2.616,0.25-5.201-3.991-4.938c0.122-0.318,0.238-0.648,0.354-0.966
		c3.178-0.66,6.351-1.309,9.915-2.042c0,5.795,0,11.345,0,17.408c1.326-0.819,2.17-1.356,3.032-1.876
		c2.842-1.688,5.819-1.987,8.765-0.459c2.849,1.485,3.496,4.205,3.502,7.158c0.006,2.549-0.042,5.092,0.012,7.641
		C208.556,337.104,207.4,340.697,211.734,342.299z"/>
	<path fill-rule="evenodd" clip-rule="evenodd" fill="#FFFFFF" d="M103.452,341.565c5.52-0.881,5.861-5.642,7.414-9.358
		c3.179-7.592,6.045-15.324,9.169-22.952c0.422-1.027,1.577-1.742,2.799-3.032c2.769,7.61,5.214,14.358,7.684,21.094
		c1.112,3.045,1.986,6.217,3.484,9.071c1.155,2.194,3.105,3.979,4.651,5.887c-4.235,0-9.016,0-13.814,0
		c0.031-0.373-0.012-0.648,0.073-0.697c3.337-1.767,3.337-1.767,1.846-5.477c-2.14-5.36-2.14-5.36-7.916-5.36
		c-4.438,0-4.444,0-5.703,4.242c-0.208,0.666-0.342,1.356-0.587,2.017c-0.855,2.249-0.819,3.991,2.219,4.205
		c0.324,0.031,0.611,0.44,1.448,1.082c-4.547,0-8.441,0-12.335,0C103.739,342.048,103.599,341.81,103.452,341.565z M123.813,328.167
		c-1.394-3.9-2.665-7.451-3.93-10.997c-0.232,0.007-0.464,0.013-0.697,0.019c-1.241,3.552-2.482,7.108-3.839,10.979
		C118.323,328.167,120.823,328.167,123.813,328.167z"/>
	<path fill-rule="evenodd" clip-rule="evenodd" fill="#FFFFFF" d="M152.303,319.529c2.995-0.299,5.99-0.604,9.401-0.953
		c0,3.82,0,7.384,0,10.947c0,1.846-0.012,3.692,0,5.525c0.024,2.524-0.458,5.386,3.949,5.086c-0.098,0.318-0.195,0.636-0.299,0.953
		c-3.148,0.709-6.308,1.412-9.658,2.158c-0.171-1.223-0.312-2.225-0.495-3.563c-1.357,0.813-2.5,1.553-3.692,2.206
		c-5.954,3.246-11.04,0.404-11.235-6.338c-0.092-3.16-0.019-6.32-0.019-9.48c0-4.096,0-4.096-3.221-6.474
		c3.069-0.349,6.143-0.69,9.67-1.094c0,2.494-0.012,4.725,0,6.962c0.019,3.417-0.049,6.846,0.098,10.263
		c0.104,2.457,1.601,3.747,3.881,3.692c2.763-0.067,4.725-1.73,4.743-4.09c0.024-2.634,0.061-5.269-0.006-7.896
		c-0.079-2.867,1.217-6.357-3.722-7.158C151.905,320.031,152.107,319.78,152.303,319.529z"/>
	<path fill-rule="evenodd" clip-rule="evenodd" fill="#FFFFFF" d="M213.25,331.106c0.104-7.567,5.508-12.879,13.038-12.787
		c6.95,0.079,11.968,5.141,11.895,12.011c-0.08,7.854-5.232,13.014-12.842,12.849C218.109,343.032,213.158,338.087,213.25,331.106z
		 M219.956,330.165c0.832,2.689,1.388,6.033,2.879,8.888c1.718,3.319,5.611,3.13,6.913-0.189c2.146-5.458,1.926-11.021-0.789-16.24
		c-0.593-1.138-2.476-2.269-3.722-2.213c-1.235,0.049-2.934,1.345-3.497,2.536C220.805,324.939,220.616,327.286,219.956,330.165z"/>
	<path fill-rule="evenodd" clip-rule="evenodd" fill="#FFFFFF" d="M305.555,329.426c-0.795,7.946,4.805,10.929,14.047,7.451
		c-0.251,0.733-0.313,1.296-0.594,1.699c-2.732,3.826-7.726,5.495-12.133,4.107c-4.688-1.485-7.506-5.227-7.659-10.177
		c-0.208-6.956,3.857-12.672,9.951-13.968c5.202-1.105,9.707,1.706,10.758,6.706c0.526,2.561-0.085,3.337-2.689,3.483
		C313.396,328.949,309.552,329.193,305.555,329.426z M305.011,327.243c2.273,0,3.832,0.092,5.379-0.036
		c1.149-0.092,3.222-0.403,3.239-0.728c0.092-1.363-0.122-2.946-0.794-4.12c-1.504-2.604-3.985-2.665-5.636-0.171
		C306.301,323.546,305.86,325.227,305.011,327.243z"/>
	<path fill-rule="evenodd" clip-rule="evenodd" fill="#FFFFFF" d="M388.409,336.748c-0.966,3.711-5.489,6.608-9.486,6.431
		c-5.312-0.226-9.321-3.398-10.526-8.325c-1.399-5.782,1.241-12.09,6.26-14.951c4.682-2.659,9.713-1.999,12.561,1.767
		c0.667,0.887,1.198,1.975,1.437,3.05c0.722,3.228,0.147,3.869-3.117,4.028c-3.16,0.159-6.314,0.435-9.462,0.501
		c-1.853,0.049-2.2,0.808-1.853,2.494c1.187,5.862,6.253,8.558,11.724,6.144C386.654,337.567,387.346,337.237,388.409,336.748z
		 M374.362,327.194c2.58,0,4.835,0.135,7.054-0.085c0.563-0.056,1.504-1.303,1.425-1.896c-0.27-2.12-1.088-4.278-3.466-4.688
		c-2.427-0.429-3.466,1.583-4.272,3.453C374.717,324.891,374.638,325.93,374.362,327.194z"/>
	<path fill-rule="evenodd" clip-rule="evenodd" fill="#FFFFFF" d="M297.34,319.438c-4.108,6.865-8.222,13.723-12.354,20.636
		c5.403,1.485,8.49,0.532,11.645-3.392c0.317-0.397,0.935-0.545,1.424-0.801c0.135,0.525,0.495,1.118,0.367,1.57
		c-0.38,1.352-0.881,2.672-1.474,3.937c-0.227,0.465-0.831,1.063-1.277,1.069c-6.277,0.067-12.567,0.043-19.518,0.043
		c4.578-7.402,8.833-14.278,13.13-21.229c-5.434-1.32-7.396-0.568-10.184,3.588c-0.257,0.379-0.88,0.52-1.32,0.771
		c-0.158-0.507-0.538-1.063-0.434-1.51c0.482-2.103,1.106-4.175,1.521-5.696c6.18,0,12.061,0,17.946,0
		C296.984,318.76,297.162,319.102,297.34,319.438z"/>
	<path fill-rule="evenodd" clip-rule="evenodd" fill="#FFFFFF" d="M406.301,340.624c-2.378,0.85-4.695,2.121-7.14,2.451
		c-3.185,0.434-5.294-1.345-5.581-4.566c-0.366-4.083-0.263-8.209-0.342-12.322c-0.031-1.479-0.007-2.959-0.007-4.621
		c-1.253-0.135-2.335-0.263-4.333-0.483c1.619-1.216,2.658-1.992,4.102-3.074c-0.33-3.839,3.539-4.615,6.668-7.158
		c0,3.063,0,5.367,0,8.014c1.706,0,3.087-0.098,4.444,0.055c0.501,0.049,0.941,0.697,1.412,1.076
		c-0.446,0.44-0.85,1.198-1.352,1.266c-1.351,0.177-2.744,0.055-4.315,0.055c0,5.263-0.183,10.244,0.074,15.195
		c0.14,2.751,1.979,3.655,4.853,3.032c0.379-0.073,0.789-0.006,1.18-0.006C406.086,339.896,406.19,340.257,406.301,340.624z"/>
	<path fill-rule="evenodd" clip-rule="evenodd" fill="#FFFFFF" d="M175.316,311.461c0,1.755,0.104,3.252-0.024,4.719
		c-0.171,2.018,0.471,3.002,2.634,2.696c0.935-0.122,1.901-0.019,2.818-0.019c0.238,1.821,0.238,1.821-5.269,2.806
		c0,4.847-0.226,9.749,0.085,14.621c0.184,2.989,1.956,3.862,4.976,3.258c0.354-0.062,0.746,0.049,1.247,0.085
		c-1.913,2.672-6.253,4.163-9.114,3.276c-2.445-0.745-3.594-2.787-3.606-6.589c-0.024-4.902-0.006-9.798-0.006-14.811
		c-1.345-0.11-2.372-0.189-3.405-0.269c-0.141-0.184-0.281-0.367-0.422-0.551c1.063-0.807,2.127-1.607,3.594-2.708
		C169.583,314.902,171.331,312.922,175.316,311.461z"/>
	<path fill-rule="evenodd" clip-rule="evenodd" fill="#FFFFFF" d="M254.925,342.274c-5.367,0-10.067,0-14.78,0
		c0.018-0.324,0-0.63,0.037-0.636c3.533-0.715,3.662-3.289,3.545-6.155c-0.123-2.892-0.012-5.789-0.031-8.687
		c-0.018-2.615,0.557-5.599-4.034-5.537c0.146-0.294,0.306-0.6,0.465-0.893c3.209-0.666,6.424-1.333,9.908-2.061
		c0,1.669,0,3.13,0,4.585c0.183,0.098,0.367,0.195,0.55,0.287c0.648-0.807,1.155-1.827,1.975-2.402
		c1.363-0.966,2.867-2.022,4.443-2.279c0.825-0.135,2.439,1.197,2.738,2.157c0.313,1.015-0.201,2.689-0.966,3.496
		c-0.58,0.605-2.279,0.709-3.203,0.343c-3.465-1.357-5.452-0.214-5.513,3.521c-0.049,2.892,0.079,5.795-0.031,8.686
		c-0.091,2.507,0.379,4.389,3.386,4.505C253.733,341.217,254.033,341.633,254.925,342.274z"/>
	<path fill-rule="evenodd" clip-rule="evenodd" fill="#FFFFFF" d="M260.555,341.26c4.829,0.189,4.395-2.83,4.377-5.624
		c-0.025-2.982,0-5.966-0.013-8.948c0-2.659,0.458-5.6-4.163-5.471c0.178-0.275,0.349-0.557,0.526-0.838
		c3.215-0.647,6.43-1.289,9.914-1.992c0,5.385,0,10.55,0,15.709c0,4.921,0,4.921,3.851,8.13c-4.816,0-9.37,0-13.918,0
		C260.934,341.907,260.744,341.584,260.555,341.26z"/>
	<path fill-rule="evenodd" clip-rule="evenodd" fill="#FFFFFF" d="M326.135,343.154c-2.316-0.012-3.869-1.62-3.869-4.01
		c0-2.408,1.522-3.985,3.852-3.998c2.42-0.012,4.145,1.73,4.083,4.127C330.145,341.504,328.403,343.167,326.135,343.154z"/>
	<path fill-rule="evenodd" clip-rule="evenodd" fill="#FFFFFF" d="M267.492,313.068c-2.176-0.018-3.625-1.442-3.661-3.575
		c-0.03-2.207,1.577-3.833,3.771-3.809c2.151,0.024,3.74,1.724,3.661,3.906C271.178,311.706,269.675,313.094,267.492,313.068z"/>
</g>
</svg>
