<?xml version="1.0" encoding="utf-8"?>
<!-- Generator: Adobe Illustrator 16.0.0, SVG Export Plug-In . SVG Version: 6.00 Build 0)  -->
<!DOCTYPE svg PUBLIC "-//W3C//DTD SVG 1.1//EN" "http://www.w3.org/Graphics/SVG/1.1/DTD/svg11.dtd">
<svg version="1.1" id="Layer_1" xmlns="http://www.w3.org/2000/svg" xmlns:xlink="http://www.w3.org/1999/xlink" x="0px" y="0px"
	 width="512px" height="512px" viewBox="0 0 512 512" enable-background="new 0 0 512 512" xml:space="preserve">
<g>
	<g>
		<linearGradient id="SVGID_1_" gradientUnits="userSpaceOnUse" x1="103.5093" y1="103.8188" x2="419.5824" y2="419.892">
			<stop  offset="0" style="stop-color:#FF00FF"/>
			<stop  offset="1" style="stop-color:#FF006F"/>
		</linearGradient>
		<path fill="url(#SVGID_1_)" d="M484.145,259.455c0,124.261-100.733,225-225,225s-225-100.739-225-225
			c0-124.267,100.733-225,225-225S484.145,135.188,484.145,259.455z"/>
		<linearGradient id="SVGID_2_" gradientUnits="userSpaceOnUse" x1="153.1982" y1="75.9512" x2="365.0913" y2="442.9608">
			<stop  offset="0" style="stop-color:#FF006F"/>
			<stop  offset="0.6601" style="stop-color:#FF007F"/>
			<stop  offset="1" style="stop-color:#FF00FF"/>
		</linearGradient>
		<circle fill="url(#SVGID_2_)" cx="259.145" cy="259.455" r="211.858"/>
	</g>
</g>
<g>
	<path fill-rule="evenodd" clip-rule="evenodd" fill="#FFFFFF" d="M177.69,135.14c3.148-3.344,6.387-9.572,9.431-9.475
		c7.904,0.245,5.067,7.751,5.404,12.659c0.293,4.272,0.373,8.637-0.196,12.86c-0.733,5.336-6.271,7.091-10.22,3.582
		c-5.318-4.725-19.927-8.044-23.441-3.594c-3.563,4.492-3.833,11.601-5.838,18.594c49.206,0,95.813,0,142.378,0
		c4.193-15.214,1.84-18.704-14.261-20.697c0-3.307,0-6.668,0-10.012c17.83-4.022,28.002,3.601,28.167,21.369
		c0.189,19.297,0.042,38.601,0.042,59.053c-4.37-0.88-7.915-1.595-12.469-2.512c0-11.828,0-23.741,0-36.088
		c-47.623,0-94.212,0-141.516,0c-0.226,2.316-0.629,4.609-0.629,6.895c-0.043,26.852-0.062,53.698-0.019,80.55
		c0.019,10.128,1.394,11.455,11.767,11.467c22.8,0.037,45.611,0.013,68.912,0.013c1.253,3.93,2.42,7.622,3.845,12.072
		c-2.097,0.201-3.576,0.464-5.067,0.464c-23.35,0.024-46.711,0.129-70.073-0.012c-15.153-0.098-22.06-7.14-22.084-22.359
		c-0.067-36.51-0.055-73.026-0.006-109.542c0.025-15.788,6.749-22.402,22.629-22.524c4.798-0.037,9.603-0.012,14.401-0.012
		C178.46,136.974,178.075,136.057,177.69,135.14z"/>
	<path fill-rule="evenodd" clip-rule="evenodd" fill="#FFFFFF" d="M203.509,149.754c0-4.199,0-7.353,0-11.51
		c17.873,0,35.672,0,52.824,0c0.935-1.406,1.405-1.809,1.461-2.261c0.513-4.676-0.318-10.862,6.577-10.758
		c7.311,0.104,6.559,6.363,6.602,11.449c0.023,4.285,0.525,8.667-0.232,12.824c-0.453,2.451-2.567,5.782-4.634,6.412
		c-1.974,0.599-4.865-1.779-7.335-2.897c-2.365-1.058-4.707-3.069-7.078-3.111C235.923,149.614,220.153,149.754,203.509,149.754z"/>
	<path fill-rule="evenodd" clip-rule="evenodd" fill="#FFFFFF" d="M182.494,264.07c-0.801,0-1.607,0-2.402,0
		c-10.574-0.013-16.357-9.774-11.186-19.114c0.66-1.192,2.39-2.481,3.667-2.53c6.663-0.269,13.368-0.446,19.994,0.055
		c1.608,0.123,3.026,2.922,4.493,4.518c0.147,0.152,0.043,0.52,0.074,0.782C199.041,262.713,197.83,264.058,182.494,264.07z"/>
	<path fill-rule="evenodd" clip-rule="evenodd" fill="#FFFFFF" d="M182.183,225.812c-2.133,0-4.285-0.147-6.4,0.018
		c-5.489,0.44-7.946-1.986-7.58-7.481c0.153-2.396,0.104-4.804,0.006-7.207c-0.202-4.958,1.821-7.549,7.072-7.194
		c2.659,0.177,5.336,0.024,8.008,0.024c14.04,0,16.729,3.16,13.618,16.993c-0.428,1.889-3.129,4.059-5.177,4.584
		c-2.995,0.789-6.345,0.208-9.547,0.208C182.183,225.775,182.183,225.788,182.183,225.812z"/>
	<path fill-rule="evenodd" clip-rule="evenodd" fill="#FFFFFF" d="M225.569,203.997c0.801,0,1.601-0.006,2.402,0
		c11.271,0.055,16.247,7.323,11.632,18.02c-0.874,2.005-5.134,3.723-7.726,3.576c-6.822-0.373-14.285-0.507-20-3.539
		c-2.194-1.167-0.581-9.969-0.135-15.232c0.086-1.045,2.665-2.463,4.236-2.671c3.142-0.422,6.387-0.128,9.59-0.128
		C225.569,204.015,225.569,204.009,225.569,203.997z"/>
	<path fill-rule="evenodd" clip-rule="evenodd" fill="#FFFFFF" d="M235.086,264.07c-3.295,0-6.485,0-9.682,0
		c-14.933-0.013-16.546-1.748-14.053-16.657c0.318-1.95,2.922-4.805,4.707-4.988c6.094-0.636,12.305-0.465,18.454-0.22
		c5,0.202,6.345,3.423,5.08,7.824C238.265,254.62,236.681,259.137,235.086,264.07z"/>
	<path fill-rule="evenodd" clip-rule="evenodd" fill="#FFFFFF" d="M281.926,216.319c-6.992,2.891-13.441,5.452-19.792,8.24
		c-5.428,2.372-8.283,0.898-8.472-5.123c-0.073-2.42,0.159-4.853-0.061-7.243c-0.587-6.345,2.207-8.899,8.478-8.27
		c2.929,0.293,5.898,0.049,8.857,0.067C283.008,204.027,283.014,204.04,281.926,216.319z"/>
</g>
<g>
	<path fill-rule="evenodd" clip-rule="evenodd" fill="#FFFFFF" d="M330.11,221.545c0.99,0.746,2.035,1.412,2.94,2.244
		c4.04,3.704,4.144,9.853,0.274,13.625c-3.789,3.704-9.7,3.588-13.386-0.263c-3.729-3.899-3.387-10.061,0.77-13.618
		c0.844-0.722,1.785-1.327,2.678-1.987C325.624,221.545,327.867,221.545,330.11,221.545z"/>
	<path fill-rule="evenodd" clip-rule="evenodd" fill="#FFFFFF" d="M326.993,298.568c10.58,0,21.167,0.086,31.748-0.055
		c2.897-0.037,3.918,0.819,3.875,3.814c-0.165,10.207-0.03,20.422-0.079,30.636c-0.024,4.993-2.066,7.078-7.042,7.09
		c-19.175,0.037-38.355,0.037-57.53-0.012c-4.854-0.007-6.852-2.048-6.87-6.804c-0.037-10.458,0.067-20.916-0.067-31.381
		c-0.037-2.695,0.941-3.355,3.466-3.332C305.324,298.63,316.155,298.568,326.993,298.568z M335.471,307.139
		c-4.175,4.584-8.063,8.851-12.072,13.252c-2.353-2.231-4.297-4.077-6.418-6.088c-1.271,1.387-2.304,2.518-2.616,2.854
		c3.344,3.644,6.327,6.896,8.606,9.377c5.386-5.195,10.801-10.416,16.32-15.739C338.436,309.969,337.457,309.039,335.471,307.139z"
		/>
	<path fill-rule="evenodd" clip-rule="evenodd" fill="#FFFFFF" d="M291.113,294.626c0-4.272-0.153-8.361,0.049-12.433
		c0.171-3.551,2.512-5.33,6.741-5.336c13.185-0.043,26.376-0.024,39.561-0.024c5.85,0,11.692-0.019,17.536,0.012
		c5.275,0.031,7.286,1.975,7.372,7.134c0.062,3.453,0.012,6.913,0.012,10.647C338.558,294.626,315.123,294.626,291.113,294.626z
		 M311.963,286.093c-2.17-1.577-3.473-3.258-4.628-3.16c-1.21,0.099-2.273,1.901-3.404,2.959c1.069,1.112,2.042,2.964,3.233,3.117
		C308.313,289.155,309.701,287.561,311.963,286.093z M350.936,286.051c-2.207-1.571-3.515-3.228-4.651-3.111
		c-1.217,0.122-2.274,1.9-3.398,2.952c1.069,1.106,2.035,2.958,3.228,3.104C347.268,289.144,348.644,287.542,350.936,286.051z"/>
	<path fill-rule="evenodd" clip-rule="evenodd" fill="#FFFFFF" d="M396.363,334.669c-5.52-3.215-5.77-3.766-4.517-9.046
		c7.146-30.245-7.226-61.339-35.031-75.771c-5.085-2.641-5.141-2.763-4.126-9.322c17.935,7.231,31.388,19.071,39.97,36.186
		C402.029,295.408,402.813,314.699,396.363,334.669z"/>
	<path fill-rule="evenodd" clip-rule="evenodd" fill="#FFFFFF" d="M255.355,334.565c-14.615-36.253,6.32-81.583,43.081-93.405
		c1.351,5.293,1.002,6.131-3.552,8.46c-27.977,14.321-42.5,44.798-35.482,75.428C260.465,329.712,259.45,332.334,255.355,334.565z"
		/>
	<path fill-rule="evenodd" clip-rule="evenodd" fill="#FFFFFF" d="M271.088,373.386c-4.725,0-9.462-0.184-14.168,0.061
		c-3.209,0.165-4.23-1.063-3.888-4.07c0.177-1.596-0.031-3.24,0.085-4.848c0.312-4.633,3.478-7.982,8.129-8.117
		c6.583-0.195,13.179-0.195,19.762-0.006c4.896,0.141,8.032,3.63,8.387,8.759c0.574,8.222,0.574,8.222-7.5,8.222
		C278.295,373.386,274.688,373.386,271.088,373.386z"/>
	<path fill-rule="evenodd" clip-rule="evenodd" fill="#FFFFFF" d="M381.369,373.221c-4.963,0-9.933-0.08-14.896,0.03
		c-2.183,0.049-3.246-0.605-3.075-2.946c0.147-1.98-0.066-3.979,0.098-5.953c0.355-4.444,3.503-7.788,7.916-7.922
		c6.693-0.208,13.404-0.221,20.104,0c4.565,0.152,7.457,3.508,7.872,8.361c0.722,8.43,0.722,8.43-7.592,8.43
		C388.325,373.221,384.848,373.221,381.369,373.221z"/>
	<path fill-rule="evenodd" clip-rule="evenodd" fill="#FFFFFF" d="M308.833,260.274c0-3.332-0.343-6.443,0.079-9.444
		c0.624-4.425,3.771-6.968,8.258-7.041c6.333-0.11,12.672-0.123,18.998,0c4.938,0.085,8.105,3.245,8.337,8.166
		c0.129,2.689,0.024,5.397,0.024,8.319C332.513,260.274,320.893,260.274,308.833,260.274z"/>
	<path fill-rule="evenodd" clip-rule="evenodd" fill="#FFFFFF" d="M356.913,376.43c-20.116,9.113-39.884,9.205-59.95,1.015
		c2.86-5.202,3.777-5.563,8.68-4.053c13.851,4.254,27.695,4.224,41.467-0.343C352.732,371.191,352.714,371.143,356.913,376.43z"/>
	<path fill-rule="evenodd" clip-rule="evenodd" fill="#FFFFFF" d="M280.758,343.452c-0.036,5.184-4.291,9.456-9.48,9.518
		c-5.269,0.067-9.804-4.426-9.749-9.67c0.049-5.104,4.389-9.438,9.529-9.518C276.369,333.703,280.795,338.116,280.758,343.452z"/>
	<path fill-rule="evenodd" clip-rule="evenodd" fill="#FFFFFF" d="M390.887,343.403c-0.013,5.33-4.139,9.39-9.475,9.315
		c-5.177-0.073-9.193-4.046-9.278-9.187c-0.086-5.281,4.016-9.456,9.333-9.505C386.797,333.984,390.893,338.067,390.887,343.403z"/>
</g>
</svg>
