<?xml version="1.0" encoding="utf-8"?>
<!-- Generator: Adobe Illustrator 16.0.0, SVG Export Plug-In . SVG Version: 6.00 Build 0)  -->
<!DOCTYPE svg PUBLIC "-//W3C//DTD SVG 1.1//EN" "http://www.w3.org/Graphics/SVG/1.1/DTD/svg11.dtd">
<svg version="1.1" id="Layer_1" xmlns="http://www.w3.org/2000/svg" xmlns:xlink="http://www.w3.org/1999/xlink" x="0px" y="0px"
	 width="512px" height="512px" viewBox="0 0 512 512" enable-background="new 0 0 512 512" xml:space="preserve">
<g>
	<g>
		<linearGradient id="SVGID_1_" gradientUnits="userSpaceOnUse" x1="100.2959" y1="100.6943" x2="416.369" y2="416.7675">
			<stop  offset="0" style="stop-color:#DC00FF"/>
			<stop  offset="1" style="stop-color:#9A00FF"/>
		</linearGradient>
		<path fill="url(#SVGID_1_)" d="M480.931,256.33c0,124.261-100.733,225-225,225s-225-100.739-225-225
			c0-124.267,100.733-225,225-225S480.931,132.063,480.931,256.33z"/>
		<linearGradient id="SVGID_2_" gradientUnits="userSpaceOnUse" x1="149.9844" y1="72.8262" x2="361.8779" y2="439.8366">
			<stop  offset="0" style="stop-color:#9A00FF"/>
			<stop  offset="1" style="stop-color:#DC00FF"/>
		</linearGradient>
		<circle fill="url(#SVGID_2_)" cx="255.931" cy="256.33" r="211.858"/>
	</g>
</g>
<g>
	<path fill-rule="evenodd" clip-rule="evenodd" fill="#FFFFFF" d="M266.15,183.512c-0.593-11.247,1.314-21.626,5.844-31.516
		c11.943-26.112,39.364-41.094,68.411-37.353c27.384,3.527,50.201,25.667,54.969,53.343c5.808,33.649-14.908,65.752-48.056,74.273
		c-2.537,0.648-3.362,1.675-3.093,4.163c0.22,2.054,0.049,4.15,0.049,5.458c2.622,1.761,5.422,2.781,6.772,4.792
		c1.375,2.042,1.815,5.043,1.834,7.635c0.141,20.349,0.012,40.703,0.109,61.058c0.037,7.115-2.311,13.032-7.536,17.892
		c-0.716,0.666-1.082,1.992-1.131,3.037c-0.257,5.135,0.159,10.367-0.587,15.416c-1.853,12.421-12.555,21.491-25.141,21.613
		c-13.747,0.123-27.494,0.031-41.247,0.031c-40.794,0-81.589,0.006-122.39,0c-16.877,0-27.892-10.979-27.897-27.781
		c0-1.541,0-3.074,0-4.609c0-7.139,1.785-9.522,8.686-11.436c0-1.033,0-2.109,0-3.191c0-46.039-0.006-92.084,0-138.129
		c0-9.554,5.165-14.688,14.78-14.694c37.353,0,74.719,0,112.078,0C263.669,183.512,264.738,183.512,266.15,183.512z
		 M318.149,252.834c0-2.506-0.128-4.859,0.043-7.194c0.152-2.018-0.575-2.714-2.537-3.215
		c-17.787-4.523-31.351-14.798-40.715-30.544c-1.021-1.724-2.048-2.298-4.01-2.292c-35.361,0.062-70.733,0.043-106.1,0.043
		c-0.954,0-1.901,0-2.812,0c0,43.612,0,86.815,0,130.024c2.897,0,5.63,0,8.148,0c0.379-4.004,0.33-7.867,1.162-11.522
		c3.588-15.696,13.16-25.99,28.637-30.599c1.65-0.495,2.274-1.504,2.243-2.873c-0.012-0.861-0.648-1.797-1.21-2.549
		c-2.274-2.982-4.646-5.893-6.944-8.851c-0.654-0.844-1.051-1.938-1.815-2.629c-9.621-8.753-13.533-19.676-13.105-32.548
		c0.482-14.548,10.923-27.298,25.36-29.206c7.561-0.996,15.33-0.605,23.007-0.575c12.219,0.043,23.729,7.659,27.628,19.224
		c5.079,15.024,2.402,28.832-8.423,40.807c-1.907,2.108-3.35,4.615-5.122,6.84c-1.853,2.316-3.882,4.475-5.752,6.772
		c-0.648,0.801-1.412,1.779-1.455,2.708c-0.079,1.51,0.776,2.414,2.488,2.946c15.104,4.597,24.627,14.621,28.221,30
		c0.911,3.899,0.941,8.007,1.388,12.078c15.568,0,31.217,0,47.286,0c-4.077-5.446-4.37-11.406-4.34-17.555
		c0.116-19.627,0.049-39.248,0.049-58.882C309.47,257.021,311.848,254.099,318.149,252.834z M335.717,348.757
		c-23.496,0-46.431,0-69.621,0c0,2.646,0.012,5.159,0,7.671c-0.043,6.07-3.539,9.548-9.664,9.548
		c-13.851,0.019-27.689,0.024-41.534,0c-6.222,0-9.646-3.496-9.664-9.816c-0.006-2.488,0-4.981,0-7.366c-23.38,0-46.32,0-69.432,0
		c0,2.335,0,4.499,0,6.657c0.012,12.097,7.097,19.162,19.242,19.162c53.747,0,107.488,0,161.235,0c0.813,0,1.626,0.006,2.438-0.019
		c8.02-0.299,14.896-5.874,16.29-13.765C335.692,356.966,335.503,352.938,335.717,348.757z M387.636,179.325
		c0.062-31.106-25.274-56.528-56.369-56.553c-30.99-0.024-56.356,25.202-56.485,56.167c-0.116,31.113,25.159,56.595,56.235,56.693
		C362.123,235.725,387.581,210.407,387.636,179.325z M269.702,200.859c-0.624-2.14-1.382-3.998-1.669-5.929
		c-0.342-2.304-1.479-2.72-3.637-2.72c-37.885,0.074-75.776,0.049-113.674,0.049c-4.976,0-6.234,1.265-6.234,6.253
		c0,46.125,0,92.25,0,138.375c0,0.947,0,1.9,0,2.812c3.081,0,5.752,0,8.704,0c0-46.314,0-92.476,0-138.839
		C192.147,200.859,230.82,200.859,269.702,200.859z M318.418,261.831c-0.098,0.514-0.189,0.771-0.189,1.027
		c-0.006,21.418-0.042,42.83,0.043,64.248c0.013,1.827,0.575,3.777,1.352,5.452c2.487,5.373,8.539,8.264,14.174,7.005
		c6.198-1.382,10.38-6.394,10.392-12.812c0.056-21.052,0.024-42.109,0.013-63.16c0-0.587-0.165-1.18-0.251-1.761
		C335.374,261.831,326.982,261.831,318.418,261.831z M244.727,266.208c0.012-0.019,0.22-0.178,0.342-0.392
		c0.318-0.544,0.605-1.1,0.88-1.675c2.775-5.929,3.361-12.212,2.408-18.551c-1.467-9.798-8.276-17.078-18.148-18.111
		c-7.94-0.832-16.106-0.819-24.046,0.049c-9.872,1.076-16.773,8.68-18.038,18.533c-0.672,5.232-0.354,10.483,1.467,15.513
		c0.563,1.559,1.339,3.038,2.018,4.554c0.256,0.05,0.513,0.099,0.764,0.147c-1.815-14.707,7.427-21.791,18.497-27.708
		c0.214,0.25,0.483,0.489,0.666,0.788c5.507,9.163,13.405,14.878,23.93,17.134c1.975,0.415,4.016,1.84,5.404,3.361
		C242.501,261.654,243.474,264.074,244.727,266.208z M208.632,250.383c-5.018,2.775-7.653,6.772-7.677,12.365
		c-0.019,4.064-0.08,8.142,0.019,12.213c0.177,7.018,5.623,12.519,12.61,12.763c3.16,0.104,6.338,0.104,9.499-0.006
		c5.978-0.214,10.972-4.255,12.121-10.171c0.538-2.8,0.306-5.752,0.434-8.638c0.104-2.359-1.045-3.796-3.289-4.284
		C222.917,262.571,215.087,257.864,208.632,250.383z M204.36,329.515c-1.999-3.337-3.857-6.431-5.715-9.517
		c-1.907-3.154-3.814-6.303-5.709-9.438c-8.967,4.664-15.642,19.438-13.307,29.188c8.832,0,17.671,0,26.662,0
		c0.587-4.646,2.995-8.912,2.513-14.419C206.988,327.039,205.82,328.14,204.36,329.515z M230.326,339.723c9.114,0,17.94,0,26.749,0
		c1.784-11.62-5.025-24.921-13.503-29.059c-3.753,6.234-7.512,12.476-11.351,18.851c-1.455-1.363-2.683-2.513-3.906-3.655
		c-0.269,0.092-0.532,0.189-0.789,0.281C227.575,330.762,229.488,335.064,230.326,339.723z M214.103,357.069
		c14.56,0,28.802,0,43.026,0c0-2.903,0-5.642,0-8.294c-14.468,0-28.71,0-43.026,0C214.103,351.611,214.103,354.282,214.103,357.069z
		 M226.462,296.489c-5.764,0-10.617,0-15.416,0c-0.984,1.632-0.507,2.598,0.966,3.594c6.418,4.353,6.424,4.444,12.75-0.257
		C225.552,299.246,225.778,297.901,226.462,296.489z M335.405,244.459c-2.959,0-5.624,0-8.344,0c0,2.879,0,5.611,0,8.337
		c2.897,0,5.617,0,8.344,0C335.405,249.93,335.405,247.265,335.405,244.459z M211.518,309.857
		c-3.808-0.997-5.771-5.979-10.709-3.308c1.772,2.946,3.496,5.813,5.317,8.845C207.936,313.543,209.494,311.941,211.518,309.857z
		 M235.814,306.501c-5.104-2.402-7.09,2.286-10.385,3.497c1.742,1.876,3.319,3.575,5.03,5.428
		C232.3,312.363,233.999,309.527,235.814,306.501z M221.315,339.753c-0.647-2.592-1.216-5.03-1.907-7.427
		c-0.128-0.434-0.758-0.886-1.229-0.996c-0.257-0.062-0.886,0.531-0.99,0.917c-0.672,2.451-1.241,4.933-1.876,7.506
		C217.496,339.753,219.262,339.753,221.315,339.753z M214.928,319.008c1.015,1.638,1.119,4.181,3.771,3.386
		c1.021-0.306,2.53-1.87,2.384-2.549c-0.324-1.491-1.565-2.775-2.531-4.285C217.049,316.99,216.022,317.968,214.928,319.008z"/>
	<path fill-rule="evenodd" clip-rule="evenodd" fill="#FFFFFF" d="M266.133,278.946c0-2.867,0-5.544,0-8.393
		c11.51,0,22.921,0,34.517,0c0,2.732,0,5.477,0,8.393C289.231,278.946,277.819,278.946,266.133,278.946z"/>
	<path fill-rule="evenodd" clip-rule="evenodd" fill="#FFFFFF" d="M300.741,287.926c0,2.866,0,5.544,0,8.398
		c-11.51,0-22.922,0-34.518,0c0-2.745,0-5.483,0-8.398C277.648,287.926,289.061,287.926,300.741,287.926z"/>
	<path fill-rule="evenodd" clip-rule="evenodd" fill="#FFFFFF" d="M266.084,313.635c0-2.843,0-5.453,0-8.289
		c11.527,0,23.001,0,34.614,0c0,2.714,0,5.392,0,8.289C289.201,313.635,277.66,313.635,266.084,313.635z"/>
	<path fill-rule="evenodd" clip-rule="evenodd" fill="#FFFFFF" d="M300.741,253.005c0,3.038,0,5.715,0,8.747
		c-5.831,0-11.571,0-17.311,0c-5.673,0-11.351,0-17.207,0c0-2.91,0-5.654,0-8.747c5.74,0,11.479,0,17.226,0
		C289.115,253.005,294.794,253.005,300.741,253.005z"/>
	<path fill-rule="evenodd" clip-rule="evenodd" fill="#FFFFFF" d="M283.376,322.669c0,2.879,0,5.55,0,8.393c-2.83,0-5.563,0-8.473,0
		c0-2.745,0-5.478,0-8.393C277.643,322.669,280.381,322.669,283.376,322.669z"/>
	<path fill-rule="evenodd" clip-rule="evenodd" fill="#FFFFFF" d="M292.189,331.049c0-2.83,0-5.501,0-8.361c2.794,0,5.526,0,8.454,0
		c0,2.695,0,5.428,0,8.361C297.947,331.049,295.216,331.049,292.189,331.049z"/>
	<path fill-rule="evenodd" clip-rule="evenodd" fill="#FFFFFF" d="M283.339,357.381c0,2.978,0,5.648,0,8.46c-2.86,0-5.593,0-8.472,0
		c0-2.849,0-5.58,0-8.46C277.709,357.381,280.441,357.381,283.339,357.381z"/>
	<path fill-rule="evenodd" clip-rule="evenodd" fill="#FFFFFF" d="M292.281,357.326c2.849,0,5.514,0,8.368,0
		c0,2.812,0,5.551,0,8.466c-2.708,0-5.44,0-8.368,0C292.281,363.084,292.281,360.352,292.281,357.326z"/>
	<path fill-rule="evenodd" clip-rule="evenodd" fill="#FFFFFF" d="M309.623,357.357c2.945,0,5.617,0,8.435,0
		c0,2.854,0,5.586,0,8.478c-2.817,0-5.55,0-8.435,0C309.623,363.011,309.623,360.278,309.623,357.357z"/>
	<path fill-rule="evenodd" clip-rule="evenodd" fill="#FFFFFF" d="M379.018,179.093c0.03,26.375-21.363,47.873-47.702,47.916
		c-26.375,0.03-47.866-21.375-47.903-47.702c-0.036-26.387,21.352-47.867,47.689-47.903
		C357.489,131.367,378.969,152.748,379.018,179.093z M370.271,179.221c0-21.473-17.519-39.041-38.974-39.077
		c-21.484-0.031-39.083,17.457-39.144,38.899c-0.056,21.602,17.524,39.236,39.107,39.211
		C352.716,218.237,370.258,200.676,370.271,179.221z"/>
	<path fill-rule="evenodd" clip-rule="evenodd" fill="#FFFFFF" d="M344.274,200.933c-3.026,0-5.636,0-8.558,0
		c0,2.836,0,5.587,0,8.515c-3.05,0-5.789,0-8.875,0c0-2.512,0.073-5.018-0.049-7.506c-0.037-0.752-0.41-1.876-0.973-2.164
		c-6.589-3.411-8.313-9.046-7.518-16.088c2.781,0,5.525,0,7.812,0c0.861,2.646,1.094,5.624,2.671,7.384
		c1.174,1.314,4.107,1.058,6.681,1.583c0-2.157,0.196-3.777-0.042-5.324c-0.386-2.488-2.079-3.588-4.566-3.784
		c-7.818-0.617-12.665-5.904-12.702-13.753c-0.019-3.973-0.006-7.946-0.006-12.225c2.86,0,5.605,0,8.655,0c0-3.044,0-5.789,0-8.661
		c2.977,0,5.66,0,8.777,0c0,2.445-0.067,4.933,0.043,7.42c0.03,0.77,0.324,1.95,0.861,2.225c6.633,3.368,8.424,8.998,7.647,16.106
		c-2.689,0-5.435,0-8.38,0c-0.771-2.469,0.94-6.082-2.299-7.641c-1.81-0.88-4.113-0.751-6.553-1.137
		c0,1.779-0.043,3.014,0.006,4.248c0.123,2.916,1.596,4.419,4.523,4.694c8.051,0.752,12.806,5.899,12.843,13.918
		C344.28,192.705,344.274,196.666,344.274,200.933z"/>
</g>
</svg>
