<?xml version="1.0" encoding="utf-8"?>
<!-- Generator: Adobe Illustrator 16.0.0, SVG Export Plug-In . SVG Version: 6.00 Build 0)  -->
<!DOCTYPE svg PUBLIC "-//W3C//DTD SVG 1.1//EN" "http://www.w3.org/Graphics/SVG/1.1/DTD/svg11.dtd">
<svg version="1.1" id="Layer_1" xmlns="http://www.w3.org/2000/svg" xmlns:xlink="http://www.w3.org/1999/xlink" x="0px" y="0px"
	 width="512px" height="512px" viewBox="0 0 512 512" enable-background="new 0 0 512 512" xml:space="preserve">
<g>
	<g>
		<linearGradient id="SVGID_1_" gradientUnits="userSpaceOnUse" x1="100.5327" y1="100.6938" x2="416.6059" y2="416.767">
			<stop  offset="0" style="stop-color:#DC00FF"/>
			<stop  offset="1" style="stop-color:#9A00FF"/>
		</linearGradient>
		<path fill="url(#SVGID_1_)" d="M481.168,256.33c0,124.261-100.733,225-225,225s-225-100.739-225-225
			c0-124.267,100.733-225,225-225S481.168,132.063,481.168,256.33z"/>
		<linearGradient id="SVGID_2_" gradientUnits="userSpaceOnUse" x1="150.2217" y1="72.8257" x2="362.1147" y2="439.8353">
			<stop  offset="0" style="stop-color:#9A00FF"/>
			<stop  offset="1" style="stop-color:#DC00FF"/>
		</linearGradient>
		<circle fill="url(#SVGID_2_)" cx="256.168" cy="256.33" r="211.858"/>
	</g>
</g>
<g>
	<path fill-rule="evenodd" clip-rule="evenodd" fill="#FFFFFF" d="M263.375,302.736c0.177,4.449,0.293,8.618,0.525,12.774
		c0.801,14.169,2.139,28.252,6.345,41.858c2.005,6.522,4.633,12.738,9.419,17.695c1.394,1.455,3.074,2.623,4.621,3.925
		c0.171-0.092,0.354-0.189,0.525-0.281c0.043-0.733,0.123-1.467,0.123-2.207c0.006-13.447-0.019-26.895,0.024-40.336
		c0.006-1.234-0.361-1.791-1.528-2.237c-2.616-1.009-4.064-3.068-4.139-5.984c-0.061-2.285-0.104-4.565-0.024-6.852
		c0.153-3.924,2.781-6.59,6.608-6.65c4.633-0.067,9.272-0.067,13.911-0.006c4.157,0.061,6.767,2.763,6.853,7.011
		c0.037,2.078,0.024,4.175-0.013,6.265c-0.042,3.087-1.559,5.092-4.26,6.363c-0.587,0.275-1.327,1.101-1.327,1.663
		c-0.079,14.107-0.055,28.209-0.042,42.298c0,0.184,0.079,0.367,0.201,0.868c0.819-0.471,1.59-0.837,2.262-1.339
		c5.067-3.789,8.014-9.168,10.336-14.963c3.552-8.882,5.483-18.222,6.449-27.708c0.99-9.865,1.461-19.773,2.163-29.664
		c0.05-0.764,0.104-1.534,0.166-2.512c2.689,0.171,5.207,0.3,7.731,0.495c5.948,0.446,11.901,0.917,17.849,1.412
		c13.631,1.112,24.462,12.634,24.713,26.662c0.214,11.938,0.086,23.888,0.073,35.831c-0.006,3.233-1.583,5.722-3.875,7.775
		c-3.918,3.503-8.637,5.416-13.49,7.035c-10.514,3.515-21.394,5.08-32.348,6.144c-18.245,1.785-36.528,1.852-54.804,0.379
		c-13.246-1.076-26.412-2.763-39.108-7.078c-4.352-1.479-8.558-3.313-12.164-6.357c-2.818-2.384-4.248-5.306-4.205-9.168
		c0.116-10.832,0.012-21.682,0.03-32.507c0.025-16.296,10.795-27.922,26.577-28.875c6.718-0.397,13.423-1.021,20.141-1.54
		C260.826,302.84,261.963,302.81,263.375,302.736z"/>
	<path fill-rule="evenodd" clip-rule="evenodd" fill="#FFFFFF" d="M208.002,300.229c-2.127,3.136-4.004,5.917-5.88,8.687
		c-2.769,4.07-5.581,8.099-8.27,12.212c-0.795,1.235-1.589,1.534-2.977,1.26c-20.911-4.126-38.875-13.967-53.539-29.811
		c-19.01-20.532-28.167-45.189-27.549-73.441c0.892-41.101,26.51-77.854,63.918-92.366c38.087-14.761,80.385-4.566,108.148,26.125
		c2.188,2.415,4.181,5.03,6.485,7.818c-1.339,0.55-2.359,1.015-3.398,1.394c-5.855,2.158-11.748,4.229-17.562,6.491
		c-1.718,0.672-2.75,0.458-4.102-0.911c-20.55-20.672-45.024-28.105-72.939-21.106c-38.46,9.646-62.69,48.197-56.271,88.35
		c5.794,36.278,36.277,63.881,71.84,65.08C206.449,300.04,206.987,300.126,208.002,300.229z"/>
	<path fill-rule="evenodd" clip-rule="evenodd" fill="#FFFFFF" d="M341.571,246.715c-1.479,23.276-13.123,42.5-35.764,54.31
		c-10.52,5.501-20.808,3.655-30.446-2.5c-17.672-11.271-28.631-27.384-30.557-48.833c-1.76-19.639,3.735-37.317,17.549-51.479
		c18.503-18.949,45.752-17.867,63.338,2.243C336.51,212.821,341.089,227.638,341.571,246.715z M254.988,243.787
		c1.259,20.361,10.159,35.581,26.803,45.936c7.164,4.449,14.523,4.456,21.907,0.244c8.381-4.792,14.774-11.619,19.7-19.981
		c4.707-7.983,7.201-16.626,7.28-26.009c0.019-1.791-0.422-2.567-2.292-2.592c-2.53-0.036-5.067-0.312-7.592-0.581
		c-11.412-1.198-22.635-3.294-33.337-7.714c-5.196-2.158-9.927-4.951-13.233-9.847c-0.716-1.045-1.682-1.956-2.653-2.787
		c-3.032-2.573-5.599-2.421-8.044,0.752c-2.28,2.952-4.291,6.137-6.369,9.267c-0.379,0.562-0.617,1.302-0.709,1.992
		C255.917,236.33,255.447,240.211,254.988,243.787z"/>
	<path fill-rule="evenodd" clip-rule="evenodd" fill="#FFFFFF" d="M164.096,259.014c2.861-2.879,5.764-5.771,8.637-8.704
		c8.222-8.436,16.461-16.853,24.609-25.367c0.746-0.77,1.265-2.121,1.277-3.209c0.079-17.689,0.049-35.373,0.049-53.056
		c0-2.854,0.006-2.861,2.775-2.861c5.844-0.012,11.681,0.031,17.531-0.042c1.503-0.031,1.919,0.458,1.919,1.999
		c-0.049,20.563-0.012,41.112-0.073,61.669c0,0.972-0.482,2.194-1.137,2.873c-12.481,12.928-25.037,25.776-37.561,38.655
		c-0.66,0.679-1.192,1.283-2.231,0.482c-5.074-3.918-10.189-7.774-15.293-11.662C164.457,259.686,164.389,259.484,164.096,259.014z"
		/>
</g>
</svg>
