<?xml version="1.0" encoding="utf-8"?>
<!-- Generator: Adobe Illustrator 16.0.0, SVG Export Plug-In . SVG Version: 6.00 Build 0)  -->
<!DOCTYPE svg PUBLIC "-//W3C//DTD SVG 1.1//EN" "http://www.w3.org/Graphics/SVG/1.1/DTD/svg11.dtd">
<svg version="1.1" id="Layer_1" xmlns="http://www.w3.org/2000/svg" xmlns:xlink="http://www.w3.org/1999/xlink" x="0px" y="0px"
	 width="512px" height="512px" viewBox="0 0 512 512" enable-background="new 0 0 512 512" xml:space="preserve">
<g>
	<g>
		<linearGradient id="SVGID_1_" gradientUnits="userSpaceOnUse" x1="101.1733" y1="100.6938" x2="417.2465" y2="416.767">
			<stop  offset="0" style="stop-color:#DC00FF"/>
			<stop  offset="1" style="stop-color:#9A00FF"/>
		</linearGradient>
		<path fill="url(#SVGID_1_)" d="M481.809,256.33c0,124.261-100.733,225-225,225s-225-100.739-225-225
			c0-124.267,100.733-225,225-225S481.809,132.063,481.809,256.33z"/>
		<linearGradient id="SVGID_2_" gradientUnits="userSpaceOnUse" x1="150.8623" y1="72.8247" x2="362.7559" y2="439.8351">
			<stop  offset="0" style="stop-color:#9A00FF"/>
			<stop  offset="1" style="stop-color:#DC00FF"/>
		</linearGradient>
		<circle fill="url(#SVGID_2_)" cx="256.809" cy="256.33" r="211.858"/>
	</g>
</g>
<g>
	<path fill-rule="evenodd" clip-rule="evenodd" fill="#FFFFFF" d="M124.553,174.203c1.729-11.327,3.38-22.665,5.281-33.967
		c0.263-1.559,1.773-2.91,2.696-4.352c1.198,1.437,3.191,2.75,3.459,4.346c1.797,10.972,3.24,22.005,6.162,33.105
		c1.058-7.219,2.115-14.432,3.154-21.65c0.599-4.205,0.954-8.459,1.864-12.598c0.281-1.29,2.011-2.262,3.075-3.38
		c1.021,1.198,2.873,2.366,2.916,3.594c0.611,17.213,6.094,33.282,10.618,49.67c3.533,12.799-1.284,24.224-12.042,31.95
		c-5.293,3.802-6.693,7.696-6.186,13.759c2.958,35.385,5.672,70.788,8.319,106.204c0.361,4.816,0.825,9.938-0.36,14.505
		c-2.646,10.208-13.582,16.382-23.906,14.432c-10.202-1.926-17.696-11.002-17.023-21.522c1.608-25.464,3.502-50.917,5.336-76.362
		c0.996-13.784,2.28-27.556,3.001-41.345c0.11-2.09-1.54-5.134-3.319-6.333c-15.043-10.141-20.165-23.606-14.102-40.813
		c4.78-13.551,7.848-27.304,8.723-41.632c0.11-1.864,1.98-3.625,3.038-5.428c1.204,1.693,3.179,3.258,3.49,5.092
		c1.828,10.85,3.264,21.754,4.835,32.647C123.905,174.148,124.229,174.172,124.553,174.203z M150.879,169.27
		c-0.385,0-0.776-0.006-1.161-0.006c-1.37,7.934-2.574,15.898-4.242,23.771c-0.354,1.669-2.408,2.977-3.673,4.456
		c-1.424-1.345-3.228-2.469-4.163-4.095c-0.904-1.571-1.008-3.643-1.302-5.526c-1.021-6.442-1.968-12.897-2.946-19.352
		c-2.347,7.756-3.246,15.52-4.853,23.142c-0.458,2.188-2.953,3.955-4.511,5.917c-1.424-1.883-3.643-3.588-4.114-5.685
		c-1.656-7.402-2.72-14.945-4.321-24.31c-2.519,7.482-4.456,13.246-6.388,19.01c-4.768,14.181,0.214,26.583,13.71,32.806
		c3.723,1.718,5.049,3.68,4.731,7.677c-1.167,14.401-2.066,28.833-3.087,43.246c-1.833,25.868-3.765,51.729-5.483,77.604
		c-0.611,9.156,5.52,15.807,14.193,15.99c8.784,0.189,14.719-5.875,14.45-15.489c-0.269-9.768-1.008-19.529-1.748-29.272
		c-2.28-30.098-4.529-60.196-7.097-90.263c-0.477-5.648,0.905-8.753,6.308-11.284c9.866-4.621,15.22-16.21,12.665-26.668
		C156.051,183.585,153.245,176.489,150.879,169.27z"/>
	<path fill-rule="evenodd" clip-rule="evenodd" fill="#FFFFFF" d="M255.898,341.244c-48.337,0.318-88.001-39.578-88.46-88.441
		c-0.47-51.167,43.729-88.576,87.219-89.169c51.632-0.703,90.604,43.833,90.36,87.317
		C344.73,301.581,306.46,340.914,255.898,341.244z M338.703,252.589c0.232-45.807-36.717-83.576-83.215-82.708
		c-48.833,0.911-81.082,38.179-81.724,81.595c-0.672,45.972,36.192,83.381,81.614,83.723
		C301.625,335.535,338.465,299.014,338.703,252.589z"/>
	<path fill-rule="evenodd" clip-rule="evenodd" fill="#FFFFFF" d="M412.615,189.301c-0.538,16.907-5.079,27.035-15.647,33.124
		c-4.769,2.745-4.994,5.538-4.585,10.134c3.447,38.527,6.773,77.066,9.848,115.63c0.813,10.189-4.145,17.029-13.57,20.623
		c-8.588,3.276-17.677,1.217-23.19-6.821c-2.769-4.047-4.657-9.841-4.364-14.682c1.969-32.458,4.634-64.878,7.072-97.311
		c0.208-2.75,0.135-5.581,0.728-8.246c2.225-9.933,0.966-17.317-8.882-23.833c-9.334-6.167-11.876-17.616-10.116-28.68
		c1.932-12.097,4.328-24.249,8.014-35.905c3.931-12.42,12.219-17.354,24.578-17.14c10.092,0.171,18.698,6.455,22.023,18.069
		C408.251,167.253,410.659,180.627,412.615,189.301z M367.561,341.146c0.043,0.006,0.079,0.013,0.116,0.013
		c-0.159,1.907-0.337,3.813-0.471,5.721c-0.697,10.27,4.987,16.913,14.419,16.889c9.64-0.024,15.195-6.32,14.34-16.827
		c-1.992-24.572-4.224-49.126-6.308-73.686c-1.277-15.031-2.586-30.067-3.588-45.123c-0.232-3.497-1.241-7.378,4.04-9.389
		c10.69-4.065,16.705-12.616,15.44-23.827c-1.534-13.6-4.597-27.09-7.959-40.385c-1.943-7.689-8.196-11.632-16.253-12.042
		c-8.074-0.421-13.099,3.808-16.351,10.819c-6.187,13.35-8.606,27.463-8.747,42.072c-0.092,10.165,4.492,18.013,13.417,22.121
		c6.167,2.836,7.022,6.455,6.54,12.396C373.153,266.966,370.402,304.063,367.561,341.146z"/>
	<path fill-rule="evenodd" clip-rule="evenodd" fill="#FFFFFF" d="M182.236,252.785c-0.006-40.446,33.472-74.896,73.344-74.511
		c41.986,0.403,74.981,31.595,74.779,74.156c-0.201,43.191-31.778,74.157-74.498,74.249
		C213.618,326.776,182.432,293.041,182.236,252.785z M223.227,290.383c-4.126,4.505-8.05,8.783-11.968,13.068
		c12.244,10.507,29.682,17.225,41.852,16.063c0-4.353-0.269-8.808,0.153-13.209c0.135-1.431,2.042-2.695,3.142-4.04
		c0.966,1.394,2.641,2.726,2.757,4.192c0.373,4.396,0.135,8.845,0.135,13.894c16.454-1.43,30.287-6.797,42.53-17.225
		c-3.417-3.637-6.632-6.742-9.426-10.201c-0.904-1.119-0.703-3.148-1.009-4.762c1.791,0.146,4.077-0.354,5.275,0.563
		c3.612,2.769,6.81,6.1,10.269,9.303c10.44-12.311,15.478-26.125,17.274-42.237c-3.809,0-7.005,0.392-10.062-0.116
		c-2.774-0.452-5.385-1.889-8.063-2.891c2.781-1.173,5.471-2.824,8.362-3.392c2.995-0.593,6.191-0.128,9.737-0.128
		c-1.669-16.302-6.785-29.97-17.029-41.852c-4.683,4.315-8.869,8.172-12.952,11.938c-4.383-1.705-4.536-3.9-1.785-6.797
		c3.203-3.362,6.339-6.797,9.713-10.434c-12.506-10.428-26.229-16.43-42.818-17.311c0,5.293,0.214,9.75-0.116,14.168
		c-0.116,1.553-1.583,3.001-2.427,4.499c-1.234-1.418-3.307-2.708-3.533-4.267c-0.654-4.572-0.568-9.248-0.77-13.826
		c-30.507-2.513-66.363,33.655-63.007,63.991c3.894,0,7.934-0.379,11.858,0.153c2.042,0.275,3.857,2.152,5.776,3.301
		c-1.852,0.972-3.643,2.573-5.581,2.775c-4.138,0.428-8.35,0.128-13.013,0.128c1.191,16.785,6.968,30.507,17.426,42.69
		c2.849-2.702,5.306-5.361,8.111-7.58C216.576,288.842,219.046,283.592,223.227,290.383z"/>
	<path fill-rule="evenodd" clip-rule="evenodd" fill="#FFFFFF" d="M283.538,229.405c-6.18,6.399-12.065,13.117-18.643,19.083
		c-4.346,3.949-5.966,8.118-5.617,13.875c0.434,7.194,0.177,14.438-0.159,21.65c-0.079,1.748-1.65,3.429-2.53,5.141
		c-1.156-1.706-3.209-3.356-3.313-5.123c-0.464-7.83-0.685-15.721-0.354-23.551c0.214-4.92-1.473-8.282-4.927-11.62
		c-9.773-9.443-19.224-19.217-28.777-28.887c-1.491-1.51-3.129-2.983-4.181-4.78c-0.844-1.431-0.905-3.332-1.314-5.019
		c1.822,0.41,4.211,0.226,5.379,1.333c10.936,10.367,21.663,20.959,32.463,31.479c1.479,1.443,3.001,2.849,6.131,5.813
		c6.436-7.151,12.549-14.205,19.04-20.886c1.186-1.216,3.931-0.911,5.96-1.308C282.97,227.534,283.257,228.469,283.538,229.405z"/>
</g>
</svg>
