<?xml version="1.0" encoding="utf-8"?>
<!-- Generator: Adobe Illustrator 16.0.0, SVG Export Plug-In . SVG Version: 6.00 Build 0)  -->
<!DOCTYPE svg PUBLIC "-//W3C//DTD SVG 1.1//EN" "http://www.w3.org/Graphics/SVG/1.1/DTD/svg11.dtd">
<svg version="1.1" id="Layer_1" xmlns="http://www.w3.org/2000/svg" xmlns:xlink="http://www.w3.org/1999/xlink" x="0px" y="0px"
	 width="512px" height="512px" viewBox="0 0 512 512" enable-background="new 0 0 512 512" xml:space="preserve">
<g>
	<g>
		<linearGradient id="SVGID_1_" gradientUnits="userSpaceOnUse" x1="100.5176" y1="100.6934" x2="416.5914" y2="416.7672">
			<stop  offset="0" style="stop-color:#FFA300"/>
			<stop  offset="1" style="stop-color:#FF6400"/>
		</linearGradient>
		<path fill="url(#SVGID_1_)" d="M481.153,256.33c0,124.261-100.733,225-225,225s-225-100.739-225-225
			c0-124.267,100.733-225,225-225S481.153,132.063,481.153,256.33z"/>
		<linearGradient id="SVGID_2_" gradientUnits="userSpaceOnUse" x1="150.207" y1="72.8252" x2="362.1001" y2="439.8348">
			<stop  offset="0" style="stop-color:#FF6400"/>
			<stop  offset="1" style="stop-color:#FFA300"/>
		</linearGradient>
		<circle fill="url(#SVGID_2_)" cx="256.153" cy="256.33" r="211.858"/>
	</g>
</g>
<g>
	<path fill-rule="evenodd" clip-rule="evenodd" fill="#FFFFFF" d="M278.989,332.521c-3.558-11.369,3.239-24.309,14.688-28.373
		c3.404-1.223,6.95-1.742,10.563-1.187c1.351,0.227,2.365-0.128,3.466-0.972c15.452-11.913,29.878-24.878,42.543-39.768
		c3.819-4.518,7.304-9.353,10.996-13.998c0.886-1.106,1.088-2.262,0.96-3.705c-1.504-15.703,12.664-28.472,28.117-25.385
		c0.501,0.11,1.008,0.324,1.834,0.563c-2.121,2.157-4.047,4.101-6.016,6.051c-2.769,2.793-5.599,5.525-8.374,8.331
		c-1.852,1.858-1.852,3.454,0,5.349c3.576,3.625,7.177,7.225,10.795,10.782c2.151,2.139,3.625,2.139,5.765,0
		c3.911-3.875,7.793-7.793,11.674-11.687c0.728-0.733,1.382-1.516,2.079-2.28c0.226,0.049,0.464,0.091,0.69,0.122
		c0.227,2.231,0.69,4.462,0.58,6.657c-0.745,13.991-11.479,23.6-25.477,22.866c-1.632-0.092-2.83,0.306-4.138,1.278
		c-17.909,13.557-33.539,29.486-47.935,46.662c-1.742,2.097-3.392,4.272-5.214,6.29c-1.124,1.283-1.516,2.549-1.381,4.272
		c0.837,9.859-4.065,18.661-12.873,23.142c-5.336,2.727-10.96,3.239-17.121,1.638c0.605-0.653,0.99-1.118,1.424-1.546
		c4.236-4.255,8.484-8.49,12.721-12.738c2.114-2.097,2.084-3.729-0.056-5.887c-3.185-3.215-6.412-6.424-9.608-9.646
		c-3.203-3.239-4.278-3.239-7.438-0.055c-3.747,3.783-7.513,7.567-11.26,11.339C280.396,331.232,279.778,331.795,278.989,332.521z"
		/>
	<path fill-rule="evenodd" clip-rule="evenodd" fill="#FFFFFF" d="M382.357,348.108c-4.083-4.119-8.166-8.245-12.097-12.194
		c-4.016,1.553-7.781,2.978-11.51,4.536c-0.392,0.171-0.709,1.032-0.709,1.577c-0.036,4.901-0.055,9.811-0.019,14.725
		c0.019,1.155-0.184,1.76-1.559,1.742c-9.138-0.043-18.295-0.024-27.457-0.024c-0.342,0-0.709-0.092-1.253-0.153
		c0-2.506,0-4.963,0-7.433c0-2.849,0.049-5.696-0.043-8.539c-0.036-0.831-0.538-1.632-0.819-2.438c-0.244,0-0.488,0-0.733,0
		c0.397-0.844,0.838-1.669,1.198-2.531c1.688-4.102,2.384-8.355,2.213-12.793c-0.135-2.903,2.188-4.707,4.945-4.028
		c18.275,4.608,36.974-6.485,41.583-24.56c1.632-6.345,1.467-12.586-0.337-18.809c-0.299-0.984-0.092-1.553,0.679-2.133
		c1.889-1.425,3.704-2.903,5.636-4.291c0.482-0.336,1.223-0.428,1.858-0.501c3.325-0.429,6.687-0.789,10.012-1.296
		c0.984-0.165,1.602-0.073,1.712,0.935c0.208,1.969,1.351,2.269,3.111,2.237c5.019-0.122,10.036-0.043,15.36-0.043
		c0,3.521,0,6.896,0,10.264c-0.019,5.996-0.079,12.011,0,18.001c0.037,1.559-0.336,2.097-2.005,2.078
		c-4.773-0.122-9.572-0.019-14.352-0.073c-1.07,0-1.553,0.342-1.969,1.363c-1.18,3.172-2.494,6.302-3.875,9.389
		c-0.428,0.941-0.354,1.448,0.379,2.151c3.46,3.38,6.87,6.821,10.3,10.251c0.434,0.409,0.801,0.861,1.143,1.222
		C396.6,333.873,389.533,340.951,382.357,348.108z"/>
	<path fill-rule="evenodd" clip-rule="evenodd" fill="#FFFFFF" d="M271.74,302.363c0-10.208,0-20.116,0-30.27
		c0.77,0,1.405,0,2.041,0c4.737,0,9.456-0.043,14.182,0.019c1.033,0,1.442-0.336,1.821-1.29c1.198-3.172,2.47-6.313,3.869-9.389
		c0.514-1.105,0.36-1.687-0.465-2.476c-3.856-3.667-7.677-7.377-11.54-11.124c7.384-7.359,14.462-14.407,21.956-21.883
		c1.724,1.876,3.423,3.82,5.208,5.697c1.986,2.066,3.973,4.065,6.069,6.015c0.397,0.373,1.314,0.581,1.804,0.391
		c3.386-1.29,6.735-2.677,10.036-4.175c0.501-0.226,0.972-1.161,0.99-1.76c0.079-4.609,0.043-9.218,0.043-13.827
		c0-0.654,0-1.308,0-2.17c0.685-0.061,1.271-0.153,1.852-0.153c8.839-0.018,17.684,0.037,26.522-0.037
		c1.577-0.018,1.95,0.526,1.913,1.987c-0.073,4.664-0.036,9.321,0,13.991c0,0.654,0.416,1.29,0.581,1.95
		c0.116,0.416,0.171,0.856,0.128,1.29c-0.257,3.111-0.544,6.241-0.898,9.346c-0.073,0.734-0.317,1.541-0.728,2.14
		c-1.424,2.042-2.982,3.973-4.4,6.015c-0.697,0.972-1.425,1.155-2.604,0.929c-13.771-2.598-25.306,1.485-34.193,12.31
		c-6.57,8.038-8.631,17.445-6.852,27.672c0.226,1.326-0.11,2.041-1.106,2.903c-1.815,1.607-3.692,2.322-6.217,2.133
		c-4.627-0.336-8.973,0.99-13.099,3.13c-0.477,0.244-0.99,0.599-1.474,0.617C282.101,302.388,277.003,302.363,271.74,302.363z"/>
</g>
<g>
	<path fill-rule="evenodd" clip-rule="evenodd" fill="#FFFFFF" d="M288.916,305.773c3.001-1.051,6.052-1.607,9.181-1.497
		c0.862-1.614,1.724-3.222,2.604-4.829c-0.898,0.221-1.853,0.336-2.922,0.257c-5.08-0.373-9.854,1.088-14.364,3.411
		c-0.526,0.281-1.088,0.672-1.614,0.69c-5.586,0.043-11.167,0.024-16.932,0.024c0-11.186,0-22.048,0-33.197c0.819,0,1.535,0,2.244,0
		c5.189,0,10.379-0.036,15.55,0.019c1.118,0,1.571-0.36,1.986-1.424c1.314-3.466,2.714-6.913,4.267-10.281
		c0.416-0.941,0.416-1.522-0.037-2.14c-29.785,0.019-59.565,0.037-89.333,0c-1.485,0-2.286,0.392-3.02,1.688
		c-10.96,19.027-21.956,38.044-32.934,57.06c-0.33,0.581-0.611,1.161-1.045,1.926c0.88,0.061,1.516,0.092,2.17,0.092
		c36.797,0,73.625,0,110.434,0.042C278.152,312.296,282.92,307.913,288.916,305.773z"/>
	<path fill-rule="evenodd" clip-rule="evenodd" fill="#FFFFFF" d="M207.938,211.134c-10.789-18.576-21.522-37.182-32.28-55.782
		c-0.281-0.489-0.636-0.941-1.119-1.626c-20.832,36.039-41.534,71.797-62.231,107.574c0,1.088,0,2.176,0,3.245
		c0.409,0.752,0.819,1.517,1.234,2.286c8.393,15.526,16.785,31.039,25.141,46.583c1.271,2.348,2.904,4.065,5.709,4.145
		c2.904,0.092,4.67-1.577,6.052-3.973c19.126-33.136,38.258-66.253,57.438-99.358C208.537,213.103,208.629,212.32,207.938,211.134z"
		/>
	<path fill-rule="evenodd" clip-rule="evenodd" fill="#FFFFFF" d="M297.18,222.656c-16.051-27.744-32.145-55.507-48.203-83.264
		c-1.571-2.738-3.686-4.01-6.87-3.992c-17.329,0.055-34.658,0.019-51.987,0.037c-6.253,0-8.967,4.682-5.843,10.098
		c18.771,32.464,37.542,64.945,56.271,97.464c0.789,1.369,1.65,1.785,3.173,1.785c10.917-0.043,21.834-0.019,32.757-0.019
		c-0.263-0.245-0.502-0.495-0.746-0.733C282.963,236.837,289.925,229.888,297.18,222.656z"/>
</g>
</svg>
