<?xml version="1.0" encoding="utf-8"?>
<!-- Generator: Adobe Illustrator 16.0.0, SVG Export Plug-In . SVG Version: 6.00 Build 0)  -->
<!DOCTYPE svg PUBLIC "-//W3C//DTD SVG 1.1//EN" "http://www.w3.org/Graphics/SVG/1.1/DTD/svg11.dtd">
<svg version="1.1" id="Layer_1" xmlns="http://www.w3.org/2000/svg" xmlns:xlink="http://www.w3.org/1999/xlink" x="0px" y="0px"
	 width="512px" height="512px" viewBox="0 0 512 512" enable-background="new 0 0 512 512" xml:space="preserve">
<g>
	<g>
		<linearGradient id="SVGID_1_" gradientUnits="userSpaceOnUse" x1="101.2378" y1="100.6938" x2="417.3109" y2="416.767">
			<stop  offset="0" style="stop-color:#DC00FF"/>
			<stop  offset="1" style="stop-color:#9A00FF"/>
		</linearGradient>
		<path fill="url(#SVGID_1_)" d="M481.873,256.33c0,124.261-100.733,225-225,225s-225-100.739-225-225
			c0-124.267,100.733-225,225-225S481.873,132.063,481.873,256.33z"/>
		<linearGradient id="SVGID_2_" gradientUnits="userSpaceOnUse" x1="150.9268" y1="72.8252" x2="362.8198" y2="439.8348">
			<stop  offset="0" style="stop-color:#9A00FF"/>
			<stop  offset="1" style="stop-color:#DC00FF"/>
		</linearGradient>
		<circle fill="url(#SVGID_2_)" cx="256.873" cy="256.33" r="211.858"/>
	</g>
</g>
<g>
	<path fill="#FFFFFF" d="M186.531,294.551c-1.571,0.422-2.861,0.771-4.163,1.113c-0.196,0.049-0.41,0.006-0.862,0.006
		c-0.306-0.88-0.379-2.035-0.997-2.689c-0.837-0.874-2.243-2.048-3.117-1.846c-1.088,0.244-2.048,1.662-2.745,2.774
		c-0.379,0.605-0.177,1.62-0.098,2.439c0.232,2.671-0.654,4.878-1.901,7.273c-1.479,2.843-2.671,6.198-2.732,9.358
		c-0.269,15.312-0.293,30.63,0.019,45.941c0.061,3.337,1.858,6.645,2.842,9.97c0.6,2.011,1.62,4.016,1.675,6.039
		c0.208,7.139,0.134,14.284,0.061,21.424c-0.061,6.834-3.191,11.431-8.961,13.454c-6.871,2.401-14.475-1.517-16.302-8.613
		c-0.593-2.268-0.679-4.713-0.679-7.072c-0.03-59.505-0.024-119.01-0.024-178.514c0-1.345,0.263-2.788-0.135-4.01
		c-0.354-1.07-1.467-1.895-2.243-2.824c-0.874,0.966-1.907,1.834-2.542,2.922c-0.367,0.629-0.092,1.626-0.092,2.451
		c-0.153,25.874-0.288,51.749-0.453,77.616c-0.03,5.728-2.885,9.793-7.665,11.027c-7.286,1.877-13.82-3.185-13.795-10.893
		c0.049-14.694,0.232-29.389,0.342-44.083c0.092-11.583,0.171-23.172,0.238-34.768c0.104-17.048,10.77-27.696,27.787-27.702
		c5.483,0,10.972,0.067,16.455-0.024c2.084-0.037,2.952,0.819,3.233,2.818c0.538,3.68,1.326,7.329,1.876,11.008
		c0.293,1.913,1.235,2.628,3.129,2.573c3.099-0.098,6.21-0.073,9.31-0.012c1.705,0.024,2.628-0.489,2.909-2.372
		c0.581-3.888,1.534-7.708,2.115-11.595c0.275-1.858,1.125-2.421,2.854-2.408c5.489,0.055,10.978-0.165,16.455,0.079
		c14.371,0.636,24.835,11.687,24.915,26.137c0.141,23.802,0.293,47.604,0.293,71.406c-0.006,3.068,0.77,4.175,3.979,4.083
		c6.088-0.178,8.014,1.926,8.044,7.946c0.013,3.307,0.062,6.626-0.012,9.933c-0.043,2.14,0.886,2.965,2.982,2.91
		c3.105-0.086,6.21-0.074,9.31,0.012c3.447,0.098,5.214,1.754,5.226,5.171c0.067,15.318,0.067,30.63,0.013,45.947
		c-0.019,3.576-1.815,5.288-5.428,5.294c-23.081,0.03-46.162,0.03-69.236,0c-3.722-0.006-5.525-1.791-5.538-5.557
		c-0.049-15.109-0.049-30.22,0-45.324c0.012-3.808,1.724-5.445,5.532-5.537c2.793-0.073,5.605-0.178,8.38,0.012
		c2.94,0.208,3.826-1.033,3.673-3.814c-0.177-3.3-0.085-6.613-0.019-9.926c0.086-4.811,2.225-7.066,7.06-7.104
		c5.067-0.042,4.762,0.178,4.75-5.055c-0.073-22.354-0.122-44.707-0.245-67.054c-0.012-2.42,0.905-6.137-2.836-6.063
		c-3.723,0.067-2.659,3.79-2.665,6.186c-0.067,18.319-0.074,36.639,0.006,54.957c0.006,2.336-0.428,3.417-3.086,3.771
		c-8.869,1.192-15.434,8.295-16.437,17.28C186.861,292.149,186.702,293.268,186.531,294.551z M191.164,248.231
		c-1.534-13.937-2.983-27.292-4.584-40.629c-0.085-0.697-1.498-1.706-2.335-1.754c-3.294-0.202-6.632-0.25-9.915,0.031
		c-0.893,0.079-2.298,1.455-2.408,2.359c-1.589,13.02-3.032,26.069-4.389,39.12c-0.104,0.972,0.385,2.28,1.069,3.013
		c2.885,3.099,5.984,5.997,8.918,9.053c1.284,1.339,2.25,1.418,3.57,0.03c2.903-3.086,5.972-6.021,8.894-9.095
		C190.632,249.674,190.932,248.653,191.164,248.231z M222.662,307.797c2.677,0,5.36-0.049,8.038,0.019
		c1.968,0.055,2.892-0.739,2.738-2.744c-0.061-0.819,0.098-1.663-0.036-2.464c-0.165-1.039-0.532-2.041-0.813-3.05
		c-0.886,0.397-1.87,0.66-2.646,1.216c-3.985,2.873-8.594,3.234-12.469,0.954c-1.357-0.789-2.8-1.442-4.193-2.158
		c-0.287,1.749-0.605,3.484-0.832,5.232c-0.299,2.341,0.923,3.111,3.105,3.014C217.918,307.736,220.29,307.803,222.662,307.797z"/>
	<path fill="#FFFFFF" d="M233.028,181.232c5.024,0,10.049-0.055,15.073,0.018c6.663,0.092,5.031-1.039,6.461,5.416
		c0.611,2.727,1.155,5.477,1.442,8.24c0.245,2.427,1.412,3.124,3.68,2.977c2.573-0.159,5.189-0.238,7.751,0.018
		c2.769,0.269,3.588-1.021,3.93-3.447c0.508-3.686,1.198-7.354,2.029-10.984c0.189-0.843,1.241-2.127,1.901-2.127
		c6.712-0.018,13.527-0.489,20.122,0.483c11.712,1.729,19.694,11.357,19.823,23.136c0.274,25.043,0.385,50.079,0.495,75.122
		c0.03,6.583-4.114,10.972-10.062,10.99c-5.929,0.019-10.128-4.401-10.165-10.917c-0.128-23.899-0.184-47.806-0.324-71.705
		c-0.012-1.999,0.856-5.092-2.426-5.012c-3.075,0.08-2.085,3.075-2.085,4.951c0.013,56.284,0.073,112.573,0.122,168.869
		c0.007,10.416-9.688,16.602-18.318,11.699c-4.34-2.469-7.091-8.288-5.99-12.995c0.183-0.775,0.953-1.534,1.644-2.047
		c5.318-3.906,7.843-9.145,7.83-15.728c-0.036-14.792,0.024-29.591-0.03-44.389c-0.037-9.518-5.195-16.144-14.426-18.387
		c-1.938-0.465-2.39-1.234-2.493-3.068c-0.435-7.396-3.992-12.946-10.526-16.437c-1.718-0.917-2.274-1.95-2.268-3.845
		c0.006-17.598-0.367-35.189-0.037-52.769c0.263-14.224-2.096-27.225-13.533-37.151C232.777,181.837,232.9,181.538,233.028,181.232z
		"/>
	<path fill="#FFFFFF" d="M155.412,154.784c-0.073-12.714,9.603-22.561,22.207-22.616c12.726-0.061,22.519,9.542,22.647,22.207
		c0.128,12.738-9.75,22.818-22.39,22.842C165.333,177.229,155.479,167.394,155.412,154.784z"/>
	<path fill="#FFFFFF" d="M263.658,131.905c11.821-0.025,21.118,9.229,21.137,21.027c0.019,11.767-9.31,21.173-21.027,21.198
		c-11.638,0.012-21.18-9.468-21.216-21.082C242.521,141.367,251.934,131.929,263.658,131.905z"/>
	<path fill="#FFFFFF" d="M358.077,132.369c0,0.856,0,1.724,0,2.659c-1.485,0.134-2.8,0.263-4.493,0.416
		c-0.146,3.447-0.348,6.803-0.439,10.153c-0.208,7.506-5.171,19.762-14.377,22.378c-5.794,1.644-11.949-0.116-15.623-6.027
		c-2.763-4.45-4.438-9.688-5.893-14.78c-0.776-2.702-0.306-5.88,0.073-8.771c0.373-2.885-0.886-3.447-3.276-3.215
		c-0.391,0.037-0.807-0.098-1.289-0.165c-0.734-1.821-0.618-2.977,1.778-2.977c14.169,0.037,28.337,0.031,42.5,0.049
		C357.338,132.088,357.631,132.247,358.077,132.369z"/>
	<path fill="#FFFFFF" d="M180.968,376.788c8.771,0,17.176,0,25.746,0c0,8.203,0.434,15.733-0.141,23.191
		c-0.477,6.289-6.785,10.959-13.136,10.794c-6.356-0.171-12.09-5.201-12.384-11.607C180.699,391.568,180.968,383.94,180.968,376.788
		z"/>
	<path fill="#FFFFFF" d="M315.999,129.863c-0.471-8.185,5.067-15.569,12.903-17.103c0.703,2.445,1.424,4.933,2.133,7.415
		c0.318-0.043,0.636-0.085,0.954-0.135c-0.146-2.665-0.141-5.36-0.483-8.007c-0.354-2.757,1.027-3.472,3.362-3.466
		c2.249,0.006,4.113,0.183,3.839,3.325c-0.257,2.83-0.049,5.709,0.299,8.729c0.758-2.573,1.517-5.141,2.268-7.671
		c7.28,0.575,13.735,9.071,12.818,16.914C341.488,129.863,328.841,129.863,315.999,129.863z"/>
	<path fill="#FFFFFF" d="M236.573,377.223c8.209,0,16.027,0,24.053,0c0.22,4.871-1.394,8.716-5.36,11.289
		c-4.163,2.696-8.625,2.813-12.904,0.27C238.169,386.293,236.396,382.437,236.573,377.223z"/>
	<path fill="#FFFFFF" d="M337.974,324.527c-0.05-16.956-0.05-40.239-0.062-54.316c0-1.137,0.189-2.426-0.275-3.355
		c-0.477-0.935-1.711-2.108-2.543-2.06c-0.867,0.055-1.882,1.314-2.408,2.286c-0.396,0.733-0.128,1.827-0.128,2.757
		c0,12.108,0,24.218,0,36.326c0,1.106,0,2.213,0,3.875v2.354c0.128,31.748,0.771,25.458-0.336,39.927
		c-0.478,6.29-4.31,10.953-10.654,10.788c-6.356-0.165-10.85-5.195-11.149-11.607c-0.348-7.604-0.079,3.784-0.079-3.361v-46.761
		c0,0,3.288,0.69,7.836-2.182c4.285-2.708,5.306-4.182,5.789-4.939c2.206-3.447,3.563-7.873,4.224-12.628
		c-0.062-25.667-0.031-51.339-0.354-76.999c-0.141-11.021-4.835-20.171-13.252-27.354c-0.471-0.403-0.923-0.825-1.369-1.253
		c-0.056-0.061-0.056-0.195-0.227-0.807c1.106,0,2.072,0,3.044,0c14.077,0,28.154-0.031,42.225,0.012
		c15.092,0.042,23.968,8.906,24.053,23.906c0.129,22.146,0.287,44.291,0.386,66.437c0.024,4.505-2.892,8.209-6.962,9.126
		c-4.267,0.972-8.46-0.697-10.221-4.529c-0.825-1.804-1.167-3.979-1.18-5.984c-0.146-21.32-0.159-42.641-0.257-63.961
		c-0.006-1.95,0.722-4.908-2.17-4.976c-3.044-0.073-2.23,2.934-2.219,4.835c0.013,40.782,0.813,144.713,0.245,152.164
		c-0.483,6.296-4.31,10.953-10.654,10.794c-7.824,0-10.855-5.201-11.149-11.601c-0.349-7.604-0.079,1.437-0.079-5.709"/>
</g>
</svg>
