<?xml version="1.0" encoding="utf-8"?>
<!-- Generator: Adobe Illustrator 16.0.0, SVG Export Plug-In . SVG Version: 6.00 Build 0)  -->
<!DOCTYPE svg PUBLIC "-//W3C//DTD SVG 1.1//EN" "http://www.w3.org/Graphics/SVG/1.1/DTD/svg11.dtd">
<svg version="1.1" id="Layer_1" xmlns="http://www.w3.org/2000/svg" xmlns:xlink="http://www.w3.org/1999/xlink" x="0px" y="0px"
	 width="512px" height="512px" viewBox="0 0 512 512" enable-background="new 0 0 512 512" xml:space="preserve">
<linearGradient id="SVGID_1_" gradientUnits="userSpaceOnUse" x1="99.2383" y1="99.2783" x2="415.3114" y2="415.3515">
	<stop  offset="0" style="stop-color:#E20001"/>
	<stop  offset="1" style="stop-color:#8C0000"/>
</linearGradient>
<path fill="url(#SVGID_1_)" d="M479.873,254.914c0,124.261-100.733,225-225,225s-225-100.739-225-225c0-124.267,100.733-225,225-225
	S479.873,130.647,479.873,254.914z"/>
<linearGradient id="SVGID_2_" gradientUnits="userSpaceOnUse" x1="148.9258" y1="71.4097" x2="360.8213" y2="438.4235">
	<stop  offset="0" style="stop-color:#8C0000"/>
	<stop  offset="1" style="stop-color:#E20001"/>
</linearGradient>
<path fill="url(#SVGID_2_)" d="M466.731,254.914c0,117.011-94.854,211.864-211.858,211.864S43.015,371.925,43.015,254.914
	c0-117.005,94.854-211.858,211.858-211.858S466.731,137.909,466.731,254.914z"/>
<g>
	<g>
		<path fill-rule="evenodd" clip-rule="evenodd" fill="#FFFFFF" d="M346.743,218.129c-5.323,0-10.134,0-15.231,0
			c0-7.286,0-14.407,0-21.711c-61.938,0-123.607,0-185.575,0c0,48.802,0,97.592,0,146.626c-5.165,0-10.018,0-15.336,0
			c0-1.138,0-2.243,0-3.362c0-56.589,0.03-113.166-0.037-169.755c0-2.151,0.635-3.178,2.671-4.034
			c30.776-13.007,61.51-26.082,92.225-39.254c3.386-1.467,6.803-1.717,10.385-1.943c7.616-0.483,14.536,1.204,21.534,4.248
			c28.771,12.549,57.689,24.719,86.607,36.932c2.134,0.898,2.8,1.925,2.781,4.229c-0.109,14.413-0.042,28.827-0.024,43.233
			C346.743,214.865,346.743,216.381,346.743,218.129z M145.961,193.71c61.975,0,123.612,0,185.3,0c0-3.649,0-7.06,0-10.477
			c-61.901,0-123.545,0-185.3,0C145.961,186.797,145.961,190.146,145.961,193.71z"/>
		<path fill-rule="evenodd" clip-rule="evenodd" fill="#FFFFFF" d="M410.942,238.569c-19.089,12.09-37.817,23.948-57.078,36.155
			c0-7.39,0-14.267,0-21.375c-23.937,0-47.493,0-71.253,0c0-9.878,0-19.505,0-29.499c23.606,0,47.231,0,71.112,0
			c0-7.17,0-13.991,0-21.51C372.996,214.554,391.774,226.43,410.942,238.569z"/>
		<path fill-rule="evenodd" clip-rule="evenodd" fill="#FFFFFF" d="M157.66,287.243c0-17.121,0-34.083,0-51.388
			c5.354,0,10.544,0,15.746,0c13.899,0,27.824,0.067,41.748-0.037c2.616-0.024,3.454,0.642,3.435,3.405
			c-0.153,14.688-0.067,29.37-0.067,44.064c0,1.247,0,2.494,0,3.955C198.204,287.243,178.076,287.243,157.66,287.243z"/>
		<path fill-rule="evenodd" clip-rule="evenodd" fill="#FFFFFF" d="M157.66,231.986c0-10.08,0-20.055,0-30.232
			c3.148,0,6.21,0,9.254,0c8.179,0,16.375,0.043,24.542-0.019c1.553-0.024,2.042,0.379,2.036,1.999
			c-0.085,8.637-0.043,17.268-0.018,25.923c0,0.722,0,1.467,0,2.329C181.505,231.986,169.653,231.986,157.66,231.986z"/>
		<path fill-rule="evenodd" clip-rule="evenodd" fill="#FFFFFF" d="M225.735,285.983c0-10.079,0-20.061,0-30.232
			c3.172,0,6.216,0,9.267,0c8.185,0,16.369,0.043,24.56-0.018c1.546-0.006,2.029,0.379,2.005,1.992
			c-0.067,8.649-0.024,17.28-0.019,25.936c0,0.728,0,1.461,0,2.322C249.598,285.983,237.758,285.983,225.735,285.983z"/>
		<path fill-rule="evenodd" clip-rule="evenodd" fill="#FFFFFF" d="M157.654,341.797c0-17.158,0-34.077,0-51.345
			c6.498,0,12.86,0,19.218,0c12.867,0.019,25.733,0.03,38.6,0.019c1.785,0,3.117-0.043,3.093,2.524
			c-0.116,15.966-0.049,31.925-0.061,47.891c0,0.27-0.11,0.538-0.184,0.911C198.07,341.797,177.832,341.797,157.654,341.797z"/>
		<path fill-rule="evenodd" clip-rule="evenodd" fill="#FFFFFF" d="M286.591,314.438c0,8.808,0.006,17.628,0.006,26.448
			c0,0.27-0.098,0.538-0.177,0.911c-20.264,0-40.477,0-60.685,0c0-17.158,0-34.077,0-51.345c6.528,0,12.873,0,19.218,0
			c5.55,0.019,11.088,0.019,16.614,0.019c2.463,0,8.147,0,10.605,0l-10.605,7.39L286.591,314.438z"/>
		<path fill-rule="evenodd" clip-rule="evenodd" fill="#FFFFFF" d="M346.529,365.642c-4.994,0-9.779,0-14.822,0
			c0-8.258,0-38.899,0-47.274c4.841,0,9.719,0,14.822,0C346.529,326.491,346.529,357.127,346.529,365.642z"/>
	</g>
	<path fill-rule="evenodd" clip-rule="evenodd" fill="#FFFFFF" d="M327.587,261.662c0,7.457,0,14.199,0,21.345
		c23.826,0,47.451,0,71.174,0c0,10.013,0,19.627,0,29.536c-23.723,0-47.268,0-71.095,0c0,7.09,0,13.899,0,21.51
		c-19.321-12.231-38.068-24.108-57.206-36.223C289.573,285.733,308.284,273.875,327.587,261.662z"/>
</g>
</svg>
