<?xml version="1.0" encoding="utf-8"?>
<!-- Generator: Adobe Illustrator 16.0.0, SVG Export Plug-In . SVG Version: 6.00 Build 0)  -->
<!DOCTYPE svg PUBLIC "-//W3C//DTD SVG 1.1//EN" "http://www.w3.org/Graphics/SVG/1.1/DTD/svg11.dtd">
<svg version="1.1" id="Layer_1" xmlns="http://www.w3.org/2000/svg" xmlns:xlink="http://www.w3.org/1999/xlink" x="0px" y="0px"
	 width="512px" height="512px" viewBox="0 0 512 512" enable-background="new 0 0 512 512" xml:space="preserve">
<g>
	<g>
		<linearGradient id="SVGID_1_" gradientUnits="userSpaceOnUse" x1="99.2378" y1="99.9448" x2="415.3109" y2="416.018">
			<stop  offset="0" style="stop-color:#FF7601"/>
			<stop  offset="1" style="stop-color:#FF0000"/>
		</linearGradient>
		<path fill="url(#SVGID_1_)" d="M479.873,255.581c0,124.261-100.733,225-225,225s-225-100.739-225-225
			c0-124.264,100.733-225,225-225S479.873,131.317,479.873,255.581z"/>
		<linearGradient id="SVGID_2_" gradientUnits="userSpaceOnUse" x1="148.9258" y1="72.0776" x2="360.8213" y2="439.0914">
			<stop  offset="0" style="stop-color:#FF0000"/>
			<stop  offset="1" style="stop-color:#FF6301"/>
		</linearGradient>
		<path fill="url(#SVGID_2_)" d="M466.731,255.581c0,117.011-94.854,211.864-211.858,211.864S43.015,372.592,43.015,255.581
			c0-117.005,94.854-211.858,211.858-211.858S466.731,138.576,466.731,255.581z"/>
	</g>
</g>
<g>
	<path fill-rule="evenodd" clip-rule="evenodd" fill="#FFFFFF" d="M311.688,207.629c-51.351,0-102.408,0-154.004,0
		c-0.287,2.591-0.751,4.902-0.764,7.219c-0.049,27.243,0.153,54.492-0.159,81.729c-0.079,6.693,2.011,8.777,8.717,8.698
		c27.542-0.324,55.098-0.471,82.622,0.171c5.281,0.129,12.146,2.732,15.36,6.614c7.14,8.612-0.012,20.825-12.103,21.155
		c-17.354,0.464-34.725,0.171-52.09,0.183c-17.958,0.013-35.929,0.135-53.888-0.061c-11.871-0.129-16.901-5.135-16.944-17.115
		c-0.134-40.122-0.134-80.238,0-120.354c0.037-11.846,5.232-17.273,16.932-17.298c59.572-0.134,119.156-0.134,178.729,0.012
		c10.917,0.024,15.979,5.08,16.614,15.819c0.348,5.959,0.36,11.993-0.123,17.94c-0.77,9.34-5.978,14.389-14.046,14.395
		c-7.629,0-12.738-4.811-14.175-13.398C312.08,211.614,311.951,209.86,311.688,207.629z"/>
	<path fill-rule="evenodd" clip-rule="evenodd" fill="#FFFFFF" d="M326.945,262.531c-12.555,0.006-25.104,0.115-37.653-0.024
		c-11.277-0.123-17.921-5.734-17.714-14.597c0.196-8.606,6.577-13.985,17.317-14.034c25.098-0.122,50.201-0.122,75.299,0
		c10.636,0.049,17.066,5.532,17.213,14.095c0.141,8.558-6.356,14.358-16.821,14.512
		C352.043,262.678,339.488,262.531,326.945,262.531z"/>
	<path fill-rule="evenodd" clip-rule="evenodd" fill="#FFFFFF" d="M326.615,269.554c12.836,0,25.679-0.146,38.515,0.043
		c10.079,0.146,16.155,5.581,16.266,13.985c0.098,8.222-6.125,14.267-16.015,14.364c-25.979,0.245-51.956,0.257-77.929-0.012
		c-9.92-0.098-16.094-6.266-15.861-14.548c0.232-8.447,6.223-13.644,16.504-13.79C300.931,269.414,313.779,269.554,326.615,269.554z
		"/>
	<path fill-rule="evenodd" clip-rule="evenodd" fill="#FFFFFF" d="M326.432,305.165c12.873-0.006,25.746-0.158,38.619,0.049
		c10.158,0.165,16.295,5.618,16.345,13.968c0.049,8.386-6.089,14.07-16.168,14.132c-25.752,0.184-51.497,0.171-77.243,0.012
		c-10.281-0.067-16.32-5.525-16.382-13.967c-0.061-8.441,6.003-13.967,16.198-14.138C300.674,305,313.553,305.172,326.432,305.165z"
		/>
	<path fill-rule="evenodd" clip-rule="evenodd" fill="#FFFFFF" d="M194.036,269.737c3.869,1.779,6.73,3.546,9.841,4.419
		c4.816,1.346,9.792,2.721,14.719,2.781c2.17,0.031,4.383-3.147,6.577-4.859c-1.675-2.114-2.922-5.122-5.11-6.143
		c-5.104-2.402-10.69-3.759-16.015-5.709c-8.215-3.008-13.912-8.172-14.156-17.592c-0.238-9.065,4.156-15.03,12.09-19.254
		c2.58-1.375,3.833-5.104,5.911-7.573c1.607-1.907,3.393-4.682,5.397-4.963c1.956-0.281,6.076,2.005,6.161,3.356
		c0.489,7.916,7.091,8.289,11.883,11.363c2.922,1.883,4.34,6.094,6.442,9.254c-3.362,1.406-6.797,4.126-10.049,3.918
		c-4.896-0.318-9.597-3.423-14.511-3.857c-2.451-0.214-5.196,2.873-7.8,4.462c1.767,2.347,3.044,5.685,5.397,6.833
		c5.055,2.47,10.679,3.741,16.021,5.648c8.399,2.995,13.723,8.722,13.753,17.891c0.03,9.254-4.658,15.557-13.221,19.511
		c-2.879,1.333-4.64,4.97-7.097,7.354c-1.98,1.92-4.291,4.97-6.351,4.89c-2.103-0.085-5.672-3.282-5.801-5.293
		c-0.33-5.422-3.582-6.645-7.677-8.221c-3.826-1.474-7.695-3.479-10.685-6.205c-1.479-1.345-1.932-5.152-1.173-7.236
		C189.329,272.482,192.202,271.235,194.036,269.737z"/>
</g>
</svg>
