<?xml version="1.0" encoding="utf-8"?>
<!-- Generator: Adobe Illustrator 16.0.0, SVG Export Plug-In . SVG Version: 6.00 Build 0)  -->
<!DOCTYPE svg PUBLIC "-//W3C//DTD SVG 1.1//EN" "http://www.w3.org/Graphics/SVG/1.1/DTD/svg11.dtd">
<svg version="1.1" id="Layer_1" xmlns="http://www.w3.org/2000/svg" xmlns:xlink="http://www.w3.org/1999/xlink" x="0px" y="0px"
	 width="512px" height="512px" viewBox="0 0 512 512" enable-background="new 0 0 512 512" xml:space="preserve">
<g>
	<g>
		<linearGradient id="SVGID_1_" gradientUnits="userSpaceOnUse" x1="99.5479" y1="99.6934" x2="415.6217" y2="415.7672">
			<stop  offset="0" style="stop-color:#0000FF"/>
			<stop  offset="1" style="stop-color:#000083"/>
		</linearGradient>
		<path fill="url(#SVGID_1_)" d="M480.184,255.33c0,124.261-100.733,225-225,225s-225-100.739-225-225
			c0-124.267,100.733-225,225-225S480.184,131.063,480.184,255.33z"/>
		<linearGradient id="SVGID_2_" gradientUnits="userSpaceOnUse" x1="149.2373" y1="71.8262" x2="361.1299" y2="438.8349">
			<stop  offset="0" style="stop-color:#000083"/>
			<stop  offset="1" style="stop-color:#0000FF"/>
		</linearGradient>
		<circle fill="url(#SVGID_2_)" cx="255.184" cy="255.33" r="211.858"/>
	</g>
</g>
<g>
	<path fill-rule="evenodd" clip-rule="evenodd" fill="#FFFFFF" d="M164.15,239.383c0,30.495,0,60.593,0,90.904
		c60.605,0,121.198,0,181.969,0c0-30.165,0-60.385,0-90.758c-16.431,0-32.781,0-49.518,0c0,0.886,0,1.797,0,2.702
		c0.006,12.42,0.024,24.847,0.013,37.274c-0.013,6.339-3.259,9.591-9.523,9.591c-21.137,0.006-42.274,0.006-63.411,0
		c-6.821,0-9.914-3.111-9.926-9.982c-0.006-4.743-0.031-9.486,0.012-14.229c0.049-5.257,3.539-8.967,8.343-8.942
		c4.755,0.018,8.209,3.814,8.228,9.047c0.006,2.401,0,4.804,0,7.359c16.571,0,32.928,0,49.682,0c0-0.819,0-1.725,0-2.623
		c0-12.427-0.019-24.853,0.006-37.273c0.007-6.504,3.216-9.652,9.707-9.652c21.137,0.006,42.28,0,63.417,0.006
		c6.51,0,9.725,3.154,9.725,9.651c0.006,35.116,0,70.232-0.012,105.349c-0.007,6.002-3.277,9.254-9.31,9.254
		c-65.66,0.007-131.32,0.007-196.98,0c-5.667,0-9.053-3.35-9.053-8.979c-0.024-35.288-0.031-70.575-0.019-105.862
		c0.006-6.186,3.264-9.407,9.432-9.413c21.485-0.012,42.971-0.006,64.45,0c5.073,0,8.875,3.447,8.961,8.068
		c0.085,4.829-3.606,8.484-8.778,8.496c-17.775,0.037-35.55,0.013-53.325,0.013C166.962,239.383,165.685,239.383,164.15,239.383z"/>
	<path fill-rule="evenodd" clip-rule="evenodd" fill="#FFFFFF" d="M255.458,131.705c10.605,0,21.21-0.012,31.809,0.006
		c6.015,0.006,9.322,3.289,9.328,9.23c0.006,18.704,0.012,37.414,0,56.125c-0.006,5.837-3.301,9.175-9.114,9.181
		c-21.552,0.018-43.104,0.012-64.657,0c-5.679-0.006-9.041-3.344-9.046-8.979c-0.012-18.881-0.012-37.763,0-56.644
		c0-5.507,3.343-8.894,8.833-8.906C233.563,131.687,244.511,131.705,255.458,131.705z M230.44,189.486c16.644,0,33.044,0,49.45,0
		c0-13.783,0-27.365,0-41.063c-16.541,0-32.947,0-49.45,0C230.44,162.164,230.44,175.752,230.44,189.486z"/>
</g>
</svg>
