<?xml version="1.0" encoding="utf-8"?>
<!-- Generator: Adobe Illustrator 16.0.0, SVG Export Plug-In . SVG Version: 6.00 Build 0)  -->
<!DOCTYPE svg PUBLIC "-//W3C//DTD SVG 1.1//EN" "http://www.w3.org/Graphics/SVG/1.1/DTD/svg11.dtd">
<svg version="1.1" id="Layer_1" xmlns="http://www.w3.org/2000/svg" xmlns:xlink="http://www.w3.org/1999/xlink" x="0px" y="0px"
	 width="512px" height="512px" viewBox="0 0 512 512" enable-background="new 0 0 512 512" xml:space="preserve">
<g>
	<g>
		<linearGradient id="SVGID_1_" gradientUnits="userSpaceOnUse" x1="100.644" y1="100.6899" x2="416.7172" y2="416.7631">
			<stop  offset="0" style="stop-color:#0091FF"/>
			<stop  offset="0.505" style="stop-color:#0087FF"/>
			<stop  offset="1" style="stop-color:#4501EE"/>
		</linearGradient>
		<path fill="url(#SVGID_1_)" d="M481.279,256.326c0,124.257-100.733,225.003-225,225.003s-225-100.746-225-225.003
			c0-124.267,100.733-225,225-225S481.279,132.059,481.279,256.326z"/>
		<linearGradient id="SVGID_2_" gradientUnits="userSpaceOnUse" x1="150.333" y1="72.8223" x2="362.2271" y2="439.8335">
			<stop  offset="0" style="stop-color:#0023FF"/>
			<stop  offset="1" style="stop-color:#007AFF"/>
		</linearGradient>
		<path fill="url(#SVGID_2_)" d="M468.138,256.326c0,117.008-94.854,211.862-211.858,211.862S44.421,373.334,44.421,256.326
			c0-117.005,94.854-211.858,211.858-211.858S468.138,139.321,468.138,256.326z"/>
	</g>
</g>
<g>
	<linearGradient id="SVGID_3_" gradientUnits="userSpaceOnUse" x1="262.7588" y1="172.1948" x2="450.5459" y2="172.1948">
		<stop  offset="0" style="stop-color:#0023FF"/>
		<stop  offset="1" style="stop-color:#007AFF"/>
	</linearGradient>
	<path fill-rule="evenodd" clip-rule="evenodd" fill="url(#SVGID_3_)" d="M262.759,63.169c2.872,0,5.758,0,8.631,0
		c0.978,0.348,1.925,0.813,2.934,1.011c11.431,2.136,23.093,3.411,34.267,6.479c37.519,10.275,69.145,30.355,94.572,59.78
		c20.844,24.129,35.269,51.702,42.065,83.022c1.92,8.875,3.558,17.806,5.318,26.715c0,4.67,0,9.346,0,14.028
		c-1.467,0.611-2.983,1.149-4.413,1.861c-16.394,8.167-32.702,16.498-49.218,24.395c-2.286,1.1-6.015,0.966-8.337-0.146
		c-16.346-7.861-32.445-16.198-48.717-24.178c-3.057-1.5-4.511-3.185-4.976-6.736c-4.255-33.249-22.653-55.41-53.802-67.045
		c-5.568-2.081-11.65-2.79-17.738-4.181c7.53-15.159,14.291-30.26,22.433-44.563c5.152-9.059,5.574-16.284,0.085-25.513
		C277.281,93.643,270.375,78.205,262.759,63.169z"/>
	<linearGradient id="SVGID_4_" gradientUnits="userSpaceOnUse" x1="62.0068" y1="157.0684" x2="279.6113" y2="157.0684">
		<stop  offset="0" style="stop-color:#0023FF"/>
		<stop  offset="1" style="stop-color:#007AFF"/>
	</linearGradient>
	<path fill-rule="evenodd" clip-rule="evenodd" fill="url(#SVGID_4_)" d="M253.04,63.169c6.375,13.053,12.433,26.274,19.193,39.107
		c9.786,18.603,9.866,18.42,0.074,36.907c-6.039,11.402-11.699,23.028-17.287,34.676c-1.485,3.087-3.221,4.459-6.76,4.936
		c-35.966,4.866-60.868,27.311-69.303,62.244c-0.697,2.913-1.112,5.911-1.785,9.532c-10.318-5.119-20.098-9.954-29.859-14.82
		c-8.197-4.08-16.32-8.307-24.603-12.188c-1.687-0.789-4.34-1.039-5.917-0.26c-18.325,9.08-36.541,18.408-54.786,27.665
		c0-3.246,0-6.476,0-9.716c0.452-1.498,1.167-2.964,1.32-4.487c3.49-33.82,15.061-64.691,35.042-92.063
		c32.372-44.328,75.77-71.082,130.293-79.337c3.827-0.575,7.616-1.455,11.431-2.197C244.409,63.169,248.724,63.169,253.04,63.169z"
		/>
	<linearGradient id="SVGID_5_" gradientUnits="userSpaceOnUse" x1="62.0068" y1="342.6035" x2="249.7998" y2="342.6035">
		<stop  offset="0" style="stop-color:#0076FF"/>
		<stop  offset="0.8333" style="stop-color:#0023FF"/>
	</linearGradient>
	<path fill-rule="evenodd" clip-rule="evenodd" fill="url(#SVGID_5_)" d="M62.007,260.675c13.05-6.339,26.118-12.646,39.144-19.01
		c5.153-2.521,10.128-5.456,15.422-7.625c1.98-0.804,4.994-0.697,6.919,0.239c16.602,8.117,33.007,16.62,49.608,24.74
		c2.983,1.464,4.163,3.142,4.536,6.405c3.056,26.541,16.045,47.104,39.193,60.257c9.621,5.465,20.776,8.24,31.699,12.408
		c-1.846,3.814-4.273,8.894-6.779,13.949c-6.455,12.995-13.014,25.96-19.334,39.021c-0.758,1.553-1.1,3.998-0.391,5.416
		c9.132,18.472,18.484,36.846,27.775,55.232c-3.594,0-7.188,0-10.788,0c-1.32-0.422-2.61-0.936-3.955-1.247
		c-14.12-3.19-28.814-4.805-42.273-9.78c-68.974-25.525-111.424-74.56-126.969-146.602c-1.54-7.114-2.549-14.352-3.808-21.528
		C62.007,268.591,62.007,264.642,62.007,260.675z"/>
	<linearGradient id="SVGID_6_" gradientUnits="userSpaceOnUse" x1="232.2271" y1="357.8145" x2="450.5459" y2="357.8145">
		<stop  offset="0" style="stop-color:#007AFF"/>
		<stop  offset="1" style="stop-color:#0023FF"/>
	</linearGradient>
	<path fill-rule="evenodd" clip-rule="evenodd" fill="url(#SVGID_6_)" d="M259.519,451.708
		c-8.606-17.543-17.078-35.159-25.917-52.586c-1.852-3.655-1.822-6.314,0.024-9.921c8.203-15.959,16.112-32.054,23.979-48.178
		c1.485-3.063,3.282-4.389,6.828-4.829c34.694-4.218,61.088-27.702,69.132-61.259c0.795-3.271,1.174-6.626,1.87-10.611
		c10.135,5.055,19.731,9.847,29.328,14.633c8.361,4.181,16.675,8.43,25.109,12.433c1.565,0.733,4.01,1.149,5.416,0.452
		c18.484-9.174,36.858-18.581,55.257-27.921c0,3.233,0,6.467,0,9.706c-0.403,1.32-1.052,2.629-1.174,3.991
		c-1.956,20.703-7.188,40.581-16.039,59.371c-27.922,59.229-73.839,96.173-137.757,110.587c-7.622,1.711-15.397,2.769-23.111,4.132
		C268.149,451.708,263.834,451.708,259.519,451.708z"/>
	<g>
		<path fill-rule="evenodd" clip-rule="evenodd" fill="#FFFFFF" d="M394.739,189.309c0,5.571-0.184,11.149,0.061,16.715
			c0.196,4.636-2.641,4.743-5.941,4.676c-3.251-0.08-6.638,0.556-6.564-4.612c0.184-11.14,0.195-22.274,0-33.414
			c-0.086-5.168,3.215-4.545,6.491-4.579c3.252-0.052,6.211-0.229,6.015,4.514C394.567,178.166,394.739,183.746,394.739,189.309z"/>
		<path fill-rule="evenodd" clip-rule="evenodd" fill="#FFFFFF" d="M388.834,154.073c-12.763,17.155-29.926,27.173-51.345,29.936
			c-0.709,0.098-1.503,0.421-2.114,0.208c-1.553-0.547-2.995-1.333-4.487-2.023c1.32-0.786,2.58-2.115,3.961-2.262
			c20.795-2.167,37.543-11.427,50.122-28.151c0.307-0.395,0.416-0.938,0.611-1.415c-0.391-0.22-0.66-0.52-0.941-0.52
			c-2.273-0.067-4.547-0.086-6.821-0.107c1.907-1.378,3.619-3.294,5.733-4.031c9.169-3.111,9.218-2.986,10.478,6.543
			c0.024,0.177,0.109,0.363,0.085,0.528c-0.391,2.262-0.782,4.511-1.186,6.776C391.634,157.805,390.326,156.063,388.834,154.073z"/>
		<path fill-rule="evenodd" clip-rule="evenodd" fill="#FFFFFF" d="M365.094,194.773c0-2.509,0-5.021,0-7.537
			c0.012-7.035,3.337-9.529,10-7.17c1.075,0.385,2.237,2.332,2.262,3.576c0.22,7.705,0.073,15.428,0.146,23.147
			c0.036,4.56-3.142,4.016-6.003,3.869c-2.836-0.144-6.552,1.018-6.43-4.034C365.154,202.674,365.081,198.725,365.094,194.773z"/>
		<path fill-rule="evenodd" clip-rule="evenodd" fill="#FFFFFF" d="M360.203,198.954c-0.012,1.427-0.012,2.867-0.012,4.303
			c0,7.151-2.519,9.196-9.486,7.194c-1.211-0.357-2.653-2.393-2.738-3.735c-0.306-5.195-0.208-10.416-0.099-15.626
			c0.11-5.37,4.328-3.561,7.201-3.811c2.885-0.263,5.501,0.043,5.171,4.126C360.032,193.915,360.203,196.433,360.203,198.954z"/>
		<path fill-rule="evenodd" clip-rule="evenodd" fill="#FFFFFF" d="M342.941,200.207c-0.012,1.079-0.012,2.148-0.012,3.228
			c0.024,6.932-2.824,9.132-9.633,6.993c-1.198-0.379-2.482-2.427-2.616-3.82c-0.367-3.723-0.367-7.518-0.037-11.25
			c0.171-1.868,1.112-4.985,2.2-5.223c2.824-0.605,5.941-0.098,8.876,0.391c0.574,0.098,1.075,2.094,1.173,3.249
			C343.076,195.91,342.941,198.059,342.941,200.207z"/>
		<path fill-rule="evenodd" clip-rule="evenodd" fill="#FFFFFF" d="M170.399,119.021c6.033,2.023,12.17,3.787,17.995,6.28
			c1.101,0.468,0.966,3.845,1.412,5.877c-1.663,0.067-3.662,0.767-4.927,0.107c-13.649-7.137-29.163-4.104-38.264,7.687
			c-8.759,11.375-8.031,27.952,1.681,38.117c10.697,11.186,26.32,12.735,39.175,3.875c11.718-8.071,15.52-23.967,9.077-37.549
			c-0.917-1.932-4.254-4.224-0.257-6.137c3.484-1.672,5.453,0.349,7.042,3.545c8.637,17.409,2.127,38.347-15.232,48.479
			c-16.125,9.41-38.221,4.104-48.643-11.681c-10.984-16.644-7.274-38.215,8.447-50.006
			C154.495,122.67,161.769,120.21,170.399,119.021z"/>
		<path fill-rule="evenodd" clip-rule="evenodd" fill="#FFFFFF" d="M182.979,137.97c-2.457,2.892-3.875,5.438-8.496,3.967
			c-7.678-2.445-14.683,0.957-18.289,7.65c-3.472,6.433-2.372,13.579,2.867,18.814c4.676,4.676,12.897,5.856,18.417,2.634
			c7.029-4.11,10.134-10.896,7.494-18.802c-1.546-4.636,1.767-5.455,3.753-7.644c7.543,7.469,4.34,22.179-1.54,28.124
			c-8.985,9.095-22.604,10.067-32.146,1.974c-9.138-7.738-10.715-20.959-3.71-31.131
			C158.174,133.627,171.414,131.084,182.979,137.97z"/>
		<path fill-rule="evenodd" clip-rule="evenodd" fill="#FFFFFF" d="M168.419,157.985c0.758-1.473,1.234-3.23,2.335-4.38
			c4.315-4.532,8.96-8.765,13.233-13.331c3.686-3.939,8.221-7.005,9.102-13.362c0.44-3.124,4.315-5.773,7.31-9.459
			c1.278,5.156,1.479,10.535,9.145,7.732c-0.049,0.749-0.092,1.507-0.141,2.256c-3.796,2.473-7.537,5.012-11.388,7.396
			c-2.029,1.262-4.584,1.895-6.271,3.475c-6.131,5.751-11.969,11.815-17.983,17.692c-1.173,1.158-2.628,2.035-3.955,3.044
			C169.335,158.694,168.883,158.34,168.419,157.985z"/>
		<path fill-rule="evenodd" clip-rule="evenodd" fill="#FFFFFF" d="M173.626,150.287c-2.017,1.189-4.517,1.974-5.898,3.673
			c-1.015,1.259-0.568,3.698-0.776,5.614c2.09,0.034,4.438,0.664,6.192-0.082c1.956-0.847,3.362-2.946,5.489-4.967
			c1.485,4.802-0.098,7.882-3.332,10.181c-3.643,2.588-7.549,2.408-10.954-0.379c-3.337-2.738-4.578-6.473-2.873-10.618
			c1.846-4.477,5.312-6.506,10.123-5.837C172.275,148.676,172.954,149.483,173.626,150.287z"/>
		<path fill-rule="evenodd" clip-rule="evenodd" fill="#FFFFFF" d="M163.675,342.172c-2.207,10.178-1.119,11.798,7.372,15.459
			c5.697,2.457,11.21,5.446,16.553,8.618c1.345,0.801,1.724,3.233,2.549,4.921c-1.705,0.672-3.411,1.95-5.116,1.956
			c-21.186,0.146-42.384,0.141-63.576,0.024c-1.754-0.024-3.502-1.168-5.25-1.791c0.862-1.821,1.223-4.45,2.671-5.324
			c5.159-3.104,10.458-6.259,16.119-8.203c8.362-2.872,10.819-7.994,6.21-16.906c-4.866-9.401-5.458-20.007-2.28-30.294
			c1.736-5.647,8.307-8.716,15.544-8.239c7.048,0.458,12.164,3.961,13.497,10.306c0.984,4.676,1.369,9.621,1.039,14.389
			c-0.538,7.641-5.624,10.935-13.38,10.006c-1.742-0.214-4.297,0.654-5.336,1.938c-0.794,0.99-0.428,4.279,0.575,5.037
			c1.308,0.972,3.79,0.843,5.666,0.538C158.712,344.238,160.784,343.199,163.675,342.172z"/>
		<path fill-rule="evenodd" clip-rule="evenodd" fill="#FFFFFF" d="M178.248,325.033c-0.929,10.477-8.827,12.127-14.511,15.721
			c-2.469,1.577-5.66,2.127-8.606,2.764c-1.155,0.25-2.689-0.318-3.729-1.003c-0.428-0.281-0.422-2.311,0.073-2.714
			c0.929-0.771,2.458-1.479,3.545-1.283c8.875,1.723,15.501-3.295,15.825-12.066c0.104-2.849,0.758-5.673,0.74-8.509
			c-0.073-10.281-9.242-18.625-19.523-17.946c-10.611,0.703-18.288,9.561-17.322,20.013c0.317,3.386,0.868,6.772,0.892,10.146
			c0.012,1.308-1.082,3.716-1.699,3.729c-1.516,0.019-4.157-0.831-4.364-1.761c-0.697-3.19-1.015-6.638-0.599-9.853
			c0.367-2.813,2.176-5.403,2.903-8.216c2.164-8.361,7.28-13.912,15.483-16.356c8.619-2.58,16.797-0.416,21.699,6.675
			C173.517,310.815,175.631,318.896,178.248,325.033z"/>
		<path fill-rule="evenodd" clip-rule="evenodd" fill="#FFFFFF" d="M310.375,397.246c0-1.748,0.244-3.558-0.086-5.245
			c-0.22-1.167-1.088-2.971-1.919-3.136c-4.762-0.929-5.184-4.175-5.122-8.087c0.109-6.992,0.109-13.991,0.006-20.996
			c-0.067-4.957,2.139-7.182,7.157-7.127c11.858,0.104,23.692-0.055,35.538,0.006c5.807,0.037,7.519,1.699,7.592,7.28
			c0.098,7.182,0.109,14.358,0,21.546c-0.073,5.722-1.65,7.201-7.506,7.274c-5.563,0.061-11.162,0.397-16.688-0.086
			c-5.904-0.52-10.416,1.223-13.985,5.887c-1.015,1.314-2.384,2.341-3.582,3.515C311.304,397.796,310.839,397.515,310.375,397.246z"
			/>
		<path fill-rule="evenodd" clip-rule="evenodd" fill="#FFFFFF" d="M372.147,374.801c0,3.228,0,5.844,0,9.847
			c-2.959-2.695-5-4.535-7.029-6.411c-1.187-1.101-2.335-3.228-3.46-3.203c-6.516,0.109-5.122-4.438-5.208-8.154
			c-0.049-2.158-0.012-4.315,0-6.455c0.037-8.423-2.298-10.733-10.904-10.745c-4.486-0.013-8.974-0.013-13.447-0.013
			c-2.567,0-5.135,0.257-5.098-3.648c0.024-3.49,0.317-6.718,4.584-7.231c3.007-0.354,6.076-0.184,9.132-0.184
			c10.587-0.006,21.186,0.098,31.785-0.049c5-0.062,7.225,2.042,7.115,7.091c-0.159,6.992-0.196,13.997,0.012,20.99
			C379.775,371.549,378.309,374.733,372.147,374.801z"/>
		<g>
			<path fill="#FFFFFF" d="M227.392,251.821h-15.146v-10.137c0-2.943-0.165-4.78-0.489-5.511c-0.33-0.728-1.039-1.094-2.146-1.094
				c-1.247,0-2.035,0.443-2.377,1.332c-0.336,0.887-0.501,2.812-0.501,5.764v27.063c0,2.849,0.165,4.683,0.501,5.55
				c0.342,0.868,1.094,1.296,2.274,1.296c1.125,0,1.864-0.428,2.2-1.302c0.354-0.861,0.538-2.892,0.538-6.101v-7.322h15.146v2.268
				c0,6.039-0.428,10.306-1.271,12.849c-0.855,2.519-2.738,4.731-5.647,6.632c-2.928,1.889-6.516,2.843-10.795,2.843
				c-4.438,0-8.099-0.808-10.978-2.409c-2.873-1.613-4.786-3.838-5.721-6.687c-0.941-2.836-1.406-7.115-1.406-12.824v-17.029
				c0-4.202,0.146-7.356,0.434-9.456c0.287-2.1,1.143-4.123,2.573-6.066c1.43-1.944,3.411-3.475,5.941-4.587
				c2.53-1.119,5.44-1.678,8.729-1.678c4.462,0,8.148,0.862,11.051,2.588c2.91,1.724,4.817,3.873,5.728,6.455
				c0.911,2.576,1.363,6.58,1.363,12.035V251.821z"/>
			<path fill="#FFFFFF" d="M232.832,226.442h10.727c7.158,0,11.999,0.269,14.53,0.825c2.53,0.55,4.597,1.962,6.186,4.23
				c1.602,2.268,2.396,5.886,2.396,10.853c0,4.532-0.563,7.583-1.693,9.144c-1.131,1.562-3.344,2.503-6.657,2.809
				c2.996,0.749,5.013,1.751,6.052,2.988c1.027,1.25,1.675,2.391,1.926,3.438c0.25,1.039,0.373,3.918,0.373,8.631v15.367H252.6
				v-19.37c0-3.124-0.245-5.053-0.746-5.798c-0.495-0.74-1.779-1.112-3.87-1.112v26.28h-15.152V226.442z M247.984,236.411v12.956
				c1.706,0,2.897-0.232,3.588-0.691c0.685-0.467,1.027-1.996,1.027-4.566v-3.197c0-1.855-0.336-3.063-0.99-3.634
				C250.943,236.699,249.739,236.411,247.984,236.411z"/>
			<path fill="#FFFFFF" d="M319.311,226.442v58.286H306.06l-0.024-39.349l-5.27,39.349h-9.395l-5.568-38.451l-0.013,38.451h-13.252
				v-58.286h19.621c0.575,3.5,1.174,7.628,1.791,12.39l2.158,14.822l3.478-27.212H319.311z"/>
		</g>
	</g>
</g>
</svg>
