<?xml version="1.0" encoding="utf-8"?>
<!-- Generator: Adobe Illustrator 16.0.0, SVG Export Plug-In . SVG Version: 6.00 Build 0)  -->
<!DOCTYPE svg PUBLIC "-//W3C//DTD SVG 1.1//EN" "http://www.w3.org/Graphics/SVG/1.1/DTD/svg11.dtd">
<svg version="1.1" id="Layer_1" xmlns="http://www.w3.org/2000/svg" xmlns:xlink="http://www.w3.org/1999/xlink" x="0px" y="0px"
	 width="512px" height="512px" viewBox="0 0 512 512" enable-background="new 0 0 512 512" xml:space="preserve">
<g>
	<g>
		<linearGradient id="SVGID_1_" gradientUnits="userSpaceOnUse" x1="100.1689" y1="99.8184" x2="416.2428" y2="415.8922">
			<stop  offset="0" style="stop-color:#00C9FF"/>
			<stop  offset="1" style="stop-color:#0091FF"/>
		</linearGradient>
		<path fill="url(#SVGID_1_)" d="M480.805,255.455c0,124.261-100.733,225-225,225s-225-100.739-225-225
			c0-124.267,100.733-225,225-225S480.805,131.188,480.805,255.455z"/>
		<linearGradient id="SVGID_2_" gradientUnits="userSpaceOnUse" x1="149.8584" y1="71.9507" x2="361.7515" y2="438.9603">
			<stop  offset="0" style="stop-color:#0091FF"/>
			<stop  offset="0.4483" style="stop-color:#0093FF"/>
			<stop  offset="1" style="stop-color:#00C9FF"/>
		</linearGradient>
		<circle fill="url(#SVGID_2_)" cx="255.805" cy="255.455" r="211.858"/>
	</g>
</g>
<g>
	<path fill-rule="evenodd" clip-rule="evenodd" fill="#FFFFFF" d="M292.541,314.93c0,6.553-0.208,12.249,0.141,17.909
		c0.098,1.632,1.534,3.46,2.836,4.707c7.182,6.864,8.777,17.065,3.203,25.073c-5.397,7.744-11.058,15.336-17.036,22.635
		c-13.515,16.51-40.519,18.838-58.031-1.205c0,8.038,0,15.245,0,23.002c-29.835,0-58.906,0-87.39,0
		c0-17.311-1.381-34.726,0.416-51.804c1.565-14.847,11.418-25.825,24.389-33.466c1.688-0.996,3.417-1.907,5.116-2.891
		c0.165-0.092,0.22-0.367-0.146,0.274c-3.539-5.471-6.846-10.568-10.135-15.666c-0.354-0.55-0.587-1.626-0.935-1.645
		c-10.159-0.715-7.879-11.57-13.784-16.21c-2.995,0.568-6.534,1.247-11.051,2.115c0,6.943-0.183,14.334,0.147,21.693
		c0.073,1.607,2.316,3.007,3.001,4.719c2.151,5.348,5.263,10.69,5.728,16.234c0.599,7.219-5.984,12.359-13.436,12.298
		c-7.341-0.061-13.759-5.458-13.154-12.628c0.44-5.159,2.292-10.862,5.342-14.957c2.598-3.466,3.545-6.442,3.771-10.502
		c0.477-8.643,1.613-17.249,2.359-25.873c0.085-0.99-0.483-2.061-0.85-3.057c-3.081-8.319-2.029-11.204,5.69-15.422
		c14.242-7.806,28.393-15.819,42.824-23.258c4.45-2.286,5.605-4.988,5.563-9.707c-0.214-27.268-0.123-54.535-0.098-81.809
		c0.012-15.99,8.869-24.951,24.829-24.963c57.616-0.037,115.226-0.037,172.848,0c15.532,0.019,24.48,8.998,24.499,24.584
		c0.049,48.38,0.049,96.76,0,145.141c-0.013,15.428-9.224,24.651-24.542,24.663C347.626,314.96,320.597,314.93,292.541,314.93z
		 M206.771,249.776c61.607,0,122.378,0,183.503,0c0.098-2.108,0.244-3.832,0.244-5.562c0.012-32.317,0.043-64.621-0.006-96.938
		c-0.024-12.738-5.324-18.05-18.063-18.056c-56.271-0.037-112.543-0.042-168.809,0c-12.512,0.012-17.604,5.153-17.628,17.623
		c-0.049,23.081-0.012,46.161-0.012,69.242c0,3.894,0,7.775,0,12.225c8.447-2.555,16.589-12.347,23.527,0.776
		C215.646,240.669,215.505,242.729,206.771,249.776z M144.564,398.438c23.227,0,46.18,0,69.615,0
		c-1.357-13.575,4.376-27.909-8.747-38.563c3.014-2.225,5.208-3.838,7.604-5.617c6.088,8.154,11.645,15.789,17.409,23.265
		c10.88,14.119,30.214,16.302,42.041,3.979c7.103-7.402,12.929-16.082,18.9-24.486c3.031-4.267,2.401-8.991-1.871-12.354
		c-4.639-3.655-8.588-1.681-11.943,2.359c-5.624,6.748-11.229,13.533-16.913,20.238c-4.279,5.037-11.033,4.786-14.823-0.55
		c-5.08-7.157-10.055-14.401-15.116-21.595c-7.989-11.363-18.857-18.111-32.555-20.392c-26.852-4.456-49.969,10.257-53.319,35.446
		C143.195,372.631,144.564,385.498,144.564,398.438z M390.377,259.825c-60.062,0-119.315,0-178.509,0
		c0.672,3.203,2.727,7.213,1.571,8.655c-2.433,3.032-0.905,4.561,0.348,6.847c1.247,2.298,2.402,4.719,3.118,7.219
		c3.856,13.331-0.013,24.639-9.634,34.132c6.969,3.606,13.606,7.048,21.168,10.953c0-20.122,0-39.334,0-58.594
		c21.748,0,42.769,0,63.759,0c0.281,3.111,0.532,5.868,0.831,9.193c29.475,0,58.411,0,87.28,0c0,3.196,0,5.752,0,8.961
		c-29.254,0-58.173,0-87.341,0c0,6.479,0,12.298,0,18.526c28.569,0,56.705,0.153,84.822-0.104
		c6.877-0.062,12.072-5.501,12.445-13.068C390.768,281.837,390.377,271.078,390.377,259.825z M253.506,361.586
		c5.715-6.864,10.783-13.43,16.4-19.505c2.727-2.965,6.155-5.85,9.835-7.2c3.558-1.309,4.138-3.002,4.107-6.18
		c-0.104-13.405-0.043-26.804-0.043-40.215c0-3.416,0-6.833,0-10.213c-16.124,0-31.21,0-46.962,0c0,19.62-0.018,38.905,0.043,58.172
		c0.006,1.021,0.495,2.158,1.088,3.014C242.944,346.635,247.993,353.756,253.506,361.586z M164.515,299.587
		c3.056,9.017,10.177,14.805,19.7,15.428c9.713,0.636,18.564-4.187,22.61-12.763c4.046-8.606,3.258-16.84-1.944-23.783
		C191.135,285.656,177.883,292.595,164.515,299.587z M197.681,254.025c-16.161,8.838-32.023,17.506-48.086,26.29
		c2.078,4.034,3.759,7.292,5.379,10.428c18.16-3.393,38.759-14.475,48.264-25.868C201.477,261.434,199.68,257.937,197.681,254.025z
		 M200.328,231.531c-23.637,12.928-46.608,25.483-69.939,38.24c1.577,3.117,2.812,5.544,4.224,8.307
		c23.735-12.971,46.876-25.611,70.128-38.313C203.097,236.702,201.88,234.416,200.328,231.531z M125.34,319.049
		c-2.763,4.896-6.546,8.588-2.476,13.191c0.892,1.002,5.293,0.77,6.1-0.337C132.431,327.154,129.124,323.566,125.34,319.049z"/>
	<path fill-rule="evenodd" clip-rule="evenodd" fill="#FFFFFF" d="M265.077,163.395c17.879,8.949,34.621,17.335,52.8,26.431
		c-18.233,9.107-35.062,17.506-52.8,26.369C265.077,198.23,265.077,181.525,265.077,163.395z M274.276,200.938
		c7.763-3.906,14.444-7.268,22.194-11.18c-8.001-3.955-14.865-7.354-22.194-10.978C274.276,186.549,274.276,193.065,274.276,200.938
		z"/>
	<path fill-rule="evenodd" clip-rule="evenodd" fill="#FFFFFF" d="M195.548,165.822c0-6.119-0.146-11.821,0.037-17.512
		c0.183-5.66,3.093-9.126,8.96-9.181c12.079-0.123,24.145-0.043,36.736-0.043c0,2.738,0,5.22,0,8.515c-11.84,0-23.79,0-36.338,0
		c0,6.375,0,11.993,0,18.221C201.514,165.822,198.69,165.822,195.548,165.822z"/>
	<path fill-rule="evenodd" clip-rule="evenodd" fill="#FFFFFF" d="M195.45,176.445c3.295,0,5.825,0,8.753,0c0,2.714,0,5.208,0,8.179
		c-2.585,0-5.098,0-8.374,0C195.719,182.246,195.597,179.74,195.45,176.445z"/>
	<path fill-rule="evenodd" clip-rule="evenodd" fill="#FFFFFF" d="M372.271,213.42c2.757,0,5.098,0,7.922,0c0,2.701,0,5.397,0,8.496
		c-2.586,0-5.079,0-7.922,0C372.271,219.166,372.271,216.604,372.271,213.42z"/>
	<path fill-rule="evenodd" clip-rule="evenodd" fill="#FFFFFF" d="M372.144,240.535c0-3.032,0-5.569,0-8.459
		c2.695,0,5.189,0,8.099,0c0,2.695,0,5.385,0,8.459C377.688,240.535,375.206,240.535,372.144,240.535z"/>
	<path fill-rule="evenodd" clip-rule="evenodd" fill="#FFFFFF" d="M372.504,194.991c2.494,0,4.816,0,7.641,0
		c0,2.689,0,5.342,0,8.343c-2.487,0-4.78,0-7.641,0C372.504,200.59,372.504,197.955,372.504,194.991z"/>
	<path fill-rule="evenodd" clip-rule="evenodd" fill="#FFFFFF" d="M246.991,296.342c0-3.313,0-5.881,0-8.784
		c8.924,0,17.555,0,26.577,0c0,2.952,0,5.654,0,8.784C264.698,296.342,256.086,296.342,246.991,296.342z"/>
	<path fill-rule="evenodd" clip-rule="evenodd" fill="#FFFFFF" d="M247.101,305.73c9.034,0,17.481,0,26.382,0
		c0,3.02,0,5.727,0,9.003c-8.705,0-17.335,0-26.382,0C247.101,311.867,247.101,309.135,247.101,305.73z"/>
	<path fill-rule="evenodd" clip-rule="evenodd" fill="#FFFFFF" d="M246.972,332.918c0-2.86,0-5.428,0-8.478
		c5.807,0,11.333,0,17.274,0c0,2.83,0,5.379,0,8.478C258.8,332.918,253.256,332.918,246.972,332.918z"/>
</g>
</svg>
