<?xml version="1.0" encoding="utf-8"?>
<!-- Generator: Adobe Illustrator 16.0.0, SVG Export Plug-In . SVG Version: 6.00 Build 0)  -->
<!DOCTYPE svg PUBLIC "-//W3C//DTD SVG 1.1//EN" "http://www.w3.org/Graphics/SVG/1.1/DTD/svg11.dtd">
<svg version="1.1" id="Layer_1" xmlns="http://www.w3.org/2000/svg" xmlns:xlink="http://www.w3.org/1999/xlink" x="0px" y="0px"
	 width="512px" height="512px" viewBox="0 0 512 512" enable-background="new 0 0 512 512" xml:space="preserve">
<g>
	<g>
		<linearGradient id="SVGID_1_" gradientUnits="userSpaceOnUse" x1="99.3647" y1="99.8188" x2="415.4386" y2="415.8927">
			<stop  offset="0" style="stop-color:#00C9FF"/>
			<stop  offset="1" style="stop-color:#0091FF"/>
		</linearGradient>
		<path fill="url(#SVGID_1_)" d="M480,255.455c0,124.261-100.733,225-225,225s-225-100.739-225-225c0-124.267,100.733-225,225-225
			S480,131.188,480,255.455z"/>
		<linearGradient id="SVGID_2_" gradientUnits="userSpaceOnUse" x1="149.0537" y1="71.9507" x2="360.9473" y2="438.9611">
			<stop  offset="0" style="stop-color:#0091FF"/>
			<stop  offset="0.4483" style="stop-color:#0093FF"/>
			<stop  offset="1" style="stop-color:#00C9FF"/>
		</linearGradient>
		<circle fill="url(#SVGID_2_)" cx="255" cy="255.455" r="211.858"/>
	</g>
</g>
<g>
	<path fill-rule="evenodd" clip-rule="evenodd" fill="#FFFFFF" d="M357.445,135.516c-4.518,1.302-9.022,3.692-13.546,3.729
		c-39.614,0.293-79.224,0.152-118.838,0.183c-14.028,0.012-28.105-0.538-42.054,0.538c-6.07,0.465-13.472,2.922-17.329,7.158
		c-3.827,4.199-6.229,12.341-4.89,17.652c0.831,3.289,9.792,6.351,15.134,6.394c56.112,0.458,112.237,0.513,168.35,0.085
		c10.208-0.08,13.79,2.91,13.417,13.252c-0.69,18.961,0.03,37.964-0.452,56.932c-0.086,3.178-3.295,6.277-5.062,9.413
		c-1.534-3.185-4.303-6.327-4.4-9.554c-0.459-15.667-0.966-31.4,0.043-47.018c0.739-11.412-3.582-13.673-14.084-13.576
		c-51.986,0.495-103.979,0.226-155.978,0.226c-6.883,0-13.766,0-21.663,0c-0.184,3.509-0.575,7.519-0.581,11.528
		c-0.037,53.649-0.043,107.292-0.013,160.936c0.006,16.833,3.264,20.201,20.232,20.323c23.515,0.159,47.036,0.031,70.556,0.08
		c3.295,0.006,6.791-0.313,9.805,0.685c2.286,0.758,3.949,3.374,5.892,5.159c-2.139,1.387-4.267,3.973-6.418,3.984
		c-30.122,0.264-60.25,0.563-90.367-0.03c-10.917-0.214-20.605-13.025-20.624-25.226c-0.073-48.692-0.012-97.385-0.037-146.076
		c-0.012-13.19,0.116-26.394-0.281-39.578c-0.782-26.394,20.147-43.82,46.015-43.325c51.553,0.996,103.148,0.312,154.731,0.367
		c3.625,0,7.25,0.385,10.874,0.587C356.399,132.069,356.919,133.792,357.445,135.516z"/>
	<path fill-rule="evenodd" clip-rule="evenodd" fill="#FFFFFF" d="M252.622,320.724c0.049-35.587,26.913-62.304,62.622-62.304
		c34.908,0.006,63.381,28.282,63.026,62.579c-0.354,34.45-29.212,62.977-63.448,62.732
		C279.811,383.48,252.573,355.889,252.622,320.724z M315.116,375.058c30.085,0,54.261-23.82,54.542-53.747
		c0.287-29.976-24.866-55.439-54.683-55.373c-29.719,0.067-55.141,25.808-54.811,55.489
		C260.495,350.896,285.251,375.063,315.116,375.058z"/>
	<path fill-rule="evenodd" clip-rule="evenodd" fill="#FFFFFF" d="M345.287,160.437c-58.466,0-116.925,0-175.452,0
		c-1.473-10.819,5.672-10.581,12.494-10.581c38.79-0.024,77.585-0.012,116.381-0.012c13.203,0,26.431-0.403,39.597,0.293
		c3.374,0.183,6.553,3.875,9.829,5.954C347.182,157.54,346.229,158.988,345.287,160.437z"/>
	<path fill-rule="evenodd" clip-rule="evenodd" fill="#FFFFFF" d="M318.05,290.84c0,13.9,0,27.794,0,44.389
		c8.509-5.604,14.23-9.37,19.951-13.142c0.514,0.758,1.027,1.517,1.54,2.274c-9.156,7.609-18.313,15.226-29.156,24.242
		c-4.376-4.444-12.982-13.197-21.589-21.95c1.296-1.479,2.592-2.971,3.888-4.456c5.274,3.612,10.544,7.219,16.675,11.418
		c4.597-14.126-2.427-29.725,4.327-42.94C315.141,290.73,316.596,290.785,318.05,290.84z"/>
</g>
</svg>
