<?xml version="1.0" encoding="utf-8"?>
<!-- Generator: Adobe Illustrator 16.0.0, SVG Export Plug-In . SVG Version: 6.00 Build 0)  -->
<!DOCTYPE svg PUBLIC "-//W3C//DTD SVG 1.1//EN" "http://www.w3.org/Graphics/SVG/1.1/DTD/svg11.dtd">
<svg version="1.1" id="Layer_1" xmlns="http://www.w3.org/2000/svg" xmlns:xlink="http://www.w3.org/1999/xlink" x="0px" y="0px"
	 width="512px" height="512px" viewBox="0 0 512 512" enable-background="new 0 0 512 512" xml:space="preserve">
<g>
	<g>
		<linearGradient id="SVGID_1_" gradientUnits="userSpaceOnUse" x1="100.647" y1="100.6938" x2="416.7201" y2="416.767">
			<stop  offset="0" style="stop-color:#DC00FF"/>
			<stop  offset="1" style="stop-color:#9A00FF"/>
		</linearGradient>
		<path fill="url(#SVGID_1_)" d="M481.282,256.33c0,124.261-100.733,225-225,225s-225-100.739-225-225
			c0-124.267,100.733-225,225-225S481.282,132.063,481.282,256.33z"/>
		<linearGradient id="SVGID_2_" gradientUnits="userSpaceOnUse" x1="150.3359" y1="72.8252" x2="362.229" y2="439.8348">
			<stop  offset="0" style="stop-color:#9A00FF"/>
			<stop  offset="1" style="stop-color:#DC00FF"/>
		</linearGradient>
		<circle fill="url(#SVGID_2_)" cx="256.282" cy="256.33" r="211.858"/>
	</g>
</g>
<g>
	<path fill-rule="evenodd" clip-rule="evenodd" fill="#FFFFFF" d="M176.337,146.324c0.153-2.897,0.434-4.658,0.299-6.4
		c-0.397-5.538,2.029-7.8,7.604-7.8c48.148,0.104,96.265,0.159,144.395-0.012c10.587-0.042,6.424,8.093,8.368,14.193
		c4.933,0,10.177,0.165,15.396-0.043c5.489-0.208,7.488,2.164,7.965,7.641c3.625,41.589-12.671,71.956-49.706,91.657
		c-7.916,4.211-13.582,12.891-21.633,16.528c-9.798,4.413-11.767,10.93-10.036,19.743c1.932,9.884,3.753,20.007,7.481,29.285
		c3.961,9.854,11.913,14.859,23.606,14.401c18.423-0.734,17.506-2.17,17.457,16.925c-0.043,12.995-0.195,25.984,0.055,38.967
		c0.129,6.192-2.176,8.595-8.49,8.558c-41.784-0.171-83.551-0.171-125.323,0c-6.333,0.037-8.588-2.402-8.49-8.569
		c0.22-15.795,0.244-31.583-0.019-47.366c-0.104-6.692,2.671-9.395,9.163-8.74c1.247,0.135,2.524,0.019,3.814,0.019
		c19.529,0,27.133-5.013,32.286-24.022c2.555-9.419,2.714-19.548,3.313-29.407c0.123-1.932-2.323-4.548-4.217-6.032
		c-7.188-5.605-14.633-10.887-21.999-16.253c-2.83-2.066-5.599-4.34-8.674-6.04c-35.03-19.395-51.406-51.583-46.345-91.186
		c0.557-4.468,2.867-6.137,7.109-6.082C165.023,146.379,170.329,146.324,176.337,146.324z M186.582,142.424
		c0,9.468-0.3,18.117,0.061,26.717c0.984,23.912,7.09,46.271,21.601,65.728c26.907,36.063,69.34,36.155,96.284,0.135
		c20.617-27.574,23.404-59.31,21.394-92.58C279.479,142.424,233.513,142.424,186.582,142.424z M195.689,379.606
		c40.941,0,81.002,0,121.363,0c0-14.762,0-29.071,0-43.552c-40.685,0-80.911,0-121.363,0
		C195.689,350.798,195.689,364.937,195.689,379.606z M283.227,324.875c-12.28-16.223-15.043-34.291-14.646-53.185
		c-8.38,0-16.106,0-24.346,0c0.55,19.132-2.487,37.115-14.492,53.185C247.927,324.875,265.035,324.875,283.227,324.875z
		 M324.118,223.561c21.639-17.366,29.028-39.89,25.238-66.626c-4.62,0-8.716,0-13.228,0
		C337.102,180.475,333.195,202.467,324.118,223.561z M188.623,224.24c-3.337-11.424-7.322-22.115-9.438-33.16
		c-2.115-11.1-2.341-22.549-3.447-34.352c-3.93,0-8.081,0-12.268,0C159.876,183.922,167.168,206.464,188.623,224.24z"/>
</g>
</svg>
