<?xml version="1.0" encoding="utf-8"?>
<!-- Generator: Adobe Illustrator 16.0.0, SVG Export Plug-In . SVG Version: 6.00 Build 0)  -->
<!DOCTYPE svg PUBLIC "-//W3C//DTD SVG 1.1//EN" "http://www.w3.org/Graphics/SVG/1.1/DTD/svg11.dtd">
<svg version="1.1" id="Layer_1" xmlns="http://www.w3.org/2000/svg" xmlns:xlink="http://www.w3.org/1999/xlink" x="0px" y="0px"
	 width="512px" height="512px" viewBox="0 0 512 512" enable-background="new 0 0 512 512" xml:space="preserve">
<g>
	<g>
		<linearGradient id="SVGID_1_" gradientUnits="userSpaceOnUse" x1="100.5396" y1="100.6938" x2="416.6134" y2="416.7677">
			<stop  offset="0" style="stop-color:#DC00FF"/>
			<stop  offset="1" style="stop-color:#9A00FF"/>
		</linearGradient>
		<path fill="url(#SVGID_1_)" d="M481.175,256.33c0,124.261-100.733,225-225,225s-225-100.739-225-225
			c0-124.267,100.733-225,225-225S481.175,132.063,481.175,256.33z"/>
		<linearGradient id="SVGID_2_" gradientUnits="userSpaceOnUse" x1="150.228" y1="72.8247" x2="362.1216" y2="439.8351">
			<stop  offset="0" style="stop-color:#9A00FF"/>
			<stop  offset="1" style="stop-color:#DC00FF"/>
		</linearGradient>
		<circle fill="url(#SVGID_2_)" cx="256.175" cy="256.33" r="211.858"/>
	</g>
</g>
<g>
	<path fill-rule="evenodd" clip-rule="evenodd" fill="#FFFFFF" d="M187.477,267.815c-1.821,2.61-3.423,4.927-5.024,7.225
		c-2.372,3.387-4.773,6.742-7.072,10.165c-0.679,1.021-1.357,1.271-2.549,1.046c-17.873-3.436-33.227-11.614-45.764-24.799
		c-16.253-17.084-24.077-37.598-23.552-61.1c0.764-34.187,22.665-64.768,54.64-76.833c32.561-12.286,68.716-3.802,92.451,21.729
		c1.87,2.011,3.576,4.187,5.544,6.504c-1.143,0.464-2.017,0.843-2.903,1.161c-5.006,1.791-10.043,3.515-15.012,5.397
		c-1.467,0.563-2.354,0.385-3.509-0.758c-17.567-17.194-38.49-23.374-62.353-17.555c-32.873,8.026-53.588,40.098-48.099,73.497
		c4.951,30.183,31.008,53.147,61.412,54.144C186.15,267.656,186.609,267.729,187.477,267.815z"/>
	<path fill-rule="evenodd" clip-rule="evenodd" fill="#FFFFFF" d="M149.946,233.53c2.445-2.396,4.927-4.798,7.384-7.243
		c7.023-7.011,14.071-14.022,21.033-21.1c0.636-0.642,1.082-1.767,1.094-2.671c0.067-14.712,0.037-29.425,0.037-44.138
		c0-2.378,0.006-2.384,2.377-2.384c4.994-0.006,9.982,0.03,14.982-0.031c1.283-0.024,1.644,0.385,1.644,1.663
		c-0.043,17.103-0.012,34.205-0.067,51.302c0,0.807-0.41,1.822-0.965,2.39c-10.673,10.758-21.406,21.442-32.115,32.158
		c-0.563,0.563-1.015,1.069-1.907,0.403c-4.333-3.258-8.704-6.467-13.068-9.7C150.252,234.093,150.19,233.922,149.946,233.53z"/>
</g>
<g>
	<path fill-rule="evenodd" clip-rule="evenodd" d="M270.172,168.549c-7.805-2.023-15.207-0.685-19.315,1.62
		c-3.992,2.243-7.683,4.865-12.372,5.843c-4.499,0.947-7.066,4.389-9.493,8.325c-2.408,3.918-3.942,7.854-3.796,12.292
		c0.184,5.672,0.862,11.327,1.271,16.993c0.055,0.789,0.018,1.773-0.397,2.354c-3.136,4.358-2.335,11.253,1.834,14.694
		c0.385,0.318,0.935,0.44,1.308,0.758c0.898,0.764,1.932,1.455,2.542,2.408c0.636,0.99,0.832,2.244,1.229,3.387
		c2.567,7.494,6.112,14.193,13.392,18.337c7.788,4.431,15.471,8.221,24.712,4.065c6.517-2.935,13.044-5.966,16.98-12.097
		c2.672-4.15,4.114-9.089,6.211-13.619c0.409-0.88,1.186-1.828,2.035-2.207c5.306-2.348,7.365-11.223,3.618-15.587
		c-0.599-0.685-1.039-1.876-0.923-2.745c1.027-7.194,0.844-14.254-0.819-21.387c-2.371-10.227-8.74-16.577-18.288-19.988
		c-3.691-1.314-7.592-2.023-11.283-2.982C268.919,168.928,269.348,168.799,270.172,168.549z M263.002,341.049
		c-4.908-6.9-9.767-13.674-14.553-20.501c-1.027-1.455-2.207-3.008-2.585-4.683c-0.936-4.083-1.516-8.252-2.121-12.402
		c-1.815-12.487-3.619-24.963-5.3-37.463c-0.306-2.273-1.296-2.091-2.75-1.351c-3.466,1.76-6.974,3.466-10.348,5.379
		c-10.936,6.21-21.858,12.451-32.702,18.802c-6.491,3.814-11.057,9.34-13.142,16.656c-1.919,6.755-3.82,13.527-5.385,20.373
		c-1.491,6.571-2.549,13.246-3.814,19.963c41.479,0,82.604,0,124.205,0c-7.243-8.27-11.956-17.433-15.257-27.971
		C273.528,326.019,268.332,333.451,263.002,341.049z M383.626,249.472c-19.762-15.36-52.8-17.384-76.656,4.077
		c-24.456,22.023-26.669,59.328-6.479,83.991c21.094,25.771,56.314,29.083,81.161,12.665c28.687-18.961,32.127-51.968,23.839-71.619
		c-0.367,0.232-0.795,0.379-1.045,0.678c-2.556,3.038-4.799,6.406-7.689,9.065c-3.809,3.496-4.107,7.652-4.212,12.384
		c-0.366,15.801-7.965,27.787-20.996,36.167c-8.447,5.429-17.922,7.622-28.142,6.412c-9.469-1.124-17.922-4.535-24.872-10.947
		c-11.926-11.009-16.84-24.737-14.413-40.887c1.24-8.209,4.737-15.477,10.25-21.632c7.567-8.447,16.847-13.71,28.326-15.073
		c10.201-1.223,19.565,0.776,28.282,6.003c1.797,1.082,2.939,1.143,3.967-0.776c0.275-0.532,0.764-0.93,1.155-1.4
		C378.613,255.548,381.113,252.51,383.626,249.472z M350.931,302.613c-1.504-1.24-2.886-2.39-4.272-3.539
		c-5.239-4.327-10.422-8.716-15.728-12.958c-4.298-3.447-10.673-1.528-12.519,3.618c-1.449,4.041-0.373,7.274,3.826,10.783
		c8.074,6.748,16.186,13.44,24.315,20.128c2.946,2.421,7.018,2.866,9.988,0.397c2.799-2.323,5.061-5.336,7.438-8.148
		c9.071-10.715,18.063-21.503,27.14-32.219c8.575-10.135,17.237-20.189,25.782-30.336c3.196-3.784,2.897-8.961-0.195-11.913
		c-3.222-3.063-9.31-2.8-12.104,0.636c-3.575,4.407-7.444,8.582-11.1,12.934c-7.824,9.291-15.568,18.644-23.393,27.952
		C363.791,287.467,357.422,294.937,350.931,302.613z M272.189,283.457c-2.586-2.414-5.037-4.865-7.684-7.065
		c-0.587-0.495-2.237-0.569-2.781-0.116c-2.756,2.316-5.312,4.871-7.903,7.322c1.204,1.907,2.127,3.552,3.222,5.08
		c1.18,1.65,1.485,3.178,0.88,5.263c-1.956,6.754-3.729,13.581-5.306,20.434c-0.317,1.382,0.086,3.288,0.85,4.499
		c2.494,3.918,5.403,7.561,7.959,11.43c1.143,1.725,1.932,1.73,3.025,0.129c2.787-4.034,5.685-8.008,8.307-12.151
		c0.654-1.052,0.862-2.763,0.557-3.998c-1.81-7.225-3.845-14.395-5.74-21.607c-0.195-0.728-0.171-1.718,0.178-2.335
		C268.986,288.194,270.423,286.159,272.189,283.457z"/>
	<path fill-rule="evenodd" clip-rule="evenodd" fill="#FFFFFF" d="M270.172,168.549c-0.824,0.25-1.253,0.379-1.552,0.465
		c3.691,0.959,7.592,1.668,11.283,2.982c9.548,3.411,15.917,9.762,18.288,19.988c1.663,7.133,1.847,14.193,0.819,21.387
		c-0.116,0.868,0.324,2.06,0.923,2.745c3.747,4.364,1.688,13.239-3.618,15.587c-0.85,0.379-1.626,1.326-2.035,2.207
		c-2.097,4.529-3.539,9.468-6.211,13.619c-3.937,6.131-10.464,9.162-16.98,12.097c-9.241,4.156-16.925,0.366-24.712-4.065
		c-7.28-4.145-10.825-10.844-13.392-18.337c-0.397-1.143-0.593-2.396-1.229-3.387c-0.611-0.953-1.644-1.644-2.542-2.408
		c-0.373-0.318-0.923-0.44-1.308-0.758c-4.169-3.441-4.97-10.336-1.834-14.694c0.416-0.581,0.453-1.565,0.397-2.354
		c-0.41-5.666-1.088-11.32-1.271-16.993c-0.146-4.438,1.388-8.374,3.796-12.292c2.427-3.937,4.994-7.378,9.493-8.325
		c4.688-0.978,8.38-3.6,12.372-5.843C254.965,167.864,262.367,166.525,270.172,168.549z"/>
	<path fill-rule="evenodd" clip-rule="evenodd" fill="#FFFFFF" d="M263.002,341.049c5.33-7.598,10.526-15.03,16.247-23.197
		c3.301,10.538,8.014,19.701,15.257,27.971c-41.601,0-82.726,0-124.205,0c1.265-6.717,2.323-13.392,3.814-19.963
		c1.565-6.846,3.466-13.618,5.385-20.373c2.084-7.316,6.65-12.842,13.142-16.656c10.844-6.351,21.767-12.592,32.702-18.802
		c3.374-1.913,6.882-3.619,10.348-5.379c1.455-0.74,2.445-0.923,2.75,1.351c1.681,12.5,3.484,24.976,5.3,37.463
		c0.605,4.15,1.186,8.319,2.121,12.402c0.379,1.675,1.559,3.228,2.585,4.683C253.235,327.375,258.094,334.148,263.002,341.049z"/>
	<path fill-rule="evenodd" clip-rule="evenodd" fill="#FFFFFF" d="M383.626,249.472c-2.513,3.038-5.013,6.076-7.524,9.107
		c-0.392,0.471-0.88,0.868-1.155,1.4c-1.027,1.919-2.17,1.858-3.967,0.776c-8.717-5.227-18.081-7.226-28.282-6.003
		c-11.479,1.363-20.759,6.626-28.326,15.073c-5.513,6.155-9.01,13.423-10.25,21.632c-2.427,16.149,2.487,29.878,14.413,40.887
		c6.95,6.412,15.403,9.823,24.872,10.947c10.22,1.21,19.694-0.983,28.142-6.412c13.031-8.38,20.63-20.366,20.996-36.167
		c0.104-4.731,0.403-8.888,4.212-12.384c2.891-2.659,5.134-6.027,7.689-9.065c0.25-0.299,0.678-0.445,1.045-0.678
		c8.288,19.651,4.848,52.658-23.839,71.619c-24.847,16.418-60.067,13.105-81.161-12.665c-20.189-24.663-17.977-61.968,6.479-83.991
		C330.826,232.088,363.864,234.111,383.626,249.472z"/>
	<path fill-rule="evenodd" clip-rule="evenodd" fill="#FFFFFF" d="M350.931,302.613c6.491-7.677,12.86-15.146,19.181-22.665
		c7.824-9.309,15.568-18.661,23.393-27.952c3.655-4.352,7.524-8.527,11.1-12.934c2.794-3.436,8.882-3.698,12.104-0.636
		c3.093,2.952,3.392,8.129,0.195,11.913c-8.545,10.146-17.207,20.201-25.782,30.336c-9.077,10.716-18.068,21.504-27.14,32.219
		c-2.378,2.813-4.64,5.825-7.438,8.148c-2.971,2.469-7.042,2.023-9.988-0.397c-8.13-6.688-16.241-13.38-24.315-20.128
		c-4.199-3.509-5.275-6.742-3.826-10.783c1.846-5.146,8.221-7.065,12.519-3.618c5.306,4.242,10.488,8.631,15.728,12.958
		C348.045,300.224,349.427,301.373,350.931,302.613z"/>
	<path fill-rule="evenodd" clip-rule="evenodd" fill="#FFFFFF" d="M272.189,283.457c-1.767,2.702-3.203,4.737-4.438,6.883
		c-0.349,0.617-0.373,1.607-0.178,2.335c1.896,7.213,3.931,14.383,5.74,21.607c0.306,1.235,0.098,2.946-0.557,3.998
		c-2.622,4.144-5.52,8.117-8.307,12.151c-1.094,1.602-1.883,1.596-3.025-0.129c-2.556-3.869-5.465-7.512-7.959-11.43
		c-0.764-1.211-1.167-3.117-0.85-4.499c1.577-6.853,3.35-13.68,5.306-20.434c0.605-2.085,0.3-3.612-0.88-5.263
		c-1.094-1.528-2.018-3.173-3.222-5.08c2.592-2.451,5.147-5.006,7.903-7.322c0.544-0.453,2.194-0.379,2.781,0.116
		C267.152,278.592,269.604,281.043,272.189,283.457z"/>
</g>
</svg>
