<?xml version="1.0" encoding="utf-8"?>
<!-- Generator: Adobe Illustrator 16.0.0, SVG Export Plug-In . SVG Version: 6.00 Build 0)  -->
<!DOCTYPE svg PUBLIC "-//W3C//DTD SVG 1.1//EN" "http://www.w3.org/Graphics/SVG/1.1/DTD/svg11.dtd">
<svg version="1.1" id="Layer_1" xmlns="http://www.w3.org/2000/svg" xmlns:xlink="http://www.w3.org/1999/xlink" x="0px" y="0px"
	 width="512px" height="512px" viewBox="0 0 512 512" enable-background="new 0 0 512 512" xml:space="preserve">
<g>
	<g>
		<linearGradient id="SVGID_1_" gradientUnits="userSpaceOnUse" x1="100.5059" y1="100.6943" x2="416.579" y2="416.7675">
			<stop  offset="0" style="stop-color:#FFA300"/>
			<stop  offset="1" style="stop-color:#FF6400"/>
		</linearGradient>
		<path fill="url(#SVGID_1_)" d="M481.141,256.33c0,124.261-100.733,225-225,225s-225-100.739-225-225
			c0-124.267,100.733-225,225-225S481.141,132.063,481.141,256.33z"/>
		<linearGradient id="SVGID_2_" gradientUnits="userSpaceOnUse" x1="150.1943" y1="72.8252" x2="362.0874" y2="439.8348">
			<stop  offset="0" style="stop-color:#FF6400"/>
			<stop  offset="1" style="stop-color:#FFA300"/>
		</linearGradient>
		<circle fill="url(#SVGID_2_)" cx="256.141" cy="256.33" r="211.858"/>
	</g>
</g>
<g>
	<path fill-rule="evenodd" clip-rule="evenodd" fill="#FFFFFF" d="M411.593,151.422c0,62.897,0,125.788,0,188.674
		c-2.065,2.885-4.321,5.574-8.104,6.105c-2.061,0.288-4.163,0.435-6.247,0.435c-35.318-0.03-70.643-0.092-105.966-0.141
		c-0.789-0.006-1.577,0-2.408,0c-0.043,0.703-0.116,1.069-0.092,1.437c0.409,6.174,0.99,12.354,1.204,18.526
		c0.342,9.628,4.951,16.278,13.404,20.6c2.849,1.448,5.532,3.252,8.239,4.97c1.657,1.057,3.49,2.298,2.843,4.578
		c-0.673,2.371-2.94,1.883-4.743,1.883c-28.9,0.018-57.806,0.012-86.699,0.012c-4.707,0-9.419,0.079-14.12-0.067
		c-0.923-0.03-2.316-0.715-2.61-1.454c-0.367-0.899-0.08-2.354,0.471-3.228c0.586-0.948,1.748-1.583,2.75-2.207
		c3.814-2.354,7.695-4.584,11.485-6.968c5.238-3.308,8.362-8.063,8.985-14.242c0.648-6.534,1.051-13.087,1.546-19.634
		c0.098-1.302,0.141-2.609,0.22-4.175c-1.235,0-2.188,0-3.142,0c-35.397,0-70.794,0-106.192-0.012c-1.718,0-3.447-0.006-5.146-0.202
		c-4.713-0.55-7.555-3.404-8.154-8.117c-0.134-1.026-0.183-2.084-0.183-3.123c-0.006-59.743,0-119.481-0.031-179.23
		c0-4.938,1.626-8.741,6.455-10.69c96.503,0,193.007,0,289.511,0C407.748,146.563,410.028,148.604,411.593,151.422z
		 M397.076,324.166c0-52.952,0-105.647,0-158.515c-91.247,0-182.378,0-273.515,0c0,52.928,0,105.679,0,158.515
		C214.784,324.166,305.798,324.166,397.076,324.166z"/>
	<path fill-rule="evenodd" clip-rule="evenodd" fill="#FFFFFF" d="M323.628,197.901c0,0.911,0,1.864,0,2.806
		c0.024,14.108-0.018,28.215,0.159,42.323c0.024,1.95,0.74,4.132,1.785,5.801c7.622,12.121,15.403,24.138,23.136,36.191
		c0.274,0.435,0.538,0.887,0.801,1.327c-11.138,8.221-32.983,9.829-49.719-1.59c-18.735-12.774-26.095-36.546-17.739-57.286
		C290.597,206.269,311.227,196.929,323.628,197.901z"/>
	<path fill-rule="evenodd" clip-rule="evenodd" fill="#FFFFFF" d="M357.357,286.788c-8.399-13.001-16.565-25.647-24.902-38.557
		c12.812-9.597,25.568-19.15,38.618-28.93c6.406,9.981,8.411,20.739,6.975,32.151C376.227,265.994,369.502,277.772,357.357,286.788z
		"/>
	<path fill-rule="evenodd" clip-rule="evenodd" fill="#FFFFFF" d="M237.051,200.285c-3.967,0-7.176,0.043-10.379-0.024
		c-1.1-0.018-2.433,0.024-3.233-0.556c-0.88-0.636-1.669-1.932-1.749-2.989c-0.055-0.831,0.862-2.005,1.675-2.536
		c0.789-0.52,1.987-0.569,3.014-0.581c5.672-0.049,11.345-0.049,17.023-0.006c3.478,0.018,4.486,0.972,4.511,4.346
		c0.049,6.045,0.043,12.091,0.006,18.142c-0.012,2.598-1.21,3.955-3.283,3.942c-2.078-0.006-3.233-1.32-3.276-3.955
		c-0.061-3.185-0.012-6.382-0.012-9.572c-0.275-0.202-0.544-0.416-0.819-0.617c-0.452,0.721-0.844,1.503-1.4,2.133
		c-8.533,9.688-17.096,19.358-25.642,29.034c-3.197,3.613-4.138,3.686-7.94,0.648c-7.458-5.966-14.982-11.853-22.359-17.922
		c-1.871-1.541-2.958-1.571-4.75,0.153c-9.701,9.291-19.542,18.441-29.334,27.641c-0.269,0.256-0.525,0.525-0.807,0.782
		c-1.974,1.767-3.735,2.036-4.92,0.752c-1.229-1.314-0.917-4.493,0.593-5.917c10.99-10.324,21.98-20.648,32.977-30.959
		c2.885-2.702,3.778-2.793,6.895-0.33c7.677,6.057,15.293,12.188,22.934,18.282c0.697,0.55,1.424,1.058,2.384,1.767
		C218.365,221.495,227.498,211.128,237.051,200.285z"/>
	<path fill-rule="evenodd" clip-rule="evenodd" fill="#FFFFFF" d="M247.907,263.035c0,8.289,0.018,16.577,0,24.866
		c-0.012,3.93-1.106,5.061-5.055,5.109c-3.435,0.056-6.871,0.086-10.306-0.019c-3.356-0.091-4.444-1.21-4.45-4.522
		c-0.024-16.804-0.024-33.606,0.006-50.404c0.006-3.814,0.96-4.737,4.817-4.811c3.435-0.067,6.864-0.055,10.299-0.012
		c3.655,0.049,4.67,1.058,4.682,4.701C247.932,246.306,247.907,254.667,247.907,263.035z"/>
	<path fill-rule="evenodd" clip-rule="evenodd" fill="#FFFFFF" d="M330.321,241.495c-0.067-0.954-0.146-1.602-0.146-2.25
		c-0.006-14.254,0.043-28.502-0.055-42.75c-0.019-2.274,0.77-2.842,2.86-2.646c9.762,0.917,18.185,5.055,25.795,10.923
		c2.86,2.207,5.207,5.073,7.763,7.671c0.794,0.807,0.972,1.522-0.159,2.366c-11.662,8.686-23.288,17.415-34.927,26.125
		C331.22,241.11,330.921,241.202,330.321,241.495z"/>
	<path fill-rule="evenodd" clip-rule="evenodd" fill="#FFFFFF" d="M190.584,267.919c0,6.639,0.024,13.282-0.006,19.927
		c-0.024,4.145-1.002,5.122-5.195,5.172c-3.362,0.042-6.724,0.079-10.08-0.019c-3.502-0.098-4.56-1.144-4.572-4.64
		c-0.037-13.502-0.037-27.011,0-40.52c0.006-3.619,0.959-4.554,4.499-4.609c3.655-0.055,7.316-0.055,10.972,0.006
		c3.301,0.055,4.279,0.996,4.315,4.309c0.061,6.791,0.018,13.582,0.018,20.373C190.554,267.919,190.566,267.919,190.584,267.919z"/>
	<path fill-rule="evenodd" clip-rule="evenodd" fill="#FFFFFF" d="M219.35,273.182c0.006,5.067,0.019,10.141,0,15.208
		c-0.019,3.216-1.235,4.529-4.419,4.591c-3.655,0.073-7.311,0.061-10.959-0.037c-3.472-0.092-4.486-1.186-4.493-4.639
		c-0.019-10.214-0.019-20.428,0.006-30.643c0.006-3.417,0.751-4.297,4.125-4.407c3.796-0.134,7.604-0.128,11.4-0.018
		c3.429,0.098,4.321,1.106,4.34,4.511C219.368,262.895,219.35,268.035,219.35,273.182z"/>
	<path fill-rule="evenodd" clip-rule="evenodd" fill="#FFFFFF" d="M161.954,278.256c0.006,3.508,0.042,7.011,0,10.52
		c-0.043,2.823-1.253,4.168-4.059,4.235c-3.875,0.098-7.757,0.104-11.632-0.03c-3.074-0.116-4.168-1.277-4.199-4.34
		c-0.061-7.164-0.079-14.321-0.024-21.479c0.019-2.781,1.021-3.863,3.747-3.937c4.175-0.116,8.355-0.116,12.53,0.019
		c2.586,0.079,3.57,1.204,3.625,3.826C162.002,270.798,161.954,274.527,161.954,278.256z"/>
</g>
</svg>
