<?xml version="1.0" encoding="utf-8"?>
<!-- Generator: Adobe Illustrator 16.0.0, SVG Export Plug-In . SVG Version: 6.00 Build 0)  -->
<!DOCTYPE svg PUBLIC "-//W3C//DTD SVG 1.1//EN" "http://www.w3.org/Graphics/SVG/1.1/DTD/svg11.dtd">
<svg version="1.1" id="Layer_1" xmlns="http://www.w3.org/2000/svg" xmlns:xlink="http://www.w3.org/1999/xlink" x="0px" y="0px"
	 width="512px" height="512px" viewBox="0 0 512 512" enable-background="new 0 0 512 512" xml:space="preserve">
<g>
	<g>
		<linearGradient id="SVGID_1_" gradientUnits="userSpaceOnUse" x1="79.3091" y1="79.4897" x2="438.9293" y2="439.11">
			<stop  offset="0" style="stop-color:#877EFF"/>
			<stop  offset="0.505" style="stop-color:#0087FF"/>
			<stop  offset="1" style="stop-color:#9635EE"/>
		</linearGradient>
		<path fill="url(#SVGID_1_)" d="M512.387,256.569c0,141.374-114.612,256-256,256c-141.387,0-256-114.626-256-256
			c0-141.387,114.613-256,256-256C397.774,0.569,512.387,115.182,512.387,256.569z"/>
		<linearGradient id="SVGID_2_" gradientUnits="userSpaceOnUse" x1="135.8433" y1="47.7817" x2="376.9307" y2="465.3574">
			<stop  offset="0" style="stop-color:#00A9FF"/>
			<stop  offset="0.5151" style="stop-color:#0087FF"/>
			<stop  offset="1" style="stop-color:#9635EE"/>
		</linearGradient>
		<circle fill="url(#SVGID_2_)" cx="256.387" cy="256.569" r="241.048"/>
	</g>
</g>
<g>
	<g>
		<g>
			<g>
				<g>
					<path fill="#FFFFFF" d="M199.623,376.418h-42.945c-6.628,0-13.012-1.516-19.146-4.534c-6.634-3.269-11.697-8.471-15.182-15.606
						c-3.477-7.142-5.216-14.959-5.216-23.513c0-8.457,1.669-16.142,5.042-23.021c3.693-7.469,8.818-12.915,15.355-16.35
						c3.609-1.837,7.073-3.137,10.39-3.902c3.311-0.75,7.129-1.119,11.385-1.119h39.815v15.738h-36.77
						c-3.282,0-6.016,0.431-8.248,1.294c-2.232,0.862-4.43,2.412-6.628,4.632c-2.17,2.238-3.7,4.395-4.527,6.502
						c-0.834,2.101-1.272,4.723-1.272,7.852h57.946v15.752h-57.946c0,2.838,0.396,5.342,1.154,7.483
						c0.751,2.143,2.114,4.341,4.11,6.628c1.976,2.254,4.034,3.978,6.204,5.146c2.148,1.169,4.701,1.76,7.649,1.76h38.828V376.418z"
						/>
				</g>
			</g>
			<g>
				<g>
					<path fill="#FFFFFF" d="M302.795,376.418H277.89l-22.88-34.391h-23.771v34.391h-20.905v-88.045h64.491
						c7.295,0,13.345,2.816,18.13,8.456c4.799,5.676,7.185,12.345,7.185,20.064c0,6.106-2.053,11.302-6.169,15.578
						c-4.117,4.264-9.326,6.955-15.62,8.047L302.795,376.418z M274.705,316.011c0-4.103-1.551-7.247-4.597-9.466
						c-3.074-2.211-7.219-3.317-12.407-3.317h-26.462v24.55h27.088c3.943,0,7.47-0.868,10.577-2.614
						C272.758,322.993,274.705,319.933,274.705,316.011z"/>
				</g>
			</g>
			<g>
				<g>
					<path fill="#FFFFFF" d="M396.759,317.52c0,7.803-3.025,14.438-9.027,19.918c-6.022,5.495-13.186,8.242-21.524,8.242h-37.464
						v30.738h-21.672v-88.045h60.325c9.402,0,16.845,3.213,22.311,9.674C394.402,303.659,396.759,310.141,396.759,317.52z
						 M372.188,316.387c0-3.763-1.558-6.886-4.667-9.403c-3.095-2.504-6.662-3.756-10.703-3.756h-28.075v27.207h28.701
						c4.132,0,7.608-1.336,10.452-4.013C370.756,323.737,372.188,320.399,372.188,316.387z"/>
				</g>
			</g>
		</g>
	</g>
	<g>
		<g>
			<g>
				<path fill-rule="evenodd" clip-rule="evenodd" fill="#FFFFFF" d="M154.126,190.5c19.765,8.784,40.775,12.358,62.035,15.022
					c20.266,2.531,40.504,2.545,60.798,0.8c5.675-0.487,10,2.726,11.489,8.004c-8.882,1.836-17.839,3.533-26.707,5.564
					c-9.235,2.135-18.283,5.313-27.616,6.711c-9.619,1.426-19.584,2.351-29.209,1.572c-20.558-1.669-36.261-11.976-46.895-29.793
					c-0.751-1.238-1.613-2.435-2.414-3.665C155.106,193.303,154.613,191.912,154.126,190.5z"/>
				<path fill-rule="evenodd" clip-rule="evenodd" fill="#FFFFFF" d="M289.95,198.38c-18.882,2.406-37.514,1.349-56.166,0.188
					c-18.11-1.127-35.149-5.759-50.908-14.807c-20.259-11.621-31.866-29.884-39.544-51.422c0.702-0.049,1.058-0.209,1.224-0.091
					c36.686,24.835,77.607,38.981,120.608,47.869c4.951,1.015,9.958,1.836,14.813,3.136
					C287.342,185.214,290.812,190.486,289.95,198.38z"/>
				<path fill-rule="evenodd" clip-rule="evenodd" fill="#FFFFFF" d="M231.58,294.563c7.852-6.037,16.065-11.295,22.964-17.929
					c9.362-9.021,17.708-19.083,26.462-28.744c1.601-1.76,2.698-4.096,4.569-5.411c1.787-1.3,4.264-1.634,7.143-2.65
					c-5.939,11.795-11.058,22.721-16.886,33.258c-5.271,9.521-12.338,17.491-23.138,21.183
					C245.718,296.684,238.722,296.496,231.58,294.563z"/>
				<path fill-rule="evenodd" clip-rule="evenodd" fill="#FFFFFF" d="M295.457,250.978c-0.931,7.456-1.432,14.847-2.857,22.045
					c-1.419,7.206-3.005,14.626-5.918,21.295c-4.674,10.711-13.791,15.719-26.088,16.588c2.414-3.089,4.416-5.62,6.356-8.165
					c10.355-13.701,16.816-29.293,22.012-45.504C290.026,253.878,291.354,250.846,295.457,250.978z"/>
				<path fill-rule="evenodd" clip-rule="evenodd" fill="#FFFFFF" d="M302.044,267.752c0.612,7.136,1.814,14.333,1.641,21.477
					c-0.139,5.64-1.286,11.481-3.261,16.753c-2.121,5.641-7.227,8.722-13.742,10.481c0.557-1.363,0.861-2.261,1.279-3.081
					c6.412-12.49,8.999-25.954,10.32-39.781C298.727,269.149,298.741,269.157,302.044,267.752z"/>
				<path fill-rule="evenodd" clip-rule="evenodd" fill="#FFFFFF" d="M305.132,320.857c3.762-13.687,3.15-27.186,1.313-40.727
					c-0.201-1.425,0.711-2.996,1.1-4.471c0.418,0.027,0.848,0.076,1.266,0.118c2.184,7.337,4.8,14.556,6.481,21.983
					C317.685,308.312,313.888,316.623,305.132,320.857z"/>
			</g>
		</g>
		<g>
			<path fill-rule="evenodd" clip-rule="evenodd" fill="#FFFFFF" d="M404.472,233.723c0,0,12.441,0.035,17.394,9.194
				C424.967,248.655,425.871,227.068,404.472,233.723z"/>
			<path fill-rule="evenodd" clip-rule="evenodd" fill="#FFFFFF" d="M391.605,220.12c0.083,0.842-1.252,1.704-3.004,1.919
				c-1.78,0.223-3.297-0.278-3.388-1.133c-0.111-0.842,1.218-1.697,2.998-1.92C389.985,218.757,391.487,219.279,391.605,220.12z"/>
			<path fill-rule="evenodd" clip-rule="evenodd" fill="#FFFFFF" d="M416.941,223.987c-5.188-2.539-11.231-3.262-16.01-4.576
				c-3.081-1.773-5.418-3.964-8.109-4.555c-8.087-1.801-16.377-1.725-24.194,1.119c-21.977,7.984-37.201,22.784-44.239,45.436
				c-0.459,1.475-1.028,2.928-1.571,4.401c-0.792-0.34-1.085-0.417-1.301-0.584c-0.361-0.277-0.667-0.612-0.925-0.959
				c-10-13.917-12.984-29.328-9.709-46.061c1.593-8.158,3.687-16.26,4.548-24.508c1.434-13.582-3.24-24.612-15.945-31.003
				c-5.439-2.754-11.156-4.924-16.845-7.128c-28.549-11.002-55.943-24.077-79.52-44.079c-12.838-10.909-24.925-22.491-33.542-37.18
				c-3.519-6.012-7.003-12.018-10.731-18.44c-0.361,1.189-0.633,2.01-0.813,2.831c-3.915,19.598-0.494,37.659,10.557,54.472
				c11.913,18.124,28.292,31.22,46.624,41.93c20.454,11.969,42.729,19.369,65.922,24.098c12.783,2.573,16.698,8.95,14.626,21.636
				c-3.603,22.012-2.059,43.174,11.628,62.153c11.28,15.634,25.969,24.056,45.525,22.922c11.948-0.695,33.89-3.74,34.154-9.965
				c0.417-9.188,2.788-17.832,6.878-26.087c2.595-5.229,6.273-7.629,12.144-6.809c2.142,0.313,4.812,0.647,6.537-0.306
				c3.763-2.135,5.174,0.069,6.468,2.678c1.021,2.017,1.558,4.284,2.267,6.321C429.418,243.307,427.589,229.175,416.941,223.987z
				 M421.329,238.988c-3.657-3.033-6.759-3.38-10.535-0.751c-1.468,1.015-4.034,0.612-6.1,0.598
				c-7.073-0.173-11.906,2.845-15.572,9.055c-4.624,7.768-9.652,15.411-15.397,22.366c-13.116,15.857-30.355,12.686-42.847,4.604
				c-4.882-3.164-6.503-10.244-3.902-16.016c7.254-15.975,17.805-29.105,34.482-35.532c8.316-3.192,17.532-4.054,26.385-5.793
				c1.363-0.264,3.199,0,4.284,0.772c1.155,0.82,1.67,2.531,2.463,3.853c-1.211,0.675-2.338,1.794-3.617,1.962
				c-1.815,0.271-3.721-0.146-6.51-0.349c4.368,6.1,7.644,6.301,12.206,2.253c1.487-1.293,4.298-2.434,5.967-1.919
				c5.146,1.585,10.39,3.498,14.91,6.363C419.786,231.888,420.488,235.691,421.329,238.988z"/>
			<path fill-rule="evenodd" clip-rule="evenodd" fill="#FFFFFF" d="M362.202,219.299c0,0-3.652,0.056-11.601,0.779
				c-7.922,0.723,15.021-9.736,23.026-4.36C381.646,221.094,362.202,219.299,362.202,219.299z"/>
		</g>
	</g>
	<g>
		<g>
			<path fill="#FFFFFF" d="M208.226,240.908v8.123c3.088-3.005,6.266-3.721,8.54-3.721h9.771c2.496,0,4.514,2.031,4.514,4.514v3.763
				c12.518-3.339,24.216-9.09,35.322-16.427c7.331-4.841,14.577-10.23,23.792-11.33c-2.037-5.299-5.028-6.572-11.489-4.778
				c-6.85,1.892-13.604,4.097-20.48,5.884c-10.189,2.657-20.335,5.592-30.67,7.469c-7.107,1.272-14.215,2.17-21.455,2.671
				C207.356,237.868,208.226,239.287,208.226,240.908z"/>
			<path fill="#FFFFFF" d="M279.886,233.056c-6.335,4.11-12.566,8.38-18.979,12.344c-9.674,6.037-19.452,11.858-29.891,16.281v4.082
				c0,0.892-0.271,1.732-0.703,2.435c0.494,0.724,0.793,1.606,0.793,2.546v4.777c0,1.301-0.549,2.435-1.412,3.262
				c4.59-0.535,9.194-1.996,13.875-4.431c12.185-6.342,21.796-15.703,30.962-25.662c5.265-5.717,10.919-11.086,16.405-16.601
				C288.448,229.564,285.095,229.634,279.886,233.056z"/>
		</g>
	</g>
	<g>
		<g>
			<path fill="#FFFFFF" d="M142.192,275.382h-14.369c-2.211,0-4.354-0.585-6.412-1.781c-2.218-1.272-3.909-3.317-5.077-6.105
				c-1.168-2.795-1.746-5.855-1.746-9.201c0-3.324,0.563-6.329,1.684-9.02c1.238-2.907,2.942-5.056,5.139-6.405
				c1.217-0.724,2.365-1.225,3.484-1.538c1.106-0.278,2.378-0.424,3.804-0.424h13.311v6.162h-12.296
				c-1.091,0-2.017,0.167-2.761,0.508c-0.744,0.333-1.481,0.938-2.218,1.822c-0.724,0.876-1.238,1.71-1.502,2.538
				c-0.285,0.813-0.431,1.843-0.431,3.081h19.39v6.155h-19.39c0,1.12,0.139,2.101,0.375,2.936c0.264,0.842,0.709,1.703,1.384,2.587
				c0.668,0.89,1.349,1.578,2.08,2.031c0.709,0.451,1.564,0.688,2.56,0.688h12.991V275.382z"/>
			<path fill="#FFFFFF" d="M167.083,275.382h-15.746c-1.787,0-3.303-0.688-4.527-2.087c-1.266-1.397-1.892-3.157-1.892-5.285
				c0-2.232,0.577-4.083,1.71-5.536c1.141-1.453,2.56-2.184,4.257-2.184h10.181v-1.391c0-0.425-0.055-0.786-0.188-1.099
				c-0.146-0.313-0.327-0.688-0.605-1.1c-0.397-0.549-0.814-0.89-1.231-1.029c-0.41-0.139-1.009-0.215-1.76-0.215h-10.876v-5.633
				h9.361h1.808c2.038,0,3.575,0.223,4.576,0.633c1.016,0.396,1.892,1.022,2.615,1.836c0.938,1.091,1.537,2.267,1.863,3.547
				c0.299,1.273,0.453,2.927,0.453,4.924V275.382z M161.066,270.158v-4.993h-7.42c-0.696,0-1.301,0.229-1.794,0.716
				c-0.487,0.48-0.738,1.093-0.738,1.871c0,0.688,0.244,1.272,0.717,1.719c0.479,0.466,1.029,0.688,1.648,0.688H161.066z"/>
			<g>
				<path fill="#FFFFFF" d="M194.804,237.089c-7.289,0.07-14.737-0.278-22.401-1.099c3.763,3.429,6.6,6.239,9.667,8.763
					c2.059,1.718,4.208,3.283,6.426,4.66h4.757v-8.923C193.252,239.148,193.872,237.917,194.804,237.089z"/>
				<path fill="#FFFFFF" d="M188.496,249.823h-8.311c-2.795,0-5.125,1.273-6.975,3.776c-1.836,2.532-2.74,5.501-2.74,8.95
					c0,3.388,0.834,6.343,2.524,8.882c1.801,2.685,4.027,4.033,6.726,4.033h7.636v1.196c0,0.3-0.139,0.668-0.417,1.092
					c-0.292,0.417-0.557,0.717-0.758,0.876c-0.334,0.307-0.654,0.487-0.932,0.563c-0.292,0.084-0.661,0.146-1.148,0.146
					c-0.167,0-0.438,0-0.807,0h-10.605v5.418h12.567c1.425,0,2.615-0.195,3.575-0.57c0.959-0.383,1.857-1.113,2.691-2.164
					c0.862-1.077,1.405-2.148,1.662-3.24c0.244-1.092,0.376-2.518,0.376-4.242v-24.717h-0.306 M182.772,269.901
					c-1.885,0-3.317-0.786-4.298-2.316c-0.772-1.217-1.148-2.649-1.148-4.34c0-2.197,0.417-4.013,1.259-5.444
					c0.849-1.433,2.052-2.143,3.582-2.143h5.188l0.042,14.243H182.772z"/>
			</g>
			<path fill="#FFFFFF" d="M203.712,275.382h-5.939v-34.474h5.939V275.382z"/>
			<path fill="#FFFFFF" d="M226.586,275.521H216.3c-2.49,0-4.673-1.259-6.502-3.763c-1.843-2.523-2.761-5.432-2.761-8.7
				c0-3.589,1.008-6.69,3.012-9.312c2.017-2.615,4.249-3.922,6.718-3.922h9.771v5.3h-7.149c-0.904,0-1.676,0.076-2.309,0.257
				c-0.633,0.167-1.217,0.536-1.746,1.064c-0.98,0.973-1.481,2.322-1.481,3.978h12.658v5.341h-12.658
				c0,0.793,0.091,1.439,0.243,1.989c0.146,0.55,0.48,1.093,0.967,1.635c0.459,0.55,1.036,0.896,1.697,1.084
				c0.66,0.188,1.481,0.272,2.434,0.272h7.393V275.521z"/>
		</g>
	</g>
	<g>
		<g>
			<path fill="#FFFFFF" d="M153.125,421.672h-12.212c-2.97,0-5.563-1.433-7.741-4.312c-2.177-2.887-3.275-6.218-3.275-9.973
				c0-4.104,1.196-7.65,3.582-10.647c2.385-3.005,5.042-4.493,7.998-4.493h11.614v6.051h-8.533c-1.057,0-1.975,0.104-2.733,0.32
				c-0.73,0.194-1.433,0.598-2.073,1.21c-1.168,1.119-1.746,2.636-1.746,4.556h15.022v6.112h-15.022c0,0.912,0.09,1.655,0.278,2.274
				c0.181,0.633,0.549,1.245,1.134,1.871c0.563,0.618,1.238,1.043,2.03,1.237c0.779,0.216,1.746,0.313,2.893,0.313h8.784V421.672z"
				/>
			<path fill="#FFFFFF" d="M175.852,398.916l-0.048,7.741h-18.02v-7.741H175.852z"/>
			<path fill="#FFFFFF" d="M207.69,406.588c0,3.964-0.932,7.364-2.802,10.23c-2.038,3.122-4.646,4.687-7.845,4.687h-16.273v-39.467
				h7.038v10.209h9.347c3.095,0,5.654,1.488,7.685,4.473C206.751,399.508,207.69,402.79,207.69,406.588z M200.381,406.873
				c0-2.212-0.578-4.188-1.739-5.912c-1.168-1.703-2.636-2.56-4.437-2.56h-6.398v16.782h6.739c1.746,0,3.143-0.842,4.208-2.504
				C199.846,410.983,200.381,409.063,200.381,406.873z"/>
			<path fill="#FFFFFF" d="M235.877,421.505h-13.325c-2.434,0-4.145-0.139-5.146-0.396c-1.669-0.466-3.004-1.434-3.999-2.942
				c-1.147-1.731-1.718-3.714-1.718-5.925v-19.995h6.968v19.369c0,0.952,0.369,1.746,1.106,2.427
				c0.737,0.668,1.509,1.022,2.337,1.022h6.815v-22.818h6.961V421.505z"/>
			<path fill="#FFFFFF" d="M265.017,412.575c0,2.49-0.702,4.618-2.127,6.385c-1.426,1.76-3.207,2.643-5.383,2.643h-17.172v-5.307
				h14.077c1.001,0,1.843-0.271,2.518-0.82c0.696-0.57,1.029-1.377,1.029-2.448c0-2.448-1.453-3.672-4.381-3.672h-7.205
				c-1.53,0-2.997-0.835-4.451-2.482c-1.425-1.655-2.142-3.45-2.142-5.362c0-2.705,0.535-4.896,1.606-6.544
				c1.238-1.886,3.053-2.83,5.452-2.83h16.524v5.549h-14.709c-0.57,0-1.064,0.3-1.481,0.933c-0.411,0.604-0.64,1.308-0.64,2.1
				c0,0.869,0.292,1.613,0.834,2.239c0.563,0.619,1.21,0.933,1.989,0.933h7.747c2.441,0,4.361,0.813,5.787,2.448
				C264.314,407.985,265.017,410.058,265.017,412.575z"/>
			<path fill="#FFFFFF" d="M275.943,388.979h-6.92v-6.94h6.92V388.979z M275.943,421.505h-6.92v-29.258h6.92V421.505z"/>
			<path fill="#FFFFFF" d="M305.229,421.505h-6.969v-19.264c0-0.493-0.09-0.918-0.307-1.329c-0.194-0.375-0.472-0.778-0.841-1.154
				c-0.668-0.632-1.433-0.952-2.296-0.952h-6.814v22.699h-6.948v-29.258h13.312c2.356,0,4.082,0.14,5.146,0.46
				c1.668,0.451,2.997,1.438,4.006,2.989c1.127,1.795,1.711,3.776,1.711,5.933V421.505z"/>
			<path fill="#FFFFFF" d="M332.554,421.672h-12.205c-2.991,0-5.558-1.433-7.748-4.312c-2.189-2.887-3.275-6.218-3.275-9.973
				c0-4.104,1.196-7.65,3.574-10.647c2.393-3.005,5.05-4.493,7.991-4.493h11.615v6.051H324c-1.085,0-1.982,0.104-2.741,0.32
				c-0.751,0.194-1.453,0.598-2.072,1.21c-1.161,1.119-1.76,2.636-1.76,4.556h15.03v6.112h-15.03c0,0.912,0.092,1.655,0.293,2.274
				c0.181,0.633,0.55,1.245,1.127,1.871c0.563,0.618,1.245,1.043,2.037,1.237c0.786,0.216,1.738,0.313,2.872,0.313h8.798V421.672z"
				/>
			<path fill="#FFFFFF" d="M361.583,412.575c0,2.49-0.695,4.618-2.115,6.385c-1.418,1.76-3.212,2.643-5.383,2.643h-17.177v-5.307
				h14.089c0.995,0,1.836-0.271,2.504-0.82c0.688-0.57,1.029-1.377,1.029-2.448c0-2.448-1.46-3.672-4.396-3.672h-7.177
				c-1.551,0-3.019-0.835-4.438-2.482c-1.453-1.655-2.148-3.45-2.148-5.362c0-2.705,0.521-4.896,1.593-6.544
				c1.23-1.886,3.046-2.83,5.452-2.83h16.531v5.549h-14.73c-0.569,0-1.063,0.3-1.474,0.933c-0.41,0.604-0.619,1.308-0.619,2.1
				c0,0.869,0.271,1.613,0.82,2.239c0.549,0.619,1.203,0.933,1.975,0.933h7.762c2.448,0,4.368,0.813,5.786,2.448
				C360.888,407.985,361.583,410.058,361.583,412.575z"/>
			<path fill="#FFFFFF" d="M389.728,412.575c0,2.49-0.709,4.618-2.135,6.385c-1.411,1.76-3.199,2.643-5.369,2.643h-17.185v-5.307
				h14.09c0.994,0,1.822-0.271,2.518-0.82c0.682-0.57,1.015-1.377,1.015-2.448c0-2.448-1.46-3.672-4.38-3.672h-7.192
				c-1.543,0-3.011-0.835-4.45-2.482c-1.426-1.655-2.136-3.45-2.136-5.362c0-2.705,0.529-4.896,1.587-6.544
				c1.244-1.886,3.052-2.83,5.459-2.83h16.531v5.549h-14.724c-0.577,0-1.064,0.3-1.48,0.933c-0.411,0.604-0.612,1.308-0.612,2.1
				c0,0.869,0.271,1.613,0.827,2.239c0.536,0.619,1.203,0.933,1.961,0.933h7.769c2.435,0,4.361,0.813,5.772,2.448
				C389.019,407.985,389.728,410.058,389.728,412.575z"/>
		</g>
	</g>
</g>
</svg>
