<?xml version="1.0" encoding="utf-8"?>
<!-- Generator: Adobe Illustrator 16.0.0, SVG Export Plug-In . SVG Version: 6.00 Build 0)  -->
<!DOCTYPE svg PUBLIC "-//W3C//DTD SVG 1.1//EN" "http://www.w3.org/Graphics/SVG/1.1/DTD/svg11.dtd">
<svg version="1.1" id="Layer_1" xmlns="http://www.w3.org/2000/svg" xmlns:xlink="http://www.w3.org/1999/xlink" x="0px" y="0px"
	 width="512px" height="512px" viewBox="0 0 512 512" enable-background="new 0 0 512 512" xml:space="preserve">
<g>
	<g>
		<g>
			
				<linearGradient id="SVGID_1_" gradientUnits="userSpaceOnUse" x1="150.561" y1="272.7705" x2="466.6345" y2="-43.3029" gradientTransform="matrix(1 0 0 -1 -50 373)">
				<stop  offset="0" style="stop-color:#877EFF"/>
				<stop  offset="0.505" style="stop-color:#0087FF"/>
				<stop  offset="1" style="stop-color:#9635EE"/>
			</linearGradient>
			<path fill="url(#SVGID_1_)" d="M481.194,255.867c0,124.255-100.733,225.002-224.999,225.002
				c-124.268,0-225.002-100.747-225.002-225.002c0-124.268,100.734-225.001,225.002-225.001
				C380.461,30.866,481.194,131.6,481.194,255.867z"/>
			
				<linearGradient id="SVGID_2_" gradientUnits="userSpaceOnUse" x1="200.2471" y1="300.6436" x2="412.1458" y2="-66.3757" gradientTransform="matrix(1 0 0 -1 -50 373)">
				<stop  offset="0" style="stop-color:#00A9FF"/>
				<stop  offset="0.5151" style="stop-color:#0087FF"/>
				<stop  offset="1" style="stop-color:#9635EE"/>
			</linearGradient>
			<circle fill="url(#SVGID_2_)" cx="256.196" cy="255.867" r="211.863"/>
		</g>
	</g>
	<g>
		<path fill="#FFFFFF" d="M330.179,292.249c-0.946-1.21-1.655-2.306-2.549-3.209c-5.893-5.948-11.81-11.864-17.757-17.745
			c-0.91-0.904-1.234-1.662-0.868-3.02c8.674-32.298-12.298-64.792-45.294-70.257c-31.32-5.196-60.938,16.84-64.976,48.337
			c-4.053,31.651,19.007,60.379,50.758,63.277c9.083,0.831,17.831-0.489,26.308-3.813c0.654-0.258,1.864-0.172,2.317,0.27
			c6.612,6.491,13.147,13.068,19.694,19.633c0.176,0.178,0.293,0.403,0.629,0.874c-2.562,1.353-4.977,2.813-7.537,3.931
			c-3.473,1.529-7.028,2.854-10.6,4.133c-1.088,0.392-1.516,0.941-1.662,2.029c-0.765,5.867-1.606,11.729-2.384,17.604
			c-0.739,5.611-3.411,8.08-9.041,8.238c-6.177,0.179-12.356,0.354-18.533,0.49c-5.291,0.109-8.16-2.226-9.19-7.402
			c-1.152-5.813-2.316-11.613-3.414-17.428c-0.208-1.105-0.667-1.612-1.791-1.883c-6.599-1.576-12.946-3.875-18.931-7.091
			c-1.106-0.586-1.794-0.452-2.723,0.265c-4.894,3.771-9.826,7.494-14.765,11.209c-3.686,2.775-7.466,2.61-10.832-0.52
			c-4.761-4.426-9.492-8.888-14.208-13.361c-3.103-2.945-3.512-6.98-1.058-10.697c3.301-4.993,6.626-9.976,10.034-14.896
			c0.855-1.241,0.911-2.146,0.101-3.44c-3.493-5.594-6.21-11.564-8.132-17.873c-0.389-1.277-0.975-1.853-2.356-2.029
			c-6.192-0.782-12.369-1.688-18.549-2.585c-4.113-0.595-6.98-3.724-7.13-7.873c-0.238-6.755-0.422-13.515-0.565-20.27
			c-0.089-4.248,2.494-7.292,6.745-8.142c5.932-1.18,11.858-2.402,17.803-3.515c1.271-0.239,1.821-0.783,2.115-2.029
			c1.583-6.736,3.979-13.185,7.244-19.285c0.577-1.076,0.306-1.73-0.339-2.573c-3.649-4.744-7.265-9.511-10.877-14.291
			c-3.301-4.365-3.093-7.885,0.672-11.883c4.193-4.462,8.38-8.912,12.58-13.362c3.454-3.655,7.458-4.144,11.62-1.387
			c4.884,3.233,9.768,6.467,14.59,9.786c1.208,0.831,2.069,0.855,3.444,0.195c5.908-2.824,11.898-5.483,17.916-8.068
			c1.061-0.464,1.476-0.959,1.623-2.042c0.829-6.119,1.712-12.237,2.586-18.35c0.651-4.548,3.31-7.225,7.946-7.458
			c7.005-0.354,14.025-0.544,21.039-0.629c3.717-0.043,6.577,2.377,7.396,6.149c1.355,6.229,2.584,12.476,3.771,18.735
			c0.226,1.21,0.715,1.73,1.89,1.999c6.687,1.528,13.056,3.948,19.088,7.2c1.242,0.667,2.023,0.501,3.063-0.299
			c4.849-3.729,9.731-7.415,14.646-11.051c3.691-2.738,7.507-2.458,10.838,0.69c4.541,4.285,9.089,8.563,13.624,12.861
			c3.717,3.527,4.12,7.06,1.271,11.375c-3.294,4.988-6.595,9.988-9.969,14.927c-0.729,1.063-0.776,1.833-0.092,2.934
			c3.588,5.77,6.313,11.944,8.301,18.435c0.422,1.375,1.088,1.901,2.519,2.078c5.818,0.697,11.613,1.534,17.42,2.335
			c5.185,0.709,7.739,3.545,7.903,8.753c0.189,5.99,0.386,11.968,0.545,17.958c0.146,5.697-2.079,8.423-7.641,9.522
			c-5.746,1.138-11.479,2.335-17.237,3.423c-1.198,0.221-1.633,0.782-2.018,1.896c-1.943,5.587-4.011,11.118-6.053,16.663
			C331.028,291.039,330.771,291.326,330.179,292.249z"/>
		<path fill="#FFFFFF" d="M227.602,250.292c5.422,3.423,10.382,6.517,15.306,9.67c4.306,2.763,8.665,2.695,12.433-0.722
			c4.64-4.211,7.901-9.23,7.112-15.893c-0.366-3.093-2.021-5.464-4.71-7.164c-4.719-2.989-9.373-6.088-14.34-9.328
			c0.682-0.636,1.085-1.21,1.642-1.492c13.783-6.858,31.975-2.836,40.184,10.367c3.301,5.312,4.272,11.198,2.758,17.097
			c-1.858,7.243,0.342,12.378,5.58,17.524c23.521,23.094,46.719,46.517,70.03,69.816c2.5,2.506,5.063,4.957,7.482,7.53
			c4.119,4.377,4.976,10.294,2.341,15.354c-2.573,4.938-7.781,7.592-13.57,6.883c-2.994-0.367-5.477-1.785-7.585-3.889
			c-15.208-15.207-30.403-30.415-45.61-45.611c-11.518-11.516-23.014-23.057-34.573-34.528c-3.508-3.484-7.579-4.627-12.542-3.111
			c-8.852,2.702-16.544,0.037-23.084-6.106c-6.653-6.252-9.48-14.235-9.707-23.22C226.725,252.53,227.241,251.576,227.602,250.292z
			 M368.785,356.87c-0.006-3.826-3.203-6.992-7.041-6.979c-3.845,0.012-7.012,3.189-6.999,7.028c0.013,3.882,3.104,7.028,6.95,7.079
			C365.595,364.053,368.792,360.831,368.785,356.87z"/>
	</g>
</g>
</svg>
